<mxfile host="Electron" modified="2024-11-20T06:52:06.249Z" agent="Mozilla/5.0 (Windows NT 10.0; Win64; x64) AppleWebKit/537.36 (KHTML, like Gecko) draw.io/23.1.5 Chrome/120.0.6099.109 Electron/28.1.0 Safari/537.36" etag="XxWGCNHrmvcjqiUBQejA" version="23.1.5" type="device">
  <diagram name="Page-1" id="fKTdNDRmL4GaaHPxJIbS">
    <mxGraphModel dx="1434" dy="836" grid="1" gridSize="10" guides="1" tooltips="1" connect="1" arrows="1" fold="1" page="1" pageScale="1" pageWidth="850" pageHeight="1100" math="0" shadow="0">
      <root>
        <mxCell id="0" />
        <mxCell id="1" parent="0" />
        <mxCell id="QlViP-bCRDP4DbnAVqdV-1" value="" style="shape=image;verticalLabelPosition=bottom;labelBackgroundColor=default;verticalAlign=top;aspect=fixed;imageAspect=0;image=data:image/png,iVBORw0KGgoAAAANSUhEUgAAAlUAAAFMCAYAAADiN0l8AAAAAXNSR0IArs4c6QAAAARnQU1BAACxjwv8YQUAAAAJcEhZcwAAEnQAABJ0Ad5mH3gAAABhaVRYdFNuaXBNZXRhZGF0YQAAAAAAeyJjbGlwUG9pbnRzIjpbeyJ4IjowLCJ5IjowfSx7IngiOjU5OCwieSI6MH0seyJ4Ijo1OTgsInkiOjMzM30seyJ4IjowLCJ5IjozMzN9XX2u3LibAAD/OElEQVR4Xuz9B6BmSVkmjj/fSV+63019O3dPzhEGhmEGhgwiqKAY0V3Y1TWg/lxZXdyf63/VFXF/6q45rmJCxIhKBokDDMwwDJPz9PR0vvl+8eT/81R9p+/tpmfQYdqZbuvprnvOd06dOhXfeuqt91TVSgIODg4ODg4ODg5fFbzx0cHBwcHBwcHB4auAI1UODg4ODg4ODk8CHKlycHBwcHBwcHgS4EiVg4ODg4ODg8OTAEeqHBwcHBwcHByeBDhS5eDg4ODg4ODwJMCRKgcHBwcHBweHJwGOVDk4ODg4ODg4PAlwpMrBwcHBwcHB4UmAI1UODg4ODg4ODk8CHKlycHBwcHBwcHgS4EiVg4ODg4ODg8OTAEeqHE55DAYDc0ySxBwdHByevkjT1BzzPD96PhwOzbHX65mjg8OpilpJjM8dHE4JSBCr2sZxjE6nY66JWNVqNURRBN/3zTUHB4enJ4qigOd5WFtbQ71eN216YmJifNfB4dSFI1UOpxxUZUWghKWlJczOzppzBweHUwPSTDWbTWRZhiAIzLV+v2/IVjVQcnA4FeFIlcMpiZWVFUxPT2NxcRGbNm3C6uqqEc6NRsOMgB0cHJ6eEHHSVH0Yhua3BkjSOrdaLdOOp6amzHUHh1MRjlQ5nJJYXl7GzMyMOT9y5Ai2bdtmRrgaAUtoOzg4PD2hgc9oNDI2VSJSGgTJlmrfvn3YuXPn2JeDw6kJR6ocTlkcPnwYW7duNeciVA899JDRWjlS5eDw9IVsHtXtyI5K9lQPP/wwrr76aiwsLIx9ODicunCkyuGUQzX1pykEGaZr6kCjX1XljTYaDg4OT0+o7YpUtdtt81tTgK4rcjgd4IxPHE45iFB1u11DqDSFIMg+Q0LaESoHh6c3pElW2xWhkk3kRrhlURxOdThNlcMpCZGpjUsnuJGug8OpA9d+HU5XOE2Vg4ODg4ODg8OTAEeqHBwcHBwcHByeBDhS5eDg4ODg4ODwJMCRKgcHBwcHBweHJwGOVDk4ODg4ODg4PAlwpMrBwcHBwcHB4UmAW1LB4ZTEyfokez2Ef+6q7B7s1s4bUWwI51+OjeFtDOdE16tYeseNj3S9uvLl8fvK6aw9wfFWuSG89bgdG15u7tgY5nSpuQpoJziVqPXvcDrDLangcLriiUlOB4fTGFpOVK7q+tfPrKv+CaX+sS8o9UA2dgZVKF/uiqPuy/+ZdxQMkE6dTM7w8/G/6peu6192nFv3sf62Y6A+64T9VpU2PWHT9dUgzWKGohQqO0qkzByzdRDzJk8zXs8xQkIyVWCNfu4cJvjonv0Y8Lw7Sp6EGDg4ODg8NXCkysHhBCjYNNb5x4mbSUVFDFeprTsLnXwlp3BP4Ma3czqFLXJS8aEa/+j2OqrnavD4cjndlw5AzvjVg1VE/xUgrYNgY0X6V+PLPb6cEar5nonKgH97CLDE83uSDF9cXMKhNEejEelRBwcHh1MSknsODg7HYUxTzD8da2Vgj+ZK1XA0zZchraVIvASxnyD1pZuRP/k/sfOOui//p5CzmoeYvKRSfCk8+8axK6tzn39r/MtQxVvkyMB88ZeyQE3aIbmvSKbWw7PHrw6eF5iYBYynn+vlyqWCJJF/GTxjRqLYgjYouT0BPrOwgtvW1rBayNe/GvdzcHBweNLx1UtQB4d/KxCZoROxOrbp2Ok4/bNTeE8cx5OKjVonKXseF5a/nEArpQt00hjRVXZP9mqVFpuuyj1xkBrWtP8iw+ALvKJkePadopva2W1AQrnG+/eSMX78kQXctLCK5WYLqNfpy8bNwcHB4VTEVyM9HRxOW6hrPyE/MbDEQ/9EevS3mmrTpGGBlH8f2+ExnJ6Tbsqnk9G2JsLkQkZAWigTGTmRI57IaumoHRVbcmnYFz37vG95kn1w7DQ1WVlN6bgRijuDeVKg8CtoulKaNEusgD5dj+4eEqpPHIzx2aU+9tYijDrT5v4oj/nXwcHB4dSEI1UODifAxoYhklDZSxmn3+aOYImVaIMlD1bXY2nKRvcvwfrbRUqOwYagZJ1UMxOEIiykVjW5dUpj46kv7CyJkmn8sXHfgOriCW/+y3E0GK/KDw8J3TLdw/x1w5E1ukXs95vIJzcj8epGixX6opMODg4OpyYcqXJwOA4bqVBFQjYSk/Xv9mwDMvZRpXV+EfG5wNpgbXQIv6Lz6RRWzrN07JIajzUPmUcK5XskTdaA3mqA7DIEoXkiZxiMoYgVr2mpAk3tWYN76zY294qbPfkCwE71KY8yP0fua/rPxnTA4zzPPrIyxGd6PTxIAjWcmIYfToAJNfEOmX4HBweHUxWOVDk4HIeKflhNkKhTZTKeGuIiAlM5ryRtofMLOT5j1FobXIWN107k9BydyFJQliQXJcO3Tqi8SFOmmNVKj++VE0GyFNCSPp1rYtKmQajspKwvkbH1+9W14zVxXw1sntmMKEgKNaE54tv0pd8huo8/ehAP8lo6O4u0ESHLMgSFqOhX/24HBweHpxKV3HVwcCBEMIqc1IS9u45p3Gf3n7PDT5EOV1DLevQTY7RyBEj6ZAEJPdIlWmWJtMYT+SIUkKA1pUi45MDwkKf0Tz9yGc+NG1mXDoF4iFpMCjKKEdB/UOaGYMnpS75klCJLchSpwlvXVRV0GSKr3UoYtpRWfEQ+yqzAqN9HOkrgy9BexuNjJ+5j1tmis6TsyYC0UwyQkMZMRumrPL+X2fRnt+zDvqiFpWYLfZLRLEsQ+kwfI2tpmIODg8OpC7eiusMpiZO9IvPi/AI6k21E9QDLC4fQjHw0JlpAr4t4dQ31qWm+lO8n+TFjk5DkRq9PyBzCugnjKHRdtk5V9MxKoTrag2E2FXQqUqS1noKAQTPsgGFHEVBv8Hr1ZR09yq9HfyFpHw8JA5TpeltTiCRevUEf9XodjaaNj+F5eueG1xnmRVRLHQjKVXv2L4eoUZyPEPghCR7QZcADz8ct5Jzv27OEW3jxgck6ulFI0ugjTHNMlBku6C/j567ciav4DHPZTQKe5nArqjucrnCkyuGUxMncpkaannqkbr1APhrgPX/71/ij3/1NPHznHdi9eQ7NskCz5qG/vII8TTE1M0OfJUZJjHajjigv7DpRDEzx8scMxeMFXWs3moa0VFN7um4n5+TfR0DiNEhSrA4HWGVc8lYTM7t3Y9cFF2LLzt145tXPxdzmbdiybQf8qQ4D0rpWjEEzYlghumsrmJ6cHYcO9BmvZtQUFWPaUjRJAA2XkjMnPOXr5QRrbv/EIFKVlmROjEfGN2rK7266f3h0Ff90uIelqTks10m4vBL1rIRPAtZg3M8breDnLznjKKlyS4Ce3nCkyuF0hSNVDqckTiapWl5exeTUBMo8QxiQigz7+PDf/i3e8Xu/jUfvuAvToYc2yY+XjBDwiTpJSqKtWUgOZjoTwEArMZEwME61MWEi7yGJElkpUWayxbK/ZUIeePQx9qd0NBotFJ6PId+/MBjiUC/DGv1nrQB+exKZR8Ln17Ft+y5cfe11eMHXvAznPeMKYGrSTic2GhiQDCbSAnVmMDZhR14UqHskXoobGZTlU+M8EymzZyYORhv2BGAM1HlclSaN8XyU5387P8DHF7t4OJzGPONdiK+yrJqMq5cPyb9ynD/s4m0XnYmrecuRqtMfjlQ5nK5wpMrhlMTJJFXV7JioSDEicZLWKivw6I2fwa/+zM/i7s9+FpN83+aJJup8YtRbIzEil2l6yOhP0RAv0cycqEnAo0iVuISITCPSauMkVPzh1zyjyTJHkSxeGw4SkFchjJoYMDJHekMc6ZPskRn16VemVK12m34DLK2ukjwBF112Eb7xW78ZL3z11yLYuQOYnmKgPu+lGOQFgoYmBfVlol1dS/+0pBUFgEmrmZ4k9OurIVVaFqHHHFzi8/rS74bVHO9+dD8eCEj0pragFzNaIUMn6QqLlK8dwgsLnDtYxS9ecLYhVU06R6pObzhS5XC6wpEqh1MSJ49UFej1e5hoT5jfaTpCqenABrv64RDZ3kfxjt/8Ddzwnvdgfu8+7JxuoO2TSKUJItmMk4/I1EoQN9EiCSJKIUmT0ViVBfJEXwyKSOm+JV+GWOkZujYJlShNKXskkrQ1MpUVEqdV3hSpSugx1+ru9KV1nephhDAMzfTdiIFd/pIX4qXf+Fpc/MIXG7usJM0QTUhjFWAQk7DVW4ZU2S8HqzwbkyqGYSnXEyNVsjA7zLC6fP4TI+A9e/bhNi/CfGMSSdEAWaghll6ZMi8y1HIegxwXklT98vln4dl8XqRKBNTh9IUjVQ6nKxypcjglcfKEssiFJRjDeISg3jAEIxkNMVhZwdymLYj3PIS/+r+/jw/85bsQLx3BVEQfSWyWU2hFJEoiJiIOPCqGIgiiKNWxEWg1KkuwRLTMOUmXKJ3PB0fDHHU+2Ah91JsTyIIQy0mKfcMeDvOeViQvpe3hI/rwUCZMImftVoB6q40h350yby577nPxjW94I854MclV2DBfAdYaLeaTrLkYuQp8p1bdqnJP8XmipErfQO5lSLfzXX9zcB439jMsTM+hDxIq3tRuNCOmu6xljHhOUqVdAHNc0l/F/77Q2lRJS+VI1ekNR6ocTlc4UuVwSuJkk6rRcIiIDEBfxI3yDJEfkSAVSAYDNKM60O3io3/xZ/iz3/p1LD76ALZPdVAnu4nXRpgkqwq0ZAF5iyFT1VQfoyeyEDHa5pxO5EtaKpErQc/MTLWRDEfIRxmJkweP70uCAMtZhsUswYFejpQBeQqHeRAy3XaNLGsIb1bXIhHTpswT27bhRa99Lb7h378BOPNcZIMhgqlZFF5g/K2DD/KK4BsqqF/2t9brWo+hXXy08qu/9knra5nuNrp33P0wPtEbYHXzNqxGZFJFnekVCwSyOgmVlp4oGCLTNMFIX9Jdwi9fdIbRVIkgrpesw+kIR6ocTlc8seGog8NpCpmLa5osbHZIIiy9aPv8bb5lk6ZFZtTEZAcvecMb8AP//SdxxmWXY6HbQ5yTEJARpFIVkTzIgF0aqEFcijsg0jICJENHiRQDlzNcwxMRClCGJE+DEWJ2MGWD9yJpdYYIiwFmSNbOmOhgG9/RZni1AV2So8w8ZEmJPCW5EvUpC7SDArNkWoNHHsEn3/lH+NDbfwd44HYEbZKpYZcdWG5WZaBXk8YiSZENZWDP53lNhu3aADkd/8vo1BEaV+Tox0P00765oyk/rUN1gO4BurfvWcLt7c2IZ3ZjlDGyGcNkgpXOXIxJidabaszXsS2Zph2rd7qu1cHB4VSFI1UODsdBnXrVsbOvp7M6HbtSODDIEuQaVddbuPobXosf+5n/iee+4pVYTlMsk2G0Z1poTbSxtppiMCqwbdsMWq0Ia2spSZU0RCIPhruY9aFEKPTl4PH79smP7gk+SVA9T9DIRpiJPEyTl9T5bI1MRI04iHx9bIdUhKrdwKCbwiNROpNxaQ77uOn978GH3/F2LN/4SXi1Efykh3y0hjwTJSIZjCI0SCQrkSB7q3XhoDMSH6Nn43lRol2vox1GiIsEA97TRskiVO9fGOJeUtBH/QZ6dLk0fD7JqUgj0yISZ9RxZFhaFb7GDBDJFHRYzwEHBweHUw/rctPBwcFAPEa6FEui5NTdj3t+otlooxaEJAhkNFEdZ77ghfjO/+eHcf1rvwn+3CQePDJATBLUmApNCxsNSGBSUSQSsiRHUvOMiz1tMkwiJI5B5/GZyoDb2BvxoozVS7ERRsPj+wLem2kFmG56aErrw2hlsk+qAzndiF4TXgsaPkmMh+7aAMlahnThCO6/4ZN47+/9BtZu/DjQP4xmPUXdH2GUDZAyqBHd4hr/kuUoLiHDqechgqIOP49sJOmkfRMREinyy8CQqn189jPDFB85dACHSP76acwwSUZDn07qOXoQlI1yIlY6mL/KJtlxOYHk4OBwasPJMAeH4/CVGoVoljRVKUlFb62PtDvA9quvxXf/+FvwDW/8brS2T+JAb4Qh/bSnWuiTbIySAo12DUlW8llpoUSotPmN9sZTeIbLHHVShJWFz+t2qgwkL2Z9qSJDo5aTVIWYbng8520GUGQZyHUMS+nx3WG9DT+oa8kso82aazTR6K3g0K2fw3t+91dw/z+8EzjyELnNAM3Akkf9bU00zLl5SAemUQb4ipMgXlXzPeR5gTTjM37DLPB506jADcsreKTRQNdjmhiXImCM6ddoqCrGJBWYYVV2z0TZ0myEpVYODg4OpyYcqXJwOA6WYqjrt383ovoVx6RDUYSJmTnkUZtsIEDz3Avxuv/nzfiet/y/2HHpJdjfzbAcJ/BJgIKIXkgg6mG1TbN1ec1um6w3iVgZysE/IjHm7SQ1OQmV/JrrvBhkOcjPMBs1MUniEo3VTDUeI17XV4cDsqmM75va1EST0Vue7yJfXMRF05MY3HMbPvuuP8bN7/y/wCP38sV9RPkIHnkUo2dforcfz2/4226HQ+IW1LASRjjI89v43hsOLeCOQY61zjTSVhO1eohC2+eIXEFLgipMQpETkaKzhMoSq4pcjX05ODg4nJJwpMrB4QQQuVEHb0jOBifESYxGQ8t+kmTQ1SemSB5CJGIckzO49lu/C9/5//wYLnvBdZgfZZjvp8j8GtKC1EJ8QoZFRUmSJEdiZZwlLJmODFPvNtohkSq+KSOjMRotOZKYgGF1vADTYR1ttmKfTMej03IOk80Gn83RGw6Q6F1BgJQPJoMCwXCE3c0mvEP7cNcH3ocb/vTt6N78WQY6REMTdoMhn2W8GI7svSqbLxEqj9e1IKo4XIwQh/nrprjApw4u4d5BimWvQW4XoNSCXYFPnknCKBJV5R7Dkt3XOmnT0cK8w8HBweEUhyNVDg7HQRRA3X3O5nF0ixdzza7n1IgCY3OVJxl6az3yowKep1UtAwxH9NmZw0Vf9zq84c0/geu+4TUINs1ghSRKJuFpXhjSIsPzKM8R5KRLIlh8V1qTI3kSoaFfQ7r4Zn2pl3kFYrbWlC8W+SqyHH6RYyqMMFVvoMl74iiaquNNNOqaOgQWuzG6fEcwaZ89vLAMDBPMFAGCw0dwz/vei8+84+1IP/9JYLCAaKRFETL+0/RkgcTLSHhE6RKGHTPeBYb0sUh3B93Hl1ZxU7ePI2ETNbN0gq/F55kG5pWIktFM8Sinw/goVBoqESrlufK4ynsHBweHUxGOVDk4PA7s+kvWZF0dviC7n3g0MJsuT01OmKm2/qAPPwjRaJG9hCJYEXa/4CX4T2/5SVz50pehH0RY47O5pv9IImQfVSMpMl/Z0VmNFQkJiZkM10WcjA0VCZXeLG1Vytaa0GnvvKxgrPIUDb9EpxGgrn1yFD7D6fdJijISq0YNjQkSNd5a6AE9BjUxOYXQj9AsPeyot7CVYTz6mU/iA7/zf9D/yN8BPilTFiMwujG9m072VSb1vML4afHRR+hujQvcmaTYz7T16014UWS+bizTFCUJo4FYlFYpJcniK8dEi2HxaPKUR2mzzHX9tgcHBweHUxJWEjs4OBxFtZyAyJMmvKyzmhS77nhBwqJ1v41aCJ12CxMtkgr+EoympalFpgJE51+E7/6pn8XX/of/hGF7AitkFilJhrRIEQmIn+Xor5Ey5QWiZhNJUSJottEbMRwRJ761t5YZbVV9chqrMeNB8pby+SKPEfkZ2iRPzZZntscZMWApzTySrCwrkZD4lEoPidiACdi/vIqhIljzEPHdM7y3NR1h9bab8dm//L/Y9xd/AHQXUVtbRtpftOtzkfDEUj+RLC5nNSzw8S8sjnDDwwfwUFJiNNHBiIQqTpmOVFo7rTzlo9RCWEyPyRGjlVLGENLURSSQ3TV0puoYDvtIScSUf5ridHBwcDhV4UiVg8MGqN8XqdKK534pamAbiXbus0RLEFEYk4UNzuqzeEckhKdlg+wmagJbtuObf/jN+P7//j8RbT2DxMRD4jew3MuQk2mcccaceWb//jWzvtXKcGi0UdLshKGH9iTDIyFaHsRozm5G5rfJ15ogJ8KgP0CW9tGMSrT5Ki0qKmKSikkRWrXdL0hoeBQvGvGoBUY1PZeMYvhpjGnGezIdYvDA3bjrw/+Aj//SW0GmhwltJD1YNYt9pvUmDjPsVXLJG1eBe5hATfn1Gk0MzOrszAHeD0jm9K7KrUNf+41Pcy22QLQahmhFJGT1et0YwB81aHdwcHA4BeFIlYPDRqjjFyFg3y77JEOu2EzY99Md31zGnsdOfw154N/BoGfIjabLchIgbN6NZ3/T6/H6H30L5i59JlbDBvokN8MgxN75BcPktmyJsLC8alZTDzsNJHz/wnLBMBiD5gSWBsAjh3s4sJRiWDTgN9oIGEbIZycjH7MkQRMh38mIJGJkec2QqjAr4TMyIjlxSr5EUjNiAlMvJxEq0G6E2NTwEA5G6D9wLw5+/EO4/w9/G/jSzUx7Dt/zzdSlpvxuoPvg0hK+ECckVRGSsE5CyHdJK+WRvEmBR+hd3lHVFHH8OT1EJFLDYWYWB200Gia/lNcODg4OpyqcBHNwOB7S8vC//hhyYMiV1VRt1FdVkFc5ejN/0yzG5EQLBcPJ6BKE6A4SIGrhmd/+7/D9P/XTmL7wUsyTQiTtDoYMck1f7wW+2ebGDwLzFWDC12QkKSulj4U8RDy5HY0zLkU2fRYWvRnsiyMcHPE+PQ5TkroRCQrDMUb0ZFay0zIb7YjvMLwiZ5gkVd3RwKwh5TUipGWOJBnZrwbr5H4kZzvLBDf91Z/hn3771zH8wuf54NCk+lG6j+2dx93JgOcF1kiGMs0rVl/4MbPMbB9RLZFgMCZRInA1ZSjJn6YGZfbfW+uauNX9wKzXLufg4OBwqsJtqOxwSuKkbqgsVY+CkgZmAzfQFJ0gYiBCYD3picqTqAcw7PUwMTEBfT3Y7fV53jY+8lGKSOwlS7H0hS/g3W//PXz+Qx9AI+5hUzOAPxryVgYtFhWPCmxpt1CfmMGe1SHWwg4uvv6VeO4LvwZL+w/j8MMP48ADX0K8tA9Btmq2nQlGMaNe4GCaYCDbLL4z8nx4MhpnVJVbAV9/xjYP26bbaNUy5N2h0WY1eFPZqTzNUuZlo4O9SYLmpc/A8970n5Fc9Tz8xaEVfHBY4F7G6WDE9HlkfH5dQsSkz2ZZab9AJLSiu4zQS22ezKzx8nF58bEiiRFp/S3mz7Z2G5cwD35q5zSewdtaftSRq9MbbkNlh9MVjlQ5nJI4qaRKX9yZoESSLFHiG8zfkoTKkiqhsgCq/Nhj9UtLLaRJjnpd+8lY9LpddBrj/WUO7sOf/9qv4IZ3/w2wMo9Z30OYZ2YmTbZU9aiDpdTDYn0GZ137Ejzz1d+G7edehqSfIF5bw3BhLxb23I1Hb/8M5u+5Fe21Fcy069i/toBekhobJ18rmjNATWPW9Zv8ZvccsGOGpMpnOuORWY6hHjAvc6Yn0xY1NQQkOn3G/0DpI7j8KhTXvAh37r4Q99HdPrMde+sdDMSOaiSDzHtNkGqRT5VLYDZMZgp51OKf0HuY3lrB67UCpc8EplrAtI5GVmCSxGvLow/jt55xLi5kPLVK/HrJOpyOcKTK4XRFJf8dHBwIiXUZcWdeicIjARAJoMCvoP34bLORqyasqt8WohDdwRAZiU0jCpFpEc5+j4HnaHXayMMIvdEQ2LkLr/8fP43X/9APorFlO9ayDJOzs2bPvYlGC2vDAkdiH1ufcS0u/fpvR3H+5fjcoMBNRRN7t52H+KoXo/GCV6Nz/avQvPI6pJvPwGKiqTQPEcNQH6W1qQY1D4NAXx2y41L86KeI2akVJG5BgLDegB9EqPkkSVq4k3E8vNzDZFjgrEaBwU2fxOH3/DX8mz+Hzn33YW5pFTPDDE0SKWNnRvamDlEze3y10VbZKcFjoY5Tjn/gSWXG/IhI5pYXl/DgvfdZTZoetd4dHBwcTjk4+eXgcBxEPOSkhbJTfuXRqb/jsbEB6VxOSxm0Wk3zRVtZZggbEeptfekmbU6B/miAZmcamQyQghDP/74fxJt//n9h00VX4I6DS0jrEZbiEkfKELOXXY1Lv+ab4O26EPuSEMnUNiQzm7GvDHDXIMcif5/1kq/Hdd/1A9h+/Sux3J7DqD5h1qbS/nvVSuwFEyDNkdKU80KNRMusKcU4DeMR1npDDIdanrTEKgng1EyEbDTC8HAfF021cX4Ro/jcpxDc+Amce+BBnLN0ADuH9JcmCHItUMoMIpmqeRv2+iMh1VpbJjMJkdSCzEv7K0eMiTeKEfaHiPc8ioU77zWkSqTMwcHB4VSFE2EODsdBJtP6JyNv6WKshoU31FpO0GI2Xpa3hm+/ujPEjCQjI4GRfZV+a1vkyUYLKQlLEEZAs2k87vra1+B73vqLOPdlr8J8YxJfWuqjPP9KPP8//jCaF16NA6MA9YlZ5Ild0yoIawjbTXQZ9p5hjrXZ3Zh+/tfirK//dhzpbMNS1ELshajz2PRD+Lmm30qzXtVIJk71AIM8NV8a1hQPJkArKBRkXNqfMMsysx1Nu80/vREahxdwydo8dt39Gfj/+Hs4976P48LVR3AOYkzwYRE1bYeTyU4ri+E1PbTpPN3gC2taREsbE9ZipGtLmOHLOnGCfZ/+PIYf/TQu4H1NTUrLZ6dUHRwcHE49nKCLcHD4twtrHXSsOxGMIuYEzlKCdWeIFcMQqbKLLYiwaPFQmWOLT/FeUCchqWPndS/CD//8L+LCF78Km599PbY/98UYzu3CWjiJYGorur0EtZJxKhlumSPj00mN5MhvY9jahPCsS7D16pfgrOe/Eth0JoZehMXVLvI0RSPw0e/n5utCrdYuJ22ScYyDjtrnTzGU/RV/mrjLJkp2ZPUixpbRKi5YPYzz9tyO2c//E4LPfghT++7Fdi9Bk+QqTwZA6MObbCPtD7G2uGbsuRqturG7wnCIWpJgx9Qskv1HcPCLd6O4fy+85S52kfy1SOr0TgcHB4dTFSfuMRwcHJ44aiRUcjqls1TKEgZd1ZIJQpJkGA2G8KTF0V0+0znvYrzxf/wiXv0D/w3XfuO/QzB3JnqFj1q9hhH9R5EP7UgjkiLD77IIEcc+VoY1DIsJRPR/wXVfg7OufgGGwYRZPb0WBmbFchEqbays6bmCz5djGqj3mik7nfNPoPWt5I8/ZZM1DLX3YIJGlmIr43vWgUPYdfcdaHzuI2je8UlsGTyCOb+LZjFCQ0TSrL7Ol0004bUiaC9DpBmmahHOCKfQ2N/F8s0PoLztAeDAEtp81xlzm9HS63O7srqDg4PDqQgnvxwcnkSImFgnylJYOyG6MX0x90RWskJbNWv2r41a0EDpayHNBgZeDcmmLYjOuRKjia1m9fW1pMAoJU+pB2YbPWmpNAWoRaG8WojSq6M3KrEwzLCURQh2nI8LX/gqtHafB296DgXD7ifA5OwkukOrpSoQGCK1EVrdXc7YR41jLGN32WbJRks7EDbyGNtJ0M6OR9h0eD/KB+8CFg9iwtdG0xHywkNJ4hU1AjQnQ75DXxRm6PgBJhlIeLiHhz7xBRRfehBY0R6DodkQ+owd23mu9ymHHBwcHE5NOFLl4PAkg5SHpEXUyVIo0RM1NF2xV7X4QImQJESUaxhnGNCrzMSX6PFDdzyKR0hA9nRjpFELjclJJHmJejPCWn/FEJW8tJsmi2S1JgJEEy2UzSbS9iRW63MId1+KS1/4SpKqrTjUHxgbp5EMyhkZE4eaWNKxzb8iVSJRMmyvZTX4uZZkCEmqQozIehKfxCokGcxTTDFOM4jg84E4CdBHC6nPm1EdSZJi2BuiSGNMBAEaSYm1+/bigY9+HrhzLzDfQ1SLEBUF6qGPnTu3mzh4SpCDg4PDKQonwRwcTgKO0beMf9jGJkqjLwRJigr7VWHMP/0MODAocPM9h9D16gimt6CImvAaHsmUnsqNykt2VDV9IucFSEmShklu9vQrSXhyv4YkCtGN2jiQBrjsBV+L5o5zsZQA4eQsDi700WxbDdQ6bKwURTnZUBUe31XLrW0VLwR5AE8rtPOatrYZ1DIc1jY89TY2n3UB6iRuq3FBYsUHGMdQq6OnJEulj9mAaVkb4Mid92H1lnuAhw6SZDaAoIWA8R4NBqhrFfcdW01MLKeyeeTg4OBwqsFKVAcHhycNoi3WwH2so6rZzZblZK5uzms1xClJCn34TR95CBxcjnFkdYSsFqE/HPEO0F0aob8iA3WYa82JDkbkHDUZt5NYiZwlaWnss4bpAL1kiAHfMAhbKOd24/znvwyz512Bw3Fp7KMSLe7JcGXsfuLGL+N6S7H8skREftUia2vxPVGRk3CVWCbJe7Rew/L2XUjOvAC9iTkMfF6MbIgB0zVNdjVNolgeXMTSLXchv/kuYz/lIUI7aCAM6yRwJIgRMLd5Gtu2hCYvApNnDg4ODqcmTixXHRwcnjCq7wY3QjRFhMrnWZrEqIdNBPUIQ97okrjc+XAX9+45jFo4Cc9rII5TzEzW4Xuece1GgKXFFdl7k1ylxi4qCkO6OsKgZtac8nyG7tUwyhK05jZjXz/Bxc/7Guy+6nl4aLGHyc1zWO2KUJHIlZkhVnIVzNKgDFfaM30JqGnA3CP5KlJDqKRZSnhtpd3GwradWNh9DvZNbcahMoLXbGGqXUM4iDGRFOiMSuR7D2P5xtuAL9wJzK+ilvskXNpseoQ0T7REF2anWtg1N4UZvas3MPnmaJWDg8OpCkeqHByeRBg6VUrfoqblmb34klI6GGmoSpT8LTIkKkN+hD5PHj6U4cDCAFneRJLWkaZacqGF3lpuptJENPrdDNNTm0jIgIYW9+QxZbBmk2QyszQpScZCOp/vzzCKYzQ27cDhNMQzXvYaFJNbkAUNRA2g3WTMtChp4JslD6Tt8kjGCu0XSEajrQ9THoeRh5jEJ6vJD49857AMcX/awPDCZ8G/7sU4sn03VmSgnjMii6vYPIwRHlrE/s9+EQsf/RzwwEE+xITGfGecmS1s2p0Omu0Gku4KJpgLL776mejQS51BaJbTwcHB4VSFI1UODk8ySjEQbd2i5lXzzJIJdsUqNjieS9skUjWgO7QGHFgeoB9r8+E2fL+NjMRFH/fpC0EZpMueqqYFRYMAYRggiXk9ZegM0iyvwHtaplQESwQp0jRfOsKR7gij+hSyzjbMnXspVkep4Sz1SNNs0lQx3LGmqlrgVB/fBb6PIKobG61uVhjilzYjDDpTONjahsFF12Bx12V4tDmHg1mIshZhlnFrdRP0H9iDA7fcgeSBR0myeoadTXh1TJB4haGPMmSYgzWzJ2FYJrj0rF24bOd2s4lyq15nBJig4wzoHRwcHE4VOOnl4PAkQxRH7EW2SZZKSftToCBjKbVwQBhBFlOHu9JSreDQch+jIuD9OkZxQR7iYUSCM6oViJEal+hvOUJRiDTlCGvjVab4AvGitOBzfGeelZhohGg2SL48kqOpWaAzi3MufxYW1vqGrLVbEXzta5gnhkRJe2ZJVY1ErkbSxiOdNGTSbCUkYft4fns0hTtmz8bBC67F8NLnoX32M9BubkK0MERyzyEcvOkerH7yVnpeAJaYuJipLUkutUwEqeGI7xyWUlnl8Gs5NtV9XHfR+ThvxjNTi1qDy0kkBweHUxlOhDk4PNnwLZHIDYnS6k45YhmSJyRJJDGa9pvvA3sO9HBwaYC4iFAGLWQkIL3BCDXfRy0M7fYxdEXgITfLKNDJvikKzf55IkbW6B0I6KdBItVut7C2umym45KiNOtLFWETF1/xDBlhoTUFNFoNs+lxYeyqSAJFrKSl8jRd6ZvlFIZxYr4uLOstdJst7GvO4PDuC5E9+0VoX/s1yLZegMWFER75wt149KOfwcINN9mpvr7YJMmRNmimk4gZZSKFvC7VGvMmnGggGazhvO2bceX5Z6KpPGP+GJZYOQcHB4dTEI5UOTg82VCrIq8QndKGyuYSyVEZNowG6vCQhOpwgn2LAxKOOu9NkOSYLYbJRbRCOklInJEUSVNFvkGWkfBenBdI0hSDAZ8bjZAk1uDbOhK3lP75nKbPAp+EhuQoZgDSQO08YzdaE20UJHtBxHeR8JGnHd3AWO9OaxGSmo+wFSGoB3yXh0XGdam1GckFVyJ/zvUonnktHs5D3HHvI7jjY5/B4GZppvYjWFoBBgkDYoAZCRTfWZJAGWP3gJmhNbmaIRkdCSF/ZsM1XHXxeThvx7QyinyvRMI4yZaLPx0cHBxOSThS5eDwJMIu7KmlP0lTSjnZL5FIeCQUbG1aj+ruPWvYO7+GQRoYQuV5dbshMQlPvRWiGcjxKTlppRoNBM0WomaHbhJRvY0Gf7cm6NoNPhPB15d/JF0iZO2Jaf6uIwhkQF7wdx2dzgS27dyOztQkeY+PbMxc+JgB+RuKml3kc40kLmYYaxNbsTfagkdnz8PKmc/CQ/Ud+NRDy/jkJ2/D/pvvRXFgEWHuY4pkMZK6zOyBw0SmDFx7FGohUBEqqdV01DvTBPmgh11zM7jqkvMxS67lFbGJh7Rlihej4uDg4HBKola6fSEcTkFoektEooK0MU+HqixCNUJCGhXwH6kVSY3vR9COdgsJ8PB8gjv3zGNUNMk9GiQeDUbeM2QiKzISI3KQkk+SWQz4Z8hrsbalIePwS33ZR+LFdHuyqfJyePpcz/P4X87MrpG3MAYFn4na8NIBzmllyO6/Ebe9839j92gftsbzaPcWMFEr0JC9U1IiIwHKggn0GJcuwx61p7Hc2IYDjTkc3HwOFubOwMOM88Iq2V9zli8iUeKzyEeMuOyk+L81hU6rjX6/b6Y/pa1iLEy8+N+UWS2OMVGm+NYXXo3/9IorcCFJVQsx86tgHjU1Schzo+hzOI3xdG2/Dg5fLRypcjglcbKE8vEhkBqMIf3Jug7FLqEptxFWQxXnCSKSFJGqRJ/6hW0zjXffAnD7w4vopvr2ro0085FnNZk6oUaOsjZMsbSwhMVH5xGPCiwPY6yNBhikMbJcb/RImjyEvkzIM3h+jqjhozM9g01zc5jdNI3ORBONpockS9CYIcGZP4zptUO4+/1/gfnP/D0uaJBkNRJDqmaZfQ3Gc42kalhrIG3MYIVHfeX3COO20NiCLgnVI/VZPBwzrdEUgtltyAe5seHKalrfXSSLcWo2UCQF8t4a/FbDkCmzk7LUT5GPKLIks54MMJP18bYf+V48dzMwxXyZYO7EwwHqzRmT/yrV9Xx3OB3hSJXD6QpHqhxOSZxMUlVRJ1Em07nrIgkE30qnux4vaZkEMiGieqshOvyl5SuzeAQter4W56jVp3A4BT78uUWUzU2GYPX6wKhboLc6wsLhRTyyby+OLB1CTNLRJNEpC62W3kDp+YY88cAXMUZMYxL3SWr4ljBFVqQYkril+gQwyhBGJc4/9wy0Z+o494qzsLrvAbzrp/8nigfvwUSyjN1M0Cufsxnndupo9ocYjEiMZnaiS8J0aAAseBPozpyJhfoklqM2VuotrEUTGPlaAV0LHyjNmtqrMf+tK7WOVa1EoTUdtC56nXHxAhLASXrXc7xci9Gsp9hWG+LHXvsqXLdjE85mmmrpABEJWliLGKrSx2uOUZ32cKTK4XSFI1UOpyROHqmSrkkwXfxxpMou4mlJlfQumqiyt4WameTTF3kiBzWsDdbgtWfNtN8t98U42K9jz+E+7n1gD7qrQ/SWeoh7idFKxVkMr14iapJcFAyjYNhFk2nSV4Q9Y5Que6k0TdHuNJD7Q6TeGhKSlZSEJvVSFMEIWTBEmXcRba5jdq6O5XvuQfyu94I30Exi+GmBZ125Bedum8MM09Dr5+i25jAIOkjoRLAeSVtYrrfRrUeItVApCVVhSI/Wg2faKut25QUJlcl7r4YiZG5pbYQJ3o+1OinTUO8A021snZvAVWfN4dnbOnjBTBuXt5qYNkGMjI1XqAnTYpyTmjp0OK3hSJXD6QpHqhxOSZxMUrUOTbNVWNdUVVN/FamyMN/PmWO330erPWee0GLiN96R4ZM3P4j5fg2337cH2qsvjXNkWqxKht2yoSKRCJpS7ITor/T5Kp98xei84AUkXHolPYi89IoeulhAPziIvNWFN+WjNVNHNMU4TaRondVGs8OYry7gwMdvwvBPPgUs8fmswXBrmLzqMuw8+2xMN6cxYhx6ZYRezGcTD2FrEt0gYtghMhIqyNi8xue0WruWSqj58CPfrruVM7015okiF9Xt1311+gmZh50Wgs3bsGXzJkw3Quzgreds6uC5cy1cRi9bGR0tuFAiMfmpfA5lWCaVnNJq/zicpnCkyuF0hSNVDqck/vVJla5vJFW6o6Oc7klDlfKe9FmiV3Uzzfe3730IH/zkXVgeBjiyOkDYmEAca4GEEL7XoKuTnNQwyhMkxYjpStHpzBiD9TLJkGZDZEUXWZkiI+FISFiG4RrizhKK2UWEmxM0tkZozzXRmIlIqnIshKuIGjkaa10kX3oEC3/0aeAmsqfGNHDOM/Dqn/5prJEgHdx3CHsfPYJkSHJk+KCPBsnRKJXhOVmQmXPk0Uz58VwE0BigM70iU0q3tFZaT6tFRthumeXaN51/LoJOA+FEiEaRYDob4JJGhFds3oxryb1m+WSLj2q5CRnb12rM56IwSi5Lqqp8dThd4UiVw+kKR6ocTkmcXFJlenfjNpIqe696R0WqdFZdl+G2trnzsFrU8aW7Yvz22z+Iux5cQWNyC7qDPua2bMKg14dXBiROJEEkVKQVDKpEToKhBRm6gy7CsI6634Qf6H6MxBsi9hMMGiRUk4sIdvbROmeExg7Gq10i8UnAQGLGY0y/CEvMMB7bR030P30Ej9y0gLlLXoktV7wYOPtC5J1p0j7tUUg+laZYOTKPQw/vQXF4gRfE6Ji3ctq5mWQLmpqT0bkIVYO/tfp5u46oM4mJqSnytWmE05Pw6r7R0Alp3EfUPYxL6PWlW7fh5a0WzuL1BoMok4TB5mYfRJYcBVEBz2Q7PZNkVXnrcHrCkSqH0xWOVDmckjh5Qlk9u5xA4jM+E6y1lab5LOymyYKuW81Nzmtdni2O6vj9P7oJn775EJLaLHra8JikqN9dQZvkIqhZUmWWduJbtK9fUdO3dCRFtZHhL0UeIClS/u4hb8Qop4bIppYxdVGOcusqvK09FO0Yw1qMUZGQlDG2dCI2ZZEhGI6wuZhGtL+Bxf0hzn/ed2E4cwHm67MYiLgkjKg2U65liLwaGoGPCT/AYKkLv/AYP087ysAbz3wqfzOe1CcbxvjcGKgzF3Q7hW8WNs1rPvJRgShLMFGs4sJ6jpfNzeJFfgPn0l+4SmI5qS8fGWDIMPhPllpMLI8sw5wES5ovR6pOazhS5XC6wpEqh1MSJ5dUiSBJhyODdNlOVbBn1hh9I/ReS7hyMoURydgNtx/BL//mP+Hhwz6iyZ3oJymmpjykSR/JYIh60CLJapBUkVYw3op/lhUYpkOk9RRF3SO5qKNsMiaTGepbYzR2jVDbtoS4sx+D5gKGEcMiAcv0VWBQQ1i3xKiMGX+ytSQewh81MHqU6Vhq46LX/GccKTZjuTYFbd7cZP5pD8E0jek9MQbjnhegqcU6C8aJxKqW14yNPgWFiWdBItWPB7pgSJDWzaqJSDHNmp4U6vzd7C7j7LyP50+38YqZKVxO35t5LySJ80kgU30paAzSc2Ob5TP9WiA1y0kGtRq8I1WnNRypcjhd4SSXg8MJcSIBr+ZSuQqVP12TZivAyhD40Ec+j/6IV6I2iYiHZruBQ/OHTUfiaV8830NSphhlIwwLEqmggNeIELSbyMMI4ewkNp0/hx1XbcHWZ0+geUmGZPdBrM48hCPh/VjyD2BQ6yILPfiNOmokVWnSRXd1Hr3eilkAtFVvoFEPUa4tAvv3YBCvmWUeWs2GmR7MSunFGP/Qh99swmu2Udbr6PJ6t5ZjrZZi1cuwFhZYZfxWoxJdPudNd1DrtEj46ihCEiGmT9o2dYq+dmzm+2YYl2e0mnjRzCwuI6GaZJhekZj1reJMS0FIp2eJaJJoY2fprDwSTRLJY/LXwcHB4dSBk14ODl8GaVDkbKd/PPJCBMLqqgqOuOXkvyhqGKXA8hpw74PzWOtlaLRbyHJ9A5igQ5IhAqHV0jOFISPvRs0Yn/fKIYY+6USng8uvvR5nXn4Jmmc1kG5ZRG/uQaxuuhvL0/dirf0Qkk6X5Cdj6yWZ0lpWacCjZxYQrbUYrxZ/TzSQZwmaWr/qkYd4I8PKvbdjKhvAy7rwSq19VTPTjFZTpnW3pEEgydLUoLnBC9JOFRkKhlMynZqeC0nkskGGdFXLNwCR56OW5vDjFFN5gk29JTx/8zRetXWOhMoapk8xfyIvIJGkPxKrKCC55Atk1dVqSmsXwtiWjfPVwcHB4VSEI1UODv9CaEuYQsxI52a7Fg/iIgVJQy0EPvbpe7HY5YWIxIYkIktFPmJDULTWU7PRMgRiddjHWjJEVvcxsX0zdlx8Hs58xiWI6x5GjRSD1jz67b3oTezlcR+G9UOIo1WSMZI0GYwLDNMwm/HvUoSoHpHcZSgzvrvbI4Pju+Me8oV9aGc9BPkIZZGQ2BXG/lzLJCg92lLHhGWm/gB/7IwnOb2LxHGwPEJNW+YwfVmqzZ+H0HbQTYYbLC/iuZtn8KxmA+fx0S10bYahxSEUlL7006RPwKBkAqbrfJvVUmkq0VxzcHBwODXhSJWDw5fBNgv272M9lf0r6I6+CSxJQkqzgrj8eUhLu3/f6gj4yA1fwmKfJCKIjL1SjQxFNkMFSY40Qd3eCCN6jiYmMLNzB3ZccC62nH8OGrs2o5htYNhKMGqtYThxkG4/RvUDJFOLyH0GbkgUX2qIT8KYkDDVSNq03pNZcZ0kT/sJpoyzCNDSIpAPSKy66B+4H1nvCIJawmdKEr4anyIhZNxSaduyIS+nCNISIb1o3aiA5ExHj/drPMphlKNk+KJHZjqzyFBLemiROO4McrxwyyZcHdWxi9Fsm/xhFMiUZNCunJTxO0TgxlxQITGHLKGSZwcHB4dTFI5UOTicEI/dNDRdJm1VZVgrUqDfIxKEux/oYs/hFZKVBmISkWEyNMsiiD2kWUHiVWJINhFOtrH5jN3YfeFF2HbOuahvmkG/luJQPI+41UXSnkfSPIS0fhhJuIzcGxMqEiXDUEoZy4/oBijN14KkLFoCQSuxi7DQiwzRe0vz/K3pxz5w5EEc2XcvIi9GQ3EyaeAjJGOl0UYVJFzSwtk0SntlbZ1IqAyJo2PYWu4BSYY8Sc3Xgs0iRb23gjPJll58xg5cyfw4g28UoZIKLyWd0leCsrtSvJVjhmkJ0qzRf/XTwcHB4VSGI1UODo8LkQALNRZSEZQkFp750q1mbKPywppcyzD9s1+4lSQigN9sGKIgg2x96dQfxBjVaqh1JrHt/LOw6Zzd6GzfCr89gSFJzSAl6dJCmO0Uo/YBDFuPIG0cRBYsM+zEEqk8YnRIaOhfGiXRs7JGUkViZfRAWpxTK7GPRmgzrAkRp+4q7+WApgyHh8mrbkE5WBLlQ+grTD6mhdGLhgm71GKk0lwxqIREMGE4WkZBf41dlViYwATXUj7Y76LT6+PsMsfzJ1r4mnoDO3l7kr9FwMzGyiRvyitp+LyNqigSKmn5NP13FBtOHRwcHE41OFLl4HAM1CQev1loeYGNyCw3weqgwC233220Ml4YmC/yauRecZKhn2UIpyYxtWsrZs/diYmdc/CnOkh8D8OkMFotLWJe75RIwyNI6gcRB/MkN8skHVpQim/Qa42zX9oJ5iinqcjx0UtjtGokdiJiWl5BjC+WTRdJ0CP3YW3fvfCGy6gr3IIEkfdtiq2WypAzY6hOJw1WFT6dTK7S3giRHyAi6SrX1jCTjvCcuU144cwsLuLjs2WGeq7NpUU+PVLMsR0Vf2upT2NMxQsl72nqkVeMs2tf8Z6Dg4PDKYrH7z0cHP6NQhoU8QsLwzSsEuW4Pr9GJiTeQa6BtUGMw0cWoK1mCkNAtA0LyUSjgZlt27DtvHPQ3rUdaSdE3PIQRzVk0hYFJEDaY4/PZFmX11ZIppZI1lYZ7oBvHvK9JEAeiZEvyyS9TXZdDfKdJklRHR4JlF/E8MuRWfOnyH0Me4x33mS4ESOXIvACsx9g766bUS4+jHa+jCBf4TN9hJ7UVRmKmOHLbipleGnJ19GRFHqyq8oK+uc9HmskgX6aYYak8GISqmu3bcdVTMoWErAO36/ta0oySvEnbT8TMC/MIp9MTUYyFjNfYvpTaipIq6V7duV6BwcHh1MPjlQ5OJwAIlDeuHmICmw81rR2QUlSQwIh6iVrIfIPjBJN4wW85SHLE57HRscUTU9h69nnYNs5ZyOY7KCMGuQsNQySlI5EiqxMVCLNSTbShM+PkHua1kuQ10R29LWf7KJkN0XCIYN0aP0EHhmPQpokwmc4clqdPSWJGWg+kkQqkAqMp+RyDKIH7L0D/jJJVTyPpogVSZvvk6iRKIFxMpyG4XhaPoFkypAiOk/v5fVmPUBN0379Hi5sRXjO1jlcwke0uGc9HhqNlHiVApJdVk5SZhYkFWFjjllqJVstG2+lRposm9sODg4Opy6cHHNwOBHY39dIIrSakpqJduUjdeJFkgRxAWmDjEKFv+OeFjTHpz9/J2nPJPywid4oRhqE2HzOeTj3qisxfeZWDOlnEKckGaQQeQSfpCgISTKC0phMFX6L4TZ5P0c+SsyGy2Z18ZKMyE94zhf3Yz5LQqX9+ETZZCtFVyI2JE/8KslSxEWCRpv+eD0jMfOmgJV4gb9XgLVHMH/bx5HuuwNzJG9FuobBoIsm02km6hhvaFV1aY0KLdop8kiiKCXWsM/0DrAlLHFly8Orz9iK60ncZpU3zCVySp7J3ovEypPL4UckYY062WUTKdOmPFXMGCIJqRaXYPiMd1DUEGipBt5xcHBwOBXhpJeDw2NB5OkYbJia4r3KrqlRl9UQML88wDD3sbDaR6PTwe7zL8CmM85AXo+wlmRGmxVqhXP6Nlof85RRC5mP+vQVHoomWUkHYb4ZtWQT/HwTaj4ZURmS1JDViEsJerf5kk7aK8VjHAZdpSUyTkZQhhISJElmCjE+Auz9Eubv/wzKtT2YbCSI/BS1PEOkOMUkaqOhIUAlA9Smz9p0mR4QtD1MN4dY2HMT0sO3Yye6mMYIxUiEjSQqiDDKC2Tai9BMg0pbxXBMXJn+SFvQ1EwyNB2oJUetto9pMPF2cHBwOHUhqe7g4HAinKCT1yVtWZaRY2gVcHONR1GGhx/dh4GmzCYmMbtrN7affQ6mNm9GEQQkGjlJFYnDuMWJ/AhWuyRSNEbZQFSeg0Z+Kfz+ucDaDgTxdmDQItEhgQpIknytTZXCI2HxZfuUKdAAuV/QiUTxOsP0RWQKhs1LHl1gjM95O+L1/gGM9n4Bi4/ejGT1IYSlVlknCcqk/VI8NY1IAuTXSZA8s5BoVPYx5a1geOSL2NI+ghtveDt+8+0/gSU8TGLWxErc45sD1EkMw5zpqEUIg5BES5q4lNFI+HoSKJJHLR7q01VTrHkts37onE2Vg4PDqQpHqhwcNkCcw1AcQ3qO7dyPNhbekzZItkv6ak/758ni6dH5IyibDZx1+WXYfOaZ8CY6JFk5htLUhL7MnzCIc0OoDJky77DQb7P4ZUYyUuxGPTsffu9shL2z0BjtJnHaTE+TiBqTjJaIU2bXjTIEJeA9xm4DOTMLlGrDYvOOdZqieIch/TUZRn8fuvd/GisPfh613qNooYdGOUCYDc1GyzJ4T9LcLHsVBjWSpQE8PhONHsKeL/0DhstfxBfuej9+7jffglsWb4ZXj7CUde17GQPZlum95t28VhFJC+Wm4l7lqlbD0j9HqRwcHE5dOFLl4HAMKhpAd5QEaIrqmNWUzFIJFQEryI5kkI6wji1nnUVHMjS9Cf2ywFqaaM1z1MIAJYlJSkJkjLQZmIiUzisYYqW1ovrTqHV3kExdgFZyEZqj89BJzkQj24RgFNAPyQiZjlU8kbiQmJjV1G0g/E8C4/F6wGsRPekLw7FfkaoiTuBlA2B4BDh8L9ngLYgfJSlauReTWIQ/WDDESvZUSKUVK9BkOGG+gsH8PVh88DPA2p1ob0/R3DLER+/8EH7uD/8n3v/w+5EGJWI/5ftLpKVWuJItGuPEqPlm0q8SOTaPS4ZtfTg4ODic+nCkysHhBLD6EuvIQ44hVJpVM+tZCtoUuWbXYZrbfQZ2nnMehvQ9oCetd54FPsmU1mPSFBhpjcgV/eqLPXMUKaI/2S6Z5lhGQCJi1UGUbUU03A4sTCNa3oT2yhTyRzN0RnVEOcMtfIZpCZSBNFeMmxRW0hJJOwY5kSseCl8WTDYlRUyPsZZg6BuNVXLfJ3H4rvchPvQ5TNfm0fFW0PHXENUHaIddBPlhpKv3o3/wdpKwL6K1JcSoXMThwTxmL5rF7Ut34qd+76fwzi/+GY5gHiM/NsRK/zKSszJj3IxWTTo0C0uopHWrKJUmA52ZuoODw6mLGkfHbpDocMpBq5Rr37kKmqp6MqryOplaJ1Lq9tXR60s1bQWT54FWKkBG4pSTGIzIWHq8+59/7wsYTZ+PRd5Pa6HZhs8jqdIee1riQNB6VGZFdpIL8Shr8sS3imSRdCkJIlpJOkTUSFGIzKT3Y8f2EbbuWMHC8C4cSB9ArznAcpOkpNJEMQyfeSLSktHV/QgzJFaHbrgJ2L8CrMaMDAlbliPQGlK5bLLItyaayKdmkCiy4RSw+QJsPus65NFWlO0ZPtIwtlvDpf3o7f0icOh2EsojKB69A5gkmWRY+ajATHMOtaGH9FCOH/+2H8Vzz7kGV2y5Ak3+C5g/URYg0FIUgscU1zTVV2mobO7W6NNsqszkVHnvcHriZLVfB4enGm5Q6OBwQkjAn1jIV4qhOI4NMdA/M/3XiNBNU4QNEhX6MVvYMAyjkSExybLMfsHHZmeoWxU8iYSuVX1Kg0RJyxjUybo6RYhtxRSu3XYFvu2ir8N3PeMbsW11CjO9NibiJnunY+2pZJdVnZc+75HUGW2a4iw1FpElJFQyQufP4eoQ3nAVzahPf/tIvm7C/F3/gKU7/g4rD38YweotCLq3YHT4RmDxViDZh2I0D0w10Zjs2CnGkI/lq1gqDiHaXcMvv+sX8Tef/2vcGd+JLv+lWu7BLHSlOJgoHIcNhIpRd4TKwcHhVIXTVDmckji5mirppiqsd/FGUwWfZEgLfNprCf2TouBRnv+Pd96P/fkM8vokMs9nfKxRumAX6BSr8ODVfAwGWncqgpahilOrqdKaVZm+vmMs2nUehktoJvO4+uxZvPKaXTiHHGoVB/FQfh8+uufT+PiRW3Gw2UU8xfBr2nA5RxRFSDTVlpSIeGz1Myx/8AZ68BF5AfK0QD5K4TdbCJmcUTIAWiRyW/jCToFRyovBFvrnxVxfN0rdxnhrg8C0ywT3GX+tLUWiyEwotViXlm3QFjilVlyvYbI2i/7+GM8992r8yOv/M543cy0ihlN0c8x2Zhkmn2X5iXB6JH5aWCGOc/oIUGd+OFZ1+sNpqhxOV0jKOzg4nBBV776xmZAA8bIV/yJgcvavtFOycdJzGzuIjeeaCtTzAclP2ODRcJYanTUiF3yvQH9lHsFoCZdtm8H15+3CZSRU23jvLMzief4z8LVnXY8Xbr0KZyYzaC8XJFAhnwuRJLGZkqs3IzSnOojaEzBMhWQpHcUwa0HwPWb9KEarVmOkeSzTzNzzAi15sMCI7qOn/Txa55WHSaaW4YV9RlgbOUvjxlQr0pVjUJlfYilZRLDNw93L9+IX/uht+NOb/hgj/gs7AY70D/N1IlOMby1CTg4pDVWrTkpFXtcb6VtKBwcHh1MTjlQ5OHwZxG7k1DyOdxWhEo41YjdG5yQpuUiUpuT4uyJUOuqrPCGRZopH8ZjhiEedlLKHItmQtqlWolXGOGeqjudfvBPX7AKpFNCm2wSfroFr/cvx7ee8DK/Z+VxcXG7DxDKJWeLBb7UZdomkzMxXh7FeyWuKpGyotASVklGWI5KqnGSOrK7wEQ9KZCMPoRfxacbHI9spB8Z5+RCB9hTUNT9HEWTG6bzGuErLIFsu2YkZYkhyVLQKLJWL+PyeG/GnH/8T/OmX/hiPYA/CdoD50QKygu9mXmljZuWUIaV0sLOSDg4ODqckbC/h4OBgIE5QOYuqiRzbVKqOX9ZRuiMnzqTr5ms+/pBWyqxIboiVJVvGjorMQ4dEpCrWquMZZP7k1QrykQRBfwnnzjbwvIt345lnepii30jLG4wGiEhc/FGGaRKrZ+I8fNPOl+O1F7wQl9XPQqcbIVytoeM1SYQ8xFmOkcja7DQZWcMsA2ESpsgyopqelIbMqM6GBfKhj6BowSexqpFsaVFTESZ5NpN1JFCFWJnC4bH0Sd+0GKlHMmg0bQyLL6m32xhmA9Q6JSbPnsb9aw/iV//q1/B7H/h9PICH4TVCJF5G4qf9Do0SzeSHXCj7L5OLDg4ODqceJMEcHByOgZpF5TZ28SJDsibSBJZg/64TMBEr0ixDqPicSJU0V/Rhpv3MszVof2PjGHwUBWi166iTqJRZH168gs21Lp6zawrXnVfHTgYeSnOU9xDVLcFp1dsIEw+tMsA52Iqv7bwQr7vg5Xh2dDEmDgRo9yJESYAw4LHZwOTWOaAeKBTjDCliUNJI1UqSQm08GPP3MEAx0kY1k6gFdOEkX94mkWoir2nVeEZazEyLeyprzOruzA0SrMJn2jyft8gOMyY+k61ZisQfYlAfYH9yEO+79cP4lXf9OvbiAJawhpEXY1gbIS5G4xzNkBZaRtXBwcHh1ITtNRwcHE6IilBt1J1YKmUhmqVGpK/WjKqK0BSgIVY8N2RKyzCIWNUsqYoTO/VnbKvIU2RDFY+6iAcriIo+nn/xNjzvvAmcXQcaCjAdkiBZTVCWaZmFEhEJUyOPUC9D7MAsXtR4Lr7l3FfglTufj+hACX+VfCgTeyKf6jSNZkkoyHmsponnjLi+TDSp0yEuEfdkd6UbfJ9PF/IBrXVliBSdNFciVkqwuaajvNvrNTpju6XEpyVGeQJ/KkS4pUFidRgfvPWj+IU//UV84sFPYaRvJkOSzEj5os2VZbLO33zUwcHB4VSEk18ODieCsYl6bFirKEu1SCcMt9DR2FXxXMof0S2z2jnviGOIaGW8rmm5nBeMsXieIY0HSEY9tJoRLjpzC1525QwunrE2VCGf9EmmSkjTRFJVC9BPUxM9LYvga/0nMqVdmMNLms/BG8//Blw/9wycFW5FQ/xoMEJzguxMnxNK06UvrqQmk4W8r/jkJFfSOPFleYyit4Ys7hoiB9IeBOnYaaqw4CM1s4eg2RJZPM2QLDpmgKYKScMQGI0VL9FLo9Ew2/mQCmLkZ8gmSvzVx/8Of/KhP8f77nsfjuCw9Fl0UpXlaGrqkcE6ODg4nIp42pEqyekvd5pw+crOdnL/XLeOE73T4d8q1CTovkLPrtvHN55j6g09qFaKXGUkIOXR/fmAqO5rn2KSIhl4k4alMSZILC6eq+Oll8/h7AbQKlP4RaKFCAwpyaU5IsUKghBNki/V4CwrUPebmPI6fL6BrejgIuzEGy/7Frx05zU4M92EyUGEmcYM2lOz4IPjuIlBMWIkQWbaTYmRExsc8cogRhmnqJHwyWbM7MZspvjso0WtMATK2lvxGTFKnfG6voDUCvIR3+UFdYyGpEtDEiZ5ZZpHwQhzF27Gx27/KH75T38J77n5PVjAIlOfYJgPFNpjuC9v7xvd8W36iaMKa90d+65/GY599vHCtsq9E4W/ngcndsfj8e5VsPc3vn/dHR/HjW7d3z/vPQ7/RnGCirGxvjyWszhx3bNOXwdvdOv18emCp906VSZzN8bIzKvYDK2yTiN/C3U01ZnkNoW9vFQXvwwbfKuDG/+sXqe3CDYsh6czTt46VRZVXdgI3zRidX6aQ9PvxHzFlntNPMQb//Uv92JvPsvfWlGdvlmRjB0VCZVm2cYzcLwXIyGRmpmchDcaIN6/B8/c1cG3vGg3nrkF2E4/LTpDaI6BauaJUfmMGcce/96Nvbh5eA/ed/s/4VByAAXJzL1fvAnlkQVGhPnWZxfO+PiNEGapKZIfBe93GsiTEaItTTQ2dZB4WjGepEiRr/EZWdczTTUSulrBI5/Vl3/aMkfZb/Z6VjrlRNI0x6kdmc1NkUg962PSn0CxXGAinsBrrvl6fO83fy/O9s9AwXADksdmYAlgmqcIfOYfA9QUoUhg1eqrv6a9qj2P88eSvScKxlVqRIHBKNh8Q75rIx2la51UbkCV7nXvJtYFibOtm6oNzEqp8AykgTRvNITKrNvFC3UxV90YB69TQf42onrN0ViMnzEfQ4whefhl2cHf8qKPD6pQKy8Ks2R8BZXVRijndUlFqozRuZkF5rkuGdmr43qzfEy4dapOY2ysqFUV4rEq3ceqx4LxXkrGyHf18BhjLlDxABuO3doKlBpVff2qmv+TgKc1qZIgVdZZuw8LnZlpFR6NgCOUh7piCZUElx2Br+ftxlyuitAe7RvssYKa+lNcLg5fASeTVK3XtmMhUqV6U3WyfilSxa7eb+BB/v6vf/Eo9pYzJCIiVPKnhUJtbTKdj/owVqyCpKpej1CmCWpr87igA3zdM3bhJRcA23hfhMrStn85tMJ7jBTLGGI/1nBLfAdu3Hcz7tl3J+6//0vorR5BsrKMdqtpOt/hYMiXBWhPTGLU6yM/RAJFYodmDcFUE9FkEznPpUkqtQCovkJULmVMk7bbkSpOiWLHKuN8k3lm7pN5pBfo3JArPleVzyiDxzyLsghhL8RWbzOuv+j5+NaXfyues/1q1Pmv4DNZkqPT6Ji2OBoO+LdAo9ni28069SYo3dNfI1r1Tv36qqQqE1CRKiWBQdlfVnT743TZd4zfY197FImIJ++bLyt9SSPBfiWqgd+AaVFouq9tjLRml6SVUmRC5ftrfIeeUJ1WJyJnviSlB00bm+lm/lE4mh5WfCQDZdvmB1oWw4alLC9ZMGaqWeyZiEikdV/dk4XOmKf0rGU9FJ55WuU2hkkL2ZJ5jqSrIlbrYFrG3o1Xe/qYcKTqNIaKUW5jJRifbyzhjXK2qklqH+aO8bihfo05gNq9/tlf+is/T2b7/+rxNFxRnYJhHCWbwRU0qpOzgkWoIr4xC42weZw83Riinq9+V8WkR9XUKerMb4enJ54qTZXq4VFSRfKSMR4Vqfrxd+7FnmIGcRSRc7DjMpbgvEHn6dlKMOQhInZ+6dpBbAl6eO2zduNVVzZwNu9VhOqJioWqTo/4vgX0sYge7szuxpcevhVfuvtz+NTnPgqvkWPYWzUvCqbrJC8JcIRP8vem7R2sklxpatGutN5BON3EiAQyzUfjNNCvtE9yaoxGmPGoTlu3dU1kyihCSCrUObNsRIZ0NJHkK4MyQD0LkS9kmOK/F131QnzddV+HV13waoQkVtqEue23mc+MmB7VSvERy5kMVYuPilpVEHXxxlRU5080/5QAS9psUtbfYDfN9lSmY1T1TQNko7VRHeSbDXehN8VBp0L1lKZ7zVaNzJMyY56mqVmwNclYl7LMEJ96WDd+FbreoQ8f7G9Lsqr3emPVkMcw9W4Fqysxya9+q31oujj0Ax4j87tGxlPTKva8r3XC1qHBqA3P2MsRKjHzrkLrkTH8savImdl+SWnnuYpaR8VBq+d/JfnpSNXpiaofraD68NhQW6vOKqjePH7dWa8lOrNPVlp9vc/W38cP42TiaaipskJtY2FY2cFMovCWMPiygjiu5Nab6rGo/G9M8MbRmqCikECQiHZ4+uJkk6oKR+sYsZFUyZ/Mr3N2MKlXxwO88OPvfAQPlTMYGVJVR43EQnW3RgJQK9lh8qipkrBsklAtY87r4UWXzeHrn9XC+REwlWeYMKOCr04oKG9K9txLJFUpY7qAZRwuD+GOPV/C77zjt3C4vx/9sse4iyTxAZKnpqYBRyniNaarVWMHz3hoBYXZOqLpBntKXvOZG4xaQQJgtqcR8TJgIOpddc0QKl6SNkeESlnGo8rGkCoirDPnBrKi53uZd2HsoxzU0K61scXfjB/5th/BCy59AbZ6W9lBax+fGuqaDuTjeZzBb5EUeDl5m2SFSkKJEOmRjFDHb688EVTyx4ZchSJ5wKSz7MY8hi9QOdlTXRINM8/w/dF4/kupzfhHZElO5UIPyGLmO7E+aBwfTXo8jPiQiJTqtEmM3m/ObZ0w58J4WlHrjSlcnddIgOp1FRzvKd9ZJkbDpSPv6w2tFgtci66SYEU+6yPPDQFj8FoSo4rVMWD91Ubgeo8+RFCcmVQ6podHpVW5Jo0BS9SWxePAkarTE6phqguqH7bmsmzNb7VNc7IOM0Czl6s6p/pvn3ocVOGMm4F9SoLG3tA+ok9l//20JFUagwpVnq0XDDFW8VnY843Tg4IVgbbjOx7H+qx+2eP6E+7D7qc7nkpSJfNt4XhS9V/euQcP5tNI6k2jqTJaDQXgaWsYEhF2fgH9RykJxGgN150/i9c9r4WLyBs6DKut5Qe0wrnplK3W5YkgGQyNobhIh76662KAIf+tYBXvufHv8et/9uvAZI6kmaCf9RDnI4QeyQA7S5nTDFP+CUISM6bXZ1tshghnWggn6mYZhiRJTF4bYjXOIGtXxROjvaJTRopU5WyN407dwBCAdT9qulqoFMwTP/PQTOs4o74Vr3/lt+M1z3sttmEnO+kG/CG76TwwBEA8qyT5zMnYqvJSe/XNVCvPjwqLJwLRDpWzomfliFxFpo6SqvFcl/6KTJAyM+n8RcIZiVCScI7yFAkJUsr0p7xlpvMYOS2sKvCyeV5HQSQlJ3Eqwsgc9V4tGFvVaxE2+RFsPKyGSpBv/Vb98rRhtvKV2REwHDPNKA0VH9KU4XA4lODnu2UdqOk+ZqnK3xAtEqw6SZeOvGHDVfgcfrLslK5wTKoMGKbir7qmfJBP1ha2lcevv45UnZ6wpGpcNwjVTtWhx+pPqxK3T9i/ZiqPR4W1HpJtD8LGtli1h0L2nmPeoLrnSNUGWFJls7PKFjY3c74+squw0cc6KlK1ETaEjbBM2qIKV6FUzx7v3+HphKeKVNkxka1hG0nV/fT4X975MB7IppCzUxKpquoQu1WeyU4mRTOP0Rh1ccXWDl7z7M24bjvMiumNcmS2p2EPLFUOrzxRUsXn2annKYkc3+pHEflKZtaEUsd/EAdw3/zd+Iv3vRPv+9R7EfsjzGybQlZm6PZ7dvuYIEDQlLYtRxbHRmPlb2qgMd3mOQkCw8nZwWq9rKNtyPSszD+SqpI+zG/jWEaMkoiVNCaWVNFJW8Pk1hg/3S9jERkfnaCN/r5lnD93Ll7+7JfjW1/67biscyVaaCMfFmg1mDd8zk4BSkrwYabT/FP4wlfVdBUZS6qOyoKxhtyCaTbnSqeSzDxiepI8I5/isyRVtVGf6RU105IVPutHgDwgUeKx9CP0tYq+F5KIME9IZrRwaikizXN93LA0TEnCtGAs85n13DrKRNa1SuOkOMgZ4jMmTbKFEkna1GxpTVa+nf4YSZ/hiBRpxX6dTygPSfhqJPG1LEGgtqQPAsalqThquQ5pFLVBd+CPpz4VhsJkPosM2z8WBcmaLQ/FIWRIj18IjlSdnlDPrbZR1QxbC6q68Nh1wvq3fb7t56u6YNtZdUftXFLHGKWPvRhixYpu38o6zn+OVG2AIiNVuo2UzSQJB80VrM+bVlFWbkqMKAN93lWWq+gsY91YiBtJlRUdNiwTlAlu/NsUkA3F4emLp5pUCaFIFd+Z1iLcS4//5c8fwkMkVYgm2JF6dFaTombusZMVoZrI1nDJTI5XXL4Tzz8rwBzrW5PVteGpsxRJyxAFTVbDJ1r/FOMcg34f2qg4JEHzo4bp8HplnzynxAoWGK8C9y7ciXd/6N34yI0fxfxgBcEUO+NWDcPBMhNLkkByIQ1LRn5HroOgE5otZvyWrMlIJsfkQzEVYZLhughdwXQIsikzHKpgdy3CQ2dmEPlAPCCp4r1Qy0uwHPOE1DPmBd4PlXcrBeaCLXjVc16F73zpd+KKzc8grWobbVQkLaB5g9LKsjfTcgy/Krz1avEEoDSMSZU0X0YW8JT1y9jk8yVG/pCcpGlsbKIyM7VHIss4SPtTpkNo4dQ8CEmS6hgxPSPKqUEZIFbkmIdDBjHga3pJRpKVGDdKEwxFnBoNQ8jMVkes5yJSeWZJ1UZCZRzJjNVC6bddPFUaRE1BasHYNuPQDkO0Qp4zTnXGm7UBTb6hzfMWn2nIP8suICFU+aWGiVGWMqoBwwhDjv35vDRUhrjV9KXVON9N7qgcbFkYSJv4FeqvI1WnK46rC6wHKlVLxy2qu6ohtv6s1xZDqFgv1c7szYpUVbB1zjjNWpkBj66bVmnAqmQffYrwtCNVQhUlm1ninxS2Jlur7uxo9tHJBkBaAftliq6oqVZaLevz2AZ+NMPNTRWi+WWPumm8H/uMw9MLJ1sobwxJNUm1oTYmVdI7qZpUpComqZKm6s3veBAPpTNA3ZKqzI/Nuk2aAgvZWXXSPmaSI/iO68/Cyy5sYyfD8JMEE2HEM6CXjtCIonH9fWL1z47XrCk9u1nk7Kw1paOV0Vf6q2i2tVRBjj66iMsheU6OR/r78dGbb8D7P/sx3LXnLjRaBQbxCtIiJemh0GL0Ek218VFvoo7mpjYShmEWDjVtk2A+SDtjNFV8TrNjuqOlFgwbydndk1TpekkioXTK74DkSjJUGhGRgzTNSSAyTNenEM+nqK14eMWzvgbf843fg6vPuJp5ToKg6UCmUP9s564XHW3VVgA8YUgebCBVfIeCFpXKzYuUryUyEuR0ODJTaSkJoRn6eREKko+Y/jISmcKPDKHqkhAtxxmWRzm6JF8rw9R8IZqyziZ8LmPeJcwYLQ4rQlNoXTKSF7OXoiDyop5ijJBhC6rvhmgxp3WupRB0FPExK2DQhbwf8LqZdi5y/k6ZewWmSJRmG3XMNZs8D0iySjNtGeS877HmFAmzgvlPF/DVEf3rvWpzzSYZtjo0QjaCxlBehWizR6yYfx6//jpSdbpC9YCuAuuiSrXqwU174l/1z1ZG2ZpytHabKjB+3rQ7+6tSs1hYFYnkm22S/DWe+jdhP37VO+l4GpIqZqHNRZvT4wxSZ2EvjjPcQLorkSl2YCw13VE7lRlIwKNSJjsHqcgr6HPmVrNFAcbOh4JGhWLU50cFmC6s+3d4euJfk1RVEKlSnROp0ld/Tb8wSyokXh0P884P/fH92FvbgtXYx8zWCRzpriFLhtg6swnJ/AFsIZF53XPPx7deHmGa/jsUNXW9iAJBh9RUQa2dXn1/9S+H2om1SZTWgrEdJ6T6wENtpCBpCdhAyiLDqBwhZoMZ8pn95SIeWd6Hv3j3n2B+9RAOHdqPlR7JFf9lUYbY41ktRrB1Cl47QNAOjflXzo43Y5hqS9Ibg0RRBEufmxQklMwi/mYcmH1Gu0Ey5RstFtsfr+u+nAiqiFdIcuEnJRplA42sgXAQ4py5c/Fdr/5OfPMLvwURiZW+L7OG41VbtQnVz40E5F8KK2eYh7nVPvl+CM83qWJ6tAF0jN7Kskmf+aqRdaGsaSrPJ5ny0SfxWCNRWWBal3pDLPT6WElSDJnePKgjD+vaDcguuUGZY/gmy90q8kiKeCz5PlElQ5h4Q/VaadIkXFXPzZH+q7RKYyXIlsrP2GFRvumS7pqjiA/DlMQ0034M288SfX+ANtM41WhgstXELAvxLJbpNElV0/fMRt75oMtwc6Ot0teDUasNP6ojYnoE1bOCZR4qXiSE9vPGx+/ZHKk6XcEKqGJUWaoasD7pZ8J6pDqtNdo0GJInaeXNDg0SIgLrhOq8J5tCtm3RLlVvtchURI31XT4lLW1drl7Bv2ZxZf0i1qvVU4KnKakaF4yIjnH2TiXwzBkbuWLuczSozJd3mTSwXJAMBpiZbJkCkXq+N+ibUZbW5jkxrADQa1WoUnmPX+nwNMW/llDeGOKJSFXCxp7WLKn6YZKqPbVtKNsdLPUT1BseJsIc+coRbIsSvPzinXjB+Q1c0QEm2UU36TRFV5IkGBo0rnSaPHmi9c+SKhtrTYgr9Ar2m1oKK3a6kbaqMe0lQUFmp+m8FYwwny9i2u9gGQskVkdw8Mh+7Du0Dw/ufxgP7L8f+1cOY+gxH1okNc0QxmA859Ol0gKEbK8BRzhHSRWvqVyMkbU0VbwgcmAWQmWiRaJMc6cfTZ+Zlqh1nlJ24tKCZB6StRStooVnnPsMPOeS5+D7X/8DY1JFkmGSx/ANIbFWFbzDN9s2/S+F8k96J3UBEv6VwbXKJ46Hxml9sUIdgC6SWBRhA32mY5nEcp5leX8KrLCjGMQZBrw2ZLpyESXKqpykQ3kiImWyQEcWi6ZlhaNEiWm3+WYJlJy4im4xSHtP3lj/Kn82ANVLTY8qJ5S/x+UDwzeaLpJGkWqtiaWy8Pm8PlSYYtoua0ccAKSYDQNMBzW0shgR64kSrFL1SKhq7PjChohVw7yrxrDqSpjapBmgPn7+O1J1eqMQGWcZa9cIT5XWXsUo4SAujtHpyJJUfTYHaknOehSY/UxZE0zbk0zwPavBF0aUWaojddkfGskibbzkm+qZNFY8SisuOFJ1PCRhrUCoGufGCNrioSBh40850jJggZgF77RDPqE8lb+M92UXUBWqOpDV1VVMz2wyBWQbfuXony9SduhLqKoaODw98a8plKtQjydVDZIqjaAqUvWmP74Pe7xtiFuTWO6OzPRKO1+Dv/IAXnjRFnz79btxIeXEJP2K3tsRlyiQ3iDBYOuvrZtPDApJfb0Ijqf8MGsakCowSENyGHeRlzrbljS6BSt9TfM7Ioj0IUqRlCPjU8/JTkdEQ7vzDYsEA+0PaGafLPXT+3Rfgi5g2NZVVxWKjqbF8q+e0JPWJFqtTEflQgX5033RGpEa+chkZE+C0vRamAmnUWfuiTh5YyEqo3V9CSijcUHPf6Wvzx4LNges/LGkysqGUTxCv99FPBqY/Qw1WEtJWIpGC/2ogSMU+nsHIxxkdj80LDHwm9CyFgUFUOUkzlQO9HoMFH+L8Xs9ESqbJ1WdNjnBS3JVNddR+VX50VHaLj5+FJqe09MVVCbyJw0Bhb+RjZ4+ONC0LV0jG2JbkGMLK9C2KMCueoCdoYcOOz+fhDLPRnwjwwuZnnpopm0bJFlNaftN/PUulcuGSJwAjlSdnlAJxiRUZvaH56nqCwl86HvGxs/ClrssL6WTFz1SnZKkSosYda9gG5ckqaHb6xu52OloJ1QpwRMEkZ5XXavqi+oyfZu6zgby+FXvpOPpSarGwlETGJUWSiJmnGXIKeB8NniTqRIy/BPzsYQjJU0DtrVOyxgaUWqEFXI4FhhpUyBOYjZiikv+lt1CNeGyURjpPQ5PX5x0obzeXjecWlKl7j4dk6qEdSvzGniId36QpOrh2mYs5AFmZjoI1obwl/fimrMCvOaas/GcbR7m6E+TJtHRQFXXWR91atgK6/VXMf2sYJUN6qdtKAxfGhz+kBBTXVd7Uc7pbeRI9FvA1w9etKPAMRhQmVuj85rm03nHxlZm1LY1VoRQEAGRjmh9SQK1topOCdaf/laaJPlfh9U0idRYWy3ds6EIIkpWd8SnjJbKhlFQCItQsSTMb3b1xtcTgSig6JnInNKjeOZphsFggMGwR6E+QrvRREwCkvgBRvUWDlOWPDSM8TBH4IfZAXRrTd5rmHIsJVSYDKtVsu/QKNyWT5UzzKMN2aB6bcaVdHpG9VrOGPub+/Y4/mmIlmDewbI27YDHyu6pkpw2F1l+TI9kn8+OTkGFdIqPHjNLMsQ9TLG2bC1znENSddFEC1u9HNGoj4ADVbU9o2Fj+kOSqnarQZnbsG8w71beP37+O1J1ekJtVwsP27aq3lvtVhJHtc/Wx25/iKjVYV2VTSGwpA+BWRXUbavWSD816q2ZJT6m9CUrf4vwa5HisKG7bA+q5zyzddqGawZhqn5Vg3iK8LQjVRJqVqgKyqwqwxhZOtGsSpOlKUCtAZOHdlsGiVT2EdDX2SqIkCWkDkznciqwnKNt+4mxzfhqWkIky6+Y9FNbJg7/DDydSFU6JlVvevs9eMSbwwrr1NzUJBpL8zinGePbn382rj/DLp3QZP015ONooCnDFanihULLBTBNptMc18UnAJMNdOMazhO2J/4QTdGoUPTDWiXxbk4BlUn3xjfyjwzX88ASGtvm7IjTtkgNQKo8t3E09gym/dCnfaGd8lOnTqxrYcY3iSosoSIW9ijhy/as6T8mQpJAz3uhOn/54D/GN9Ru1BqZmif0DoUoOmjf+dVoqiypKvi00sY4spxHo5FxcTZkVjI+zCh9FZnWm1jxIzzAEd0d/T4e4fMDXivYLaiUbZwYZ+ZPRZqUHaEXmuNGVPdVTiZveKHqG8ZZaZ7ZWMX1jH4bW6zqBj3py7+j9YswXZr88tyEz6xRkJUXPbvedhRWjnaeYbK/irMY0FXTHZzBDq+TxlrYAiVJmSBqLRurdruNCRIvEyLziyNentvyfSw4UnV6Qm1QpgRxEaPIWI8iS4pUHwZD0i2y8eZEA4e77KdVzdmU3/uxB/CeD38C51x8Gd74nddgjtVnE59QLTKtmB16g37JsVg9WXNVV/Qsw6yULoKqtmqdZMi46TwlOMVIlWW+NsM8JIy5Pk1OeHGVbPfB/Tke3j+PGz93q1HPd5ohLjxnF6689Dycvb2BSQ4eAwbcpoBQQVcZr5GoskFGqWbG8aksEYd/Fp62pAqzJPkkLmuLuHTKxzc86zy8/CJgB+8biz6S+mBsKyBxoFWf7HiN0Gd2IlWGndh6/0RwonxQByyqJGS5vggUUaHj2/UJflXlVf+Hmv5jfopOmdHf+J6lV+u/LBOgANPrdDo+VgThsaDoWfKwHprt5sft2xid6kTOSgJDT8aDqaNfxW2AvNuxqzRMStWX+/nnQPInJanQopkiVWmcGC2Vph00lao6V1BeiFCk7DCWgiYJVYJb1/rYF4bIJyeN3FcZyD6zGJeF8tNXnitR48TbqTmb8irPtJK6ppaNf6NNt7JqY2p4y+ShyUf+Vrlqr0RJTQUjiypjnC7PwjhwUwd0KlLF+1oHS8tmWPBZBez5RgNVJ6lqrsxjN+vnszdN4OzQx3Q6wowIP0mv/GYMTB8XNFpNTE5OmLjKwD9wpOrfLNR3y6mFSOmhWmgGFax0oZYY4ZUjA1YhFv3n7+jh99/59/jslx7AjnMvweZd52Bpfj9e//UvwPXPmMaFUusziHoMbCZn11BlOOiiafb/1EceVoJaWG2Yap0lVY9f/04mnpakStg4mrWwGaZrAwq6sN4wWqkjQ+D+A8AXH1jCDTffjS/d/Qi27DjXdBiNIEXTSzBVz3DB7lm84DmX4uqL64j5jIhVi8LFFAmFi+Z9jX2BmQdxeLrjpArljcGwglQ/N5IqffVX93JDqhKSKu3996a334395SRJU8GR/ipefeU2fOOz57CL95pJgYmIQoDVWl9qKSxZExhCYjpXxp8HCYuvRiio/VTTb7aL1fBuXfAoVOmqSiPweEcdKduKsbUx3bdg25q+kFU+qweWP+W3yWflCfNaTr9NGIS0MiISIg+CrurM3uXZmETQm/5bmJvSQdnJSYVt4sITQ400lcT3aE0oEawgCPg+PbMO+wXghvC/qulTuxJ6QGIhCpQmMbr9PuJkyPeWqGu4nKrcSSiCFrpRB/fEBb640sfDgY+s0+E9hmOiMCYqhI6Klsq74PPm2jgTSuU/76lW6Lmcssj452+Tv7woDRm5nslzEWID1iMtHqqk6zV6VsfUlC3LkPlhbevG/sew9wXWFfOMbKz4Nr2LRC7JSzR53u4tYiel7FWbOzgjKNHRB0AkVTXGXwPQlKQqznJETQ5Yp6bYaarcWOMU5vgNjwVHqk5PmPaT9I2tnSqmJIn04Krb6q9XWPXe//E9+OO/+SC+cO9BNDefi7K9FYOigfr0Nmyam8FgeR/mGgleeNU5+LZXbMZFE6xTqsejITY1Nfek+qswN9Qf/rJSTE7Xj63z/5o4CaTKkqIT4dgXnSjRxz5b6askcpVtUsrrisTvGv/cfl+Oj33uHnzhngNYHAUoG1OohZNs6BxNcgTmFyP4eZ8PLKPlx9hNunvmlg6+5euvxVQTmG1bclV1O1ohmyKDZ1Xc7PFYAVHFSajiu56WjX6r9JprGwUbL6znhSqBhe3yLI59p8PxOHlC+dg6uF62ui63TqoaJFUyyhx5Tfv13x/ejvm8aYzTr7twK1577U5c2LCbJHv9GJ1G3Xw4oek3K2oYnupFKSLPMLUAKM9k4ffVkiqbCitqFLYNkaKNLzCWUTwps4ydKv3QSfOi9RG0tIh9/5dD+asv/ZTvNqaWNEhgCmaUyg479NSihHGN1juZTjOdJjcuNlNcfNRooMYG9erkJSyVR2Ia0uopjCxl22Sc9WWulQdyAuNqTsdhK4D1avEvRkWqQhFI/k5Yz1Z6MYbDPvSNprZz8Un0klSEpolRo4OH0hpuW1nDw4zHYGIC3bxAqrpJvx6dCJMUbiKcIqj6QlJxFuERCpOHJrlHoVTKr9FASTOW5GbZCtmWSAsvYuWRxJmFOaPQ2Jga0kvSkyrvCPsOvcsGPH4d747JMLNLeWrqIcvNxIeFMhommK2HmByuYRd7s2dumcS2Wo6gu4wpvlcbW9eDOpLSx5BxC9iBTm+aMl9m6U0bafxjwZGqkwXb8h8L/9wc3lh+G/uljbB+qveZGstrBbSGm8/BR8wW01NnTfG2MALe+9E78Ffv+zgemR+gl9Xhk0zF/jRGA4Y/tQMTO85l5dHU+Iikfgh0H8U0VvCSZ+/Gt7/yfJzbYVxYtSdZbVTHVHuskwSi/GBdN4OEsQA4Nn462jjqeGKs98WPjePz14Z1TN99MkiVMXY1oa4HbYWljbaOdtPD9a7DRlXPFog1h1pnb8SM6sVrKM2XA5OmMyNFwidvWsVNtx3AbffOo5s2UPgdDDOrR6g3W3a7CEkxY6+izithNuuofbkS1OIerr7sfLz0eRfjiguBaRa64qF1jyU4fWOJxQKgQBOkhlcuqUORi+oBtE2Hvi5U9mnV6kCfqBMmRXqO6ZWQVLrEsqFPmyvhxlP7SbUqg7W+MNdNVdGjVjg5PDZOKqkaT4kULHfVA635o+tqONIqiIDo/fVazI7Jx0LhY41E4g2//Rn0kwIvOXcS3/T8K3DuNJ9mlESqmixQY+eiOJreS2HqqJJWYzddm4Hq4hMtf7WfL4dCtLDhfrkfxeTL/Z0I9lnr/5+H9bDWw/9yPFa49pnHivexeLzw/3mw+SdXYqV7BJ3OFtx8/z5s27IdWD2MLZNTGCQsLZKKxcVFBDOzSKfb+OLBVTw06GGRsmABDSSNNnKSDBG0TF/XkQBFrK+mhXPIrrpQUk6tra2ZcJa7a0i0xQ3rsfZu1AKpmnLMEskc1Q5pCkMzLam6J4Jmp0RFkGz4llRxoNhuG9IVMo5Ro4lmu4PJ6WlMTJP4tGuUlcxP+pPSTbN5ipPHOl+Ttp5xaHOw0EpHOI9p2EnSdnY7wkQ6xGjhADZNdlAn0R2xnvsNDmD5/lvuuBUvfcG1JGM9Y1isUvhKgwJHqk4WWC8eKx9lezc+FarWtJEQ6KpKpeqlLVGxOqDqWQWv9qgPHEyfSLIf1bV8rIX63CHJz4j19RDr+vs/vQ9/9u6P4O6HjyCc3Mzqr4rHNqJ+Whula1Xh1hxaO87nIFWkinWR/fQEo1X3R2wLR7CpmeElV16AVzyngwu3ATN8j9Zkk0lFI++xPTKYGvt+xnesvDVxtKnUIENHyVmrnBHW42tRabrW71SofOi67m+E3lR9wagz+mYBHB/CVwnb2AVDrOQYJ/EJXdXPjKP70KvzMjOAv+PYzsPW67ZjUSHLrw1F1IryjD8+eeN+fOrz92G+F+HQcoluEqHR2mw2AB2OErOGjBqn1mEx/IWjXxnemrVfGLJVhZeYnWgiXV2k6OvjwjOm8Pyrz8bVV8xgs9SMfGw4GqHF0Z/WbVEmmQIy6bAZmpNMaRsKvavitvpiSGRORpwTDXajvKzd2/WYSJVZL8YMWXlgoMa2gXcdqXpiOJmkSpoehSR6rToaiGTxgoSL2fDWXOU78z48xqEL1kde+ZHf+Ai2bduB77jmTDxjd9s0+JxFW2dhakX1LOXYLfDYmamcq8ZpG2M1uS2YsO2pw78yzKAuGaIeRRgmqxxp1/AHf/sJfN2rvgFntQIc2vsQmpOzGAyHmJqoI5xoYe/yGjA7C68Z4MP37cVC1MFyGWBE4pOR7NRMh+Oh2+1jdbmLvJ9geWERi4eOYNDrscBJgOoRJTLrFp+xnJtDLtbno1/81QKrnWLNqOq5OUq2se6rBtmj5OmQ9XI8ZJWNFI+ljqx3ZVDD1Nw05uZmsXXbHGVViEJTm5RpTdblSVbWWm8B589M45LZObQHI2zyC0xFNcRrS8wXDh7LEIcWu5jefhYJWo53/+O78R/f8M0I0sRsh2OM/PXux4EjVScLj02qqo9HhPUz1XlhvbwsMbDnFqpDVZ9VySYtocLWUuYsS03La9U99p0UlSI480PgvZ++H3/ydx/DrQ/NI5zegaA1i9Ueb4RNIzcLfYVP4lXKlpT9eHvHhRiVbFP1EGls96KMWF+TbBlpfx5zZFG7Ogle9Mw5XHvJDly228cOPtqhvI77K8iDCcYnQLOhJys5qpQqZjoeS6o2Yt2vXJX4cYKPwfF5a990UkmVhJJVzytwG1VBV7TAne5bKkKBQ4arxheKrRJaJ6qXDhBEDaNXUlbsOQLcdNsibr3zEB49NMBaTOE0ypGyc5OqUH6163s1equxsEir+C51gIwL3bpaXVoHsID6aLJza9S0qB1HV40Rzj1zBlc/8wJcdkEH52yyXx4IBUeKMkhuGAHA2LOwPb/O2PP9FFwibyJ9thsWKWNFGGdpZkiXzWgZyI+9IOMFe2o/X9c2Eoqb4qwAJRuPRtnhhDhZQln1U1NPqnsiuSrBSOVkguYvTf3wqGZZJgMS+IDlHGE/R2T/+28+jWdffQ1eeH5gVkyXwlIaiSaLVU0ujUccOEgLqvK2qEaJFamyf135P1VQ+dvSsXLskeUevv8n/ze++XWvx9ddezH6S0tGnuzePoulg3uRJiNMbd+BQ6tdrGQppnaegVsOL2OFPdDh1TU8Or+MfUsrWFgloVodoj9K2QFoejGkDGrYDYtJdmSukKSp2Zi54FBbBF51WvSkkltH165iJ2busbIYIjXuLI32ip1cSHll7PYof3VNJlRqG3pcNlgBCZJZ+JPvbJAEbZ2axJnbt+OsXTuxY6aF3RMBXQNb+ILh/Dzy7rKRl9JuNTtTWOrnaExuQ8aq/NFP3oa//st34dd/6a04g4PSWpIxTbZTezw4UnVysLH/fTxUdVzYKHmsHFJFsVdUjpJ91Ve8ZU19tqB5Pfu8+mpANs4e9q3l+NuPfBH/9Pn7cOv9B1FEM8j9Nnqs/2C/2dmyDT0OJEL2nSJV0r4mJfvw9ia0dlwMDmfghSRVbAvqWIM6KXq9gF/ECEaUn8kyvPRhXLpzAleeuRMvvXI3XnCeZgMUl0opY6F42iFwdcemcf1o02aw4SG1E5uyY1F5EWwe2JBsLy/Yd5xEUsXXiSDYiyaigjRHmnOVbUm1TGDBkY8YpP6rqFbpHtg/xK13HcQd9yzigb0jCiU21GgKjc4sBQOfotOWEUk6MuTM90iwWGgakVGO2HAZXpVB9v2Mj9SZHF1pp3btcZWNyIJ7RxCSYM1RoGyZ8fDSay/ERWfN4OwdVr0ooRTmLFBNQ0q3qElivkCdpj7WUpxTqSQYJ7OR6TjBHOSaeEh0qHM1gpGlaMgerykkFYquWzUrBYuu84aJrsNj4mQJZWlMpXU0o3s1EF6LjNhQpeLfmoTAmPgmCTsQ20DXWJc/9MVH8Yxn7ubIic/IOwVDgwKiTi/yJQ2nbII2oiJV1sc6XPk/NbCkujS7MDRbk0YWPf91b8auM8/D93/ba3D9NTuxvFJiuHIIc/UMm6cn0OXoWxsie+0GhiTdwfQcuqyKh5e7uHfvAdz9yH7sJdFapL9hUnIk3oG2z8oymTqQSGlwSSEQsK54GqVTYmix0HVUddvWEU0BCiJQ/MP/rGwMr5oSrGteRkKLMklfdmoAoMUXZbZQD3z0uiuIKJCmW03s3rYZF+zejbN3bceW2SlMcTTZzEZIF+cRMk1zEy1MT00gK1KSqQEGlNVBZytyEqpP3nIIf/6Xf4WDD9+P973r17Cdr/VTmUOM5f7jwJGqk4PjSdVGDfiX4wR32aFJIyWyoXs62rLUiXpS1iuzth7JuqbpWN+lU8opJfv0ecejA7zhv/46DgzbyEoSpM4m1BsTJEnWJlAfRGjDctkmGg0p++yYhKwiVYNanTJ2HCvzGvau0khw8Nrg4DXSl8n5Qfj9I5jJh3jlVbvwn7/5POxifdRTWslde50KVdoU/+pc8V4nQQLvmOwaH+m54gzHQ7ePe9KEbWea5BRh/2SQKrn1II8ywTEUYVGHPjukRGrDqMnGZe2hlklmD68An/jCo7h7zxE8uHcZgzxCrbmV9ymwcgoixr1Wshg1ctKbSJCkN/DCBsvKN3YJ2qNKiVzf+sEczIlOzSe/FDY1FrLsZ3yG7hXaekJbMfQwEcU4/8xZPPPSM3HlhZtw4W5A67nKakpGvlrNXasQi2VXm5uKYGV5agRb3aybtU6q9E7FyCpRbZctSKe2bsDL1JiDnvzKQunfOk4uqZJoUg3S9C+JskiV0SaqPNnpkTgnbD8hfdQZhYzEvsb6t58j+I6+fKBXaacUHS2sWeeIXw1ZSxko3vVI2ipbN2zNkDsWrvyfGtiSB1b6fdTbHfR4/sxv+m84uDTAK557JV77tS/Gc645G3WW/6w3RLJ8GDHJxubNmynLAuw/eAiNpiYkKFVYT7TXX85OZcAyPrw2xKG1Hu649yHsn1/EviNH0B2O+FyIiIM8LU8wEjnyG3ye9YpRsdon1gZ2QqrjctJuGQ0UZZ+ZXya50nXz1R2PWiVfXzJrPb6ILmBn2A59TLCyNilrX3b9tZibbGHb7CSmSLQCkijEjAc7pAbralMrVscx+1DJuBqGvLdK8leSZNY6W7DI137kxgfx7o98Evv3P4ozZpr4u1//cbQZzCyr/zF88DHgSNXJweOTqhNLFTtxNQbrmm0B7J8kv3Si26Yv1R06E6S+DGYtZ18qUiXr5QFvfebeNbz+v/0+gq0Xsx430V3msIRlHU5OGXI/XFlm/xwYTZXsBTXrow3p0d6Mxs4LSbDqZiAQ1evG3i9hHc9L9svqHDNWLsrazuYQZX8e00kfL75wEv/9u7ZiM+NHGse+mSFE5tMgG+/jYT6IEfkZp8VACZJTfTSJI6p7gskA/tXQ2uaW7sqn8sdqw3RF4Z50UlW9bPybLFhf9khGKGlGw0O3xh/37wFuvvUh3H7/ATxyeMSMJo0J26gxg4ZlgP5IanHfbBER93vMcIZJYeIVHokNGbH24GL42XjUZ5M9fu9YPW45lmcW8mtqQ1B99knBob2IpFIPKUyaFDy97gILZ9WQq/POmMbVl5+Bqy7djjO3ApOsGTKhVwUxIoEjwpoIluxkxh2vsjqjEFQW65VVVVZxiD4aQ37+NuvpFHqOv/hfB0eq/nk4WUJZQmkjqVLDkdioSStgroZIaiRWPJVCQIQ8Hq6h1WojoUCIJWjYMUWavqHvjARcGoWGbFEI2zZs6draIjsZ25BdmT/1qEpeNhL6MGYfZdNL3vALOLCSYjIssGW2ia9/9cvwkuuuxLlTlGVriyQok0iHfSzMHzZTaNrKRvZPRmuuukLZoKmRNXYiK6MEU1tmjO2Jvozq8VqvP8TC8goOH5nH0loXR5Z7rEe5Wfl8SNmUJBkJljVvMF0m67lkmUb9Id9RJ5lr1RskcxE7qwCz05vQbtYx25nE5ukpbJqawKbJOqbZ14jzj3rs5LRWGQeBNdn5qX4yvo2AYXGguLS0ZAzcC3WwHPUndEV9AmlD0zvAH//9DbjxnodxaLVHOVpDJ1nBP/7+T+Ac5lxro8B7HDhSdXJwPKmyXb7w+IVylFipzOlVXaieIEGw1yuYvpSO5aUvcn32vSkJj1bakxLhY19axve+7S+xmLD/Zp1pzWmxKWCwvESGFCNqtpHzuYD1NtcyKSRVMp/AxCbUZahOGSrtl91GiWlhmIUW/w2YDrYXVlk+wz4+XsMsBwMvOLeBX/7uWWzmZZEq0+tq+sj00CfAUVKlY5W2ikxVR5tj9n51LlgaJbOQY69u5DkngVQJNkhlvHQyNhH2mwKyUCZ4cZkdVYeslRl27z7ghi/sw813PIQD833EZROdmR0YJIX5XFf2UpDNARNibQpqaIQcqZHBam0pCRq9S7YCvjKfQiHVQjFMqgrFEBmRHVYG+1vB+WbONiMB84KQRE2G5b4hW8M4QUO7sNO/Xw6QjRZRDBewdTbA9ddciOufc64hVzOMlvQN0mCUJHltCggZ3TGS7G2ZzRRSFBv0sV4stuLa/FBKjidVBWuyxCav8p/taB1OjJMnlCWUVG/Xyy+QJsDQf5WktaGytU5/EgQ1WVnxlHVIHaE2mQ15LujLGKnJI9ZZYdwyNsCSKj3v8HRAYbaj0Ug59ep4ZAi84gd+Bd3aJIIsxqDPkXZUYlOrhjd9+9fhJddcgWKQoVMXsaFM666yHrJrkAaIMkCLh2qNLWm0WxNtswnx3gMH0Wi3SVwmTDcwHKVmekQa9FA2d+xApKXStOCIpEvEKiY5jzN9CWinUUTa6pRd0oq3tPdePaLTV8g1kvwew6qZjkuDT7MmGWWlGVSyLk80OVAdDiknE9OGmpotIEEbDYbm+ratO7EyGGGx10drdg7+BLCffeINX9iLv3z/x7BniZ0hCVtrdhrZYB61+fvxT3/ys7iIVb5l2onq/uPLL0eqThas/DKQdkeH8XSauv7HwlFSZaSTHUCu+5YyRNTB+srJbrRsSkJSI1mXsf9K6Vgl8eEvzuNNv/AX6EbbMSgYE40+9VEX+1gRtdwsohvykkgVST37TLNn78QsSdV57P/rbCsMk/W+jEd8G/tLmViwLXqyvWKkZIJdjNjn9tfwrG0Zfu9HzwC7ZNa9DHnMul+X0Y7SrBToaNNv0yanVCifdK50qR6uk7D16TzB+l1HFZbNnXXzjXWcFFJl5sJISrR9gronUSpNmyjyKi65m24HPvLZe/ClB/ZhmSSojKaRex0kuQqLo32tvaJNkhk9CRFtAhuIwXIkllAIWaFCoSEBlNkv/7QHmFkc0EzUWeNOCRLLInllTK5sRjGazBedmRxgJ6iF7xggzwP0KVykNp9shXxuxNHdPLxihaO9Ai94zoW4+oqzcMX5odkcV/u4tRmW3lWwItQaqoSCrYiKgf2tv5ZNm6LW+kRHN4Vlvni2MhuydYLCcljHySRVxh6FgkjTN4J28JdRr6257DgpKMK6mjDrOK/X1XGVJOmsX/qqdV3zZBueyt38U13OWb7sDC2sP0eqnk6QfMiNDJL0PsRfV37Lz2NlGKHRmaDAl6adHU7aRT1ewdZ2Ha/7htfi6195ufakNn1AW6psdgpFOoRPMqMv4rSGU8FOaDQaGNmm1cwlG2qUN4HfoDyjKM9J5FmvzdpR6qFIkErWQUnP1Jg+kFDRScOuGiNnNPaUt0aTKrnLI6PIukbJy/qm8GRnovYRUJ6qzYxI/LXIsUcSp4Gq1iLVqtfmnewkV4esx5Mehgzn0CrwgU/cjY98+mbEeQP9IsRIMwgkh6v9FdTiBZw/GeNvf/kHMDPoY4dWVD6ukzoRHKk6WbCkStVC2Njpq4/5ypCMUx+lyqxnRaRUB+0gU8GmrNNaBDczpCpCzHpXsB9T1/mRW4/g+37mz9BrbEdK8kT6zSDYn43tnFRNpe1n4Zs2wsrP33xPexaNHeeMp/84AGW91zZz8paSxGnrqloZmanDNOmi0QgMkbpyto9f+4E5TLESTxlbPiujBc35CLYPtlCPrDvrkJ+qn7bQWcUZLKrzE9VP9e3rz5tnWZGf5JrMCKiViomSoYprriQsjoiNmQLn/geA93zwFuzZ38X8kMUftZGocQctZkcbvZFsDBgER4WtRhsNstZhf4RMIzneMDYGY2JkjDspeLTxIlukIVaxvrAis1UjLczaUCpsfWHDZ5nSlATMTP9NNK0fvlWjSKnYtS5MxEKueepA9QoRKobFMKQG9WoJAi1MFjE+gwO44IwpvPZrr8V1l0RGa6WuUk4GyeZrGcZRX/RETIMyXmvWSNhFvKeqpHArUmVXXOB9/tPeZY5UPT5OLqlS+WsK13xyMLYtkKBSg+V9Ei4t2KiGZEc7x75X4iMejtBoNjEiOdfx0MGD2LZ9u+msRb5MB0fBoYavklZtqYJJM44EWSe1PUqr1UK3KyHSMNfMfdYpofqtdJupIbrqms7VSaqu69nqKL/KK2kkmozXxqPu657WTprUlBbfo/CqZ6v4VHmvo9qMvmjUc/JvV1Jeh2lTvHbo0CFs27bNPKM4KG5y/X7frKukKXiFowGUBkZPHSxR1lY4Mc+XEOHSb/lZDOo7TNGrpDQ9XKOg77C9Nmq50TJ1mnVc86yL8KJrnoGrL5pDxKri0+nL3oh+g/GaedLe59rFmrLLroauAZTki23vvkZ6JE7qFNUJSstgjyJz9pryWvets35VE6uOVGRMg1lFWP7NJea13qdnE8Y3jJpmoDoYJjz6ZrpP9XotpWNUbrh9Hh/69Odxz6OHkdSa5JfTTKeP3pADwlabEWVcMECULGBzeQTv/e03YzvLdcak8yvLL0eqThZMJWUVslpNo2QQWSbMdlQi6jwKpi2yfqhuSF6oDLSTgGB3U6A/9X+8pvX4JP2qElIIBeu1jMLTjH0W+zRJpY99cQFveutfsA5tRepFdLb+soTprKQzYQYkT8mI1Z+ETYG1O5jYdZ4x+2Gr0gMWpi+28ZCpj1XWJOxnM7T7Pbz8/An8wndPYgeDV8zLjHWecVE89cYqvupXRRjVMrSNk8wy7OyBiRzTKvtBO4BRe6zSqqM+KFHeRBwYWYktgleFzNiZgY9pgSYOJ4dU8X+/TwLSaRhDT62m+tBBjng+8nl84Ut70Jk+G4urOUbstLx608zHlhzh+7VJY7wetSlsB6vwckZShcKUSbiH7IhkiG7Xc+FFdn65jCw58pJRZrseod3UyG/ITIvRHxUUICwIvwUvtAuDjSi0o0bLrAtjSJgKlpmhbBA5m5ysY9BbVM4wfC2dwE5KG93Sl9F8MUMH3QWcuWsKrfoAef8QztzawEuvvxJXXtxGm3Jihq+0U4PaKFcVwjJ16afUYUbMeRWlmfrTu/nXLgaqnNBEp4SSrdwOJ8bJE8qqv+ukSo2KRWOIlRUbuiJIWNhxkX2rRiuV34z9ms4IxskQh4kJ/qihPxyQZFlDSjV002DpJ+TAQn2skKjBk4hUJEZQ2kR8lO5Op2Ou6TxjfVY+VESkIjHyqzzR/Qm+W8RIfvRbBGl+fh5TU1NGoIrQiNgIq6ur5rrirDDm5ubMswpXROvw4cPYunXrUX9C9U5Bca4Ik65VBK1CVW4KszpW6ZFfnSveTx0sOVXxaWPYRUOqfhr9+i5TNTTkQb2BjHnWKCn+madmim7YRStKsXWSo/OlI3j2pSRY112LZ152IbYym+wCwAqfBMu0/zG55BXZc8rgXIbhmqbTl3lGaLNCWG0667Y6Q+N7HYbWK1zKPsGc86qWm6nImO7Y9dXs8xL+xr69xrogZiQOzoNMMj5/y2248da78ehKhqXMx3LKgarXpIzuIAjbDF9mGCRiWl+InZ1f9gyp2pov4B9+981GczDNdEl6OVL1VEFkaD1v1Q/qt6SNbZc2r+nB3NdXqJqKUx0TtO+lXxPtMMO8o1DJjNKC/VeGVtO2dckvPacZPhW3tFIfuXkZP/IL78Kav9XY4tl6V0EvpyM58tmfayrQY5+rXQPQmsKkIVVNQ6pU700EjAKFUCByNcpWdq51ErrG8ipeck4db33jJuwmD9MgxvTRTJp5fvyIPRppy3ZFUqUZr/F1yWdxCuWXtMXau1Ikz5gaBcwHZlgVhoLUdL7srtX21EbtF/u2XZ1UUhVLgNdb6DEW//SFDB+88Q7ct38ZBxd6mNq0iwK7ZEH45DokUsxcaaWk+m54WugkwohRytkx+V7BAiZ3VEHrawHGtD8YUUhPm47AI7FqRVr/PEU56qGIuwiLHnZuIbmaYCcVTmKpV+Dg0hCDNEKtMY2wNY2lNVI9ZpiSLrsDGXWKuaWjmPKJ4QbqPJWzyiJmv47SKpnfHjocqc3P7yPpG2Bmiuw1X6aA6eKZV56Lr3nBZXjmGcBmeU36aGi/N/bRMWtevdk2X41FLHlLtiR4rODUZ6wFRPBEqhhXR6oeFydPKKtcMtNYMvY4FYVSg9IvTwzf+NFFdVy2UUlsqcNRiRZaa03PUwDVSWCWl5YwM7sJPdnetSf0tHGCXSrRhq+tSPr9LqZmtMqVJTgiJCItSp8GFjpKI6TGXqVfv5V2kZhK41NpmRQHkamN+SXNV0VkhIq8raysYHrati2FpXdVWiqFr+cUH4Vl2g7DrTRNIiJHjhwx2ihB71UcpAUTdL96j+KuVcQ3bdJe9DhK1J4OULFKk8iks4xILtgWL/uW/4FBfTtlg7Xt5IjMlIkMvWXfyVEaR/aUGekKH+qzMDlwIgmSfNKimjONJi4+7xxc95xn4YpLzkeLHYBatxaF1e776qLkQr5c3VtWrJkwTAdEVITqaEexoZ6bWjf+KbEu4wHWOvZbER1H0HxGBsSSnRqyaRN6DeAe3Fvis7fcgVvvvB/zXRJckqaS6crYwQ21Fh/jrK8WtdXIaMS4JBRiIn/KoZBdrtHac4AwWsKWYgnv/r03QybJotljnva4OHnt9982lINmUDa24VS/Jq2V77PQTaW2kkebdothaRpY5FrTy9riqCoRHbVUh1lln8+JcBiwP65s8VRm0Or6DFJKJNWvj9zSw5ve9hfo+pvt16/0otq7DpUzezfVNZJzs+ajbrdm0CKpSkmq1M6MTDXz6XqEgcuPBg8yNPf1SRAHl2t9vPS8CD//hjmcEalljv0JPKZMq9kwnP2tZI7iq38p80dbP2m2wGj2Negwj2gLqAEmdE2/2Xg0VS5DfO1BqjUJA2WjeYmkvY3fSSdVCkwbHqMe4WO3FPjLD9+KOx5dw6DWQp1sVGq/wYhdkOyhSIhqLKQ80/58HK3nHJWThq5RqMugM5LUKRImTgZtTLgyKs3RlAAoWNgUWLWkC4+jpU0dH5dfuBNXXrwbr3xei8kDDnD09dlbVvDpL9yDhw6sYVRrw2/OmE89MxKkmGFJ7acRovyL5TLvyZ1UeMdly5hU1bSMvioLK6U2zg19Znq8RNa9jIkJD7tna3jjq6/GCy5voUE/Td5XrRkN2NlNTJmZUcokw3JNsCxoVTzxaNJRUzyOVH1lnExSJZsEhSRFsW1sakjqCGVdYEc75qIgYsWruaZnxpekA7ANT1MtVsCZKT3WfX2e7pnGWZWvRyHFQUWmLwTrRh3eH/QNMaq0T4LSW03pKd06F5Rm/d6oLdLietJOVaj86igSJKIjv9JE6blK4yRUhKsiS7ovclRpsvQ+5XVFwKprcoqbvhzT/ZmZGSwvL5ujiJmEl+KpdCg8ETXFU2mspg8XFhaMZuyphEpNGiqVi7oJkarLv3mdVBkNz5jsINdgkEevwQGb7KbUfmMMkoEpRxmLa+kVsOw9yoCI+SM7TWmjpttNbJ+bMYtunrtzB87aug3bZmeZzxzkseg03tJg2WD8OsWtIlaC1Uyp7tv6KejS/CpYz3IzeDy8uIR9R+ax7/ASDi6uYnWQYH6pj9bUFoQTsyRZodlaKWavmI7bkJZhkJYsUUfKdJiIUB5qNwrZpWb5iO8jccyHaI0WsblYwd///pvN1iHGxpRuvWWeGI5UnRwoBzUoUFvXzIvt+G37F2TmEnIQoG+5zEBejtdVjeVWh4B0DLIN12yLSkhSSFIuS0bGtKWtUYGBKqaPISurwpGm6sNf7JJUvRNrJFXafcIsYsv4VORfVUnTzZIHKQlLTcoNzdiQVGlJhaxGGciIKbxMwZu2ZhuAxzQVHgl+JrlRwxT71FecH+Jt/2EOO3mdtMdmgHEZtJCuJHHBdmhsuhQf3tPSI2qWGisoeOWFSKESqq5fklP7uioPVS/Npu6E9jU1W0KpwW2AUiecNFJFCmEY64Ee8P/97o340kMxsomdvNZAhyPwRx55hIJWC3iquBNGVPvy0TFVXqoGzNGg5kQZO90rxqo5Y4PCi7JGSpiZRdxD04txxtYQF5/TweUXz+GKiyexlbxs2MvQbgTGcI75hkVG6NY7M3z0s7fh5tseYI2Z5jtaHJ1x1M2C0CBMBafpRZG+vtbGYL6Jv0pfITsIK8BUQchehwVmpmfNtdWVZWZ6itkZjtYpbAYLD+LFz9yGH/iOq3AGJUzEa1qTI5WhnU8yyHD5k+GqCNSB8y0SKKYmaLpQ1dRN/30lnCyhLGorUqWyrkYflUhS01FJWWK18V3SCBixYX4NR2tmq6IRCVSz3kBM0qRNaivyoidHFE5Kg7680lShffJYKD0iHkqbSFClqdo4pVaRoEpbJaJUvUcaJ10X2ammEYUqnzYKh/vuuw8XXHCBOd+/fz927txpCNIsO3r5r/wqTAmbSgNVoXpmIxQX+TNanQ1kUOGJTG0kZpWG7amGSl4yw4rJBCukCJd+809jEO1ivHmfZcXxH6JGiJACVh1DnNuRLfIuBSBHupvmrFG5mRdhWEy7oLSrzFWjdEnPa1kOkXV9xhOMWZQvG8yjRUOPlJViWSoDdTYby01C3hzHDEvTk9roWSv/ayBaUgiKLOlrQk37pSR3k1Ozspgw+/epQ/ECqc7sUKBgfalLM8bEJmpe5t18kGUIdqoUZOx1SZso8xrpCG1pqvIlvPv/vhlT9OpI1VMLyS9hqC9OSYplI6UpLSkjVM6yBVXhzEsZymKXQutzd6X4xw98FBMzc3jxy5+FM3fZ8pMTyaizWJr8oRavXilO1kjYVDMt4eibD3e0pAzw0dsX8f0/J1K1hW1FIdAfnzd13sROPSp7Nw4gpZk3BtSGVG1GuOtC3ufgS4yHfkWqpHnVWxWG9qcsSXZyDDkorWGi18fLzo/wtjfOYVcwZDfNZ+nPZz+qdlL62gtDmrj1di277hEjyiZm2uB9e4APfezzODC/jGddez1edX3L1OHq+0GF12BYinWeDE1btl8sqidY7yME2zeQwLEiKwVPGpSxFC244Y4efu2PPo3VbCuSaM5EesfOzUYVWZCxKHLDjIRLK5VrlEcmWUsYQUoTv04SUljDcTW8RsSKwdGuWZ+K11tegW0zDVx23lZc96zduOoKsktbV0iQepgK7ChdCVNmKlMVr8OsSAcXgX/84M14+MAKz2Nmfx319hwaExxRM9eXVrvwm1NjUqXsskWiDDZg/Or1JlbpT8alM5NTxl+vu2qyeBNLpNZ9CG/+j6/Ci6+gX8ZXrFeh9QclGi0SN0ZMBaAqI0hQW5hvJZgOR6q+Ek4uqbLhqJzUuW0kVyop2cPINHGdWNkGZj9dts//4A//ID70/g/hz//8z/Hc51xjfKnOiPDoKfmRKrqqAzJoF0SeTIdGEi4itFEDJYgkGZU18Qd/8Af4/Oc/jx//8R/HmWeeefS6tEyVZqjKI4Up4lIZnIvsVJ3zrbfeiu///u/HOeecgz/6oz8y7xMB+F//638Z7dGP/diPYfv27Thw4AB27Nhhnnnb296G3/3d38WLX/xiXHrppWawpGuVhqwiexsJYDWtqLDlqviKOCqdInBPtbaqEr62RY5J1et+Fv3GTo6o7XRaEarMKEAp5KVXLjk4E0n0KHsyCt4kpswwI2N6Vp3QkfJOX/1JS6mysHlvR8LSfEoLJI15Tpnim8HXWCbwtzFoV20Zl5c5Vuf0JgGvaRlzvfTh+TI65+BU5Igdq/SuctKqKd8t0WUnIWalbqDOcjCaVqZL1+RR9Wa8W4A2WVbt124SNQ54hwNZyuYkVSSQwyVjU2VIFb2T3qtb5L9x/B8DjlSdHFhSRbLMvjUK7CClz3an/fU0EFCJP7IATLOJ3XcQ+LU/eD/e/4mbsXnXedh5zvlYXFuijy7O3L0Jl194Li6/YDfO3gps4phM+ilJIrXaimCplKv2orA/ftcKvudn/9RoqkSQdEfaTdVWHY0Gir8MqaIsq3kyLWBIzU1HNVWa2ZHc1TS16r9s+djls06xzrIvzcjy1PaaKyRVF9XxS/9xGtsZC+1loveYus4zxUtxGtAtscrOL+fs34e4/6G9uPFzX8Rd9+7BqIjgt2cRNmdRn5jleCHH93z7S3DpmcAZM3Y6W2nNeySSXoqoqVxQvdXX4fqQSW+0sJZpas9Pck3W134HmJrfeudn8NEblxB2zkNjeieWKTjXlg+YxenqHElp6fohh0/DbETWGBihVCZW2Bj7BEIES8smSGWeDhbQrPWxa3OI83e1cM0VZ+LqK6YxxfSlZMpaSbVB4dBg+COOqPTpszQAUtmlEhLMAI3eTEazsG68bYQbbrofdz48j0Ndllg4RcLcNouMBg1VRnpSyZrqonMdLbReTJ3vqlaF1byz0qVOtojX4KXzeM2LL8T3fuOZmGO98nMya97vMXMarNiWueuPilyVQNVTXbdEuqqDI1VfCSdTKJtOzwRly0c9lzRR6lp02daKscbKXFmHfi33unjFy1+JZz/rWbjuuuvw71//Xeiu9Qy5ELFQvPVZsup8IFsHQgKm0uYIg8HoGO2SyIlIiDpEnev4f/7P/8G9995ryJUgGyyRmiqMbGxPtdHgvco3HatpuHe961244YYb8MlPfhI33XSTIT56h6b89u7di7PPPvvo13tVmK95zWvwohe9CD/6oz9qyNV73/te/MM//IMhR0qj4qEyqchV9Xylvaq0VAcPHjSETfFRvituhhw8RbCkSm1R5Zxh2ZCqn0e3vtvEL5edJweBSdon56K4llmAR9Hr19liWYZ81lh3SB4wHYm++JWWR3VTRFfEiuUs0cKhpSVMIjRG1qj1ixRpJGzrxbqVi9VUCToe1VhRmFjSRRnGo5ZpqWUS7ySAui67Kh6tnzH6jHe9TnnZMNqsUZrYOMqPCLyxnRJY/2XKkWiwx/iz3EXA7NdjOeokVZ3hPLZnR/D3f/BmTHoZR/kJU/+VzRccqTpZkMzS0hssB087e7CuSkPA+qg7IlSHSTB+/8/fi4/ceBeSxiYULe3jOI1wcg5BcwJhPSDhHiAfdtmXDTDVqOHMLZM4/4wt2L25hasuamCGTGOW/KLDYmZRst+1b/74bWt408//mbGp0tY1pt6ybmvQUCGncNWWTLKp0rqSuTRVzWlM7rzIfBgRa7pN9V9T5XzMI7uSxkwb22d+jkT7frG+R2t9fM0lLfziv29gC69I69pjs5S5qGj/Q49KE3UE9+45hHsf2YeHHtlvpsPDusx/GKewDW2RM4gZHkndzJYzMTnVwvLC/biO/OL6y3bjuvNCXDarwQKzkHkRSLVs0iIzgGNJlVnPkPXYttwNkHfrNOLWx8PjjmUD1v1s9Cun4mTi+J4jywkmZzZhjR3MocP7KLytsay2c5DhuToIqfvNauj6yooPS60uSiFluDJb2yoH8TL8/gHM+Ku47vIt+J5vvhY/8Por8dJnTmMTCzLAEJ1wRCYdYIIVR+tZ1MMGEyZBReHIAtTSKS0WxgRTq9GU2OdLrmjgzd99OX7ojS/Bcy7dzHfNo84R1+YO+XXZJxNOjOqv2kZGFcMurUA+zFGoRnyJ5phZeY0wkuBSBymh2ZzCg/sW0Oct5cdII1fCbCPBo1FN6mQMq0QUxHOlQPyyYnH4V8WGwhE00mJdUKlsvFNpsFTvN+Lmm2822haRnv/x//sZdsDsbMbaGhln/+Iv/iJe/epX46qrrsJbf/6tZppQ7UHk6OKLL8auXbvw7/7dv8Mdd9xhnhER+dVf/VVcffXVhoi84x3vMNodTbc9/PDD+KEf+iGjAfv6r/96ozESpMH61m/9VkNkXvGKVxjCpPZXTUUpTBEq2T391m/9Ft70pjfhec97Hv7mb/7GkCLF92d+5mfwO7/zO+Zdl112GX75l3/Z2Ej95E/+JD72sY/hN3/zN/ETP/ETZprwwgsvNMc9e/bgG7/xG3HRRReZ6cRPfepThli96lWvMnESoRKJUzgyVheh+oVf+AX8yI/8iGlTFXF4qqDcqZzKVfTBlC8FvNqs6aS0vg6Ffp1EtdWZhKdpSw7cFH8RBX0ZmJCMxImIoohICx79qiPRVJ8GYdqFwZAI3peNibXfq/OuSBAHgIYM8ZpkGl3JcEWM5DQSV1xkNqDnpBHIZZhuBo6UIZSpmqLQp/BmmkLyScKe18zyMtMz5ICRmaLUwqQliZ8Z6YWe2VWCCWHglFwyyWgyjdOb0JriM5RtpaZsNMAcO6uhVS4pzyS97bnDUwtD3PlPBulVm9o/n+IDH/sc/uMP/3d86HN3IW1vQ7c2xQFfhjicQTBzNvreZswnM+h6u5FNXoJs+jIsemfii4fq+PubjuDtH7gPP/qLn8BP/fZN+NW/eRh/eeMQn3oAuLcLHBSp8SeNsbmpH2pFrNtmmoxxqJyWEbJES342QvGUq66Pw9AjdNJcqYYZw+SMjINtcFRTzw08wL72xgd7+MiXDuBNv/BuvOEt78D3/dRv4Sd/5R34/b/5FD71pUPY34uQNHdiMWtjEMxiGG3CUDu3SEu1aSey9hYcGJI7bLkCn7ivi7e9/f34lXd8Fvcc1JQjSRV5RV8fuY3jV8VSML3A0XZwAuiWnILSOk4GlYQh1Kg1mtOdmA1Q5mAan5nfdIeYykcPdLFK2rhpbsqQm95giImZrRzFJygaTawmQwyzIWPKYNm4SwoZWdYbfY0fGRKWLD6InfV5XHd+hN/4qZfgx77rIlx7wfjLOmasxjmBlHOZyIiglat9pAOydGa4RyEjFrrKkZi+cDCDRaaBPBWNvGfI1bPPA97yvVfif//0q/Cq52xBc/AQmrKNoFCM/CbSoRYA7aBkxyi2bPb8I5M261cxvh6ZkoRWUpSI+YI08JHw+p6D82YriiELe4LPa/TX0EZxhLJSlhWaVNS5BJE67ZrUoHInLhaHfyUYGaSOiB1b5SSYVDJyOUdY0iWq81H/ozua0i7ZCen87b/3h3jLf/kxNNm5beUgQvZK0hYJCked7wc+8AG8733vM2RJREiamx/+4R/GP/7jP2Lfvn2GbEgDlGWZ0QC9+93vNlqkBx98EP/1v/5Xo+GRAbg0TG95y1vM7927d+Ptb3+7ec8P/uAPGi2ZNES/9Eu/ZEjNRs2ABjQiWSI8mi4Umfuu7/ouM12pe4qPiJpIm7ROIkCKt97z1re+Fddeey1+9md/1kz5VeRMJOENb3gDvu/7vg+333473v/+9+Prvu7rjJbs/PPPN/kg6PoLX/hCfOELXzBhKl0ve9nLTHyeDjCDKR4liyTyCk9fg7IxjzXL5ptuCvM8I4Ea0VdGWcT6IhOSRFr2GsfoWl6dJEoCrgy1hz5JDMtSNqJJ3Ec9oryj/4yj35IjcPOJcEEZE5EImWViKEnp30B1Rl8s6WtiXwsvMjRpqDStQ7mkkXc9avOcEjtNKd34jpxhyO6pLrnKfM1ln5owzrw/GvI4FuaEtOgyGFZcUzMA1D1mAmVcweQM+J4Bib+0/rZxqENkenmuze2l+ZfzyoghaHrEya+nDsp79XUqz4g/WSasm+pnpjeHmGf/O6zPIWnvwGpBEh6xnrZJyBNNwY9MyUuKma9AkxL9PMTQn+YzW7AWbcfhYAcORefh9u42vPuODL/wd/fhLX90K37wNx/AT/zhMj54Z47Yl16HsWBgUmqonkv06KM0o+jQzZT9qIifIqZ2Um/zXaxXmoqWGBhXQVU3KYPzoGS/alU8WjNL/f/sTAeLwxI/+kv34zt+4j34T299F97yW/+ID3xpEV94NMP+ZNJ8YJI3dyALZpDUtN4/01ufJK/rYNRnYLnVzMbkKoXqezDBut6inzPhb74cd+7vUxbbyWz1183JaUZAiSG/YARtby2qp+E1r5vfjwGl1aZMjrAXzNGe2skqEawKdulKMtYjbGRaUp4jrVSCUh0UI5yRbmovKftVgOZXFbZCEapQyZoHyxiu7sfLrjkPP/D6l+K7X/csnD0DTDLOHQbV4nMhhZCMLvWUOrYeO4bBKDZGmR4riey65tmP1RospHAK+weFWR1YWjRDXNIRonIVzXIAmcqeNwG88bUX4Vf/5zfhinO3oe6ljDaziaM7TZOYT1KZF+bz0qNJtnljRmvqWM2RjqRQU42PHGB6WGaMpo2k8WGfsk9uyP4xyz2R5sPhqYLKp3IsIjo1G20LovNAGgV9q84ORvVEa06trXbx2U/fiOdfdz0G/SF+8r/9v/iFn3+bIRaqRyIs11xzDSJ2Yu1mC+eefR4+c8NnMT09izWOgs455zySixKXXHIJ7r//ftNxffzjHzeaK2l5pKkSEdJRmiFNw2k5AoX/nOc8Bw899JAhXnfddZexhdJ6VM997nNNeB/84AcNgRJsnfaN1kn+NN0nEibtmIiTwpf2TFOB8nvWWWfhpS99qSFYIgeKS0UQ5U9TfNJ+3XjjjSZOeu7cc881U4TSdr3+9a/HAw88YOKjKcXXve51Jp5KiwiYNGEKU9OHTyVUrhrgCKbZmjP+JVGqftn6wJpgNNfr8kCjafmImiF98IwERr2Clo3R0hpGi0Vios2TtZintvYAZYXZ3or+pO3KmH7tI9rRBrR8Bj2OjDnAm2R5dJj3/eUVetOm3E00pygUOXpOOHKLu5qKDDAxOWvCM5ookqhBb40kbcjBZsn3eqgzbkGrwXOGTZlWrdKushSpw1D1Y4MEMtoEOo0gK4hQmevm1KTbPGH+uEHhUw9bZra3WS8LFU9GQpJwUJByUFDSWYmm+l2Vufpme1QfVtRYj2p1xF4bQ49t3JvGWm0W3WArSdYurNXPwGJtGx7qTeCWRxN85q6D7Pu1OTh7dtbTgvVZmlsttlnkGjisa840CJP80DXzlT/bi7yYjy90nYMVTUvrushYqXWjwggNDQD4iAZ6d973CG6++wge3Jewv29ireygLxLIeMbaoYXxTqG1r5p8JCL3YP1kmgzpNI6/j9Zl9d/SGMtvC3Ft0qRbUIzVtm2e2vhbHJ/Lx54fxbGPncCLoZc80Mn4TMw24ZAmZaeia/c9uJ+vIiPUDtSSRRQmRn3HTJZa0ggcPasjyYQtfrG9HFqxfKY+QCs7iFc8/1w87wrg3B22qQbQHmsUVHRhRN9lwrPCGL1FrTZqFDDSB9y1kuH/e8eH8SM/94d4+/vuxwKvrVF4feKuLt76Wx/FCuV2EM6RmE2hlTbh9VMEvNZmuvT14DVXnYfQH5FADZUEDGT1LwZtYLNW2qUq5us5xiMFrc9KK5X83fc8xGv62qBgXG2av7wQVJAWpjIfrdwOT1doOkzISC5EHiohobotTZHuiyCIiIhgiGjomsiHSIO0NrJ/kmG2pvo0FabfP//zP28Il8iLpgJFQNQRazqx+jJO75TWSwbjFfGRExQX2UGJBMmPwpVGSO/RWlAiYSJFepdImOJy2223Ge2SSJfSobWm/vqv/9qEoWc0XanwRX4qwqM4SDslIqb4Ka2a9pMhu6YBFQ8JS6VZ8dY7RZo0najpf12XBuuv/uqvDAnUVOF5551n4lxNTz71kFSr2umGNjke/OiS2quckQY6H/tOmI4ij0mkVC4J8pUFsyCo9oFsT21Cwk6nH1MeSpTJUDei4NbO+tqzjGQpXxuiu7xG2cqR8cwmaH/StcVl5hu7hunNiIcFVkmihgOVh0/yNQG/pS9ktExFimzAjouEX3uaNllOrYAD4P4akqXD7KR6aITsWLuryLprlJkRAso2acFQxJiY6zDMSlb9y6C8cDgdYJUDFVS3Lcb9HcmHZlrMHn5BHR7rrPz3RgkWVtaABvtUXtM0tNZ0o0CgI4HTqv2UB/oiVWZeIk9ah9Lz2J/XYtKYAdrsc9tByTrKR+h87blEGWNIPaul+FfMtufXW6z3bfKhcTzJASSHGgz/qe5C13Puy6Bb49vHRVIC09zhyKb6pFfQJsKSE/c+tJeixG49k5Cy1ozBnB3VVh2Q2eSYMPvxSSyJnNHJOLQV5dg04eHCszgi4m15GfW7qGuphTKFtqLR9Itma/WZIykbC8UnEfIxpLAq6wFuu/8hHFlcwcc+fgN+7Cd/B9//w2/D773jnXjg8BHcct8hHF4dmXQFrDHTLMFplvtkJIsG4IoLfUyEWom2S/JVYJRpkTKfxEh2EyzVo2lWWujGTFcjVo3gjF0EydW9DzzCykfhaTRz8qvnTHX8MuiOzQmHpztEEgSRCqHS/siA+y//8i/xd3/3d4Z4iBRpNKYv8774xS+aqTSRDDM6G0OESQTlwx/+MP7sz/4M//RP/2Q0U2984xsNKRMBefnLX260O4KeFznSAEVTbiI1IiMiPCIzipPamGyidF8aK/n/3Oc+h+/4ju8whErTetJGaepQhEk2VJpyVFw/+9nP4jd+4zdMGCJuelaQJmrLFpmDso6O27HeJyiOmnqU/ZYM5wXFSfmk5/U+aa2kCZNdluzJpF3Te+Vf9mfSconoKQ+fSqgdnogcSD5ZHfKGVsq2Lklo/a+L0np7gqNzkqnhKkISlU6zhtnpFhp+QcLTpZxiOJruM5MZiTEGBp3H0Xqd17aetYv3cyQLB0nQlinbZM4QG6fPxbdtnWKYfN9oFejOkxwtokw58AspecTjghR+3kPeOww/nseU18OmoI9pv4dtDRLug/djajLExKYZlJSr2Rpla2eafK6J3oHD6+JNMCRyo1Ti+XhQ7XB6wtRy1mnjqgtHwXqn2SYetfuJzF5E4EVwQpL7kEdZjGvdvVKzVKormqpRJ55zEJBrUe+cdZl1Px8akl+wjufdw8iWH0F85EEUq4/CGxxBI1vDBOv8RJCbKW8pXSh8UPTUyfMaBxuSfxRGRh5pZXaZRDzVWJcEx0E3JCtO5KHaA03bK2hFcnONGet5NejTxQPzXZIru0ZEXspYUnO8VlLVJJDHhSRtjwWParxaD4rn+iR5dtNmTLHvMu2XTssYaPXpMvPhjw3dQhaalvms8ViSJWsrCK0Xup2EeHDkAF71/Gfh5378P+BXf+778d/e/EZc9P9n7zsALCuqtL+Xc+fuyYGBmWHIQbJESQYwIQrmrOuqq+uuYXX9DbtrWHNa47oGVMwBVEAlByUKA8wAk6enp/PL+b3/+0692/1mGBCRYQZ5Z6b63ndv3aq6dU+d+s6pU1Wr5mHLxAYsOmAuEn1Rc4zX0g0a/JVnWMX+AUM9wEA3gVHVrWwsbzEtICYzuWxxHiC02uH7ubU0qNnaO1LIsnxyOt02nkWaCWopDlaOHjBGE+yymK34s+Sl26G9mQSiBEA8C5FAUY0gSj5CWq9JDt9q5BrWEskq87nPfc5m0QlsaKkCWZRkpRGIkDVI1zV8J/AiAHXZZZcZ0FG68neS35GWG5D/1VOf+lQDXhIoAk9KS+kIUAlsyVoky498sQRqBKC+9a1v2XCbAI7Alny2ZFV79atfbWX0wJDKqPdavXq1WY0kpBSUt8ooQCXwI6uU9/4qpyxbixcvtqHGL33pSxZH9SGfLjnYi2SlkoO7HOylVcqCJgAnAKnfAmcCfXsP7Sz9WnJqh16GWrsNG3hECcZ23aSsSIb8iDXzqKe3oTa5GT4eU800eptZ9Ppy6CHY6W1OIVkaQaq8Hd31ScTq09i+5nZmkSfoiSAZpgJZGaXCl2fIopLegJH1N6OR3Yg5PVUsmEv+SZYR82vxhzSlDo+VTdinr4BjViRx4qoenHJAD05d1Y2VqRyaW2/F/r0ExBkCtjF+QwonTSWvV7T+H+VRRM4QstK1vyNpRuY9mCTGOpLr74l24nt1U96RwUe5I2VCy7Bp3kKJHWm55jMf4rLcIVoR/ewztV9elEpEhD1rsE7FoF4g0Ge/WpxGMztOADUMjG9EY+salNbfisJ9N6Cw7k8o8Ly45U7UxtYgkN6IWHkUyUYWyUAB8WiTbavO/rZivlAUHGhSidFqIIImM8uR7CF6UO6tejNyNx9cQHUYFo9vIGuRXRPg4XH9JmpCMm2zGhsas/QpuDTUCWiz0lnh1E4CK0qHwigWxP77LbL05NstC6AntrSBoxYCdS2ZHZtshEzPOjqeRXlr7f05HLjv/rjwuSdj30Ggn1GP3n8eTjv5OCRScVvITKXIlqs2pKrnS9U8tKS9Jp4Tk2G/Bb0EaXwRreYe1BR4LXkvDb1VDh3MQtWqnxlrFYWsgBaDZv9pWqfycssm8P3YGSsJzw/DvbMjS9LEU0dE7c0kECNwIQDk+SbJUiQrkxyuBbgEEA4++GCzwGhm3U9+8pMZZ25ZdU488UQLL3zhCw1MaUhQ4EdgSI7ocjTXUNynP/1p86dSHM2mk5VH9zREqHII0MipXABIwETXBICuuOIKvP/97zcrl55VeWUtUnk1LKjyahbheeedZ+USENMQn95JFiWVV8N/GprTM7K26ai2r3fTmlZ6FwVZtGR1EiDSTELNIFReclgXmBR4Emk2opZeeN7znmfpHHbYYea8fsghh9h9ATGBvr2BWs2zRV4Lde3VyI6SSmz3km8tGSelUGvxNTP81tTAo9U0FsQbOHr5EM556kF4xTNPxMufcRxecvoReN4J++PkVUM4cE4YixM1dNfGUaGmvmDJAKLaKis3jHBhGAOBaTxlcRKvO/ep+OS/vgpf+n//iHe/8pk4//jlOHphGEtiWQw1J5Asj1gH9NaXnov/9+an4WNvfire8aqn4iXPPArveMXJ+PqHX4offfYf8ZpnHoOTlvdjfriAbnZUkXIOtfSEbaszONBn7+CoJYtmXlrnPFjQuRevQ3+35LH+bBMgcGG716dnX+wPRmyYT37E6us1kxVaa4pH+ZtqqZhamYpFkUFW0dw0SlNjqGTGUSsQXJUIirSjik0OmybYGgemNhJo3Y/qltXIb7gT6Q13Ibv5Hmsb1YlNCJbG4WPbClSyBG1EURHmHU0gHE8hEHWjCHuSHnadKs3xE/nMoUsnCs5vSjMDqxSkWuukSjDS8EWhwZBv/XIdfnjVMHK+AV4LW2Xbhokk2XO0AXJAawuQ2jPWFY3URtjIh+I5vOnFp+CopcBAuIGKTOPsNOqVBmKanmxIxIdSpcz61IJfTRS1wVUoiJvuGMNvr70D84bm4DXnHYxKjnkGiZBjEUwxjze94/N48xtfjMP37bXZf/JUkZ9WuVK0ack1rTrLa5fcMIov/PRPyPgXoODrYZwommSMrmgEtXqFORKps0yyOWnWnkCSFiQTyWwabGTQhRGcd8YqvOLs+QhW60hp6qEsY6oXqw2R3kVLV6hORbLHCbS2wFqHdkmyyJjpt0XqpB+GlR9zEgARCNAQn7ffnUCRLEAilU8gQ4DCG3ITkNF9WahUVvlEKZ4UAm/JBYETWZxk1fFAjsCM4mu4Tc6Zuqbn1CY8XyuPBOIErrxFNO+9914DRkpTgEt1prRUFj3rxRcw031Zn5SfSOd6TmXz0vHqXc/JOqZ611FAS8N9uq9zzyImACdrm55RXI8EGDWcKOuXV496Z+/6niJxkFOeNGWmQZnhtw2VC5G5Vm9ydK375eCrdq/Y5Du2ZwEO6uoIEZh0pQhsN6zB/gt6cNT+S3HKMYfh2MOXGjaRDqg+gBjX5IxmB9vSK2TlyTQVwi2T+PpPLsP4xCQO3W8+nvf0U3DYyh4k5U9L0VEsEHzxhxY21+irXFYmC8C9G/O4/ta7cfOdd6FMObVq+b44+4zTcNTKiCmJystHHTGXKVD8xNHgK/xxbRPfveRq3L5+HMHeuaiHYpgYHUcgpf0plaHWy+KDUgvl9qD+wC7IEb+OcCOHSGUMQ/Vt+MVX3kFgB1tVXZJr9kvvmjw+8ujxbr9/v6QvzfoV6pGjOavUzz5bK6jJBvzf/3c9vn7JHSiGhlAS04mBxPXxASTnrYI8m+SgouUKdqD2D6ql+Sl7fOzHFUs7hCionfs0i3DzWgqyFmAq8ijQpBmtdRkpWC5N87fyyZ+KnBaQb5W+P2+TvzRTvyFP91b7stm27PcRSbG85GYBuFAUoSRBFHmoWiqaZVh4pak8lf4MsZzejgdsAE2tIsp387PNNsrsvQPiceaT6EV8/iqUmjHmqMVrK3wyi8HqWvzhP4/DQj3OIL535iNRu4Xa3RftVHO7olZU7wmSPpvm3emSAI0WMlST08aKm7dNIRiK8yWp76j+7OMoa8IQfsN2fxJlb9t7MFjhmjI71zE1thGL2TdpEI1fAo0AKyHANEPy5Odr+XSHx0DU9h3KVaoIEFCNTBTwnR9chDtWr7YxNy1JH+V3iBFQTRAIq68IsNIu+vbFWLdx2t6jzGtaJyhCCRXjMyE+IxG5z/w+RImUmgRQ6rxq8g1rdSCz5KrZnUmouivaG1BCST5lm7ZNmKVKplKjB9U4n2hZuTr0xCDPSiW+8ACVwJAAk4bKBEp0FKASeBHA0DU9J8GjITkBKgEZCQWBFoEUBQEdgQuBGeUhQCZwI4Al8hzHBYQUV52TFwTOdF0kQCVgJSAkcKM8VF7FER8rvsqk+Lqm8nik9L0OT4BHwMezWIn0DhryVDxvSNDzM1PHqLx0FKASwFK+iqO6EOlcwEnpeH5ZemeVSce9mTwLs0fsA1rUoGxRqy8ht30DDlu+AP/y+pfgfW9+Dp711KWYz+qJVsgTbOoR1neiSMBcyaPPR6BNGbWIYZAh2qygMr4JJx20DK993tNx1mE9trBhslDBAvYNy1M+DLCD6qtMorecRm+pivnsFJ66bwL/+IKj8Ml3vhLPPuk4bLz7Llz0ja/jhpu2Ypz9Wpl9jbbbWNwfx9xoHUP8vKcd6MO7XnkyXnjG4YiVRpDffh/5WTtEOPVOnZ4ZqXZ4ZwkyJ8x2qooO/V1Rez9N8vhAIUgFiShKuKjOvrdSLFN2VW00p8p+Pz5/KSJDi4Eecm5qgB1wrwuJfjIyQ0jgiCGYYN+u7W2o3NXkasC0CkUCKyasdqVVA6x98be2SMpPA5kJ/iQ4K2dt8kXTlgehbJV1WCCMfe+epoftzWUvmZEZIv7wGpJewKxUFIyRYBRpueQztXse2EKgIgQaNEClDRhlTlbQGi1aXM57eS2VIif2gJ9okdJJK59Xa2WsXDof3ewbEoybqzRQ9sVtpfZ8Q5t8Utvic2nWa6biQ5mAJEjNayqbwRwKjMVLhhDvjeCy6/6A9VOMx+cmGD/Gb/izS7YREacwPpJGbrJo30rvFxb6bb2r/LMk5lcsIcqvFtCdYqdCIRiPJ23YMavViFsgyNaqsnMmZMHVjnBuMKAZPnWs3zpmq7uWyGy2NIzFbwFS/nHB1bQQ8k41/qQkARSRrDLtpE5XJP5Rp6/O2YsrgKHrAia7mwQSRO2WF89iJLChssnqIxAh0OABI++350OlOB55IElAQ+RZrrzhMD3jUXu+yssL7emJvO1eBG5Ees6LI7CkMom8a95vkfeOUiIUV+SBLc9CJfLAmkfePe++wJbu6zkPQLWn3a6kKE77u+0p8srgLFGt3xLwJFtChp2HrjUzWQcmZX1m+4/Ih4SAZ060ije88CycdtgAIpSLYWJRjeZFfVQ+C2n0xagkUpOP8XduetxWo5Y42j5dw9e+9jUcuXIfvOJ5Z+GYlexsxtnlsEPpCtZQZYcSrOYQbhTQFSKQbZYRrqQRqzGtaglJNo95UeClzz0S//rmt2BoYC4+88Wv4cqb1iLOTyz/Trlm+KoVxq8Q1DVw2Bzgjc9fhhefeSTmxyooTW42i7vktZE3xOcdd0Gy2rua6tDfBc18ax138d35sYV77KOzzVIw2EQu7QPoD0fhi3Qj1DsX3Yv3R+/+R6L/4OPRd9DxSK08Fon9jqAwWwr0LaFwI/CKUInyUcb52I7kzyfQFWZnHeM5QZivZw7CA/MQn7MAybnzLYQoR4KSJZq0VmLvSsxgTvBS2tRM/xIzttr1DkcGwyWPAc1Kw4ek9iiukmWl0mw7kYSiPKvklLZ+G9+voZelYGX5FKTZ2cwZQ5+tD0Rgwf4QAe3mSDBV0UwBvpDSClN4DfQmbRX0NLWrQDiCadbZ2lFGZXStPfXdH/0Jb3/PZ3DDLffbkg1KtSfVxVIA//j6C/D+D7wB5134QnzhGz/GD3+7Gb+5ZhL//OFLsXnbJA446EA846zTsGj+gCsOnzeELZMmSRanRlWrVQD7ylxGYRUJsLxeGW16jaitXpQQX9bTWhVPli2ZKjMSlpOMHdQSEK0Iu6DZO0r3EXyWv2PyOlrPF8f85VpML2uJ1+mpc9Y1gRWBK133LDV7kjzQ4IFAASOBKAEQOYsLnOgdBSLaSeVvBygd2hMkoSCrs4470kzzJfA1HiSv2Tdm+9cCh0WCHgGeVz/vbBy17xz0U1Sk/GUEpEmTR7XDhfYxzWcm5amgZaIM+Mr+R3yGH/3oJ7a/3oXPORsHLyEA5vWucAOxsOQty8NOpGJbxkjeuHKyMJR7VeZbRqRRQpTtoU5N8pAVEbz4Bc+2fScvvfwP+OEVDyDAfisnlqQS65MFvphGfSqPHibzjGOX4rmnHI1u7fbf2iaMGbaOykfk/e7Qk4s8XttV2LG/kpN4WX06Iij5wigH4ygTLFUSc9BIzUeTQGrgEIIsBYKtLoKt2MqnILT4APj65lPb60Wwfy6CvYMIdPE81m0jPuRKFOt+5Ct1mxii3QQcN7IMWkPOM6ka2tuz9MgkuIQJg4ptVWkFd4/KulKmkAlQSNx5zyRKdfkLOR8jR85KNQOoRBQcstr4NUzGdKvligkpASpphyefcBw7S3auGvdfncZ7PnwRvvb9q/Hzq3L43s/W4JbVm7FhexZVXw+0Dtj2cQ19VDE2vNkczeV/cNCBvTjljHPw6z/cjG/+6DIMLtofBxxxIF768gNx1llPwaI57NiYt/wb1MlpOQjJG1uzhZqnuvVDD1qJGgVPjOXSKsfqwANa1sGGLF1duPfTk87CINLzErbaW2i6WMO6rXXz17f1V1UvfN6rz5lqImmEmpef9KShs5rXcZFUlzoXENkZdMgy5FlANNQkq9CeJm+orh3gCfh5wEoWKfHczu/SAVV7B3lWGlMMeRSYUnufIfFlg7KA37FUkMW7jiiFia9cwAFL5uPcU47Coi4qmsUCfLUC6lTMbIFNKpE+CbVABJFoHCV2EFIspTyOjIzilj/ehKc/7USsWpKCn9piPptjH1Fk3lT0pHB29SHU3Y8iny/5GYLstAJh1CS7/JJD6noKGIyUbQuvQ5cGcD4BnraX+cZFP8Dv/jSGHIueo9JbaYZsEduoVn8v1LGC+svZx63EESuWmaVKoHLHoc42+f0QpHra4ZEOPfmoqf6RvSEbT4X9e8EfRiGQQCnchVKsD6X4ACaacUyzp077k6hE++BPzSVfz0U41Q9fnMjfFugkA7PT1FZNVf6uygme3N3kb23H1PTrnLJS4tLapviTQTijHWvsAXpICe51+G42mjtn03aNxjo7ih5ZY3j0nK7vuX8L6k3PCfuhOwetPl2vMzWCCx+llRqvAap6Df56CclQ03wAtA1VJNaFXLmJtes34zdXXIYNWzeiQi2rb2gOrrnpNmxnvO6BACKJEIbmL8Lm0Slc9INr8N73/i/GJyso16PIl+XfFMXXvvFNfPFLl9mO2yqhnOtEZlmiBihnt3JJmx+7G/vvN4RGNYegn0JGmh0/ljo+CVg3gOe94+yHVI2YfxXjBcLMu6KyD1stamKEe27X9NA19uQiDUfpm3jkgROBLV33hv0UBL5EAioaivGGy/YkeY7kIg1HCuzJZ0nDaAJ9Ak4eYOzQ3kkesDJSR6EravcMfoJ48aC+Y7MsB1wNl9WRivrxjFOPx9xuyrRqAQ0KsZCHTAJ+A1ClatVWVJczsKzsmpJeoOJ1xx13oDsexrPPOgmJJmVNYdr8q+IhQqVS2ay1AuYlebZrdrEc5sEOhpLMNmFmNvLpCjcq6I7UUZmeQG6qgFXzgAvPe46V+7s/+jn+fH/GnNSrBGMVyrsY0w8rP5Zjfg/w1KccwHQc74q0Ea7qwgwBHfq7J/GJ4PnDdFNG4rf2wL+toP6d/Ki2IRnHe42W6wu7fDtvEmgJGAkkaT3LeiBGpSHOEDXQpFUZ1L7kEuTKEjQ3IVuJWyNFMkrYdQXL0tEeBlMeuVrYJc0WUHWmX95R89N0rPPtdS0Y9LNygOHt00SUEQNL7Zpd+7nis8ap6PGMbVfDatqvLyiwUnGA6tDlPswhYM1mmliyyId9l84jACrilS87B//6z2fi4x9+Ed76T6/F5vFRfOyLv8H7P/cbfPeyO232YWSwF/c8kMe27SGsW5/G6177dLz97efZ+hVdqW4bgstUnV1JTuq67qNwCbE8QYYov5LeR+WcM8AOkoIy1CybSVzLR8gK1U6qQKfVCX7qRdVh8i8BlG2M6gsTCI4i35JTcmIXeXU5S85K9TAf5ElFnsVG4ERWnVrLciVrlc5lnRKQ8oYKBbA8R+q9gQSkRAKE7cN8O4M+CQ8vtAPJDu1J0ndwYKKddEVk31O7R+h76dxXQ62UpawI4oSjCEoYLUSZpm8vPtXeoEGCGC3HUqLSJj7NF0oIRqLQytKyYP7x+mtw+AH7oY/9RrxWtll0PWEqCnwuRNkRZt4RCtImQXqYvBKqE6Q1gvAzBNhRyb8zxOthKrrFqWnEWLYEAVaVSueJh/Xhguc9xyYu/ORXv0Ga6dXCPkwVyyhUi4jGKbuYpxwbVu6TohySjOO7PYJOyuQYy/qXY3boCUPqiMTrOtr5X0camHNrOZLR7EgucU3KrvnZl9ocPzadCNtJiMqGDC223qP4mPI+FHKyPcSONEA8od5R/axLR2nqXMcWeWVWYBp7kh6Uu6CBwq7IXXWipkbYKeFS1QqapG1jQCavScjOUmXOi2psrY8yU6e6zhszwxwUBNEgK07OkfUKFs4dsu2nhEG6u6waKXyCeNppJ+Lw5SHE+ZgGe1YuBs59zrMxPJnF3Ru24/6RHCaYgfI8+MiTcfChR+HmP12Lb32TgOt/L8EvfvJdq/dDDjlWm2SbH0OR8UsMmlap1YSFfLW3kN5UZY1RwC1Z1G/rVWm144Dfzd7SPSFo56jON2rrDO19idQEzEqVKkKxBIZHJzE+pWdUBwJsO1c77ygJBm/I4clM6qwUBKgENkQ6F4jSjDl1VJ6lxwNS3my0vYHUSao8HnmWNlmtZG3waFcgqgOs9ixJ4riwIxlwYJCl2ZaIafGobZxMFFUtF5Ag+/URMxdNqKiT8FFxkysAJWprSC0UcIP8Zsmk0lUi+655YAMV0hGcetIJ5nelRZWVR7FUQ4FBFq5ksgvxaATxsGSllDjXLkyealikTa5oM1xtdDzYm0Szkjd5eepTD8CBB67C3WvX4rqbt6DMqLGeftSakuFuLaEI5ZsUSaXUoScxzYASHXcdvFn7uyJt1m2DWCLyuy8gX2SNRslowf6zMA1/OUclwPkZytJVZ+OqUzmQFbZalUuRfK21arvaiu655BwiUBDwF0pgEPhXg1V5LPB8D9Kua8XIa7Q7kupKQS8pj/+qljEl3ffAdhMQWrPFlhPQ61ul79hEJZgETELUwDTKphmBOjarquA69l+xUut42WyYjePA5758Ga67/hZ3nc9rTlSAH03nQz1JZKbyWLHqKZi/+ACUWabtBWD1vWuweeu9fCaJk46Zi+c/40C8+LxTbWbfry69BnetB+7cClyzOo8/by7ZfoEVljrPTq+m3eFbJQ4HgQNWLLMl9YWuqXBSkOpD7kieadxWciVDypolwFmgVhqNpZDOFDAyLsCplN0Xd+etWtZJeyU9ycmzSKkOFbyhNC0z8MEPftBW6fbAiXhJVipvaLAdtOwpEogSAFS5NNznlX/GctHqkEVSLrzQob2J3JCXvoonxzwyoE/+rBOMaL6u5EKYwGqwp8ueKdWaKFHQ5SiQyhWmQ35ukk8bjJ+IUO4FfYhEYyhoFWomdfVNtyHVNxcHH7a/jXDUY3GUKTeylKNZpl+lslCoVZCTYzk7Iu3y0PRXzI+qymJVKEAr/iCDH2W2F7AcWYKufLOEVHeYbaKBZBw45ujDkezpxhVXX4/RDF8hzLJHusmnfso9H8EaOzEqtKbYGXuycJ61yi7o3G7MXm+j1p0OPdFJXZTrphzt/PthSWBLPlEuyL4kJSDA/j1QysBfSqM33EB3sI6oRn3KJVQIHAgD2LGTSWNacoGaSaiXDMqjZldogVHytdqRX7uusA92ewALe4gPPR51hz1Nu5DkskQpqEKkUyl4BXfRrfG0OoUqIalebePWSWLGkC2O9+DG1ZYNG65m2vllnWJF6Wn5I9RrRYSCDSxeEkeJfVCYyv2Pf/oL3LfuXgwNDdjCiposn2FmzaAfRcaRO8NQ/xzMmzsfP/zRL/GxT1yOD3zoYowOr8fznnkC3v32Z+Jlzz4MJx21FK97yVPw7+88j7Khhk9/9iL89xd+iC9+8+u47LrfY7pWYDmcz0MwEkPNfCSohTK/JQsHKTg1889Zr+p8FTmOuhkH7qPKOuaRFhfTwms+CllttxOKJAjW/JhK121bHNe9uhrRY65mNITVVkdPchIw8obERGpMAimy9HzqU5+y7VC06rgW0fQAjEee0/qeJOtE2T4EpjTcJz73nNfbh/kUr530e+drHdpzpHZtUq8l0HTU19E3CsgqSpAkK48sS7Golsro5T2BZz/CUbf8hPgxSZCkAYwq+VrguUSwHYhEqQSyzTOZO9dsQt/cpWhQDIyRTSZrQWT8EeSpXVa0j2A0ggI1+DLziSakTtYox9wQi8qo4tmRQcOJNclgyp3JXAVlf8hmTUlu7bf/YnRRXm6eyGHD9jKmpU3yDSOxJJLJXlOU122iLORLuL1K1Q9I3ineX6ZHGK1Du5GMF9xpi8wrqXU2S+6beldm+56ZvmzHRB4xaVhPHoPy04sQ1IfrBQTLVA2KxAf5cVQz2zHF/nly6zpMb7oPmc33ozi2lcpxBfHufnQt3BfB+fvCP3dfdu6Lgb45QHIQzXA3GgRddV+UxyjLmWBmGgGQ7Ff/SbLCKzxUX/pQ1x9Mxvfu9BGTV/e7zEWJmdxXS6Q2paV8tb6w86CSYyPMDF0ulRCKURPi1Zv/vB51qlk+Cg29W8OTRIyvMX+tOu6BB633pOGRbC6NSIgCKlAloKImlhtDbw/lDLNV13js0fvgWAKi3mQIP//lr7B2O5BlEtO8d8848P0fX4oUhU4qHkAsHsGmLVmCszDOPP4gnHPygM2AqTeqGCQA1ko9y+cCr3rxWahVtAFtAXPmR7Bq1Rz0BOPI54qIhsgOAm1VMYZMlcCyxQGEwiw/QWCxWjdh2PSX+RqEeFqiWOCKH9IcRnluM3X8AdtoMp5KIp1huomFuPq6u42Rm7xfq5RMILJ45tNFuezMm6yyZgtI7M3kWVoeKvyt5A3vCVx5VhwBFG3C+4EPfMB+f/nLX7atUN7+9rfbVi1yAq/VanuFpUqk8nvrO4nkvC7y3qcDnvZukpI1u6efZBjlFOVYgM1TyyOYeYrKXSDA674myoUi8qW8KehqwlUqVL6W70ilVIYm5ISCBFKUIZoFmC6W4Y/48ec1eUxkmpi39ADz9ayzn5jiUzc8MI3r7s/i7jFghNmVwyGK4jA1esoNFiok+cEQZGZyP5AEUl46BgmkbD2qRJ9Z4bfkgNWbgPs21zB36YGYrIewfnTSrFchH0EU25biB5h3rkJlgHJa7+8klALJOiwK5pmjug4XJOp1ZhYuHju0e8lTNmW5l8zzfsta75Gu1xtaItuR913keqM+yPVbLRKT2/VWbPu9i+CR+K2VoOVtliMC/EYFzWIGxZG1KG25E+VNt6O84XaUNq1GaXgNKuPrUJ3ehGZhkpqzVlyfYkHZm1dG7eiPp1D0kSkjVE7ivQh0DSDQvwjhOfshtvBAxJccjNiyIxBYfBiCCw/jtUMR7N2HpaBmIu92tUmNO1pZvXdp8evMb69G/hK1nlG98Gz29b20HnqQ/OFzsNRYKHvavIh0wt+qSD4cZIa8NMGWm69oUU/5ETCm9wVJDlup4TGivZDPtLt0LmsfROBKHbFm9PX0d2P+AtYpn1fM4w49GC947jPwpte9CMceeQy++KXv4KOf+xXe8/Ef4Wtf+ykmtm1FfnIEi+Z14cIXPR9Ll69CsVjHmacuR4BColEvopcVre6sXmygxO949MERm13W1TeIl778ZXjqUUcaw/nNTZMihDJE1iUJP72L3GG0OKk/EEQ4EaPwKRA0yULlBJi9nwHGVt2wYmSlkkO83ku1Vm1EkCv7MEXhqN/mXG3PycGa2i6Ts32pVRAzqys8cUmN++GCnLgfLmjPOc12kqav1ce1dcnmzZtNULzmNa+xWX5KR6BFlivtmyc/Jjni7g2Wqg49kUnt2LVlU4LsjFd4IjBjo2AExaY8kD8F9j1FIp3J2eQXxQs25DKgTs0DPGr5rXZNmRSOJ6CdtdZtHEG8axD+UBy//f1deNPbP4TzX/wP+OB/fgL/+akv4M3v+hDe/J7P4hdX3IKSP4oKUZummAvweeU0UGNBuQUxPJZGtCuJ629ej/f+57fxnv/3SXzi0/+Di793MX532eWoERzm1BapyVVrJcrMvIlmgbr7tm5j2ppR6NI2Mrm9M+14zcnQna92aHeQFDLxnDdRxwNVbtKO+wphbePCTqVcLiLLvrZQcgAr0dr5wMj6GtJO33eWn1oXdkW613bfW4vSJjlUswjWcrZljbao8SvUS8yOoE9roPlsXxSeV0zxYC9o1zTMXtNEN414aXyI5a+z763wWtkfQ4moX8d6sAu1UDdqflmv2EEzjtqkHNp1dEBKtON7PRqaSeohSXnsVH+t407E2tohMa/J6K+sEXIgriIYiqgKKRiAohyaWAmaOjmDw2ZIH08VzigtZtAH07HJBlyuCFVT5FBYrLmfAIjx6hJOPEYaQSwbApYOzsOW+9cjNzqOAxYtxMr5fTj1yP3RHymjK9TEU4/wY97i+SZMNHTYmwC6CIS0botMkFrFeKDLlevAgw/nd+jC4Hx+IP4emSpDK6Dbd67XWCa+ZShke2qt26B3E4oX6OI7SKoaEwoYsQO3fRFVUl1z72mWFdaP6snHFxXT56mZbh0uW35inmI+h4mJUVtnK0ZwnskW8d73vtucrTVDUA1nbw1qvA8XtKDhwwVt5/JwQSBJm/TqXNvAPOUpT8Hhhx9uyxIceuih5qekfASsRCqT6BOf+MTMMFuHOvS3ka+tU1G71g8deYdgSm3aTx6Uq4ABEMqaiakM2H8RVGkmcZnyq8ZzZ+X3seUrKA1hsAo1az9FyOZtwxgZ24afX/orXHLJrzE9MYlnPe1peO1LLsBLX/ACHHHYYbhv3SZ84+Kf4Zo71yIdTCAfjNlaVVqfynNOt50dqNxpI/u+uf345R/uxDe+9W3k0tM45aRTceF55+NNL7sQ//6WNyLJqHVqchXJXHa+TcoqWa1yLNfaLVtsCLFDey8JUEn2eW4PUjZFHrgvV8qttSTZt0RjSCVTiEcJUHhbiuduJ5ZHZZIFlA3F2opXtr+OxNOOvx3pnMxJvvcs/gr6reD1T3ua2kvcIoc2DUmqfBacvjUjVFhwLYkgjFlRQ1y/1ZwuBTy8JQNmLS7umfbzUNBZa4SmS6VKa1gtgVyxgR/97AZbmV3LUSi2oIxYJ+Gv4tAVS7B0qBuvfdGxeM2FJ+Ntrz8Rr33xc3HQfj7zw0pTgBRrFUxMU0AIMLNszIVPE8QQ1GiITfsB3nnXvdiybRwjzEd5DPZGEItRwslHisXXrEC92z0PlPGby+/GdFZCkfBMs7piBIS8Z0CqIUDlaQct4nsLeDW1AjtTV11J8JUrdWzcPGFiNZMtI5bsQj8BhqZeqw6i0RA+/OEPo1otGxgTE+6tQdr5wwXN0Hu4IODzcEFmbQUJAFmqNm3aZEdZsdasWWMNVtZGNVaBLlk7ZbWSn5U3zNahDj16mhXMJv4oD2au8IfJbfK5CXQKEHOiDUaRyVcwOZVnXCct1SGYfYoyoWn+l5KrPKcQqJVrtvhwNjeFRDJMGZTCSccfg8987CN42XnPxmnHHICTj94X73zbOfjHt/wTspQfv/zDDVgzPEmNPeoWQ5RmLnmjvIyk6Ydx8/oSvnrRj7B46RK87Z/ejANX7Y9KPoNIJYuDlmqDZQ1NNkFdkeIrQV24YS4X43lg/cikKbcd2ntJfKf+UyQZ6AEJyd5iqYhImH2UeGMn0oSw9lnJu41YJgvkMQukGcDTKutfpgeXf4Zaabn3bov3l81KjwvtouQSA/IFkJmOPxlDZnCBD5GZsfWU3wx9yFSA+7dsp/yIusbYMh178R25X5oGrOfVKQpp66jtXALUvALhFBt4HGs2DuObP/kd7t1aomgCuqhBCRaddvx8/PPrL8A/vPy5IL4yf6cIIxy2MoESQdRPL7oed//5Dls769a7tqHOotQpeKqMWW5qP6IIqJjh/o1uJWQJtc99+iJ89Wu/xwTBu4we+XJehkgzy6/ntSuvvw+33jmMGp+3KdINapsMBqRmfMRaIJJkIlQCmEEzAHVus4OoklYbAWzYOmFgLd4lZ/gGCsUcCqU8tK5ZOMzCmcDexSfZy2hnELVz8CxWDxUeKYk/JASUphqQfr/rXe8yDU38I2uW9kpbu3atWbEEqATKOtShv5Vsgg5B0azYpgxrDZdIsRAyUocmYagd7/0COmzjm4ZHDezIGi35Y0NpPDd5bwBIACZgq5kXCGK2bV6PpQt68e5/fj1ecf5JOGRRBD2hJjLbtmH1zXeiRHZesXKhDfndvmYDFb4YKmoLTFullKyRXJWsUepygd04nkGhGcZJp5zGRlTFt/73q7jm8ktR1Eb1ci6t5Kw9FSnAyybDBPeAB7ZksC1dZjqzMq1DeyfJNUIkHpQ81FGjHLJM5clYGvKTtYpqsB01/FfhR/aWd9ntZIDHHT0ApGCKyCOlHaxU7bTTdTUuLSPCdrk3+CQ/qNTW9iVALLCQKq+duXszDxAoyOoyScGweRtRTShJoOChx3ZqvaQEkgmlBsLyRahSW2LcUCSOcDSJfJEdZzCJaO9c3DecwTV33G8AR/lOT1bQTVyzoD+EeV0EWpQnqYiECVMjSrlvzd245ne/QGlyI0FYAL/49e9wx9om0mSiKRZymiHHgt8/BnzrBz9HOjONwf4kUMwgSRVt7gABGtMPRBO2z+AogeIvfvcAbr5rKxqBXkTivTwGrIOXtUpWKn8zBL8WvJr58K33JOnjurpyY98SdnUK3o1bpwyESoBpbZtYLMlGEEWQALVcLVD+CXLt/aQG/XDBmPthws4gbOcgEmhSXQuEKU2RfK2+/e1v21YvF110Ee666y4ce+yxNqSoZRb0fTqWqg79zWRt2rVr/ZWviDcUqINmAgtMNQjyA8GI+U82KBN8wQTuuX+TARuBIM3C07p9pmSa7KNcUBsgiwsMycUB9RLy6RGs3CeMMK9PjhaxaCCEzQ+sxre/+jl843++abLuec9+js3Su/bGm03uOmms8jmgJvkjWa2hu/WbttpEmUQqiaWLQrjw/OfhrW96FY4+dLntVKFhyKQ27ObL6ZkwFVptlXPv/SOUTQmW8pErPh3aMyQ5qiVbPCVVslJyUsPRiXjChvxkrWKPbEeNiEi0ytq/20nASTighQUejAn+GnLtcJbc72ZDfavqgWm7EwJL3Wg11D1IO5fYyLQ0Bq+Rzhaz1Xjtio/aEIVAhiAkXYUvnERVnaLdUzw+x2fbndZFnnCKRENszHJSl7FcazrVTfuq+XuwKRPDFX8axiU3jBiwisfDCDLJWn4ahewEisUp5PNpK32IYOiww/bF61/1PLzvbRfg9S97JgYHF+DzX/8J/uei23HVHSVce3cNX/7hvfjAp3+ALWMZvPOfL8AnPng2Pvtfb8ALnvlUe8Hh7VOoEij6Y0H86sqtuPGuLUiXIvBpb6JQDOXWjB+t/OozP6qW4LGlFSTm3DuLZJmSc3uQzGUL/7Gu5OuwaVsG4yx2hVHl0JovF1GiUNWzEWoZQU3TZn3sCmjsTeEvkaeVPFRoB2C7CspDWpfAk0gAS47rmv333//93+a4fsopp6C3txf9/f0W3zODT01N2TMd6tCjI4lEJxY9WWXUslJ55AuzrVImBHmUdiwXBoTiuGvtOpOZDR/5WA63OjI5ycIZuVjXDOAqogRL++27CJmpYWjuSz1fxvz+GNJTWTzr6afhf//nk3jjS1+AeT1AVIuHMo/+rr4Zh/kggZNn/Vf5GrrIfFat2BfdiThuveNWU+AOPXAh5vVFkUz6MT4xyhero6+/19bhk7oi+TYyUcPqe0cot7qYWgdU7c0kQCU52U7ewsef+cxnMDE5gaot/ESeatTtXItvJshvnh/W40ntCrVZd/8izbbBGVJbbBkw2Ivs0J9odGw2/k7P7QF6iBLwMl/ACQKJAlWEPIOcBUYjYLpSJOLJUsPJawGpQBQVb+uGhyM2/nwhi3DAWSBsTys+5yfAkgl9IltFfGA5RvIxfOMHv8P6CT5C4DSRrqG3uwd9qTi6Y2EktHwxS5EtFsgsATz9pKNx0sEDOGQJ8JLzTzXH+ZtvXY2v/O/38JVv/wA3/XkNtmybJAA7DAcxTpxPDyaA/oTPfBsG5vRC8ObyW6bx49/chEwlhkjPPOTKdZSpUpYrRVSJhFJJSjgb/uOHlKBt+UrMTlElIOVHFrDShtGqKGmx9UYAU9M1ZKgoCMhr4fZYhFohUWe5VmTNst5Y4bWKFg51a9zsrUEN4+HC30rKwwNvWiJBFij5UEkre93rXkdQXURfX5/5XUlbU3w1LsUV0OpQhx4rkrxriUEjUxJNuWLbJo/acAYVJ+0s0QxEsHXbhMl/Wae8jdf1SxYqyQtZluLxJHmZAoBNpbe7C7VqCf2ylDOpQq5oS7jUa2UMdcXQSzmnAZveeJRgqoFysWRgT8BKx52Bn7Kb358ibipj9d33GqjqSxGANSvoS4YwNrmd8qzETpgxqSey+SDHprZ5ooz7N4yjUpdcbX/jDu1tJJknkjyUnKzVajMuEe9///uxaNEivPe978XIdoHkAEJBgnvymiTqI1GKH1NqA1SGDRT+RjIcZYBKYKpFMwBrz/PuLkAVL2lYSw3LUJUqQaHVWRJs+XzUzngqYHDDH+9CNNFngEgfLCz1ZwfyBIsjnYc15Y1UzOXNwVjWqkg4hkKFz8d6CKCaCMYWIV3vx8f/50rcsZ7P9AbNH0mm6Tr/yWeJXThSsTi1LWlsNQNKcwjEy1MUXqUCkgRbLzrv2XjVq16M/ZdrvasYtm+4D36+iiaWhmt1dMV8yBIsiU03E/B884dXoRoYQKERR0kWqbA2f9S4dcgEYalQZV5B0xQbPpbIghhVgpOnrJ+S0KaEKi8LNMW0Iz2Fbu/AAtyzdtpmYVDJtDqMhaKsjxjPXSVpRuXeTupIHi48FuQtjbDzEgnmNxCLGa/JkuVpXmqwneUUOvTYkGuLfoInd+ZknxbE9AR3TR1bImYAH1QI5bNZYdvPlSoY3pZHlHJQm7RHg2wPtQoVqACVspI9r85PslXGrVgygRSVxc1TVNi6Irzms+FEWaAy0xOY3xVGk9GruTQSISqiZpnakSRHPNK6VSvm+9Ad9WPb2ATWbsihmG1ibm8YY5ksorGEAcJoyI8Yi8ZioUpA97Mrb0Ez2k3lllKUnZXrtHYMjxVpSR2VQbN4d6a/qJR3yOSchvFUV6pHgSsBLSmfH/vYx0w2fpzHZcuW4X3//j6kM2l+v9bDjwdJsfa+Y6tP2IF/vHvtR4ZH+u0bVSnv7nwm3Uf47ONBD9ED8rKAw+yvHalV/jI1nU2bt6NYrqFSdg5zWkpghlrmOpHzK2j9MGIi0txm6kJ5MkKTTBIIYTpbQSPcj+GsHz/9/T24ZxhmSZoqyok+YrPravWKlS1MWGVdK7U4Lbu+fd2dWNDtw4mHL8cZx/XhqQcBZ598KA5cPIhmdjti/CCVXIECjxom8/cTMG3NAp/72o3MY5AAi9ojnOO9RFiztXK61oHxy0JlYJPE6w0/y2nrVoncO+hDy+0i5A9Z0Htr7SoJ3Ac2bJmpB/fuXh3pWe+8Qx3q0J4gNUkvPCwxgpqxFCn3U47pchQP4u77N6DE9u8LOEtCiB1fwywEjNOSD3KikP5pViefH0G/ZgETFIXlFiHHY8oPpav7PG/Uy8jlM26ko0WSI06WONmheFrGQa4S//CaVyAcieHHP/sl+rt8GB2ZQjyWwspVy6zzatYoRxlPBrO1I8Cft06gTLlbadRnxNvuInWyAlbabUDWZZ0PDQ3ZDgmPJXj7eyXVkdbqE5hS/XmWK9HLXvYyW4pGpHsf/ehH0dvTh3/5l3fboK7q+u+DyLwW9j7aRS+uSwqOuT1HSP3yrsgYoZkE+TwwNjZGrSdqGlu7lcIW+3Rns0HX7PqOleEBK5dHnWCHgsjPEO/GVC2Iq+56AL+9ZTO2E8SFYnHG8FETjCJGIVCkoElPTqNWqiHEawkKiZc971C8643n4YKzj8AQf2tA6KglwLvf8Ex84b/+AZF6A33JOCYJ3IoszxiB2A9+tQar70sjXdCE4ySFY9iEZNOZn1yYKb8KSiEpK5UZVUWt6yRZtCS4PAFR10xAaoY1Cqz1GzfYtVZl8uD813RmW0O0rneoQx3aM2RgpXW+I7l2aoiL8sBm3VlMF1vDfVrq4Nrb7kFWHgEER+U65UAgjAq1N59fTuuKp1Qo54ia6pSbQQKueFjbWhUItCgHavIyDdkwYT5fsvJE4wnbn7QR4JP87YIks1Y/V3cpUOU3Z/daroFV+83B0UcfjU2btpj/ZiScQoz5ZXMOpBWmp6E1+eTf+acHxnHfZAbVaBhlzWpk2ruT2q1U6uRlfZaf5JlnnmkysxMePshSpaPqUYYMAVJN0NG1Lh43bdyIQV4TkK9V61i27z744qc+hdPOevEOffTeS7NtaobEk9IC7HynezvE3/ne408PUcNeq6IgoABRJBdxtrXJKCRLlfbS60omUC4VDEgEKVjaE9Wwlnlj8dH2YEDNTNmuEpxwYoNjfo1SGbGIm6Jc9SVQ8HfhqlsfwK+vG7b9/7Znqmz8DurF41H09vUgEotaISUQCvkm5g1EMbfHZ/4I/noRUZaim0JFv5MRl1szEkeB8X/3xwyuuGENQqmF8IW6Kaw05Mf0ec/8FFROw1VkaoEq/mj6awzS6qRzSqgpsg78RQ3CLKAUcJrlWCuX2AD4LAVmtuCm/KuOlCYfJmkAs0Md6tDeQmqPav/WRFtNeweaabCSJAyUAwI6NX8Qd6zZgHHtD0N5UzN5EUK1RrlIcOXj/bqczik7ZHQqZQluiHqSEUbnBUmmcrFg8iFGBbJQqtjWN5GuLvgJ0uoSLMxH0k8LKTtSASlf+FfDgwNJP+qFOk489iko5DK49Nd/RF9f0LYTY/YWd5KKaIM/Nk8At9y3mYAqhTrllvlG7GaSIq4ZuyL5SooEEG6++WZnReuEhw0CogqygioIoGr9P91rNJrYZ9kyjBGkEmUhSKZa98B6vO7Nb8blv/2uDRE+sWhnfmz9NmBlrdR+Otr9vPtISG33QSTrjIKDLQota4rNeJNFRdYYNgReisXkXJ23/a8iwRBqtRYAUcwZacSjWXh2ys5QhdLXYnTS+uqm/Wnl+notSIFAodRIIBCbh3UjZfzm2ntx7b0NRLsItHxRjOVyqJFxZC8qs4InCOwqzCKakHnUb9sBlbTrsk+2rTpRPQUXBV2+XMPWCWqAYeAPNwMX//pmlAJDmMg2kOzpZ0oCgu2kYT+9i1d+DfdJo6PmSBDpVlUPO82VQUJTDtticr/qkiWs1VVCTcF2Kbt35on9dHVjP70q61CHOrRHSO3QiWzXVkWSTqYcWls16cZ/Tj66huyo5gtgW6ZCeVVClSDJttvQTslSvAIx+LQSuoEqyo4qZUWxaKBKW3PFYwJNJYSDGgosEogx1zA7Qcqp8XSev53CJsXTVmtnkLwxalnQVZRSvopUyI8VCxNYvngBrv/TbZikkByeopShDNSG71XKrSY1zD9vnsId67Yi1N2HQoXl0njgbqbBwUE7Dg8PGyio1Wp21FpzOnboL5OsUqorWZ7Uz3j0kY9+BBs2bEAoHLbJPNobtVIt47Of/jiIo59Yw38GnHZFO193rXVvIQ8lzJCK5jp2FlQNlhfUUH2eLxHPtRZGnG09kQTmze1FNjtBgRA2s2SdgmLHZB1gMMtP67z9/qyoIvBpCYh4sod58IQanp+CqEH0E4z2YzTjw/d/cR3uGRGIkpNnD9JlH9KVJnIsW1MO4bw+RcwzwQh5lrUZiVIjSzJ+EHmmOV2keIsEkeqP4sa7gJ9dfhe2TrN84V6E+EKjUxPOQtUivbsAlSxUbpiSZdQ+RX7pfaofvsvMVjUkX63FuBS4fDioTVcpT+tVDY82sHDRnFYNtJjb0mxRm3DuUIc69PiTJJCTQo50PtsqJRhmZdcMKQLbrlm2CFYqlDW3372WIMVZYKzzM+fv1kbF7ARt1wXK0Z5UF8FRCNkMFb5wANVGnXI1Au3Zltfq2PEw8kzn7rvvt4WNBwcGzGcqzDS1v6CAlQpgq7a3CtMsEZg1quijWHrRc56JMQKyS6/ahGAXsH4rBSNBW/fQAoxQBN36wCg2j2dZ7jAazEhLwexukqO+6kSL96p+bO0/kq4JLHToL5PqzSY8kFRnmvCl2dDaqktA661vfSt55m585L8+YvWq2fCDPTKCPE6Lf/7N1N4KH47a4u0l/ecuJIQKKYcAIhArJIOBKRdVp7WmAIVMt8AJxx9BQBVws1sqFRMeAh9+QybuGXvt1vPtVTWjZdlVQS73uxmi8PGHbbxYaz1pGC0R70Mj2Ic1m4u4+NL7cB+BlYYCa4xbYZ4ql7Zd0MKdJYKYMjUyrVg0wlfZRDmykZHzxD0+8tQIzyd57ddX3o+tk02k5ixDruFHJJXAJAFis/XuMq/LN8ztq+WOVkY5rtuMP5HAJrU7BtNaJTb9Pvi1MAif1ypVGvrTM4NDfTjp5BPcY6rjVvXuSA+60KEOdehxJWej8qSTR+3KlsjknFkJvJiyXFOOBUK47bbbUMw2EAn6ECB4iga1I0ODoIlxKZ+ceAxg4ZLlCMe6sXkkZwqhHN01uzkc0YwpWZWA4W1VrNuwBfPmLMSKJYsJmAjACKhCBGABCkdZvSWv5Iog7X5wIIUIFT9/MYf9l83HnIWLccnV10HQZa2sGIkYehclcOWfG7hpzTAVRC3twkJRifVp5dKWrN5dJOW7fekVAQI5rddqNQMEAgGd8NBBDugiDZ1KgddMQAEszYZ+97vfbecf++jHMDQ4ZDP/ZN2MtVxeZB184pDj51nS+d7fP/qa7bZDkkCAhqnMtK07dldWGLeMguEr6mJVtvgCr40TW3zw0zdiy1ScAIVaVs9cZ6lRREEQi68j07VGLz8tAg0mJqFkebTSdXH8BGeaSSgLFYWUFi4LUctrEgXVq0iE66gVxtEdoZZWnWYJSohHw8hm0yjXKVDmDCBHLU87sddK2vzXj3C0ika9hKbM7dUKItEgtcAogqlDsD0dQjEURjCexNTUhM2cyOfl9+SnJkgQxRfQYKAbDBXY04w/DSlSkClWI0J8leK7MJ6vwPsVgsKold1XZZ61EmLRBsLNNI45YB7e+fIV6KHQjDcL5JcU06EgpQwTu8haZwv7mba2ewXbE50kXKSteaQ624mVO2TULpQejjr8JhIH1VrtXX+neTzoBR9CLjpf0IVBmhkBCO9p7ScdtbO+2rGPv2UhijdLSDXS+PZ/vwur5lA+5ItIUUEsVcpUSKsIEBXxL2qBFO6+fxQf/shn8fo3vA7HH72YMq2MSCWHZCyJcjCC4Rxw7d3b8MkvfBXHHnU43veWc5DKN5GoZwiqqiY3KzbDWN/PSZFi3nWwdcqqDKK4Nx3Ahz71NZz5tJOx+v41WDc2hbf920vxpa+vxrU3r0Gwdw6agaS5XNQIbHw2m1n9QMtqxffysdwNabfKgu+r0YVQI8eyjmGovg2/+MrbMYe3elv85ibf7Jq8tivLigCWlGf5+sgvSMeOterhSXJOdSgAqn5GoEnfTcdcIWv1p3PtreuogUy1ie2lAL5/xd341Pf/gEJ4EJUq+TgU423Wd6IfiQUHoOTTBtvaWqn16K6I+fv8krc8Z58rFxdZXm1rtnIG9eE1vC6TB/ts4wRiB6bHUusBBnJpkHkUK67sajyJAcTnufxNlvOS8IBRa6FtbUxu5eJlZq81AFDLjqI6/gAbQYY6SmuWrfhH8URMyCc/H5GvzJ98mGX1+yNolNhHy4Aj406yD7F5+7PEcT5K5YJ5+ZHFnMoa/P6/jsVCPi6OFt/L3ixyfz0+b5WVtEvOF4zQP7PGmDrGi62g8tb5AWV2jhLQDFHGvOGCY7F0gKKoOIFYgB9UFS4tivHDPq3PUiETMJ1AEEUCLqtgvpwBt1ZhtN9UxRejsGGDDYdM+OgD+AmKtMGwVSwrolBjZcTmY7jQjVxsOTZV52PEtxSZ+P4IzDkC6zLdGCsvojBZjsjc47ElP4TpxkJUovuQqWJo9u2Lcd8SCsn9MFlmmrEoIvIQJXjrTvYjn6vMCigVlC8t4SJAVQtQGLI+vBWSVTXSFIMUon4rI8vW5DvUK6jUCwgkQggSBPpKE3ja4cvwxnNXQO6ZCQEuvm+TCVSZlnvTFnmM1KEOdWgPkJNJ0uslBRxJBrSR9SZO/bTW6n7yspNoVXZ2GSpw1/55HWUR23Y4hulcFl3JEJWrMkIUotqSSmvV7bdyCAsWDeAnP7kY2tO9SRkSjXRh68iUyZk0M/jZpZeiVM7inKefjAbTkz+WT4sEaqcHylVNqZeiqo3q2asgmUphfDrNTjVhq7Av6gVeft6Z+NnPL8U9BHGnnXUufnf1NDZuS8Of6EOlGUApl7c0vQVLZ/YrNFJNzNbGg2lWZj0S6eUNiQr4eSBK1hcNTXUA1V8mDzQJVOko8o7aoiYei8/81r5/IvVx2sErk50mk/Fbeu4qMyQmdnEfFlCJyP9qAgJSLIIDBbrMx+uarWFgXGs58sjEbA9C9akCeeGknJ4JaCqIhnzEB3xI6zqyvTSrBDLkZ81O9bOPDDATlVKTOhSaBBQ+Zhiw2Y/KkW1UI0JKl9jCMIUenuFCHllG97t17VH0r8pqV1Wyq2uiB7UUl4D+6tbs7Zb4MFKjCPGeX06VvL54CDjlmP1w0L79mBpdh3DrxSoa8+VLJONsOAQdlUoJiUTcNVo+LwuWBWvArbz00qoIWwNKZm2Xrxq51o2qU0uq+4kmY32oBhkCPcjXY5jKEY0XiCKjvWiGu1EiOr31rvsxOH8ZQU4YD6zfjjDR+Lv+/ekoNwcIB3tR9seYpt5VeulsXgJLRvZB3OeQgFG5dbRPbQuAakhQ8QiJWF73Po7Zo1pVj8DKX09j1ZIunHnsIiyhcPOXmZo4ks/btGjLgY+3jkq9Qx167OhBTXwX9EjiPHlItaH2ONsmRTv+EkkuGPQy2eWCfmuj4kC8B7/+/TUIxtiRFcro7ulCZmrSXAG0LpUQVTk3jSjFxLOe8TSk2dn9x2d/jEoEyPpCiM6Za+4Lf/jjPRgem8ABB+6PxfO7bKuRer1KmVYjGFJn47fdKfyUYw2iMIE6rd832NeLhtwxKkWEKwXK5oU4/fQzsW08j5UHduP2e9Zj00iGQKoLgUgcIQ2/EZChKTnIjFs0C6w69ISkhx3Kbd3bFdBQN/SwXZF7ZnZ0gGmZ3yAZxk+m1sK5PBfOly+xgvGVUFhJIEqGlpblKBhGIBThIYxghMoC+VnLkPjZDjxmVD4CbU2CrkatbhapJtuBrGNWlJY1a5Zc+XakXV3bNZkt6a/silVSe0X7tQPpkgrIirHjbBQVycrfCgE1ZGpe3Yx2ytFdOP24ZZjbXSGYGmfqMnPzaVauHLX9rLwAK0HI1PlSuTVdan63P5ZSNi2OwQBOiyw/ltTLU0HgrEZhkZ7ajiTzWL6wH0vnphBDFr7SdlQLm5CMUZCsGkIilGeaeRy4bCEW9PXjH179A+bPj9UUHHQWKJHNPESZb638KZrIjE0CpXqAH56h4ddK6roe4HuEGCI29Kd6UpkaRNL1gBYCraBariFJJqlNbcNAuIznnn44DlrqatQWTJft0t5Z9irl7e65mnZM1KEOPXa0i2Y+Qw93r0N/LUnhakS6UAvEcP99D2DrlhK6iYQEhGyp4pDWweOBcnBebwThahWHH7gcJ5x0Mv60ZhMuuuI+rM7UUaKcGGO8K/94M9L5Ao56yjHoSlCpL1DWsCNRh1TX4scCadp/kHKsUtfABLV2AjYNTVamxzGQCCFcL6E/5cdZZ6zC0cccj69951b86c9rkeifC184jko6Z/6wjXyOxWPGEmgd6tDD0M4WRf22awoGzDU7vupGnBrsQ+tk3FqOYCrNrq/CBtAgDiIGEMgKBVEPhlBk/1oi81XIf5rvVm2wV26Qt8nX4NF2emG/LD9rM+qotXm8KnBHpaKp1bz3MD2MRNUtVZwXRfDGkczcdZnmCIrc9F6gm39OOqIbzzp5FcKNKTbxvG0Y6gvWUCQAUt1F2fjLhfxMRcg6VWdMaXfyYAjwAwQZZh3YHem+M0nzB4WRjxByoL8byWgQC4Z6cPpJ8/G2Nx6BN7/qaXjuWSdi0ZwEXvSC4/C2Nx2M5zzzAHz0/51BjJfB+LaN+N7/vpDAyEtfn2W2CrTsggCVrZzO3xrTbbSYQ75SIi2wF2gQSesjE2Dp+TpRuPwX6gResj3JrJkZ34KFRJvPP+NInHBw0NbHyhXSvKv0pFGq1lwNh6wOXaXob6t6OtShx5DE0bsKHXosSW1bQCWdLyHR3YPf/PZy7WKD8ekMgvEUSrUmCsUyItTItU1MdnoM/T1RnHbWGQj1L8aXf/I7fOR/f47P/Go1fnrVCNZuSVNR68L0dBU33zbhRm78lCYygVGoSpKpM2tQJjf4w69ZfLKC153PSyCk7oeKIAWNVpdJdfVjw4Zt6OsdNDlXnJxgJB9CYoVGhTKYiVDudahDD0ktQLWzD6uBKllQtCxHUENyDP4oeZRgX5239mWqyJ+OfadfS4vIzUfnjOcLsGdsur7ZghI01jR3ojBPNOkjRiAWYb5SGgKa/VongDPXGz3G5xT2MP0FqarbqkAFlVteBLzKitNKrQIVUU3BpZbDasE+vcDTT5qDow+ai0Qwh1Jh3NZdkY9RncJGK+fKiuOWJ2CaPLaP3ctC5ULrY/G+GxrkaSuoygIBP7KZKYqKKpYtmoP7V4/gkx/+Hq74xRU4+sAUprdvxKIh4KZrRvGxD30Ml/7sLrz+lc/CQC+hnvzn/PzjqzA99wEM4NgYs44a0jPJZfckYOSczgtWLjOw857JIJZHfg8uKC0CMgKwqK+ESG0a55xyCM4/bQBx3qoVptETjwpSmZNqtfXO5rDPqw7oEcT9pU/SoQ51aK8mk+vlBmrBCK666VbcvnY7ol0DqFEJLdWogMlRmx3Q6Pgo+x+52wK3rRnG3VsnMVyK4nd3jOPLP/4Tvv/L25At91Kjn4crr78Xn/3SD3H51RtQoMZeDyQItuKUrwJUcqmn4keFVAbwiqzwBHbxrnnIZClT/AkbofzlJWtw/Q23o1KqIVhvIj+2HX1JLZKcRCM/zTI1UM5nKYvsNTrUob9INizH4FmqfMIDqXkMCxkWA8n5QJy/I4NAqI8ISbM8qRA0E2wocQYeyctSEuJk0hSBU9SvddtKiDbZjxI/ROoFhKsFm8ARLmdRz2xnILbITaBRmmbnSm2hWUOIjKs+ek/z74N6cJXnocrkcIAkhqBFEA1qQ/LtjzKVpjYP5Z1FKeB5px+ElQsSaJbHCKIytkWLAFGZOCykDTv5jF5c6dkGoZZhy5mtBWa88cxdVZCmkPb39BLYlbF1y0b0dsXxptdfgAtfcDryaWDuQB+mRoEH1tyNww85AFf+4TIs4vctlXLu3cwHikEgxlC3ex83LhtszfhrlaEFsFQOB6gEezQLQeV1tWEOcmQsYe1Qo4hSej2ec+YROPP4PtvkOdbQiskBPsd6YFqWLIP9JQiTdUtWMqXVoQ516IlObMmpLoykS5gsB/DLq26GjEsltv1gNIZkdw+mMnnbwDjR3Y9LblqPL3/3x5goVBHvHkTv3KXsnOIYHSEYi0Vw5JGH4+TTnoYqtf+LfvZrjOcJnJRNIIoq0zRfKMkmKn8KMhaUCJxk0Q8wyK9ldHsDN990LQ5btQ/OOO5gHLKkF3NCWQSn1yOz8TbMT9Vx9ilH4aCV+1AWzbpfdKhDDyLrMx9MZqnyBxEiT4e75yLSuwDh/kUMi+0Y6luAUM98BFNz4Osm0EoQaMW1eFbC+s5GfpJgaRuPBE0M1ew2lKe2oDC2GfnRjchs28CwHsWxLSiP8/rUNpSoDKBSZN4N8/XWFnF7mhyC2YHUtcvpWp39bDfvoIc7isJymDJHMgoKnseCAeKUEgJs30csBZ5+/EocsLiLGlEGoQABCF84X+GLR4hKm24tq1CjYiGgMViSfKvkY+WsRs4aJNoBWLHy+vv7sWXbsE3FPefZByAa78KXvvoD/PDHf0DfALB58zDmztX3DWFsahrLVx2IEl9nfDqLPo3D6b0EhHh04E05CezIUuXe0F0X0Aox/xB/a1kHASp+fCLpJkNdflRmodLQZQOheo0AKo8jV/TiOafPxfwkMDk6zboKULhFMZ3WyvOqM0cCZwJTqm9nclcZXFk61KEOPfFIrgshyYkQZVm4G6O1KG5YO4Ib11dstwcEKE+CEdTDKVQTPbhy7TT+54eXYe1IGv2Dc1ArUivMDaPHP4U5iTxOOWoxXnT+/njp84dw8tknId2sYANRVYYio05x1ZDSR3kRlG8VAZUfBcRCBTSro6jktyIRLlKDz1LJvA9dwQL+4SWH4q3nL8P7XnMEvvuR5+EHnzwPP/78y/CFD56OI/ePYGr7fUxDMqlDHXrkJDw1Y60Siif/a+FtxLpsuQIkB+HvYugeIriah+ggAdbQAgT7BhFKyfRQQjm9heDpPlQm16E2sR71yQ2oT29Gc3oYzalhYHobz7cx6iQD20klSz4vsPsVVlEh2CAYZia97SHaRe7q3J3m48g1WgUPWFVae9nJCb1MoCT8oVkociAL1ormP3TyU5I49pDFPM8gqPVMgm47ggZBhZwqlZItrsm8tCyBqNkM85eb1uuRAzdMn0cPXOXzeSSSKQTDMYxPAQUKmAMOPw4HHHk8KixksquP2hvw/PNPwD7LD8IRx56GK69NY3DecmzWjFLtz2A+Uc4C5VGDP2Y2UCb5GgJ/DPKhYlxZqmyWHwFQ3YJFM0AlX7BYM4dEYxKvecEJ6OH3lU/6wqEeAumi5dVDDVX1pcfco8pHabqztqJ0qEOPktRu28MjpUf7XId2IMoFrU3XyGTRPWch0mM5jJRD+PqPfosi2/lksYnRDGVFdxL3bgc+f9FvsHprDr0L9kOecsJXydgaVN2UI4ct68XLX3A0VvQDW/LAPevXIF0qYPv0FPLsR1r6n4krW3CYgkRO7D6flitI2urs+TLBHK+HU73onTMXEfZfkrayZs2l0idJu3VrFT//1Rp88Ws/xPZ0xtwaOtShR0Tswz1yBqwG8UER1WoZFfKiJmdUfEFUA1GbvFEPki+DcdSjXbacRyjZjUgigZBAmNairBAslRmqCjn4tDSRr4xwsIFwGAhHAozLjEJNh6HEwMxYxajyjy2uu4dpFr20kRzGFNT9yykdDUZTYKE1zCWHc43iq/EFwq3hLNOYAohoWiTPYny3C5+xFOeceDDqUxsQKE+hJxVlPKYR0u7tzKfeQEMbDvMDRENhhKJR5PIaH5XFSPm54glYeeBKzpVBxaV0yJSauOLqzbb9jC8+B7es2YbLrp1G3R82A/YVV23DslWHYf1IFZf87i7kKn246nq+SoPomcDKT2Dl0taHIFjyV9wMvtbCnqoegakAX1SrREh4CXhptk2xUuUHDfEdCBHJPM3cGIXhJN5wwZk4eAEFFnEb38LqKRSLUwCKaQi0WF+6PuuYLqhm0NKOzMWud6hDj57Ez55wYSdPxtMigVJqqvKFbCPnE+Fda3/uyUuqE++oM1dHLvwlkoxoUp4F2FFMTmWBJSuxfqKIK/50Fz7xtUtRjfsQ6grh+nVVfPJbl+LmDWlUYwOYJtiKhEJUQss48cAleOuLn4P3vP5CLCXwma4AN954P4a3j9pMwNGJMY0uolKqI055q++nqebqYerNILKVIDK1CKqRQaq03ciFenDLumncNdLAv3/hdnz64vvwye/cjn/67PX4l0/8Fh/6+qX4wdUPYDywkM/Mp4wzc36HOrRrUlsQeOFRC25q2E1NQ/25KB4Jki+JBQKaJCH8QBxB/hRvam/MWtVHwBVEmcdizWeL52ojcnXDSi9I0KQQCMhHqo5GjYpBtWBLhTSabp9IUZP5NQmo/LEE/MQDSt9AyR7uQx1q2YF0qS0IVJlkUdBvFXlW+Oqy3sNFcQBL8EBbKbDd4xXPXYZzTzyAwGo9Er4CCulxVkrN1qUIx6KIJRM2jKfF36qV+syu5V7VKC8vmKWIVCYiyxcryBWr2LBtCtfftglX33wvbrhjA49rMJGtU/honz8fLr9mNcOfka0nkS6EceW16/mZKDRsWM9Z38wwRQ1TgMlZqywbA1y2EBmPrUtG6UyOQq3XnO57U0nEA3X0x6t40bnH4PjDQuZHFWEucppTiev88GbVYtpugE/LNwi4KYaWdfCsd+25dKhDfyu59uIW6aMyEgyaRihFwFPodM98IVpxO/S3ky33ZL0MAxXEYCyFAoHKlbeuwYc/+yv82xcux6e/9XNcRXk1XZNTeRf6hubi/PPPx3f+7614xUuejdNPW4XeHmD1+jou/tntuOSyG7Fpew7dA/NdR8J8NFGH3VNLakg2C2CF+a3ZmWnV82CccjZqE2mmin6MFfzYOFnH1XdswfX3juP2LWVsSEcwXmH5/L1AuJ+hm2l15FCHHoZMXuyaxPdS3CqVBkONgIhyRWCLzwQDfkQpf0LRsFZRYGQFcTJvC0QofpbgqVBkKKBeKbMxsZ/0ae9MxZKCWEeQgE2GDZ8WOGVn3SBuaGgXF62m21r0dE+Se6OdSLYUrQShAtt7e3XYBrAcsBJibC0+r1sW/CiUKwjz3fzVJnp57cVP3x/H7ttLYLUOc7oJJ6p5W7guzwrPayEvPlOjFl0vl4hwNWi2I3mWKsp/C1Gi0kiUYCY1gGYwidF0BdMlouBwHwr1FKKpxbjzbmDLaAmT2SZytSgCsT6UCKS0erCBQEvM60gkkPSBZD9y9/UBZ8Ec47ZI98OhGJkjgXiQAiubRbAyjSNWDOHkI3vQz2qLMFm/trix+hPWVh1VmZLWwCoyPS0bodS0nEQrT95xNJtXhzr0aKjOXl2bnldrVaesUMjV2NZaymVr6L4VWbxPkk3Ge65DfwOxk5AV3a8p5ax/FDLW0QSiKWyaruGSm9bists34U/rJlFoxpHsnWvOtSMbN+PXv7kcX//ORlz+xyy++YspfPwba/CZb12Nn/1+A+7ZEkSuMUhdcJB5BE1a+ChHBKzM0m4Kb4hKYMDkT0RrAjL/kGQRi5HPZMkPBFe5GrZO1TCSC2KqnES20YWaP4lAkyCMnZ9PZe6IoA49aiIfBgjmwwn20WH21X5EQn6ECapCtTL85TyiWjS8UkSwXoBWbUsFAuiKRhGNJ8i4UUTCDBE+S+SlXQK0rILAVEMLhpaLqAhwlcrQCuzm5yNAxSDfbOexvGcZeEa0emQj8wQXhhzdhZ1Ij3iP8YUs6CWcVUZkQ4akWKiJCpHnPn3Ay579VMxPEGxVxxEPCHTVUKoXkSsVDW6Ytkyh3rAtF+xxIwc+RAQ3NkxHQMuOolhmhcqp3R9BqaoF8FJIdM+FP0z1jlrXNTc8gC0jWfijPYgm+lD1hZkXK54fS87lbvaeK7cjCSUBKx39bcBLkNHlK2uSj3ECPgqk7cM25bM0th7LhqJ44bmHYX4XFT3Gs2Rb9edqx6sjdVg6d+kJhVpU94slEARru9+hDj0KCvgD1AolkCIIU0BpKRPtgWkcKYZrBQEsBYEtWVdEzmrVoUdLEn1SkPzaH1DIlZVbl/DXqtHJAdQTQxivhlHwsQPxR5GjfCyVtBhiCMOjY/jtlTfi/35+Bb7048tw0WV/xI33jWES3Qj1L4U/PoRM0W3zJQns8/E5uSqYwHGuCjpqL7Z6rUQ5WbL9UAvscyZzOQK7OBrkh3DvIAI9BGdUSpHQkg1RJ66o1DZLeccUHerQQ5F4RXKiTVZ4w+MKcjXQ/r9V9re1YgmNIvvhyiQizTTiyCBU3o5odQy9gRyGYmXMSTWwqD+G/RYOYeU+C4kB8gwFNMi/vnqZcqxBrOVDJBFGMBFjlx9i188QDFKuhQjAQsQalHfi25r2qWwVag+RWuGDyLBE61ykRmzttf1GqwGL3LCc8wgSRaMRTKanGLWO3lQYDVbuUfsHcd4ZR6A59QBiDe0RWEQ8GiDIcU/7VSkBnvNjzFqGPHCxI8jQh6vV5IvVsCDlukapUKXwmkoXCLjCSGdVjl6Uy00UCNzUqQTDPqRzUxQgmrU3uyyCLEVuRqJm+AV4jSWw99T9FgCznN0bJsPURms5RGqjOHifFM459WCsmOsAVbNesjhePVm1WbVJTx0AAIGTSURBVN3M1o/AmwYBvbfSdQXtp6ippV4Vd6hDj4Zmh/daHCfmZZDM8axVHpByYIraYCBEMOZCh/42qlHhq1eq7AwCtkK5ZubVKnVUa363YW0ohWiyH8nePtjGtAQzkTABcDyJWiSGMQqAbCKB5txB+AYHUA6HUKIWXgnUKTp404CUcnLqmkCc5IkjdmiMW2acEj9lKeRDlnG35bOoxpkOsV6F16qUh0U+UlS6lDn1ZoUYsIQggVpnSYUO/SXylC8d1R/PkgSMRmNyCDFEA1n0JYpY0FvHsrl+HLA4hFOPWoQzjl2Mc06ai3NO7MPpR6dwxvH9eOYZ++G5Tz8Cb3/ThXj9y1+C555zJo47+nDss2guErEg+/IsatNjBqLUPzfKBG0l7a5SZb+tpUPYCgxRmfDbY+S1xB1J5WIwJzFf1UJT6ynZcJmC04r0z1Wta+NacsBDib3dvSgSaWqIMBZ2m8GcdcJ8nHvqoYZUq+mtlD5ZKmjMhc8JtmjH8lBYbtzt9OAK0iacCs5HJIR4PI5omECl9XEjcS12R1RLrczWrtBeRI0aEorH5xyQ8kMLksrfySO9r/ydRPamLTCluAJapoGqXmoFzOsLoj+axbNPPwSnHR3TYsQ2fGKdltJvJauDBlMJH3ku2BVmem7Iz+5bPSvIStWxVHXobyc5cgpYKbSMu0ZidRlPvCObhgXxn2s6uxYHHXrkpPYcoYxRhZqFyiPKD1AmSRo08iUUt4+hUChQNkYQI4CSj4hmBpe0PwfjyB1La1GVJQvqlL0NyV/KB20uy7SVj5MjQcopyj5+RFukmApjgwCpGeAdKrcBavhaaHhcw398plzWTGTG89I0ZM08WD753YX2Ap+UDu3d1NZlzpBnpRIG6E2GsWSoC4et7MXJTxnEqccO4aQjB3HkqgEcsHQA87t8mJusY24c6CHwD5Md/ZUmQmRF+TCHmX5XDFg0rx9HHLoCZ551Ai588Tl4zRsvxMve+kocePjh2G//VehbsNhmDzaoCJYp86qSd63y7El6sBS1UvGPgSiCKTZrBRaZjZdvbRWqPwyGHJwHllYGdwBBs4z4LKlAFJkrErUS1NQpLHpYUS95/oE44fCl6AoVUMuP81ml20ClwQ8SoIBgmvrtgIXCLLkhOWpfMg1WiVIJ2jQzIMj4Plaqr1pBgii20awiX84gk51g3jUCLj8y02kDPkFqimhGCKZCfCe395+Zvvmufp8WESvzh4ThbNXUKWwEqHRNWlwuM4xYMIOnHDSIE44kUFMk5h3RsEvLMVRBpHoJammGRoiYlEKVQcLQ5emCgJw5nUrYtfeCHerQX03+mSE/bbKriTItlwPrP8Ve8v9UE/WsViJdl+9VmdpfO+936K8n7aUug5INg9TqZkX3EzwFZbVi1Q7Nn2fr+MjVoSxNm7JR4Kgu4UZwE/BHgCLBUTaPYEVCSwApgDgBlTb/02xkJyJjlBwKbnP2hr9M+VVEmGBJflUhU2X5CHXb6akCf2ktQUo8lsu2+LBOkAWSc7tkU5PKoY6t5zrUoV2RB6p25Sogv6ZgMY1waRIx9olJ8qGmPmh/YAGoHrJ2b9yHBHk5SOEkv2sI6JPPm7Um2wIxB0VQU/tXkjXlYh0lblCTEKuqd95n5SCWHbAPlux/IAYWL0U41cP+NoIyI1TYfva+dapmAI3IQYl2asngmaNtN9NOvBENhrB9dBg9Xb2IxZLIFHIIhwhImGwvK+elzz8UBy7hPQoAzZyLyBONYKXcKCGjxe+Y78wWMrzlBS8rIWJZoCwz9gb6uNqwVEIsFo+g2iijqyeBRDJiflhydtMMQ1mpMpmcJeT8D1yaLi+9q/PbamXjBJ2tq6W8BBzrCDeLmNcFLEhV8ezTD8Yg30fP9CbCNgypCQiqG8PMQpnttNNPkedH5aKqTHuWITr0WJHjKQ3QOH5Q0LkW1lVw1x158Vzwnp0NAvk6euRdb6fZeNVaA+yPsX0M2LwFWLeuFdYD6zcAGzcBW7cBU1qMWG45ZHgZczUzUNbiB5OXn9L3yrJz/qJdXfeu7Tp49bBz2FOktq+2qFboySBTFikvJA/szky7bv0mrHGB8flMJpOhWKIyJ2s6lSyfFtRhPHUYtcwUxidGmHgNye4kOw3Jq4ZZpsx8SIppyZhQEJFghFnxBoFUrZij/GnYkjVKS9FVHi0xY2X26pP5W2fHn7KUab+/PHkhk6/ZoqOxaIppsQMjePZp6QeWU3l4lgbJUHtfpuaRZKRzXvCuurwUTHbxTEFW/Fmnhg7tKXJfpvUlxA+tb6QvqLWqva+4A/Gi9bOKJeZqXbNvSr6baftqE5aY/jjXGA8zuJGqKkbuuxd333Ijrrr8Mlz6s9/gst9ch9tuXott26ZRKruZfNQ1KHtqaFCR87OPDRE9yaraIHawBR7DPltzMkP5tJVy6t7NJdx89wRuuG0rfnPlffjjHZuwfngMU5kiFUEyufiYaSSIOVoFdMHexZVvBqq0+n5Xbh3dQSTet11e2J69fllJKKZLsfWMkeJ5v702qTTUknagHR/a8aY33OcK1X5vNnGSGigPGl5zcXTP3Zd/vgYFb1oDfPIbv8WmKWrWvQtQagYIwEJIp7OIatX1Vh4ayrCGTkHhHG7D5gQ3UzFt5Mrm8nIV6PK007b4bijPkXdVDOGc0hU/iO6eAQyPTFDoJdjRRFDKTmAwTibKbcB+A1W8/TVn44AFjEs0HiVg1MrGmsWoFxbTzKTbOrbTjnWqOF5p2ks1W94OPZhs/zQD1o4ePLa/B0nImg22SX5SiRo27CvSgI785lRuBTeLS9dci3Hv095QHU/IesQOvNnyd2oJMZtYYb/1R3F0XV55Qdy/roHvf/c21GpDjMfOWWXylxFhZ11gpxoIltjOpnDhBcdh6T6M0rSBJmcl8apxhnklUN2bOFK5HFCwyzvEE7XKZeQ9szO56y6rVvy2fGeSfNyJbbxShj8csq810gjioGe8B745hyBTZ5eTjJrjreEqfg8rclD6M4UwX0lWJNs8lnUzA0YkECQbhFwFeEQtoKWJQU3eN/7lrdYV+63Opu4Lslb1rLiogO7mNM44YC7+/fVnYiGrrZHO8JammYewaXQUi5YsRJCyLJMt2h6Agd4EPnPpOvzgmvuwudaLeqTHVqF2rg58BZa1ah1kk52nm5XsAKQWfbEY/K+LfDl2XHojlpaHMsL1ApK1CQzUt+OSr/wL+tlB9mh3eHtO4aFpr26/T2BSDTqp42PbryMaZB0TwBfJouVoEB/75nX47I9vRK1rMRqhBKoVflfypr9/PsM+qPm7+KmdJVRcETAUxj6YqdaE/NkXa9KFKQC1CkLRlmxh2wiTp3Pj1OLG15CHSuTnFq+zPBrhEUeJ75YtWYz+nhT2WTgHg/0DzuBCsVNmklqmkjoJctkGJqcK2J7OY6pK4MTGEQh0U25FWI4ySoUiehLdKKbHUNj6ZxZJSguzYhn8gSbCBGelQgEoMcFIGD7KPSmzPmKIphbJ1ESSEiuF1xGOwdc1hOTQSuSKDcQ0/tgoIcR36K2sw68/djzmMmmqI5R6ktRODmv2rbUNtjNVlqeE7YLzvQahIKHfHrzrjlRlXph9RqSGx1+GbOzM/jpxT+HDdzp8JfD6F5+FBX386KUJVlAIY+Pb0dXbY/4F8pcSgIpEYgRbAjYUZixzsbU6+a5In87zf3LkyuSu6aVdUPkEqxy0csHuqaMguFNjX7NmDXr6ehGPR1HMTiEVZZeY34auUBYXPOdkrCCgMkDt11oxQtt8KSYlBK5clY1ltQvy7s3GceV0nYuCV/4OPbHJNbJZ8vjNAymzh1nyeKGdB6TcOAXHBYlNB8PcH5E4yfGQZEUm3cDYRBhj22MYG0lgZHsU24aD2LzFh6nJFEMC6SkCLModm0VvwkFthQfHlI+MZuLqvVzpHhnt+H57E/nYEVWoLKmGNQQhK7fne9SgkNYwvYY53ILAeg+dMJgQcfJHMufBcqrtPVv15mYgO3Kn+uPimc+nZJLJM5emQNZ9m7bajL7prDrLkitjLIL58xeyQypgfGzSrGTykcoJGQaiFGtxlPNlPq+JOCGCGLftlny0HOhjPAEboSrvfUzJVFkYdFnvo/eT70qNFxSfZaqyQy3zZ4OgsSHltEN7lGR08BbilEGiqeWKCGLtExMALVm80L59dTptwEj79QkUNczhm+CIP8Vy9RqBeSmLSqVI+eCzvjiSSpCfyD8CxLxWrVRQKRZQLxOoGxARsmnxjRIReGnxXN0XtoU+120ZxY233IWfX3IFLv7pr/CL316L3127Fn+4YRS/uXYrrr9rBLeum8ADY3VMlKLIoQtFfw8KjQTylQh1yRT8oTjLHTEe12S3cICgLaRhdvIg26iNWsWSiPUOINnVxSLrhSg3y1WE4922LJMpOQIVZS3PwHdn3YQJugrprLG7MIgs94xldVdjfVRLOZ61qMn3bPG7xKfH+czpsScDMTxKYbMPyX/+FijTykxJljLM8pxwCPD0k1cg5ptGvTBpyLNUrPNDNc00qKUTamQICXxpMtagTQvcmVwujlw80+IfRTATP9FwT38f8rkpZKe2YKjXh1Qki55YHs8/9yQcc2jMKrrSKPJtHBPJj8xPQSTFoENPdmrxYKt5udag8FANTlfFON5d71kXrIMWzbC5QBmDsrHfIsVxlhMpX34KygaFhDmrMxL1PEtH5+VKHcVSFYVyDZrNL0XTdpfXULcrJs89ESFiglY+L3iZKo6CyiNB2iqXBVF7Gh7t+G6OWmnYrDYvzT1D9vqsu2K9yhIJNLA+o/LTZEVpY9NK3joO+S2FKFRDBFduxwnWX5MCX6qWfXte8r6XF3YgvqMBF72rcnHBPcm/3ocVsLF4rGF+nxpi2DZZsq25EA0iFE+hwLLmqN5HqZEH2JGl4hGE/JRFkQCKFE9jk2lk2PFRWzSwZRstK0F2Kurs7Pv6w3wNBXZ+tuQMH9SSDebrSdkmaxiLEtSGg3IY1ZpYwQQqfFajDExd+ihyjCdO6NCeIXGNho8jAT8i2o+XoMMGsngUh5UbNdy7do3xVM+cfmIefv9cDhHybHc4imBNFmsqDuEiwl1+RPuSCCdTaAQi5vpUnmYiZA3hCTIg+SLEINtNHXHyVSLMXNgmzGBhgMMLyt1RjfG1A0ux2sD28TTuW7cZa9ZtxfBEFnmmN5xrYnsxiHQtTDDltreRYiB/a7d5ON+FfF6m4iO+rxezKExtR6MsC3IN0e4UwWARxe2jKI6OIl9gwdWmbL9iKkzZLN9FvM2frCsQSNn4O/twgc/ovEE04z2YyBQxPp0xaSYJGNHEOFmVvXdSZbMcaqpecxW5NrxbSHMDZyvSiK1O2lhQX6VaRL3UxLlPW4jTjlmO0uQmpIgyw5RE+kimtfHYkKMnEbT8A+R4K58Ce5f2wLg7Br74owx8GpNTGcydOxeF7AQrOgNfcQS5kXtx3GFL8KxT+sz4Z5+WFRwiaq/wY9SI+GWtIli2MnWoQyKPF9TQXGNzAzwe3+6KZi7biddE2wWUuE9H0gyzteLxGcoFM+trxf9aldoZr2mF7YA/TuUkRm0sSfAf4zU5s1tfy+sBs+g7nUVipC0PI6Uv0aKwc5lU0Pa4+q00vPteELXHa6sLPuP8GJxGvafJHyTAYNlUWvmU1NnZhG1mssonuOXC7NeStJPKKDcAil33Ug+mGSAlahgPeFZzlxuJclITaDSc4IYUXB5KX8BKa/I9sLlq1iFzeOe/Enu8cqFgwz2acj6lzkauEizDfZuGkS6UEeruMQ3ejFEkU1RVSH57sygoT8ItN5vQK3yd8evOMmeBHWggaGsECXzWtcixDcm0vqzS4pt0aE8RvwL7o1IxP8N+AfJBNKZJWVIQwth336XsU4uYHh81K6ePQLuYK6CQK5F34qiW2OdS26oUSigRcGnv2ma9Bq1nG0kxEQqYGBNP+Ivo8meQwiSStVFEylvQzA3bPrhWDhNws/zrHaTgBaMxxJO9CMe7CPgiVAwIdgjU64EEQtp4OdWLBuPIAd3xlIb/3Gx/G60iNhCvd8VDmD+3B4lYgxAvh2BlCqXtm63NdhEc9S2cZ+45Nb6H6iUaIUAzKx4DBZ/ScwJQbY1tO9BEKa+haaC3J4WFc4es2DLMluScKI3V3kntXS2WGIX31N41miDaDdxPIUkU6sCNBIXG7lu1aWd+FApZ9ESpUQXzmEugeME5++PoVXNQGtuIVEC7vLux4GQ0gng4RBDDhkskGaBACLJR6+gC60NB1x4UdP2vD67sQeTSeSyaM4TF/UkUJjbgkGUDeOGz9oe8vVStbg6f0/5FMhuKiZuaYtiq3A49WUmM5DpMkfnrGTkQ4TiI3CKGUTB+kd9CjUFD5/rN0LrnoumoDl3Dzd41BsujFb9Fui6VRsLLhnnMekLh0UgwfpJCIEagJauKuNg9KYGgf6aGMp/ZNGfTnaVdiQ3vvTyhozS8oFwUvHRbZJe95/aOzthVeQMx9iCa1aw1hqVxa6ZxSBNqAq6M0r+s7uwj2CUWnyJWt71r7fdE7ecztGP92lcmqBGwMR9NgSoDViL+pmzyU+O+/c57UKaoKbFzDFOTG+jjd81P8/OVMJXNoRyK2zpUa4br2DzJDiWaolIdRNnWD3Q85vGnexn3XmaxJ7/YpvPyFVGhxcut2eDwlZkOO1itmVUvErwXEJPPCuvJfUV9xw7tUdKOCQ35ItdsmR8tWVRi/5knv2gPvdHRTVQSCMBjbP8Ez7I6heLdDD0gjiKbJQiU+TvSjUioG1F/wBa6jlTTiFUm0BccRaq6Dv70LQhM3Yx5/nU4caUfr3j6Srz1ZSdRqgjQkWdN7lkrcectPhaYrxWr1seWyrwWSiAY6zYrVSZdQJlAXYqhAXX9sRP2t2RRuTtpRpivXkGE6e1DQHX28QfhlIMXYP9BYoryCOZ2R5BoFFAZ34bi2DCB3jTj1okd6gSJfIdEFOEIEws2UBHjmsyrUAmpEuw1oJ3yqpkJ5Cc2IdLMm4E6xMYiB3ZHQjUslo6UrzLc6o6za+82Keakh9cRKHtlqzWhZLaLxw3uElQxXr2MRUngdRecgAOXpJAeuYcVPoVKOUdgWeDHoHbEt1Kwhs2X19FpilqobufgaZGK89eHAFF2byzISh1DuJrB5JZ7DVD98xtOw0IWWxUmS5XMjD49IbMhBVFApkVRayy7Qx1qJ1My+M+BBx3JSdYGxS9qIzrqgs5bv/XTOjsveLylNNiF2fNtZHnwDm9LAdPabSG2MfP3o6IhbVOCtsKOt9aaLcv/JsDkPyRY55JUXrsmK9KDgsSJFAw3U9aGGWfuzapUjvTLe48WWQTl6eTGniUKyop8Px381VJO2t/Tz0qqa4KMhlMow2oEPVU7ZyQLeid9N8o697HbiD8e9tV2rA9XZ56IFuk+A8GPrueKdQyPT1PT57dOdFOoawhDy8SwxKEomslBRLu78cAEcMn1t2M4zQ6Imn+lIlCkgriUNZxiSiF5Q0GvYECr0eIvK/Tst9SwoELVFMcaAVUR/loJc7q7oFEfPRFkmg/NPR16vEizSuVvpO1dtMCs+lG50SyZ14uFA1F0R/gNq1NosK9FLU850TCHcQGYOA8x8kKkXEaoOI5gfhixwgZ0Vzeiv7YB/ZU1OGpRFa971kH46D+dgU+/+zT868tX4OwjgWW94gEhM5K1CfGtO58B8eIQGSFicUaWJSrEnjdsFlgkmUCV7UiCSewXIi8GpN4QSfC6eFh+ThqmqxPQ7zO3F6974UJ89F3n4Gv/9Up89T/egvPPOBCnHDYXywdr6PaNIdkYRV+0gP5IGdF6GrXcdlRy40AxS55lPhKYLJKs0ShnEMhtRJTvuzBWxAELupy7El8iFGd5Cfg0Kc3aAx8SCjD3JAIu4Qe97y5m/z0GJNmibE2zkVlNl+SmLjjiuoSx8WHMG+hHpdZArhpBIObHH+9p4ts/vw6bigmkea0sBzIWTw7rjkGoT7OyZ8zWD0We1vUoyMzw7HS6o6zrBgWXbxqvftHZOOnwhAnYEDuoKDsqzRCSQ3uV6qIcWXVeK5XJI2ISl1KHdh/tvbOH2EhlD9aRUkS8b84mbfxg/KsoLaHTZGPUmTo4RdeADrmPF1x7mRFO7iEGpiUe915XlxSnxfeFPHD3vQ18+1u3olwaZL0kqCiSs6ndBUKydFAJCEpT3Y6Xv/xwrFjBPIMUUuyUAyyb8jdNcwdyae9Yw4qj6+7eLOm6hEDb97G/JhhaxHs7t1OL5OW7c5qPE/EFm3LYZT3leZ6m1v/mD/8YV63eimkK/3qEAEaqvcrfUFtnOf0UxhKqLLqWOJCsa70wiSf63uYM3gp22dWNgLb4wS27wGRkodLKdzYuywTtu+o5WRwDiFCMR8uTOHBeHO9/8zlY2kPwXG0gUKFGTT4LJuIYYzqbMsAvr7oXv7lpDe6fDiC5cCVyk+xEUin4LK7sorKKOTBMJuG1sg0N1luzGrU+oTpjafKCXzPti4A8Rk2/lh1DvDSOc47cDx9445lYwFeIaF0Zs+Y9/PfrzP7bXdRAsZS3/jJIoF3h99Coj2zc7J2wOU/VKRHAf3/5D/jdtbehHupDrhZDuhZHaOgAdPXPI7AoIlArwN/IsL8rYCDRwNK5SSxfOIAFQwkcc2gSXS3RJFOCwLR+aq3bO9bV8Yr3fRXZQD9qfskw8gF52AEqtW3245pxyLLFYjH2/1TmqCQgOYTA/JUId8VR0nIf5Ieg3IV4FKdqckSjJh6pI9UTQWFyHPFyAUcv8eMTb16IOWwihDzIEs81beFIZ8q5be00/nD1Tbj3ga0YmyphdLqEcHwAebJ2rkyeT/Sg7IuhFoyhZ2gpwj7269n7cMqRy/HM0/bD8n5ghRLOTyJJgCcHea1gwKK02gjxCV8nQFzg95VYy9HdBKq8TsWEKI+sV20cXGVhdLVQJGiJRQlS8kTHEUYPIsuX9LMyJAwuvmILNo3msXXrVuRyOccgQQobAiotUKjzB1GbgHZ+IY+ObC0YJrV8yRwsW9SDZ56xzFZ+rZSa6I1KrNUY9H7KpFUOV7vITKXR1dftbnVot9LeDarI9y21zHxTjDcV2Hl6rCMysCTW0cCbtB/Hw9J4DF6xXczEt7hqT+66NSSR3VM+7qf4UNnfd38DF333T6g3hti+ImZ9t+4+wnZIaeMPFtkxTuKCC4/CPkv1XMU6U/kJqlZdchJLrfewv7rqyuiy11/v3dpJbyN68HVnuRYprbb245H3HnuKVBaGJiss26ihFgrjo9++Hj+58lZskJBKdtlintaNsF6NWgsGh+V4wReo6J6+u0gHnQs06SiwZNd11Ff2QJW73mS8hpzHBaIEqnRNH9fvQJU8vZLBCvIj63Hemcfh3NMOxwFLKFOngO4EqKCyY9sC/Pjy63HTnQ+gnpyDLLrMT6U4MQl/V9KURn2LGUBlX5ydQr1k8k/WRlGd76ROw0CkiqdyiJEIznsTQdTSW9Fbm8KFpx6Kd7zoePQyqpZlsFlVD/r2O1IHVO0eMlnCb+Qn2FcrLJbzSESCKJQKCEVT5M0gxvmJ5J8+UgS++u3rcPEvf4/IAPu55U/B+HQW3VSwFs/twgHLF2H/ZUksGQIGU0APm6vwheRHqiWC9AW9r6iZpn+8L41XfPC7SAcHyV+MNAOqHC8bkb+b2ghZbUITZAIJ+HrmkjcXoG4TZiQjZP1xoEp+hcIAfvKqmomcJIL1IoYCdTxlXhUff00/uso59EfifKqONPm4qRmKBDiSYHxdK+MEm+k9awu4/k9/xoatkwRamzFdYDtnuQWu9tl3Ffnahze+8FAsGQTmsz1pFZEu8nS8WbStpIgUUWXleZKRpbOV4DUa4PPvJlClj6qGqM7ABKilroqRyVyI2V1Sk5M+5FW27gtNy7AsB0wzqz8U/YUSt32+v5r0rCmGPKqMQuIOjVcZBKj4fno3dWyyQPBoHZpXJj3rcVmHdhvt1aDKcZH9cpwkEjcxtBVR0/ZDMmXzmi2cTUbTuXQSs8RTGkTU5zGJUrGAcIQKhTQPWbCUjuIqeQYPVNlPXp9iJ6sFQInzDWQpTbkmqIrEtqkk41EQ7LOY2ldzGnEK3rosJORyldQlp/dQi1Wb9q6yHWv6tQQlMzJA0Lru4Jhi18ziYZsKk9TENdswGNREE6WjND1qFXwHUhyFPUNS3poU4m4/CR9WjwMf/vx38Our/4ih/Q/DVJFgC/JL07dg+f0VghF+m3IJda0KTQ3dT6UxGAoZn8qnRULBT37VmlSuQ3Hv7UCV6zxEMw7ijKeJBCYXLQ/WLe/JCCR/kjC/XYwl7ImGMNgTQ1cijFI+i4npDKYqAVSofVf9EVS0lIJPGybzW1jaDcjfXlPitQK1cxrjkQwXYGdUZ+ck3CdndxkU6lqfI8B3iaf4LpTs09ME5A30Rangjq3FCavm4H1vOBertGx2dhLdqRhPxLTu2z8UdUDV7iHVoFunyiOZM9Sz6jvrl3qyMHL8WeX3lcy5jUDjV1fegGj/Ehx06H7gf1suSF9QX1L9n37bV2XS8toR8XFrpeqv5W4o1eL3d4zjNf958SyoUgzel73JLSLqyqC9RrUYri+ggTW2o8QAovOXMy3yvDeTYicZICuwpcD7fn8dyUIGp68I4r9e0YXFfCtyucWTXVVvrOelIOiqhzsUVE6lXOCP1WvzuOmW2zGZyfPdD8Upx82Blg/V+yoFx8lVq0PtDaz+vkZe9fCJ0lGdKEdt5WdLT+0OUFWzV2CB1GhdLVgJNfNYL6u7QnhqUiqUASsKaYExRXcF0p2HINP822nH3xL2j5Y8YKcU9AllmdLIqXQ6BetA7J3IMK1KFknuWa48Uh53aDfT3g+q2knlUisUz7DsNfKTrK3iGf7WxJSRUQovtWDyTpgyRn0olUy+pzvvZktPUnNKp2vITvFZZmG5KA0lTdJRpwupWQrYb9zCtJlGjP2cRqkiwgDMr0AGj/JcCuHChRIcNhCEPKVMnW0rxQ7aJenpYx6okoByzG2AUFNdSYQNvOpaRyFXJGBTx+pAXJ3SJ8AXsIlzis7kfDNWt/Z68hqNIunc+/34kntb98bFKlX5EEEJf1+9ehJf/cEv8NvrbkFi3jI0wn1s/tT8q5RZBSLXSpmgN4RUKoWJXEEvyUSsAvgqfJdoDD6tedPqTOw+39GBUncU6Tup3gW+NGNTkwls6y71WoZUGcGel+budhSNsXKjEX7BWgGFYtl8U7QmkLcmlY4C3y4PvpkWRJQ/S5hBaNv8V/iFtRl8XZvhEhiKKQkKo/1D8gsmgJrUo0j1puAvTqE0ej+O2X8u3vySZ+CkfQMgRkewmnV+OTNd8kNTB1TtHlINmnWRJD5WHyZAY71uC9SYpYickydgDpMv1cqnyeQyvOpJgSi1ZqlZbj6oW6XSJnLxl6M6WYctnvxY5HVZxtROrrxj1EDVVGCeA1ViaOb7YFDFnrUdVMUHECeoKqpsnqXTvUaL9DzfxpqNlLkmEmx3ZxBUfeQVqRaocvHUdl1O4mQ9IF7U0ZGSlfTRe4tbS7ygJqFsKfr4/jKgKJYEskgjB0xB/X0rTZVD9WxXLDPmyhPVz2MOquTsql3PRZq3p/HG1hsydxbDL8jlPrun4arALpIqwxWsvRIUZ9f0UNfbM/3rqSlhqCOTF/gTOdHnSmUY0Hoyl786HANV1lnwKhmp4665e2nvBlUtMgZS03X8JFElarDsmoml6ei5nA/XX7MVV1+9FqVCgo01hgyFRThEYNLQMgg1dHU3ceIpB+OAA4O4/bZhXHflOibZYy1FPNik1uada8Wg009ZgflzU/jtFZswOk4BEYggm0sjEgmiXCmaQOhK+dHXV8S5zzoKSxf7kWCv6NWe9b0KM6BKf3XB3DqNqrWqzS5Wiy2xMw8Ho8w9gmJZ+2fKmVQ7zXn6nhvG1OfRSJKGHlw9qV68FL3W5bWbPdN+9LZWMsqAAOVVjYXWMgbqMP54/zS+8aNL8fub78FUmbqrvxvBrkFEUwlb9qUkBMv3j/f3OVcFmR1F7HgsXTMXsk41rdsq2ckJA1b2m5etGiqUJYE2UKVvrOisrwDPWUB/SAg5Ytt8GHATa4X0vVi/fs1RdoLfS1eLjOpcfNLUth4xfnCBKlnNVKa6jRGokFbeQJS8KOfmPMEV8+xJxhGoFlCZHEGilsZhywbxiuechpNXRd2MaPlZsQwNpu3X+1lH9tDUAVW7i/j9zOdPvGxMY+cifX2R1T2Vuia/dZ3BzwYpvtBTsl5ppptxLPuzGUNCi1c90rfi0+QrPypkSFml20HVNEGVJnM4htYDysHlL2bWt9fED4GqhsBLvB9JgqoCYlQgPDDTIj6rYWkFWYjqRHfqY5PkzaetDBNUJbCQsipCnhOIbKLEv628rMxOAZFO4ogxbH8utz2OR5JRbuhRA4Y8tbfXCJpLK8hyu8V+mYKMQAyqGZ+sRYxX40EAtPXGjzW50uvvzHuIVLH8GM4vyQls3VeRpQG7oqtIThA8WlKqj/afQJQhc6KkIKWSdEH7IIZaXfCJWQRrJbBkK9ecSwo8r6I71CEjY2OviYkvXGswTYrCLBDw2WahhDgEVEmGPvZtCxGPHMR+bQWf3BeV8jyMbg8TfBHQ8PGtwyXk890MPQz9yOcYskMo5AYZZwi5/ADW3JPmNWDDhiy2jzSQyyaYdj9lxXxivIU8zkMx34XcdJh5+BGVXGHx1DfPNr3Z8rqLs6KizoIEza+gTkBVYp8bZUwKQ8aJRRKIhnv4qLRhPa9QRaVatAV9ZWhxyXrtfDZds/o69OB+7yminJIzhbr8CNt4NTttwOG4/Xrw3n+4EM849iAcvXI+BpKUF6VR5MY2oZQZY/9BbbmHdV3U4oIFNKsEGKwVdVemqCldLQxkdetIypjAz0zgNdWj3ZupB56xzlxtkW+YhnxMtPI7BL7DChH4WPehRDc7My3FKAuAe95PmTvr08KEYnwbfQiNLwtMaQaO5JZkGgG4P9KFeiaHJkFiMhVFKlRGdng1yiN3Y34kgzOOXIS3v+IZOJWASqxTKxURYh5NbY7rk53DK3eH9gypgakv8765ejX9EkhwPpU1gmkpdvJPrlcrKGQneZHfm0pcmO07RMZUcCDCfU/BKJcyA/lF/OrI3TdQ0pSlhvwpVtDvdlJaDAJiFlqXRa6sLT7d6TmXlkCVhuHIqwSNGj2yt+J11y68x3SmflqgXkG/XfksgoA7gVM0EkJEE84I7Eq5MgppKg+VQitdlceV372DS0Nt1dqJ4li+liCDI9WxqJXbY0vCtB5ecwVpBZEKyoP3UyJEVSQB4IxpAjAOxswGXXV3dn19x+Dn1360QdOJfbZje5gVx2ODIIpBK8BadYkpmIuVt8UYrlr1VxXuhQ49ean9+7c3MXG9H8GAQLkTI7pSrQVQKodQLkVRLIRRqcVQliWEfBiN9lL4kf8YUSuRaHVvLbboDyQIyhiC7jjzOxBjH5tAzwBFSiSFaLyX2lgv8+ynIE2hXusmUIsQkDUxlcmjRBklsFZtFNDw5ygoiyyUFJ6deXj2PaTp6n5NFg62jYA/hkoJWHtPhYCO9/iorFSVStMcZCv1gvlSRaPUjl1jaTUapakaYKu1oXRd27Okr2Ktus4ORL0Pz1NRyoFyEVFeXtIF/Pc7Xoi3vfx5OPnAeZgXLaDbn0FXiPdVf+UpxELskNgTmI5bLxO3lNGsVfht/Ign5OqruvXCzi8tUa0SOF/NWd9SlotR5buuctVZr/VSjrKpSHykcqqnLNusZOMsCn97F+tElI8j+WwJkJk1g4BYgC8Ulq9bAGF2sGGWMRWK8prGGYrwpbciMPUAFoWn8PSnzMNbXnQy/uUVp+HIebDhlkZ2Cr3kSfF0pURJrinybbzSocebWnxlINpBKXFY6yq/tmSIG+AqEATLucUXilC29JE3NOilQOhO5hOEqbGP03QFKVAuaKayW09PKZKbeFCP7zLwNaLkOf1uqQbK3Fi81V8yOB7nE23AynCC6EFIrMXHzFt+YQJWBmosCGixN+YjSsmS0OOUSZoCqGFFG1rUgKb8UA1kuYz0DhX+lbk9kuT7dyepTChFvaX6d/IxlTwHKg1VuHOveCynTu2n2pe1MXfT3vuxJCU4W3xiW76DrGPmfKabeifzQ9LHm6l6vZ7dsl/Sev6qYI/MBJsp8DcEKwjDzIcm2bdmIZW+u88/raD3UHD/3Afo0JOTxB7kSP5r0+qMHxzPO97w2/5cxlJkIU19TiX70NM3H12awkUBUKsLVFF1CMo87kOh0NAWVQxVAiPeq4UYggQ22nuNYoahSnSkUCzXkSU2qlQl+tjZsb81yxKPAR4TyR4kk93sCMMIU95oTatgMGCLWzp7sUSvSufRjvwckGcm4/nlK6UhJP7csA645g8bcMlP78Q1v89jbDtFmYR1tJttRg1G6XrCuJ1cDc1Qe7Z7iDTsJf8ojVM2WZ9+VlCYWm29lEeQdRriKzzt4AF89j0X4FP/9o947omHEVyVkapNozfCSq4W0SBgaTaYDp+LRuRDQo4gwKoIfba/ZEsYq4q8ICFustF+yyKgoGj8DpSdIR/Lpgu1qlnH/AFpzuQn7Twh5xCrY5eunnXnrb98zPbnI8jzNSoIN8sIV/NoFtKoZLWGzxTSG+9EqjKBBQSK+8SLOOvQhXj3q56D97726Tjv2CVYzH4qQh5paJp5RPLOvU84FhMW7dAeJSdf9J1FNnLCzstasK61rmvoPkjwr3kKmpAgkrKUL5AXGMfxob7sjv/ERQIwFnZqthb4nPpKZ11S8BLzgvhFbgSSheTzFshSmb08BeMssRbfuuu6T+lkfa77rfbg8tAvhyRmftvzu6Z8PkcllooO03EYxGUn5dIpjCybu2nBsmv9tYNuMQjeCep55XYpeYjmMSSl769TG2fZ3BAfG7qvQsRLgcoP7Kw8svxQmhv8UiV7leLc2L1hNHuvHcJDXefnbgvex3g0pKfZZ1mwtI07+DIUXhZszNV1DQrOyiaAqPfQ2u/ufTr0ZCVxhfhefOKRQLcYiqcMclvR8F+9WSfwAXL5aeS1f1Uhg3SanbF8Hig8bGsmxo+GY7YuUCIGxCNxdqouBH1RBP3a5y3EI0GRXxaSAGLxVGvZhIA5rBfY0crikSsWCcBqKJRLPFZQJrCTe42tzF1iC2wkUKxKJDw8D8tnukKAENIWEqR19wE3XL0R962uYt0aP379i/tx0zV5pCd4k+8aCSZRYn7K0wAZn3fktE4L1q72POkTNViPJrlYeWV/mGVnew+EbF2dWIjfgVUk96UwQe6p+/fg4/94Dv7vo/+G1557CuYEq5jTEyeYIvCtFGwPMh+/s76n1tipVfkQZZgDU61g58q5RaYdK7Tu+SXzKB01rKft/INxs14yEwIqylOW1zonLUAskCsZ2JJTIvND4W3Fs3SFfBglLPBIQOUrTCNYzqEn7MeS/hhWDjawT3QEp62I4X2vPBsfeeOZePYR8zGPT3cpQQL7RrGM7kSXgepsPo8CeanOvkieWW1v0qHHmYx/yWtajd9AuV0h6Pa5oTOFCuWMvzW8rbU1m9LISIlwFMl4BG55AMZlv+1mvNehnUxCRB1SKIyLmKysoOq3dUGc5raFVFuWFWlH0GVkAIpBx53Prawi4gD5eZmlTaQcNOMuxPYYRlUL3bIN1Hje0ESMlqxSmazr15E/VH5vQXCTM7ZmpgvRcIByNEL5KQzCuyxyldH8zSjrI44AO34ruwQ1yyFrmNIXteCk1YoL+i3S4Krwi73VY0ymTSm0fs+cSHfnX1bgbBFdAXYuhGfzeeh/s3ahB/9zNoJdW7QeQWjrDBseQGsJPa1d4+7rt8IsmRl0h9ChJyLpi88GfW8vOCP4bHDXZ3nBC45nZv/pl4keB9KtwfttwdgghYJm4Wn/KW2bEI75Yft7ajgmIm2uyP4ryz5Qu66zw2J/nMvlea6V0SvUrMoMvNdkJydLRUPHCvxUQ7VfqDpRbZ5bbxTlcsMOuE7AJZM2hSVlkQVprJYnO2mybSgoJy+Pf1VqvdEsP7s30WiY3FL5iwLplj9txq03b+G1LgrlfQgOU7jxxk244rLtGB1rPU8BVqk5YTtLEohteRnYaP38q0hl2jk8evLzX7lWRrUhlYk0I7z9/AZl9hk1JFlvvazTaI0dDevggAHg7Reehh988d34p5eeg+efdgQOXpTCQCCHWGUMifoUupFHt7+MWD2PaKOAULPITkobM1fZaWlZBnZkAmCUMW6/PebKowS7+XBYYBdJJC5+oEBiuciH6hT5IXwC1Noyhvypffok+v3sRLQ9hzaADpOPIvUc4o0supvT6G9Oobc+iYHmBJbEizhqcQJnHbIAH37jufjGh1+C/3jtaXjaii50MXmBqT6+szrVrggBphhVzMxc4gRXGs4u11kXjNOhPUtO3shu4jUmJ83kz6wQi8dsNXxbbIC8EQq64Tstti3S7Fzxveupda7ejbJEaEUxXXL2jIJyU3ydu+E59ZECV7xuzd2lZqRIylfB+lWSXXMpaOhQfO8n/4rvvbYsgGhg0dohmYy8JwOMlAdloVbj5IeCyiCp455376FYLq2AeFdp6CovaWayLPayqGsIe4asXI486CRy1jVJCe+9Wu/Woh1/PRbEgkgD12IWGgrTbtBB/mtoWoHel/+mpifxj29+ExbNn4eeVBIr99sPX/zc5/hRJXSdQ64WCG2ndCbdOmP6rdl5okw2YybL7p5ujE+M2z3lISpRQ/8c033ta1/bYgjmz6MXxERTU1Po6+vDm970JrtWqVQotMq4+so/UBP3Y/78+ZQXYSyYvxjPe+4L8MD96+0Tbd60ERF2RKpsr2uQM2p72Tr090BqiPqmDxcUx4vngJRIzbBSr6NUVQetsXo1XMZqlMlTrulVCgI2QfJiEZVqDs2ALLoa7c8TUI0TGInvGYmNQrskBPzUJIMUGqECcUoGvpCmvhftmoaBKJGIAciTxEi2YztlRyLqw/Tkdgz0J5FnOwpTk2xWcojwGe29pWFBzb0Qae2qGi/UTXt14LHsZJS1Kk/IRsIpe8977q3g7rsnCQwX8ncMxbp8MbSScxzXXH8f7rijyPdVuWMIELDZcCTTMyVQw5cVtiCbPaPEVZaymeBtrShV1k60q2uOvPpX+NtIwjLOsmrPM7XtiNadcrccGBYSJemadlcQwBIU1bICi1nvLzl2CB979bH46cdfj5/899vxqbe8EK99+hE4dWUfVvRU0V8bR6o6gWRtigArgzCBTkjAFyULAlsalgvVy7ZCeZR1ESaI9vN3s8rOkB1XmL2VljcMEMgYaOLH0YKI5fwkAorLr6CpBCEBqUYe8do0EqURpIpb0FfaiAWNYRw6UMWLT9oPn3jrefjefzwXX3zLYXjn8xbgaUuBffkePXwfOeh3qdPhUe8r7wiR6sCTqboUIzKPBpzzQ4f2LGmilTjXLbihxRBcsEZuDT2ASFRflqKjZeHWNxRvu6/pWrrOlZL1p/rWCuYeQymgdihrKeP42eZ15ssR2tRKVBQpA8m/GuqWtAhqMkWAaesZykEtMKw9KlHJ83G2VzlFSQjV/OShsE186IqGkYqxrNIki9NUGJi2FD8tsFtusk0AcT95O1jHBEWkfMQqbEcsBIP+u3cOtI6z7y9Olp+Vqx0tm8cm7N5afB6N2GvaBd0QjuEF+6dj61wpSn1R0D89bHkoHQqph5JSj5q8JFUAm74ZICamYJC/Ujqdxtlnn41kMokvfOELmDdvHlavXo1XvOIVePOb34yXvOQl6O7uNkCkdLTPj4S8Pvj09LQ9pzT1e926dVi2bJnlpWtagX3x4sWWh9IQffazn8Xtt9+Or3zlKzOVYn5TLfr0pz9teSnexo0bzWog+uUvf4kPfehD+O1vf4ve3l6MjIzg3/7t3/DAAw/giiuuwObNm7F8+XLzjVGaIpXXO+/Q7iWPrzxSvT8WrLxjCuqoFXaVrvvOThyJFE8x5Zydg5Yx8PnjUuCtgdqhlYzW/QlKPhBcCGDccGMRV135AIqlLkynayY8AtLy/BXEIw0KqRqOOWYlVh0QxK23bMeN125je0oRcBF8MWENP5ujt47+PI46aj6VgW6muR6FnPyveEt+jOaHVUE42ER3bw2J5DjOec5TsHAxBapkDdOSQqOUdGwGZI0T6OG5QrNCDTdre3fWNJmD7/WbS8dx2SXbKSvns526rleL4DWa0wgS9O27PI5Tz1iKlSulflSRiGiAnAKoVRdaq0YCOER10SdfIT1vFhBHrj25unX3dtXGdF/B+056g9k2/niSSlDmh9W6UpolLIgnTCoFuMQiFhkKvDDJ/mTLaB7rt4zggU1bsXnLNoyMjSOXL7Lo+o6sDwa/P8z6pKLJc8+JWLv111kP+jqO512dyCqpo4Zn5RemJ5KxGOYMdGGfBfOxbOEczOlNYMXiqIGkBLPpZl+nLUf0W0BXju7d7FhmW9buod3Vfjv0t5LakUft5zuSZg9q+zhRtUKAH6IyRb6+Y/MUznzT++HrXwl/ZBBp6oNVuRSwv/aHiAMof5AvIMw+VfxaNmdQMmzXPPTMXYVixYdEKobJiUmmTLA20Is4s8lmcmgQbEWYRpzCqjK5GV3lYZx77FK86dn7YpmMpfU0YsZTAoeuH98TtFtAlUiNRkGgSFQoFCiM47jkkkvw4he/GBMTE9aQBGh0/ZZbbqHGezde+tKXYsuWLfj4xz+O73//+1i0aBGe85zn4G1vexve9a53GSD6zGc+A21fE41GMTAwgBtvvBEHH3zwTJrvec977NlDDjnEgI/iffKTn7RnlZ/iyCKlhfp0/+abb8arXvUqvOY1r8Hpp59uZb3nnnusLPfdd5+VX5TNZtHV1WUWLg9UCfC1g7QOPT60+0CVJ0h2Fij6xg/+zh44aGEsR7omWUFlTEWy0XAeFZfFtCE3ga0CeTCeCCNL5WrbNqC3TxZaQgLJA8aVD7DWYAwz/vz5vMbfRQqpnNZhZPGUrgNVLr6OMoB19fNZKmMjWxk3Q/FCGaPdk6angGTc9hG1BUEzuQZWEOwIQCndGOOpP5ePgRxYWy4HDhAyhMLSOwuoUBAGg93IMO3//d+7cfufAuy8V6DOwshQqwlgWlZAwK1cX4cjjurBC87fF3HmqSUCc1kKP2qiERXMSIUnYGgQPPC9AraApKhlrWoNE8zaQbz77aQ43jfT/V3FeTzIK4P7Hs7LQvY97zc7pNZRy1iZvxPPPVIckQZitOUM9UNMTecxlc6ST0q2L1omnyMfEVyRkSKsxxg/XCKRoByNIhYKYrArYhZKfWNNXGyxk62coMzjrHZiW7uuGlVw31gjBaLdX38dULW30iz/Otr5tyNtF6fv59d6e2TkgGmPwHC+iR/duBo/uPxG3HbXVqT6lyDcPWAbgDfKFcT6BsiMVPT4qdUHB2Nx2Ibg4R6kepagYJNv6kjO7+U9yixtZEkhFotSEQxVEahOolkaxT79QZx04Dw889glOIjyjlFRJFjzUYNUH70nabeBKlmmBD7k3CngoQrU+b/8y7+YdUfAaPv27ZgzZ45Zf/bdd197TsBIoEhxNHSnZ5/61KfiIx/5CPbZZx+cfPLJBmhkfv7mN7+Jr33tawaqZGES0JLl6Uc/+hH+9Kc/GTg6/vjjsWLFClx88cUz+Xkk8Hb++efjqquuMmvZG9/4Rtxwww1W9ptuusnAnJ7REKHKL8E1d+5c+90OqiQQOvT40u4FVTsLktlOZgZE7UztLMDHhzc2cP/9WXaKsl3NPh+UqVvDO9EKookKjnvqMowQUK2+J4taPYXJKa37JMtsGAGClCbjJmI17Le8BwNzfRgZnsID92h4rAfN1uQPpe2sVewm/Vks2reBRYu7cfNNGSoC1Pbks0XlJp8rE8iE0Kw30NMTJgAbwwknDJLHgXvu3IBSIUhApY46iXyF5WByNWqWMS3R0NMwcBQLFVBj+/D7U1buz3/uj9i2eS4S8cWoEB3YNioMAkeJRB3jU3dhaH4eL3zRsTjgAD+06ndCy0KwklRlqh0tQqgtWWa0S6tL9w3kw6jvqiY2axXc+ehR+3fb+d7jRTuWQXxqkxJ01LvyXWyYhYhYgNhisUPy2Efs5YEukVLzWM6AGIP3Zt5vj+3Vr5ELoLkAWux+tnU4Uh56VouQqhM0nxM+XCH6b1COidSmwhEt+7B7668Dqp4I5PFyO0870ppz6oMFqrzPJv4q8g91N2yjkvaHG9bh4l/8HnfetwWh7n6EEz3IFqqolMWo1PrkFxBJ8pz8luhD79zlKDbCCKeiyIxRm6QC4e9JoD9Gfi1uR6S0DV2BLE4/dn8cuWIIx6wIg3gKAYKwmKSDfMNYFicr9hztNlClZAWMPEuVRy9/+csNSWq4TQ1pbGwMg4ODGB0dtSE7CRz5Mf3ud7/DqlWrbNjtwx/+sPk9/eu//iuOPPJIfOc738FRRx2FZz7zmTZkqGsHHnggfv7znxvQOu644+ye0hVAGx4exle/+lXrXFQugS0BvLe//e1YunQp3vrWt1pZlMe9996LoaEh/PSnP7Xhv0svvdSAlOgtb3kLbr31Vlx99dUGqvbbbz8DWx6okvAUdSxXu592L6gS6eh9x9nvuUvLlMVVEEQIQT7c110zgmuvHsboCAFBSMOAriOVyTuXmUAoXEDPQAMvfdkpBF81XHXN7bYAaLGkDraMZDyFXLqEnq4YopE8Dj9iMU48LYWrr9qEa343Ql7rszxtyjSPNkVZoCqQwxHHDGLVgXPx04vvR7VC4cVeNpebRqy1orocnWMxOa3ncP6LzsTYaB7XXX0bSrkkAVfMnNXLEpqMXyxlbV+5OfMqeNGLV2DuAubEStD6L+vWAV/43LUo5lawPgZRlvmd7Sqba9iwU6ORR6M5TgA5idOetgLPOEcrj7OIrDsDUiy1Vl6Xw7wR65afFVrGy5FgiMEG+8UvzL/6Fl7l63zvamsqYYWdhSYjSCy0l27nkrakhv0V73pvZQ7DfFgdlhZoFOjyRkSVviYhWNpMUEetJ+o9204CT7Z0B9PWQrOSf/L80Gr4HklWKczm7sq5q/QeS+qAqicKOf6cPTqSpcr51blvqOFArcMmRUHcVWyFsTzw+xvX44e/uhyr121FINqPqaky+hctRz2YxHSezFxg2oOL0bv4ACpzTgEJhwOUJZSF5TGUxtZiIJTDs07YH8992n5Y0DXr79esVlDPZdFNTOGjFqjlZTSjcXfz78PRzu38MSE1DgU1Yg9oiGTVkaVIw2gahhNpCE4Wpv7+fgNUijM5OWnAR0BLgOaII47A9ddfb/5UJ554olmWZGW68847DRQJPClNDffddttt5nulayI1XA0hKj1ZmCRkZHGSIBGw+/KXv2zp6lqxWDSLloSaAJZ8sQ4//HBr8CrH2rVr8b3vfc9+e0DKI++dO4LhiU36qi7ISdMLs9dnT8TXCtLwddR3d07q7AdRqgSQyYZQKHeh1pjDjnYIxWo/wcoA+gcPQTS+L6/3QbuNFCpBpLN+1Oq96EouIz/uy7awiMBjLtvDECYmgsgXozZLb9tImR3tHPLfPIYFMyHgm8Mw147ZTBiauZ+ejKGQ60WjOkTwP4BwZDHb5AL0D+zPdjEHuUIE2i+3UExgKh1l2dhmfEsIpAYYn+eNxaiV57Kt9hHghQl25OulIbsA24oEK9++7qNwdX6PmpVYaVBF9ZXR8NeZnnwfqUs2+zG8xYfxEWByAsimNRTpZwjakGQ2wzLwMYFRNR+la5v3Ekk4R1l9A0Eq/ZsFWXsrqXOReJDok5CvapNlAi2tIaZrxVLRQkkLo1IpUydi8sQQuyxZQUQINkNB1i1BuIS0DJzqvmSFShE7yzk+zhsxBtn3dD2gqZj8DhWCZvlcyRoVjYSRiEYQ1YwnZl4pF225BwXJRskr26mG5Svxe+08QahDT3byIIKOLoiH1X+6PlAST0TZ13CzVidHHkAXoZXUvkVEPhc8bR/836dehw+89ZVY2h3AqiUDaGTGML35fvIueb+XKIm8WyxkEG5W0BekUlnejsbIHegtr8dLnrYv/uf9z8I7nrsfDmRUjTXFyLcR5tkVCqK3p5vlCVCBrNlOBnuavBp7TEmV7QkKHUUCMzo/5ZRTzPoj4KQgfyeBGg23yRFc6FeO4bJayWK0bds2Gx6UNUrgS9ain/zkJ+akvmTJEuy///4GlpS2BLsc1+VnpWtevrJUiQmUro75fB6XXXYZLrjgAlx55ZX2W5Yn+VHJed4TNhqS3LRpk50rv9/85jcG0AQUFdoBlN5VQel36IlMs8JjR5LwEIBSkC4mvvaOHh/MPiNeCAZiiIZ7qTl1we+LoekTMIlh4+ZhTE5NG3gnlrdtYqLs5HxMupCtIJ8pY3wsw2ei5gSqHBLsScVu8WSMvwkuGhRu5ocU5nXxq4JASRPxGDtQPiRrlxZca1YjiAW6Ucg0KPTiyE1VCLTCLFs3+nrBtgabzYdGjMpJFQEqQ/Kk1/Cf3x9l5x5nJ+02RdYbCuiYs71kap3p2+q+IYtXq/qRTPFYqxAEJlEuRTBNcKfV1i/+HvCjH+TxrW+O4utfeQCf/8zt+PQnb8WXvnAXfvqTEdyzWn6LrFWCK6XfkMPRzLdw5+1O7O6beEJ9byFN+pbdUBY9BWr0fh75CgoSD7FozEIoGkdAu2ezot0UeG187CMAr9tyDtp3sMJQ5R0dywxydlcoW2igzIoqNyqMX2F8yiUCKU10UDqsRucgT1An65nIGzkQn2iJhiDja/aXVlK39XtiLE+HOrQDqf3NknjHszK6flBWR9f3aaPj+XPnolHOIDe5HYFKGZQsZll6/ilL8eOvvAnPP/UIHLIoiUQ9jXh5Cl3NAgL1HMLVKSQbkwhP3IslzS248Lj5+NQ/noB3nbsIhzCRWK3AtEqIsz1EKQYkd0zl8AWpSGgngQpSSc3H27MyYcfaegxJAEfkgQx9BFmizjrrLBs2k7O6AJN8qDSc9vrXv37GuqR7GuoTaajw29/+9syMQVmjBHA0JPjOd77TnhdYEqjKZDI45phj8NGPftSuCVjJsiRHeFnEdF+gTVYp+WJpmFCWMz0ry9TChQvNyrVhwwYblpQAMlM8SWl41jXF90BVO7ByTNUu9Dv0hCV91vYwQ+6Hm3vVHkWWFCdoBDYCPoIMv0b6o6hVAijk2CEW2EESKPT3zSG/DRgvatG5Qq5iu4ZoMU9t7xKLUh0jSOnrjbHduB3dGRXDI+Q98zbmbTkuaUafBaIfm/1H/mNHGWBHXsyTZ7UDPZUKbbqbYAeem9Z0fG0jETPA1yAg0h6B2Wm212qTCk6SAC+BGoWVfCbE7pUK39Mc0GUrEtBR7n6+GztojWiqy9dMM2YfjcThq/uZVoPgKM88/eYrFSKg8/l6sPrOUYZJ3HN3AVs2h5DOzEVmah6VphBlwDB++MPVbOt32ozIek3DQXpRl58Le/8QkeqoKh8lfifN4BRoUeB/4xDVlQcGZXfT6uYK3nvpTsC2IeJ3tdl/UtY0RNdS2ljPGi5VfdvIC/NQR6ZOLUhgJOuUyqDa0m0BYa0dpaOsXopbr6kDqjNNPi7rGJlPq797tdyhDj2YPO6Y7ePEs85CLR4UfzoebtYaCFEWDPT1IBEm19dL5kjey8epw+GtFx6KL3/kAnzobS/FQfPDaIzdiwFsx6JYBuH03bjw9OX499ceh3edNx/HzKHSp2cJpoaCDUQaJcqYHJUW8i+LUazUTekMRaS0su1VKFD3MO22NiTfCpGHaNvBlSw+sjydeeaZBmTkIC6/JlmhRHJm7+npMcd0+Upp5t+pp55qpnJ9QK07dfnll9s1DRsK+Ci+AJbSWLlypVm5nvWsZ+Hcc8+1YUgtsyBgJJKF7Ne//jVe+MIX2m/dE4kxzjvvPFx00UXW4bnOTGsIOWAlq5ryF9jScKN+6708gSirmMrYoScyuQ7Pm3E2S55QsZ6MHX8dVY2b2O8QgbaOvE9WkJUlFEiiUuK1RoyNn11YI0iwFOU9LSBZZ5DvADtddnihUJgdIgGVFsgsspMlCGtUfAT4FE7k3ToT1HpSQxQwytG4zaYUMn0LTMRryhRspUIeC+aTr6fGCKyivK9OW0PtvUyfQohlEKiqVX3oFn5johrCk9IgISkNMBSMGqBSm5AlNxSKWDwTZPk62zffnOcCfqXSlKWTy5SYLttYLYDuRDdYDLYXWUeCjFM1y1Uw1E3h1822NcT05qJc1XExi70Mk1NJ3H3vND7+8e+wbA48lEosuP5TYgrcBTS2arChnVQr3tELu4/U3qVYSY6IJAs8KpZZB6wrv/Zr5DdRPI8KxQLrT99JcwL57XkMkc/8WvSTx2IuzWt6qoF8LkvOclavXD5t8XXudp1ooFYvkusoi/hBisxfC78KKFVKObvur1dsaEVrVWl9Ky34KstqrZS1ld7diusK5BcicIlnHQXaze9OfMD3lExrJ40WdOjJTfL1E0k2qC/0+niR8bws1uRkcaSUT81ijsDxo+ygQgaDTOIVZ8/Htz/5Inzwjc/AU+YUceKSMv73Q2fjzc/ux3H7wBacVehh+49RxvmoPGoHiTAVDtv7z8c0w5SXzEWqSpD52ppYnizcQ7TbHNX/EkmA64N4YMsjCShZlbyjQIyCwI13TRYoPSuLkxq5LFgS/PotIaCOyIsr8mb9eU7lui8AJkAma5nWypIVS8+LQVQ2ASb5dAmcScAofwlRWbQ88mYtyrolUOfl3aHdT+qs2huzvutjw8rtnbJ4c0f+VA4akJP/kBH5t0EQIkdNAQg1fEW69poifnvpGIHFAILU2vIlghAKklq9amtPNTGGQHgEb/2np+CG66u45g+rEcZ+fKekaVwCIdo3yx8soVxbj7OfcTCOOwn48Y/X4t4/M6HqXOajoRwBDHaOra0hEJjEiv19OOaYhfjmVzcQQPXAF/Ajlohbnam96Y18wRyyxXV4wz8ciXvuBm647m40q4OIRPqQzuatfakNSMv0+/IYHCrg1a9ehIFBDRW6esgRNH3nu/fhmqvTSCVX8Foc4ZCUEA9IeOCnSQzoWWh0VctWSjDynAlpSQctGYpAhnWyEUccXMXLXnqMWcKkz2h5iLpmrMmxyKj9+zwUPdy9x4bEb5IpssCr7ctvs6u72xYjjsUTjOAsUJJfui9Fs87vHyIjeGBFx4jNhnT8q21ncrmCyTR9rzrTCGlRM8aoVCuufitlxnVr9ckSGW7JnEnKtD7KtFoLyOlbFyQfU26hx/TEGLp5384pyyLU7qMJyUgfRsedPPQWpSXn2VHkTSbyZOxjQbuv/XbobyOvbYkeaRuafUZfUDZPd0U8TpnDv04SuDO5D1TqlKKNgBnZixQNObZz7XolX0FBNqqXlBI8p9LoY7wZko+EIJRfYEo5S81QTK1+x8uSJczMkzx7gh5prT3mJIGthiTncDUwCRcJKA8IeUfPEiRrkdcI1bAVvMVABbL0W0CqHVBJmIk8C5Xy8kCPBIhIgEqgSUBK6QukqWzKT4BKAkWASqS8PJKAEaDSUYBKpOc9YdmhvzNiY/VEvnV+Ugb8ThPTar/hsI98E0CYilKI7BaMFuELTSJfXo9seRh13yR84QLC0TJypVFUtMp1IkjeEn9SAwuRx+tTqNbz7DTz7I/ZLppZ8uY00/YzbScoxJvBEJWMsCw/ZQb5LlGshOq8zg422EQi2ceOlYIpRuASKqPWzKFcnUK5kWaYQqG6jUBtDJGY/Kfkr8W4UfnmjKJYGWYeJabH/DHBco6gVB0xEKb947QGlVZYl8Eiwv714CP2xcAcbUEzyTITqBFpSaiYYJE1xPbbkpWEbbE1PKD2pBlohYIcuBmXzdofqBJA8n34HgcdvD/f2aKyTbmja8ueuJrJYSdyYnZ3k8CTlDDJLylnIskV+YHW6jUHqEglWfr4cnLw15Cqhoj9gTCqsjJqiE8WLTGMehN/mOA3gky2TDnTxTwqFkKMV6/7WN9UQkNhyjCCMD4TjSSp5GV4LU65yQ6qqtnLc7Fhw1amE+W3CpkPXyzVh0xR+y760NU/n99J5Qihq28OwolubJ9I8zsH0Tcwh/GDWLt+PcGyc/aVbBPJR1UkeduhJxM90va0Y1uUnDKA0/qnM+ca4aCOLKpRKkixYAMxgqt+ysDFbDIL+dtfmiKgouxkHJHcHNh0XBb2OCPbAn28RIVDvouy4Eo66wlzw9zDtGNtPE7kDad5QElBQkkdlYSnQJY6LgEdnUsIS3P2wJHO28GM51MlICVQ0w6ilJ4HpLzrXvoCUB4I8ixSuifyjtZ5kgTUPNAl8srqkcCXrknQdujvj2Q9EtkXV0PnQSsPaZZVjYKh3PARgFBraiGvJIHKnHl+dPcVya8CJZvJa+sZNiISmUIynkdXqo4S+69wsIS+/gbB0DR5fZgd5XZ2zBPsXCfZUWfZWdbQaBZtkdBUUsNz28m/WyhGNjKs5zmPza0838zjMFIJ8i4L2N9fZ9soINk1jWhCk0LGmfcYQpFRxBJp3q/ZMFuIgKa7t8EyUynhPQQIAplWtbGeQHAE0WQWPdJBWAd6bzOc8FyvumSx33wk1RYFAILaCsKGJAkgrC5cG/GZIOSDTTnWK88g26OPz9QpB8ZRJPBMpspYvnwQ++7X7fLio8pL8b10Zq0Zapft4svdfzxIckRWJ7V/Lf/ikeRZtVzhe7suRPvvaRgvm0kjGYtaabPprPncCaDoTTwRMrx93DqFRCpBYFU0h/FQOEq5U2Qf4kM8GSW4rREoR+yoxxKpbksjRHm4fWzcfY+lS+2oqe7rN25hXMrDGBVMgizT6vldJtM5nmugMYCBfgeYpqYmKf+q2G+ffZFMOOVR8lByVjJN77pgwQIDkx36eydxlxdE3vHhyLVFWThtpqoCn5PY9Lz8bC09BvGV/AjN5zBQh79aQjVH5aQyhT6z2ooCxsfKWUCpxiClzhF/CGk1WgCr9YQksguPpLy7j/bY8J9IWQvUqJIFSLzhQDVkWZ7UkD1QI4Hlgal2i5FWPNcinN4woOIJEEnwedeUjwd22tMUKW/PEqU1sbR0gtKQad0rh8gbEhR59720dBTokqaqvAW+OrR7aed61vd9bFi5vUE6PvFS9QzO5mDM4Dch4QCWsLmy1/ZUKlWGSr1WM9eUeq1rqVEV+VopRY0cyjdJtGgxwT+B1ZgMHkxIcXRLecqCo9XUNXFrYAgERoB2Mckobvur8tzM3jrnnyR1Da1evmmze1ZAz6rKe4Zx2JTI+8x/EdMkWNNkWflMqYDapkun2mZLTYPNgKAAGCSwkmO9LPAj2+U/xDw2AX++o4DhzQ1UimFEmHBLH2FahJ3yTTOQNdvmZLDSDH/byquWRqEwjHhXCUc8ZRGOOWYAK5azDCyj0jEAR7LZhCzM7HefTc+VVsEj3Wu//9iSZNZ1112HZzzjGSYHBJCkuB177LH48Y8uxiArqsKPH26TUypPpVgiKGJFtobYRHLoT7as8uv5wTQD+eyzzrQlF5y88SGdTZvCWCgXELeFOYHRiVEM9Q/xrpzdWU8EUdoHVXWTzRcIlgZtIdbNW7five99Ly7/7WUmq6LRMD78wQ+y7Gejr0duww189StfMT/X3/72N/wWVTzv+c/FS17yMlv8WKMA2o1CW4Bpck+77PxbaPe13w79beS1JX0Lkyikv7I9iSElTLSvH9t/AwL0bd+aQfytFDWZRqThbB8Fi3Jl72rHgPym+E/KgI6Kr1R8Mm9bGXmF/2vkSUlkDTcqbW+/vz1FewRUyXwuINIOjjzygJBIQEaNWGDKIxVXQq39mkgASGl61ioJOcVVY/WG9nRN93TuASalr3PFVb4qm2fR8tLx/K8kYLxhSRNeBFLetjUeyBJI27lsHXrs6fESyl6KOwMqQgK7TtmANAGJ5jpoKQD1OZoZZ7P5GEVbvsgWqpla7BPNShFnX6lZdGRLW07BZASf0euQhWYAl/pepVdjupJTgaiLWC4xgorgxdMz/N36iQDzVd7a8kY+pYqqo+4rrtJVh6uyK32VW07hxrY8ZjT6w/h6Yy23IIdzlbPMY2Y6i60bcpiarGJ0MoPpjA/V4iDTihBABpFoDX0xWWakN1cq/CVg5a7yOxVRLI5R7mbR0+vD4iVJrFzVhwMPTmLpPiwCC1qvuwkfQa1DQJJmK38fqx8VupWWI+XRftz5/mNPv//9722/Uq2VJ2VKcuu//uu/cPEPL8Kdt91CAOw6i2qxiEqZihsRpHyY9JGrlSrKRKfxWJJ15qzjWmLhM5//gsmUN7zuNWZB8t5mkgzWyzwy+YwBrVDAtlI2sCUZFvSHMTk9SZDUZ99Yb67Zm5Jf73jnv9pRa/KpfciH9NijjsZPfvojnHziU/G5z34a3/jGN/DaV78Kz3rGMzE0dw4+8OH/wiWX/Bpf/OIXccIJJ+CDBGF6zktDsu5vpQ6o2ltJXNcGWmY4aqf25H0qT+i0k4SVnrehf0XVci8EVq24OrCntFnCSjdCZYmfH5VqAXkKpXjKueaEmvKBVlzxieMV/fXZFGT3rIYHa4wkmRwgHHMlfhKCKo8ERkRqUO1AxJup5w3baRhPWqqKuivA4vlQidT4ZW1SXAlf5aFzCQLl007KR0BIw4cya3t7BnngyGvoAloa3mi3arWfK74El8CbBGyHdj89vqBKwy1OUMg+5Ta29RmYuuPW7bj37nFkp9mkS3GUCVRC4SA7S00rDiNbyKAR0HpUCXamEiAJ1Ipy3mQqAQ1D8z3YKWqNoUpN3uy809RkigAbp2bqsfv0OaflKjLG/z6/OmwKFb/zffHV4wRV0uYkaAT/tFFpxdIQ2qpJOEncNGMG9sDfWjvJz/zlYO9vJtlWgqjbwp0UYX5qinzdfKVIkNSFXLaCnu4EculhVEtV+Bsabg/Z+kgNXwThUL/54wjw6Buo/H5BST8rQ06lJuqUv4bH5dhdYRwqKMkalu3bj8MPm4/9VsiPktkrGp9t2tIDfEoXSJLTamdBOYF56e1Aevd22vn+Y0cqh3Z8+Kd/+ifb3sqbACOL1fKV+2F0YtxkgfYq1SxjWYdkxXrf+96PJYuW4FeX/gqf+MQnbEsszVA+44wzbCkYbcGlRTrf+55/w6te+Urbe/R6xjnppJMwOGfA5NQHPvABsyAtXbrMyvCf//kRm0WtGdG33nK7zeB77Wtexbz+nTKpgtPPOAvPOvccvOOf34GpTB7dXQmsvW+dzaxWec95xtNxwYvOx+sJ5BJUKkuUtXKWl6VK8k0zoWXp0mLLn//853epCD8a6oCqvZXU7tpBlYL6zZ3anPepduxS7bJ9Rptd6ilV6if1rfV8AwVqZzED5hriC1Cp1HIg/Ml7Alsiu2OTgZSBTP3yEbRbJMoPxiQHMUiSBizlsKxdZiHz8toztEdyFkjygI6COgr9VkMTCZh4AEigSP4LAlhqhB4Q85YukIYoQOUtiyDH8/bGKQEo7U7pKa5+iwSUlI83pOcdZbUSqUzKU0dPE/VAlNLXuYCVZgQKvKnsiueVq0N/X+QaijNDV820JL8Y4O7V2wmsJrBhvR+TE3F2qFFMTPaQLwjUsww58U4PgX8K4+NhDA8Dk1MxjE/GkM72YCqt0IvRsQRDFIV8L+/Hkc50Y3wigeFtQf7uQr6gBW0HmW4fxkZjrRC3MD4W4bOxmTA11YPRkSimplOMH8fEOAPTUvkU0lMpF2+yC1MTXVQoVF6mMx5Fms+onFOTCWQmU8hOdSM9kUQ+3Y1CdgCV8jx21oNsA3PYNhYhEh5CuSLHc8o9yrKirWjM+pGW6s/z2hR8we3wB7cgGFrHdvMAwcF2HHtcHy586cF4wfnzcdhhQJfpRLLaZJl2zcCUQt0tjNWSDzsDpz1DkiWSDQJOkiOSEZIbmiGXns6wPmr4wcU/wp/vXI0bb/oT7vzzvazvKXz3ou+bj9M7/uWd+A+CoWKhgn9405tmdoa48MILbQHk17z61fjRDy420CNfTW0u/4ffXYktm7YiHIygK9mNu/58J2664UY8/7nPw5vf9I9YvHARbrrxRtx5x5/x/e9ehNtu/qPJp3PPeSZ+8L3v4x3vkMWqjCJB8YrlyyizfCZL715zLy648CUEVF38dmWEIzG+TxSvJKjT+oEiyTTJRwEqKY8d+nsmSbr2sBNq8kiXH+KWLFICOxq2UxBJ4TPAw2OUSqeUScEiuZcraNcB5ad/hNcuriE0Pt/qzr3s9NOlNNvPW0nNxUB9tMtzT9EeyV0gyQNNHul3u+biAZh2U7Pue78lyESe5tRuIRLIcUMEs+tliRTXu+4N8Xn3vfS8IcF2UtnaNTSv7Cqjt8SCl56XToeeqOSaqwseiR+kDSkEzVzNvtSczO9avQ3R+H4EDguQrxGYh5OomKk7SiDEJ5tdVNr6UMzF+HQvAr4ualxRyooYSuUQhUkUpQrFCH+Hwn3s6CLMI4VKiWk0kohEB1CjlNJMsoAvjkadWluDbaDJUO+y0GjGGCIUTQoxVGraFLcXtQp/VxLwNdg2GK9Zp3KBKOPymo8KQDXBt+xGmfGrciL3d6Naj6PmYxp8B3+Q5WY5QuEugkIJsx5WQxdqbIdVv1bzVqAAbDVbOb1HWz4SvX1xlIqjmD/fj/PPW4mXvvQAvP6Nh+Bt/3wU3vvvh+L8F83BylVAiq8g33ZJTO1zFwhoXS9Zo5RowKx43lGz3vaQyNqB1P4F8qSgefJI8kHDgaefcQYigSBuuu56POvsp2Ogp5clbuKVL30Zfv3LXyEeimCwtw+/v+xy3H7rLTj95FPxmU9+Ct3JFBpEppI98rG6/A+/J9i50JQ17RKhrbo0C0956trzn//8GUXwV7/6leXd29uNeDKBs575DPz457/4/+2dCYxlVbnvvzPVqamru6sbuqHpZha66QZkEGnxOaHvcrnChaDikKCYgHFIeIrG5MmQEFQSjXK9iGKMCvoA5QYBNU/RgAERBLmowEP0iYCPnueaz/S+37fPqjo92Oj1FNSp/v9g9zln77XXHmoPv/2ttdeyHr8mfezSS+2DH/ygPfvcM3bsyhV2xGHL7LJP/c8oot6yaZ0fw0O2eHH2kg7XwvRQSCf01KMCRCpNa702Mg8wntICMVvIzr1s4O+9+znH3z4FONLLCwQegLkaPp26TSNDvMlHcVwhjhM++U1jwuP+UFH0vLv9erJ9y4aYj35Ji0bbfP7Dz/kh6jBwveHi0mRighiV51GlYLARFTEaTKfehA8pQMMDD6RjMwVMppuX/wolxIxjSqrQ56lh6nSJVtP9KkA3MVUXo3qj18WobFxKCEfHpSXarCq71PhDhMtKLmSIcdmQVeDMhpR298HHT17Ymnm25D2VJo1rHbLpsXxfdtaGVus0l5Q0f3McPWrVGt0haNklK4O9UXPZoU0Ynj5riEUss+USQoUtHzs6vMPWrnne5s3L23HHHmjHHW8RjVpxtNnhh7HffM5CxUWJYjOK2Zk3cnAwrD0NaR+kYVdebHp7oX4lVQ3oKgvJ4u1hbir//m9fsmK+YI/86mE7ZvmKeBuw4fJ53KpjXaL+M9qV+qkL1X/++lE791/PsRNeeaL95H/f7fOUbN7AfPvzn551ian5jWDYbwq0zM7S8rZy5bE2NjYR0STGEU1KndlS55OeKnjAW7Vqlf3Hf9zuwtXr67gt8rrwwgvtpm/daOvWrLVb/tfN9vN77rX/ccklNn/uPBf1vI02bz6sP6LGzYc+VNk2blBUiyBixgNjevDlhpoeLhmfql9IrjqddP789XOOCG0KeqSqN0gMDxabNm50YfKrRDTQmbeB/vm2hq4g/Dt1Ckf9mK5OuAgV6cKrx2ouRhQ5L9pv/5iXccxHp+4U+fXP4WUK/13KGvDO8u6y4aGxeGGm5OvJEclxnB4IOC45Tgl0EO1Nx2b6Pd1M7SkhxC5wR9t1yODeQlAyl6PeU3YyF6jvk2pjdioRbm8O4KLU4C2ePE+KzaK4XWUKPF3Ob8AE/Afnz3HRHLFDDl1kK48t25y5WQOeUX91NxiZRTw6CS7yJ510kj388MMhHlQD+Pa3vx29ORDNoQusJ598Mi7uDI8//njUjeLmQ7Tp+9//vv3xj3+0K6+8MnqM4IaBzNCBe6rqQHMNfH/qqaeiygRpiKSzvFR1AhGiZ4mvfOUrsQ7IEMu96KKLoh7orbfeGgLEPEC9LTql5waENPHm9PXXXx83SW6K3HRYBm9VU9frmWeeiSoVvKjTKkxpHcl7o98M2S6GdAMTsxfEm7/7OeecE8cIf3eOzx//+Me2evXqOC4QGyJYn/3sZ+2CCy6YrJ7DMXvZZZfZe97znjjmOM6oI0hzHStXrrTly5fbbbfdFmnTMcvDC3DMkRfHLNFbPr/+9a/HNJbJeXLyySdPnpu33377ZLNLwHq2/p4uJFVC/BfwczhEoVDM+clKNyD1KFJpqU3ZuXAtmxQg6kchjUl89nDJiEqpaYasAnw+N2oHLR2w+YM+B7P4bqnVq1ZN9aJCypKoMm/niBVSRFHcr371qxCOVM+IJ3hkhelI1Xe/+93J4jKaI6AzeYpN3va2t0VvDER4uJlw0yAahMzQVAM3KCqwf+ELX4h5iYJ961vfivFAURzL5KbDzQuR+81vfhOCRf68hYigcSO7+uqrox/VVFSIJLEMbl6sL1113XjjjbGu9DzBTedLX/pSDIgZN68HHnhg8s3nVOSTuughD8ZzU2N9XqoiFvHygSw9++yz8bfnGKavXIScXks45nipgeOQY5pj66GHHoq0SA3HyaOPPhoPGIDgn3/++XE+0KTR5z73uXgx4vnnn58sVuQcQ/Z5MYRjjQcH0tP8yEc+8pE4doG86O6Oc4Nj/txzz43jlWW/lOzhCimEyGg9PbjxZxIQFSl9EtVpurtL2RtrvHkSPsWP2XFa4Yf1vG9zsyV0mPrWJISKfdKUpVzdL2Rb/ALbY4ce2m20sDBerfheGbcev6+nJhKmaBWrZh4znFTMkOpTJpFASLjJIFJ0Cs9TMx3AIz3Iyfvf//4ogqCojqdznrQ/8IEP2HXXXRdylJ6uP/zhD9tb3/rWiCTRNyp5nXnmmXbcccfFzYXlU4eUGwYixo3lscceizcIecuQulCsC8Mdd9wRdUtIx7LpmB65o79VROvyyy+3D33oQ3bDDTdEDxHMc99999ldd90V688N6fjjj496W6wj68P20ccqEsZ6EBmAtBwxu0GWvva1r8Ubp0gML1fwt+c4WbFihf385z+fPEc4Vt7+9rfH8clDAecK0zkOgeOL6BbHIjL0pje9yW655ZZ4aOHYotiZ8SyTN21PO+20GI9ccTzzkgf5I1g0DfLOd74zhJ9xqSgbweOhgMhYErXp5GVtUkGI/yrpqSfBBb89h3K6yXPzTwJAFIW80SmqHVNJmbbOzD53zYO2Yf0BVq3sZ109vTbiD0V4Q6fGq9jKrJDPcaGiu4ho3jSKBLObJ0QppwtVvhlhwrvydQRzxC9e6+3kVy20M84asMEFLiHV7dbjOyVHfa1qwwrRhYrnmcu6XJ3a1/w90z6f2XCsERlKxV1852kd0UmV14GbC+NIx3ekC+hXlJtDSstNiZsEcBNBVLg5IG7kffPNN0cTDNw40rKgdT5uHkm0INV3SfkwnRsL+fPJ+jCO9EQJiAAgWEQWeJMx9ZnK/JxfqekZ5m0t6kvbzCfp0jbujek7f8V0w9/u6KOPtgcffDD+7kRlf/vb38bfkOMHgaEpjp/85Cd21VVXxYsSNC5LtJX23T760Y+GZPGAwBuviBWCRjE2UVlEjGhvivIS/eJc4eHj05/+tF1xxRXxgMFDROp/F1guxyjQthrLvPPOOye7WUrn1XTTGVcwIV5S0k1+z9CsAtd/WgXv6++y7jJqQF0ZF6pOtalWWje/UYg3C/ckVFEs6J8UfabGR3M24ftjh73i6IGIUjGuHDuFG2bdCmGcSCukBTGkHce0NH3mwo0AqUj1PZLkcJPh4s0ACAhPzAgD35EYJIWbR5IIIkuIEVLCzYQLPxEmIkrceHjavvbaa+3ss8+O5bIsbiDAfIgVNx5uaggSy2C+JD085QP5sEzyZ/3SujKetv2IAvCdokSEjPlYH4Qs3ayYh2XuGpFimUz7W4RKdDbUnUJqqGfHsU009qc//WnIPnJEUxwcD4yjGJsGZBF2oL4U6YHj80c/+pGdfvrpcXzTrAjFgtSTQqg4xhE4hIrj++KLL44IGaJEtBfx5wEAOIc4Rm+66aY4D8iDdtUQqj/96U9xHHPsk990ky6dQogg3eT3BtGqLCJV7sr7zdJ/0FglwZfkBp1KM4IUUaS45/tG8pnd/1uEqhoiFXjCaIfGKpbPjdiyQ3pt+XKzHoIwLly8/kwr4rvvVzIjWtFZQgVEWZAg6nsAF+xUtJCkJV3AkSngRsF3JIX03JCQH+pVkRYpSRd/bkbcYChOoaiECuZ0i8M8pE2ixHKQHG48qc4Vy6AYj3RIGL+JRJGGmx3zID+pDhXLBNb7G9/4RjQ6euKJJ0bdLdaZmyVwY2MdgXVE5oBxaVtZnpjdcIwgVsg9L1P88Ic/tGuuuSZ+c7xyXFAc98gjj9gZZ5xhy5YtC+mh7hWVyc8777zIJx1XRK6IenE8Ik5EohAnJIljmmOKY5fjGJmiKJqXI2hYl2Jsls05RPSXY5fjm4guy2Z5FL1zvHLMt0ZHp4sXu3sIse+SpGESTpesQUoqpfv9yVauOspvjOv9ZkcUwvWg06XKNzpn9LlFsd7OQpVR95tw1eb2l/1iN2HFXJf1lrtdmoZdMCdsorrO/vXcI6OeGc3G8Kqz3679e49l7Xj6byQsRCwV9yEdmXh0Clygk2AAT8dJdADR4QKOlDCNoZX0G6mBdLHnxsE0fvOk/cILL8RTPkUfqeiCaSl9GgcpWpYgDRIGRKKA9GkeivYgRbRIi7gRfXv66adjHKR8ubElyJttTKR9kZYnOpf0lmerICPjwEPA3XffHWmIJPHiA+MQKJr24LygWI63YiniS1Ep6gjee++9dv/990cxH3BuUKzNMQ8cU0noOQZZJscekoSocT6k455zhDdlL7300igCJD11AUnLQN0sIlmIHPMyX6rnNd1wRRNC/DUmhYKbIPWC+Ld5Q+vipthtff20EJy9AUg3MFmEp5PJNoBIVAzxK4MYXdFFacP6HdbfN9fGR8ZtdGTIerrrVmtssNPffKwN0IRC79ROaNT8otnwndXgM8uNqdmQRf2m2PmXEOKlJUk2ICJEhZL4IEFEThmPnCeZRsZ52QEQI6JHRIoQLaJNVBynfhURV2QcYaOOIM15fPOb34z5KFJGvO65554oimaZRINZHz5ZNnW2WDbF1FRip6smulxiPWhugRcsiLBSd4v5eWhJ6w7kM91IqoT4O/EHrOiWhc8FC3M2OL/c7DevMiuUIN/I+dC8NGCRkwPFgtUIpTd8OmpZpOdmF0rL7bAlS/P2uteXopX0crEZ7ap7WkoUPTV10fh/ah9NXX6ycfzbOUWAQsxGKMYmEkXUkchTiqbSptR3vvOdaL0/QcSISBVvp9LECEVwFIkjU6neFZLDOCTomGOOiXnImz4rESHqWZGGyOnHP/7xaIaB4jzEC1lifSgKpL9MhGrp0qVROZ63Yykm501UitRpWuGLX/xizEORIk018DYsUpUibUkCpxO9/Sc6EupwpFAwcKK2/VAmO2Si+YZbaxHV6FjVurqLfkExu+Xbz9lvHxt1eTjIdaAvir46lXgrr/n+X9YCO1/4RQhuImtmoVa0Of0l2761bnPn5KxWXWOlrnV21rmvtNWrswhezly0PHG9hkzRGCB5xCh3KTpOZTlT+zPbZdS7YnzWlYWYvbwk56/4h0Bg+DshJanImAgRxWuIFsVqrUXAtF2F6ADzUlcPeUpvoRKxQp4gvZGajgM+KQ7MHtjocaEwmX/rfIwj2oRkIVupyJ1xCBP1tIh4cTwBYtZaJN365ux00cGXfyGmgxQp8aEpAplZ7HLBb2Rvd3X5g8+ixfNcJKouUxNWCClh6EwouqRj0qxzUkbwD/uCbWJc1mVEFn2iscstVihtteXHLLCVx/rNsrmbmM5FNZevZX0Dej4IFdOzvZMV+6W9mo1jYdkyhBAvD7yQAIgNMsP5TjSKAWFJkSvkBxlCaJAdhIp6VhQXIkhJZvYUJUKoAOFKogbMl1644DuwDkwnCoZkIVQsG6FCzpJQUbcKYWJdEsgdECWD6RYq0NVLiN0gUpPd5ncjLIA2VOKXFV0YDjpowJ/E6LbDBYLGMjseiv8Y/AIxOfgGN4ruVkXrKppt2rDFL3BctNbbwoV5e+3rlln/HLOSXzerFbruyZ46swdG3yfxmUj1qNhXU33NT4mVEOLlghcSkCXOX+ATsUlRoSRJCBYCg9AkKUK4aMYAWUpygwQxT3o7lrTIDuNITz4UMyJXgPhQfJgkjO+IHc2QIG3MSySK9MgZ8sV32qtKkaokeinClQSP9ZpuJFVC7ER2o58Sq12HjGKJJjHHLY9ULfUnrwVzrFD06RHBSprQmSBRGWmbEaqCj/eN9cGvV779PMmO2uIlPXbKa46yw46MGaxgVcvnPG2u1HzS5ALM06LvF/clRmXZR5OiPmT/NuJTCDETQHhSpAiBQXD4naQEaYGUJokVaYlQI1KIEpLD+FRpHLFiOtP45DfSRj4pyoREUReLvJgXmWN9EL2ULyBPRM8QrvQdiSIdyyOqxTTyTFLVWlw5XWR7RAixC3s6NfzGn3MNaHDBoS/1qouF2cL9aGCxYaW8S1bdpzVTZ0KCnDUFDZtIQzA1vZHzwb/F4MvYbUjTdh1eLO3keJYxNX13WBeGJlk5YPPHFKjQyI71duAB3Vat/z9bvny+nXaa7wvf6ELJL3y+b9gn+aLPjnG6SNUbNMPAdmaRqxSLYj+lfZWNax0jhHi5QJKQGuQJ+QHEhrpRqY4VwoPMIDFIC+OSjCWRQpRSWvJCkPidxIrfzJ+K6ZAehAoQLoogSZ/qaAHLSOkRNepNUWTId9IzpOnAtpAHQsi06UYV1UVHwonYeoJwAWjPoZxEh9t8qixNtIW8s1t/rdZwUeCi0bCx8YZ1lfrt2afNvvrvT9j2bYM2Wh2wgQV9VvVsRseGox0nKmuPj7gy4Axk40O9QFTL83Z5afh0qzfrHLj4tC4vSHWcdiXSJrJ56q1i4jKVjwpQPkQePjQKu/sS02nU0+np5umuahW/CHKBLBW7Yv9SUSqfH7FCcZtL02Y75ZQldvp/X2j0AsGuz+cnLE86S20nsW5p/bJl77zYNG13UFYxe5m+81eIlxdduYTYDcSg9dRI37OLfi7H2yq0IG4uVPnwkXlzzVa8YrF1FUZs7rxely2zoeHtPicRKH8Sq1T9SSvLOTHZbIFDG1dTgpRuLn/PTWYq7VTxXZPIN+XfupxdaK7P1q3UhchZb0+fdZd74uZHxL3cPW7Fkj89ljbZq151kJ32uoU2f9BsfKwejX/mJ197TPnzGzFlyKax/VMD7X7teRBCiE5EVy8hdmPX06JVQvIRvclFNKYYnQO7X9kcl6oTXrXABvfPWaFr2Kq1ISu4SxS6spB4o+FP5l3olZPMKuoo0c4TeeWt0KhYwXxwKZocPO8YWse1DrtO9+9kPzmO3y5LU2/z+QjWIrqaYSJFgihZ3j/pw7BgfX29VsrTrIGvFbO58I2NbrWxsbW+J9baq1cfbKesXmBLDvLZfXpXOWc90SeN+XZn0S4hhNgXkVQJ8ffislLuKttEBYFwiXJ5og3Mw19htnzVflapb3CbGbGeXiI8Rau4aOSKBSv15KzSGLM67TT5mRf96LnE5OtUAi+GxFB4F4TpRIImjN/T0KQlPdGxfLPYL97iI/96yf2pObjMZckbMSBY9bwPzTLBatUlamzCxidcBusNq1S2WL2x0ZYtK9ob33i0vfFN823psqwB1GqNOlTZfHTfU2RnCCHEPoqkSojdaJGVPZCqflQmkBgiV3VzD7HeAbPjT5rjwtFjXaVRGxndFnVHaHWcSpbV+oTlu1xUCmPWyPP2jM9EXkSSXHxSNy4ULNb8zMyGxt84ZOlDjHLjnoPnTwvogU/wfPNhctn3iJKFxjGKel0TMdR9vSrVsWjAs6ur7qK0xaVxsx18cMFW/7el9k//0m/zBrMGPstdNevijUdnfDx7TVoIIfZl/OoqhNg7O58mSaqofJ69kIJ8jETR3iFHmJ36msW2/+K8jY2sc/HabqVSwUWlGm+oFHmVuFm3aadAVJAVv1EUR2XzbCB25YOn3eOQpjfT756n01zfTH92hjxCsnzeEERP292Ts2JpxCYqa3zWtfaKo3rtLf98uJ14Yj7qVtVrY56ywtJ8oJgw79tV9nlKsajm4oQQYp9DUiXEbqAFTQUJQ+A0SbYypSblshtG8xQqlnIuVmNRFLhyldnJJy+0Qw7usUJ+yHI0M5ArWqNe8vwYXMaalbqRIMQmFjMpN3xvDvHbh6h/RcLWgWhTmu4fPtQRvUa3C17Zv5cy8fLJDEbDpAxRnwoFjAVk+fDmIUOj6NK0zeddb/MWDNkJJ8230/9piZ10sln/XJ/cGLVuklJPrEZdLdbLs/XtoehvlFcchRBiH0VNKoiO5CVrUoEs+doyvuHiUav61ObkemPc5Yk6RrSo7saRL9j69Wb33bPFHvrlCzY8NM9HLbCJqmeUK7g7RYY+M3WpfJQP8cko/6fmQ0SQdmJK5nYGW9oZ8opK6DvByGxZaVo2JiNbnI/PD7ssbrKFC6v2yhMOsdWn9tjcQV+nCn1y7bDeMvvct3/c938pa0gv6lbVJ6y7O62L3uATe0dNKojZiqRKdCTTd1F2Qwh5QgqIKjHOCetgGiNYbqs0ICkMtDdF21RjVu6eY0PbzO69Z8R+cd9fbPOWspW79rd8sceGR5AX6mJxAvqcMSsxpka8TTdeyVomnhzcktJ3SI3gsb2xzQ2XmOZ0pCxfysf+qcZbh9Gdse8rKsJn7VOx3PGJinUVG9bbV7JaY8hGhje7+FVtYL7ZqacebIcdUbRDD6PNKl+QS1gxNxb9GtZrDRfIvljmJL5Mlju1HyRVYu9IqsRsRVIlOpKXV6r4wfQkDpnkZDBv1cbGPF2j19fT7PHHze6++1l7+ultls/Nt945+7vwFOMtOwQpE528S07RP119qLfkWdLIKNuZJGpSnJJMNWFcNPPgn/6PbdmxJVorppVj3j7k5TzqkE+MVaw6ztt6dDuRs65yzSrVzTY8tsYGBup2/AlH2gknD9rCQYv2p8ouVGxh3YZ8T/iy/Vej4p+FrMuHgF3hw67dzEiqxN6QVInZiqRKdCTTd1FGDrJivsniP+BnTGNgJCOSOOwqEHVreBY5Fx1WaXTc7P88ZfbYb9bY88+O2Jq14z6+z+eizhWtrZddsBo2Nlq3ifGKlXt7yCHLqhmFStLEEMWOPhnXqtddZ/yL61dz+xs2MNgdwjYxOpZ1M1GtRTcNA/391ttdsB07ttnw6AbPa6stWdpjK4/f31at2s8OXEp/Wtli09bV6qNWcOsr5pr1wfDKtNtJlMtEM1tbJmT7InaXEH8FSZWYrUiqREcyvVLFgBw0ZYlsJy0hRasgqUczHfik6gQV1/27Tx4dcynp6okit63bzJ7+fd2eeGKNbd5Us3XrRmzHtorVa2XrKs61cteAp+uxbfTWnqdTYiJXWf5sGtvMNrZud7Yu9dh+utrj+8jQsHWVC1Yu+QrkKlarjlq1NuL51a1YqNjBBy+yeYMlO/DAfjtwScGWLDMbXMi8nlvD18clLWvgNGsNvkTnyEb4zP93WYzlsOkhVAgoUsd6stHZvpjcXULsAUmVmK1IqkRH8vJdlJN0JZJQNT8zx/H180+XjkKJKE7d/ytYrVGM/gCp1L5pg9n//aPZs89sthdeGLKtmys2tJ1iw7zly3M8LZEhtolit4JvXxpyzbpS2YJoqZ06T7lcVh8rmkQo9br8TPg6bPUU262vv2qLDuy1Qw4etEWL+6yn12zp0r7oCJo681Q0p5ecPOWEuQkreiYFX1YGelSMIkogOhaeF9ZEO1jZvsikinmy/SCpEntDUiVmK5Iq0ZFM60U5ZRNm0CpQgDTsOi7B+KzIcGICyalaieCNVW14bMSKxW4f+qziLsKqIjLUdRrabrZxvdn6tWabt07YU3943sYmajYyMmZjo5UoysvnuqxYKPn8xantdNPJF4gqZULEJ5XSFy84wObO67NFi7psv0Vm8+ab9fabdfXQV6G5ZPmsnrZeo05X1SWMpiEyxifGI032gmLBl1Wwqq8vsagS/RxO2hLbmvYDUa3sU4i/BUmVmK1IqkRH8tJIFdJAyCkxFYmZIskFM2U1oSq1iq9bOURj1KWoUc9Zb3dPs3guI6vYTYcy/t3/QbBi8AyQo7Exsx0uWzt2eB4jVRcx3rxjOwsuVoVIE62al2ms04du+uDzNfRlIEVR36q5HSktK8Ta01fh1K6jM+SJ2HcFlzbS1uq+zv6b/g0Z+N6g6NDz9b3s8zDsvC8ikjUpXELsHUmVmK1IqkRHMnOlqu5z1GJModEVESZAOhCdam0ioks5zxuByRZFOIsmD6asJBW3pXVJwsUwFS3KJvObyFOM9yGKBJnWyCq4pzyq1Wy/lbqIQJEmq4uVhikoVmScb28sIPuo1en6JhUNtuwL1onP1iyE2AuSKjFbkVSJjuSluSijRruyJ6lKZJGqKUibpd/ZN5gnmy9LP5UusVP6F9us3WQmrdOu67ore9q+Vqbmz1Zh1/RT0+VT4u9BUiVmK5Iq0ZHooixE56LzV8xWXuxRVgghhBBC/A1IqoQQQggh2oCkSgghhBCiDUiqhBBCCCHagKRKCCGEEKINSKqEEEIIIdqApEoIIYQQog1IqoQQQggh2oCkSgghhBCiDUiqhBBCCCHagKRKCCGEEKINSKqEEEIIIdqApEoIIYQQog1IqoQQQggh2oCkSgghhBCiDUiqhBBCCCHagKRKCCGEEKINSKqEEEIIIdqApEoIIYQQog1IqoQQQggh2oCkSgghhBCiDUiqhBBCCCHagKRKiBnK6Oho85vZ2NhY85vZxMREfDIufa/VavGZfqfPRL1e3+lz69at1mg0Yr5KpRLjhoaG4hNIl/JMnzAyMhKf1Wo15mudBq3rLIQQ+xo5v7A2mt+F6Bi4mRcKheYvP5BzuZCE2QBi0tPT0/yVgcCwjchOV1dXCBBp2Afbtm2zuXPnRppSqRTpScf+YB4EqFgsWj6fPUMxb39/f3xnWsoTkKaUrru7Oz5Jk4Y0XyuMR+JYH5YnxIsxm89fsW8jqRIdyb5wUWZ7ECZkpVwuT27zjh07bM6cObZ582YbGBiIbWf89u3bra+vLyJYpEekUj4popTkBwFDoObNmxfjh4eHYzxCRXoGvrMMRArpIo8kadAqasByScM6CLE39oXzV+ybSKpER7KvXJSJIiVxQVr4juAgRMgNUsXn2rVr7aCDDop0gDyRnv3S29s7ua9ahQj4PT4+Hr8RMWSL78wHqYiPqBX7l+W2ShNRNaJjKT+WmSJcQvw1JFVitiKpEh3JbL4oIzpIEfKErCA2qcgOgWE7ScP3NWvW2AEHHDC5PxAk5CiR0gJClvYZ+ZF/yq814kRe5MMwf/78GJeiY6wX3yluZJ+zbuTJ0JqHEHtDUiVmK7oKCjHDQKSILvFJ5OfKK6+0I488MuSJm88RRxxhl112WaRlHCA769evnxSqJFNEuhAnbmDcyBiPLF133XV21VVXRYQLGUKOGJhOWpaPxKX0KRKFiC1YsCB+M42oFPkDosYyhBBiX0VSJcQMBMFJ0ShE5rzzzrPnnnsuJOnWW2+1hx9+2M4444x4iy9VWt9///1jXsQmDUgYIEbkx2/yQ76QMIoP4S9/+Ussi+ksA/iN1JGW/Dds2BDjqbsFiBX5JpEi39bogxBC7GtIqoSYYSRJQVqQFKSJuktEj5i2cuVKu+222+wXv/iF/e53v4uI0q9//Ws77bTT7JBDDrETTzwxxAsZIoJ1xRVX2OGHH26nnnqqXX311ZOiRb7Uj3riiSfsXe96l919991RZ+qaa66xQw89NKJjn/zkJ0PGWP4ll1xiH/vYx2z16tV2yy23TEofn6muVxIyIYTYF5FUCTHDQKQQFQSKT+Qo1W1KkSB+v+ENb7A777wzfr/5zW+2T3ziE/bnP/85hOq9731vCNIPfvADu/322+2FF16we+65xz7/+c/bgw8+GJEnpiNdF1xwQQjTq1/9arv//vvtxhtvtD/84Q/20EMPRfHg9ddfH28Hsh6Me/zxx+38888P6UOmGJ9QvSohxL6MroBCzDCICiFPDIgL0R+kBogyUY+Jpg5OOOGEmP7AAw9E3SoiSEBUCkG66667Ipp10UUXRdEdlcuZj2nkt3z5cjvnnHPsrLPOsne84x1REf2rX/2qve9974uiwcHBwcjz0UcftYULF9ozzzxjb3nLW2IZQgghdkdSJcQMg2gP8pTqVfGZitX43LJlSwjPL3/5yxAvZAgJQnyQJURrv/32i3FElmhqgd/kS5EfeVJX6tprr43p/IYnn3wy0n7mM5+JKNiSJUvsy1/+cqSh7hR5HHPMMZFWCCHE7kiqhJhhUJxGXSUkCEGiqI/vFAciWPymmI+ByuoI2MaNG2Ne0gPFdwgS0SwqtTMv6RAoivSoL3XKKadENIviQepVrVixIqZ96lOfst///vchbXxSX4t1IoKGqAkhhNgzkiohZhitUalUaZ1IEW/dpXpNF198sR111FH2mte8Jiqu851mEpj+yCOPRCQKSTr77LOjjhX1p3hTkHSbNm2KIj0qo1N5/d3vfrddeOGFsTyKAb/3ve+FXC1btiwiVVRKp20qxI7K8kIIIfaMpEqIGUYqjktNGtBVDaJz2GGHRbSJN/Ve+9rX2s033xyyAzfddJP97Gc/s1WrVkXF8xtuuCEEigrsiBLyRb2ryy+/PNq5oj4VAkZdK97wQ96oT3XuuefamWeeaa9//esjmnXHHXdENIwiRoockTMhhBB7Ri2qi44ECUhvwgGyMZsOZcSKbWIb2VaK3lo7MybqlPrtI4KV2psiwrR48eL4vm7dOlu0aFG0QUV9Kyq4I2nki1Cl+RjHtNSWFREp3g6E1JI6sA5pvBD/CLP9/BX7LpIq0ZHM5osy2wZsH6KDAAHj2cZUb4riOupYpelEnahMThr2BzCdiFcSptRvH9Ev3gYkDyQKUtr0nTxYVloH5k/LFuIfQVIlZiuSKtGR6KIsROei81fMVlSnSgghhBCiDUiqhBBCCCHagKRKCCGEEKINSKqEEEIIIdqApEoIIYQQog1IqoQQQggh2oCkSgghhBCiDUiqhBBCCCHagKRKCCGEEKINSKqEEEIIIdqApEoIIYQQog1IqoQQQggh2oCkSgghhBCiDUiqhBBCCCHagKRKCCGEEKINSKqEEEIIIdqApEoIIYQQog1IqoQQQggh2oCkSgghhBCiDUiqhBBCCCHagKRKCCGEEKINSKqEEEIIIdqApEoIIYQQog3kGk7zuxAdxebNm21wcNA2btxoRx55pG3durU5RQgxUykUCpbL5axarVpPT4+Njo5af3+/bdu2zer1uhWLxWZKIToPSZXoOIaGhuIiDNu3b7eBgQFbt26dLVq0KMZxYRZCzEzy+byNjY1Zd3e3jYyMWG9vr23ZssXmz59vlUrFSqVSM6UQnYekSnQcHLLj4+NxUSZKtXDhwhiPTDGep18hxMwlPRitXbvWFi9eHOM2bdpkCxYsiO9CdCqqUyU6DooOhoeH4ztPt0BRQipOEELMXHj4SdEoosz8puieovxarRbjhehUFKkSHQcXYS6+XJgRKb7z2dfXF9N1SAsxc+F85cGI8zTVn0rFfq1F+0J0IpIq0XGk+hhcnKn0Cum7LspCdAaIFBFnosvpNsR5LUQno+I/0XEkoeLtv4mJiRjHJxdmCZUQM5t0zhKZovivXC7HOa0XTMRsQJEq0XG0Rqh42uU7bxS1XqyFEDOXVC8yFdnzgglylaLQQnQqkiohhBBCiDag4j8hhBBCiDYgqRJCCCGEaAOSKiGEEEKINiCpEkIIIYRoA5IqIYQQQog2IKkSQgghhPiHMfv/fZ8kZ8z4NTgAAAAASUVORK5CYII=;" vertex="1" parent="1">
          <mxGeometry x="100" y="110" width="687" height="382.05" as="geometry" />
        </mxCell>
        <mxCell id="QlViP-bCRDP4DbnAVqdV-3" value="" style="shape=image;verticalLabelPosition=bottom;labelBackgroundColor=default;verticalAlign=top;aspect=fixed;imageAspect=0;image=data:image/png,iVBORw0KGgoAAAANSUhEUgAAAb4AAAG7CAYAAAC8QPBaAAAAAXNSR0IArs4c6QAAAARnQU1BAACxjwv8YQUAAAAJcEhZcwAAEnQAABJ0Ad5mH3gAAABhaVRYdFNuaXBNZXRhZGF0YQAAAAAAeyJjbGlwUG9pbnRzIjpbeyJ4IjowLCJ5IjowfSx7IngiOjQ0NiwieSI6MH0seyJ4Ijo0NDYsInkiOjQ0NH0seyJ4IjowLCJ5Ijo0NDR9XX2KIBRuAACisUlEQVR4Xu3915ecWXblCW5308q11gpwh5YBILRMySRZyWKXYFX36ul+6P4DZs1axad6n+6HEbVm2FUzxWKxiiqzyGTqjMgMDRERQEBr11q7ae3eZ9/PDEAiQwARZu5m5ucX8cEMbgZzU9/dd997RNWWAEVRFEXZJVTnLhVFURRlV6DCpyiKouwqVPgURVGUXUVVMBzZqvH7cn9VFOXrEovFEYnGEAqH5YhgbX3DHKFQGGH5+8raBlbk73Luye1RRMz948hksshks7lHKQx2mw1ejws+rwcBnxcNdTVoaWpAbY0fbrcbNQE/Ghvq0FgvR0O9/LwGfhkP3C4XHA47qqt1bqxUDqFI1Fyq8CnKE5LNbiK7mUU6lUYylUI6nUZKrieSKTmS8jP5ezpjhCwsQhaPW0dYTrZIJGKuJ+IJI4ZB+VlcrsfkiPPfJ5IiepvY3NzM/bbCQOFyOx1GyDwigH4RvzoRPQqhw+EUUXTDH/AhIGOA3x+AT273eTxGLD1uOVxOuJxy5C6d8lhOhwOO3KUKo1JOqPApylNCsaNYbQRDWF1bw/pGEBsbISwur2J+aQWr6yGsBcPYEOELxpLYEiGr2qKYZc1RtbVlDopbVpwdA6p5bG5aPytWgLVNxKmqugrVVdVGqOx2m/w9J1jyM94mN2Cr2gaH3OYSp1cjwtgoAtkkbrClsQHNjfVoaqxDgzjD+rraB4fdbrceR1HKABU+RXkMig+XGunkkjkXRkcWFacWFQcXNk4uhmAojGBwQ44wwnJ9eXUdSysihHJ9IxRFWP5dJJkWoamCXUTFJpfVcmkXcaEI8Xr+ZxQjuSqH/FFEHggsxVb+y1/PymWWr1uOdFaEWZ4Gn7Nf3F6tuL/GuhojfvX1ltDV1tagpqYGdfLzerleG/Cj1i8uUYTSOES3G265rLbZzOsv9utSlKdBhU9RHoPLlvFEQgRNHN36OhYWlzE7v4TJmXmMTc9heUMEL5ZAJpNBtTg5UQ9siZOje8tmcpdmOZRCYokIh31r7KcImD8f/JxXzKW5mr9WHPJu0vwpf1D8zFUKYe7v8pTN8+FToSBTpOkOuddHh7glP6MzFFUzP3M5HBjsasf+wW70dLaho70VbS3NaJUjv0eowqeUEip8yq6FApVOZ8y+XFQcHANRjJMLR8Sx8RDntrGBVTq55VXMLSxham4J63LSRMXJcSx3iqOx20QY6N4ecXKV4nIeuMPcQUeYEnFPU9TpDOU+fK3dbU3Y09OBttZmtDQ3oKmpEU2NjeIEfeIEfeDYEpDrPq+4QnGQZtm1Qt4jpfxQ4VN2LVzGZMQlRW1qZg7jUzMYnZjB9MIy5teCZnkT4uTyji4jIkk3yMGfYsAh2xq86ZByl/y79fAVMah/lkO0hPDhbYQBLm6XA1UyEagSJ1htt5t9v/amenS3NGKov1uOXvR2d6Knu0Pu71QnqOwYKnxKxZPfs0uJ0BlXF4kgKI5udSOE5bUNLK2sYnlp2Ti66dkFLMrPVsNR4wbp5hxy0Nnl3dyjIqdYcFmXRzrDPcKs2TOkQDbWBtBaX4OuzjZ0d7ajtbVFXGELmupr0Sw/rwkEzP6gx+uG1+PJPZqiFBcVPqXi4V4c3Rtz6CanZzE6PoXb98cxNj2P6aU1k3Zgp53JuTqKJAdxQmmjwIne8coDN0dU+B7y23uE5gr/N4E8JnpUJg7WvqDd7A3uH+jCATn2DvZjz2AfOtpa0d7WYj2YohQZFT6l4uDeXTyRRDQWM6kGq2tBLKysYWF5FUt0dvMLIoBzmFtaxUowipQIo9dph1MGaOPqKHR0dipsXxu6bQoh9wUfHpvo62jGQGcLOjvaxQ22o0NcYEdbs5VAL26QCfXMKWTaheYIKoVGhU+pOJLJpFm+nJ6dx41b93Dj3hhujE1jfnkN1eLqtujoROzykZfEiN1jrk6F7+uT3we09gWtiFFeOux2kyu4KaK2VWVDQ40PTbUBHDs0gqMHhjE00Iu+nm4rSd6hOYJKYVHhU8oeLk1G5IvMvLrl1TUsisDNmhSERUxNz2JKBHByfhkb4Sic3K+TAffRXDoVuO0nvyeYTGfN4XXZ4XO7MNTfYwJhOtrFBba3or25AW1y1IsTrK0JwG5j0Iwt9yiK8tVQ4VPKHiaYT07P4N7YBD7+9Dqu3R7FzMo61kMR2LGJKhlg0xlWTdk0QpdPNVBnt3OYPUFe5oJg+BkY183lZhE37gm63G6cPLAHJw7uxcF9w9g71G8CYJgYryhfBxU+peygw2Ny+dpGEAtLq3KsYHZB3J04u/ujE5icWcB6JIZ4Kg2vw9q7eyB2onEqdKVFfjmUF4wI5SSFKSMso7antwODPZ3o7pajsxO9nS3oam9Bc2ODqR5juXbdA1SeDhU+peygw7s7OoYbt+/h3CdXceXmPVNGLJZMcg3N5NxxEKWnsPbuflvoVPhKi7zwkfznlv8RRY3VYtLiz+kAnzu6D88e3Y9jhw9geGjAFMnmfqGiPA0qfErJwyXKfHsflg6bmVvE2NQ0RiemRQAnMTUzj5Q4BVYZobtzmCTq3xU8pbygIKZlIkMHmEhnjAMc7uvEnr4u9Pf1oK+3Gz3i/jrbmtFEB1gTyP1LRfliVPiUkod5eDNzCxgXoXvn7Mc4f+kaVjZCpqVPtQyO7HRgyC1j5uVOnV1583AJNBcNahy8OECbVSeUPQNfPHkIzx0/hKOH92NAxFBRngQVPqXk4ECXb/1Ddzc9Ny8Obw6jkzO4e38cE3IZl9uZf+diWDwdXk70lMrFcoBs0svqMJsm1WF4oAdD4gC7u7vQ092J/q42dLU2mw4SrAmqKJ+FCp9ScnBpM5+a8M77F/De+U9wZ3oBkwsr8Niq4GIKAu+YE7u83KnwVTYPHaDl/qy/VTFu1+wBNjXW43uvnMErp49ieM+gqQajKJ+FCp9SMnCPbn5hEXNy3Jucxb2JGdy7P4bRsQksbYSxEY7B53LAkytuzNQEZffCNAju/7EaTFIOj8eNQ8OD2L+nHyODveIEu9HT1WEiQJ0upwbBKA9Q4VNKBpYaO/vRRTku4f1LN3Hh+l14RNzcJl/ZEjkrLcFcVYe3y3l0D5DXWBg7ld2CS0Suv7MFh0eG8MbLz+LIgX0m9cErwqgoRIVP2VHYB481Nbl/xyjN23dHcfueuLyZBUzNL8PjtBuHR3fHnK1KJT+Ik/xSnvX/Yz9/5H6/hcwBuOhrln7NdeuHnzc3qMRJAyvBxFMZc72+xo/25kYMDvZh70CfcYADpl9gCwIBv7mPsntR4VN2FHY3X1hcwo9/9S5+9uv3EI7GEYknjMixuas1mFv3rWSHZ1xLTtgsB/OwrqV1BxnYtzbNcvBnIm/NgwLbcpil4Nyl/G/IPxT/Xonv5YP3MDdZYKPcaCJt9v7eeO4YXjp1FM+cOIrurg5zu7J7UeFTdoTZ+QXMzC7gxv1x3Lg3gbv3RnHv3ripysKqHYzUZBHjcoYD8cMWPdZ1CldWLrksl+dh93brktGKTqfD1KS0P8hJFFGz8T62XNk1y/2ax5XH2hJR5CRhUy7ZLJcHI2NTaasYd4Ytl+Qy3yeP8Pc9KpKPCiUfy1zyjzIjP3lgb8BoMgW3y4Wh3g5xfj3Yv3cQI3sGsFecYEtToymAbZP3WNldqPApO8K5jy7ig3Of4J2L1/DuxRuocTnMQfJjbbm7Ei69UZQoNByIjaiL+LAtT1Ku53Hb7XA5bHLw0o66Gr9pzurzuuFxu8zATAHkddapzAsisQZ4dpvImt+TSqcRCluNdtc2QnKCx5AQAUyIEDIJnEEgKXkOhAW7Tb88EUA23LWLqFIMjRDKJUW4XIUvD69yIpVg6otMKNrE/Z04NII/+t43ceTgiLzHXjPJUHYXKnzKtpCWAZkdze+NTeKOuLzrd+7hxu37mJhblGMJPhl8vHJwnC2XwZYD7AMXJ4Nr3slZf9+C1+1AwONGwOdFwO81UYdutxsOp9McTjlc5qDgOYzoOeWgwPEwzk/+zpJdFCSH/J2RiVaPOus94sBuet7JYYmrDPLJJOKJBGJxuRTHwwIAdH5JOYwIJsURyueRNZ+JXJf7JFNJJBPMnYwjEo0jzMtY0iyvWp0scmIoTjMvjqQcPiurC0TGPFd2gGhvbcbIyB4clOPIviH0dbWjrq7WOENld6DCp2wLsRgH1Bh+/Mu38cMf/xLzK2tYWQ/JQM42QTK45+5HykX4KDYUOCZVP95olQnWbQ016GmuR3dHixxtaGtpREtzExrq60yCNZut1gQClgCK2zU96ih0fDfM/9YlsS4e/7vFA3+Tu8LlT+t/Ok3rJ1zu5NIn65xG5bOIRqOWM8wV+15bZ8Pe9VzB72VML65gamldXkvGBBc55XOiy2RJOKdcmhqafDpl8FnlHaCZJMgfLG8XSWWwd6AX//y7r+KFZ45gsL8PdbU15n5K5aPCpxQVJqKvb2zg2p0xfHrzHu7cuY87d+8jGk8YN1IOe3kcOI2bEqGjo8rQ0cnf3SIIfnEQdbUBI2R+OX+8Pp8ppuwS91Af8KGxxod6ub2uJmA6ipv7eDzwesX9yX14PwqKTd4Ds8+XW8IsNBRps9RK92f2AOn8KIR0hnJQDOUIy4Bglknlc1sJRsT1xZEU9xcToWTPw3UKpYhkVASUS6fcF3x0qTSvg6UoiPnPkZOSuDx3pjgMD/biwN4BHBkZkut96O/tNhMSpbJR4VOKyuT0LEbHJ/DffvUe/uonv4F9axMBl/PB0hkpddeQX8rkclk8nX6wT9YgwtbVWGfKZjFoopftc8TZNYurY9I09+OspUm+PitYhH/kX+1nve5ivRd51/Mo+Z9ZptD4xAeXmdyy6Pr6hom8nZ6dw+TULG6PTuD67VHMr21gLZoQ4YNp/WT2KZ2OXIBMaX6mj78HFL9VeQ2tjfV47sgIXj1zAm+8+gK6O9tz91AqFRU+pSgsLi1jZnYel27cxcdXb+GODJj3xqdglwGRTqkUB8j8wJgXOjoDipxbBnS6t4a6GjQ01KNGnAJzwRrksqkugBYZOFubGlEnt7NDgN/nNUETDEKxlgRLTwS+DLNnKa+de4VhEyxD5x7E8uo6FrlMvREyjX7587C4wJXVNSwtr4oTTCEurtIhr9tlXv/DaNFSg8vSUXG/3E/taG6QCUwvjh0cwcF9e7BPJjJcks5H0SqVhQqfUhSuXLtpIjd/dfYSfvnhJXEE1WgKeMwg+CilJnzUPivyMoNoMo2wDOQNNX7s7W7Fgb39OHpgGHsG+kxLHLO86fPBZvticStH4fssh0jyP+eSKIVwYopl5cZx6dotfHzlJuZXg+IE42ZyU+tmmTBGoJam+OdfiwkIEgHk8jMF8IXTx/Hf/cF35HPuNfuv/HyVykKFTykoYxPTpkHstVt3ceXmXUyYCixLcMjgwTqbpSZ0hO6Gs3/CCMZaEbq25kbj7gK1tcbRdbU2ob2lEW0tueAUcXtuj9tEXu7GDuBWoExCxC+EtbUNzIvDZ1DMklynG9xY38AGg2XEHS4sr5n3msbJ7GcaF2w9Til8H/j5U/z43Lwel1muHhHHd0QmOScO7zdRoD6vRxy81vqsFFT4lK/Fo86A13/93jn84Ec/x7W7VtkxLnn5ZTB53OntBI8+1zz8kXF3MuPnM/TKDH+gux2njuzDof17ZQAcQnt7KxrE3XH2r3wxayJ4XPK8eUcmPzdu45Prd/GxHJubWdjkO8A2UkzboOA9/pXYaRHMCyCDgBip++yJI/gf/vh7OHpwBK3NTaYGKClF96o8HSp8yteChaV5MD/vyvXbZsnr0tWbWJYBMByJmyAWhsCXwmBB4ePBqEwGqhAuydXX1aBLZvldHa3obOPRjA5xeKzswXJXjMT0uN1a4eMJYA9FRodae34rmGZqhDj+5ZVVc8zlOujz/ef+Kb8b3Avk92On99LyOZn5NJVmcf1Dg304cWgfnj9xCL3dHWisr9eE9wpAhU/5SuTdE0PjGQDxq7c/xH/94Y8xPj2PjXDUDGKc2e+k03vc4fGvpqQXS1nJ82bZrzqfC8P9PXj5uRM4efQQDozsNWKnFIZ86bS798fMEvi5T67i7MeXsR6NIxRLisO2myVwfk8eF76dmixZEyQgkkhhJRzDycMj+Fe//zpOHTuEPYP9JniJz02dX/miwqd8JfJO7/rt+/jwo0+N27suAxuTorl0yIFsp0tePerwWLlEnoyppNLUUIdumb13treavTw6vJ7OdnF5zWhqajB5dkphsL4nm1hdXzcucCbn+OaWVjC/uCzXFzA7u2AKkzMilA7cWiHYWeEj3Pdlt4f6+lr0d3XgmSP78dKZYxjs7UarfFdYdUcpT1T4lKciPygw+TkWj+Onv3oX//4vf4A5GcR4G5c2GSSw04KXv+TylZWwnDU5de1NdTgw1IdXnz+Fo4f2oae7Uyt27ABjE5MYG5/EBxc+xQcycWI06MJa0DhA5gVajsq67047q3AsgeVgFMf278X3v/Uizpw4jMMHRkxBgnJNV9nt5IXP9m/+9E//rc5glC8jI7Nglr26eXcUv/j1+zj7yWVMzsyZiiBWUro1EOzkYECx4/4RBc9hs6NZHN6Jw/vw8pkTePnZE3j25FGM7B0wEZo+H/PtNFpvu+H3w+PxmmXlof5e9Ha1o7O1CVXYwooIILtJ0CnKHc3KwU7DCkOMfloJhhFPJmVyZz0v8/3Rvd+yI5lKm0t1fMoXQvdEH8XGsQxhf+vds/jLH/wEswuLJiCAA9mjxYu3k7zDI7zG55MQ4aMIN9T4sKevG994+Vk8c/Qgero6zdKVUjrw86P7uzc2jp/8+kO8+d4FM8HKZDNGcPLpD/lv1k5NqkLxJFYicRwZGcR3XzqF504eMfvCAb//S3M5ldJCHZ/yRHAgSorTu35nFD95813j9GbnFkzHBatfnLU0tSPCJwfD0Nmeh/uLTpfL1F98XgamV557Bi89exL7R4ZMPhYTztXhlR7sQMFqNy3NjRgZ6kdHayN8HhciyZRZAuW0aye/Ywb5vcxH5RdueT1o9o3ZPYMJ+lYhA3V+5ULe8anwKZ+JcXpycD9vdW3DCN7f/OgXuHlnTITGavWSr7u5XQPSbzk8uWrC0PkX+f1VdhuaGurx4qmjeOPFU3j52VM4eeyQLmuWMPzeMF2ElXAGxZ0f3r/X5H5WiXNfDkYwvbxmBMch3zG5t/WPhO0WQBY3YPBNOBrHvel5E7HqYVSq142mxgbz3bLEeYeEWXliVPiUL4TJvHR6t+6O4WdvvYdzn1zB7PyiidbjEtROzsKZaxUWR5CSS+4PHRSXxz28b7z0HE4eOWAq7TNHTxPPyw+KCCvkdLW3YaivCz6X0/QKZP5fTD5zft92cu+Ppdg4AVsUN8pVDwoinR8DXtT5lT4qfMpnkndVbFnDwsQfXbqKH/70LXF6900gy6PNSbdL9PLPiRe8bnqrbVbB6fHg4J5+PHfsAL7x8nN45flnTLIxB04VvfKDe7NsDcSl6f6eTuwV4Uslk6ZvYCKdNmkPnHAZHpr/bfseUuAodCFxfvenF8z5wFq01lKtOD8RPj6XnZgMKk+GCp/ymVBYGFXHiiyM3vzw409NzhU7dlvBBjvj9Bipyb08XvL7euLwCL7x4im8dOoYjh/ebyqwPEnhaKU84GfI5rwBtoCSz7apvtbU0wzFElhc3TDfQXaF55Xt/rz5+9iUl6sf80vrZhLYUBcwz5e5oLuxhmu5oMKnfCYJmWFvBEO4ePUm/v5nb+Ha7Xsy607Lyb4zTo8ujw6PE/xqETWPx43WliZ844VT+M4rz+LIwX0Y7O81VTVU9CoDfoZcNmTD3raWZvSJ+/P7PCbBfWkjjIXVoLgruc9jn/V2ffb5Pb9QOIrRqXmz/FlX44fX7UJ9ba0RPj4X/S6WHip8ymfCBrJvvXsOH5y/hNHJacTiSbO8tBN7ehS7uHxRkzKzbmmow56+LhOt+Z3XX8TxQ/tM41DurXCmrVQu/MY5HA5TcIAVd7rammU2lEVQJmimOz5TWPgdlUnZdsJzwemwmcjiqYVl/gSN4vy4T+mVCZoKX+mhwqf8Fql0GpFoDNdu3sGPf/k2Pr1+G+Fo1LguzmC3w+nl9/KI1RRWnJ44TZfLjeGBLpw4NII3Xn4Wr71wGh1trWYZTEWv8uH3j8vYjNrtamtBZ0sjIuK21kX4uCyfby2V3/jbLsExe35OB9bDEdwZnzXOr6E2YFYlGFzFmrB8KiqApYMKn/JbsH7i+Y8/xdmPPjU5exxUCE9ay+1t38lL0YuI04wnMxge7MXzzxw21VeefeYYers6TRf07VxyVUoH7jO7ZSLEyi/sn0fxSSaTiMr3hSXG+F3lz7YTfgud4vKY5jM+uwSny4HejlaZlNlM30b9npYOKnyKgSHZsVgMd0fHzRIn9/bmllZlMEmbPbN8QEsxyTs96yLn+mx2+GSW/9yJQ3j9+ZN45tghHNw3rHUSdzH8zLmMyOawLDTe2d5igq7YEimSSJrJEr8W/D7JtGjbviP5aM+1UBi3JmZQ4/eiu63Z9PFjVaz889Dv7M6jwqcY1tbXTdf0C5eu4sKnN0wPtXz9ze0QvTxmaXNr0+geUxFOHz+E3//GS3jumSM4MDyExoZ6E+ygKHm4lMigJvbPq5FLuq61cBQrG2EzaTPVVrYZJttvZbOYmV+Ex+1Cf0+XnEc2nayVCCp8uxwmqLPoNINZPrxwCRcu38Cd8SkEZeAw1TJyOUnFxERtPnLJ5UtGxXXJbP6NF8/gu68/j72DfWhvbVHRU36HfLJ7S1MDfCIy/P4sb4TEeUVQzW+UTKZI/ltc7O+z/Hpz3oTlHBqbnDHd+/u7O2F32EyagwrfzqPCt8uJRKJG9D65egtvnr2IW6OTSKeSZsZqlxnqdp2kjMhjnU23y4m6gN/U1/zD77yOIwf2oqNNBM/tlgFOK2Ionw9rxnJixOR3LjN63U7T6WFpdQNMKrdWLrZnqfHRX8El0GAwaL7DvV0dxvUpO4sK3y5lk+Hf4vYWl1dx6dpNnLt0DRdE/Bbk724RGHZP344Bgs8jy70YGQw4c+9sbcbegR68/tKz+Oarz6O1uRFer0dFT/lSmPPHJc/aGr9Mnnwm0nJpNYh1Oj/5Kps9ZApf7v7F+n7zcXkYnym/gisqC0vLxpUyF5GOlL0ht+P8Uj4bFb5dCiPP2GLo1r1x/OitD8wSZzwWhUtmp0wQZlTcdpBgUI18Cdkzb6C7A688fwrf++arGNkzYELBOZjpAKE8Dfy+cCzz+33me1VfG8CaOC52VOA3yXy35Sj690oenr+L51owmjCJ7Xb5mdPhRHNTo36vdxAVvl1KOBLF+NQMPhLB+9X7H2FsYsbUG/TKLHk7RC9rHOemWfZhEMvIYC9OHBzGS88+gxflYJLydgbVKJWDSXVwu1Hj96Olsd50T+CSZygcsVYYslnRJAqfdf9ifcf4uDyXEqkMIomE+X2xWFwcaQA9ne28h5nYKduPCt8uZXpuAT998128d/ZjLC2tAFubZnmTyzDbAQeDcCJpljYP7u3DK8+exBsvP2/y87hcpShfFwqNXb7TjKpsrK81KTArq+tYofOTGy3xs45iwsfnHiOLa08trJpgl67WJiN6bJWlbD8qfLuMZDKFVZO6cA8/e+t9XL15F5syA2a1ie1IBjcNY+X3VdvscMmAdHhkCM8dP4RTxw/j+JGDKnpKweBqAkucsWxYU0MdvOICKXpc7WDeKve4LQG0KNZ3n+cVA1zC0YSpL1ob8Jkmu9y7ZiQqKfZ5p/w2Kny7jJXVNZz76FN8cOEibt2fQDAcMSelyS+S24t9AnI/LxhPoqu9Bcf3DZr+ea++cBqd7W1mIFCUgiPfaQZHMZG8obbWfM/mllaMCLLA9XaVFKMAMsE9mUphbHoOLY0NZi+bv5f5hsr2kRc+fdcrHO5rRGMxzC0u4ZOrN3Dx6i2sb4QeLPdwL6KYJz739NhE1OF0oL6+1pQgY5f0E4f3Y2TvoCk9pSjFwOz5uVxobWqU79s+PP/MURwYGTL9/mziCLkKwYDPYsOgMb/bibX1DVy+cQc37ozi/tiknIcbuXso2406vgonnkhifmHRLHG+feFT3BqbwtZm9kFD2WLPdq0N/hR6O9pw+vCwqbnJQBYWmWYxX0UpOvId55I+g6nqawIm8nNmYRmrG2xvZJXl2w5MKTU53dxOO8LhMAJ+P3q6OnK3KtuBOr4KhycZ3RYj2m7cHcPFa7cxPbdoOjAwwo0n/HY4PQYZ1NfWGKf3MpvGHmL/vD6T26Qo2wGFzZV3fvL9e/bkYRwYHkSbOL+qapsMhhnzfTUVhIpoAfk8WFZtRs7D92USevv+uAm6icXjuXso24UKX4XCEzgjwrMkJ9Y75z/F2+cuIiIiWONxbUsNw2Q6i1A8aaLqnj26D8/LYPPs6RPo6e40s15F2W7YworpMvv2DOAPv/kyXnv+GThdbmxE40jL97WImmfIB7ushiK4OTmHG/fGceP2HaysrOXuoWwXKnwVCqM4Z+cXcefemMwsJzA1M49MKmU22Yu5tMOZM/uj0enV1QSwp78HLzxzFEcODKO3p8sMPMVeXlWUz4JpBFxeb29pMnt+Z44dFBHsR4s4wS05J5LyvWW3/2LB/XSee4wsDUViuDc+jfMXr5oUI0aaciVG2R5U+CqUUCSCi1eu4exHFxHa2IDH6ZCTrviCk5bBg3lLFD1Gbz534jBefv40Bvt7iyq4ivKkOF1O09T24MgQ/uAbL+DF00dhd7sRSiSRyRW2LiYepx0NXhemZ+bwi3fPGwFMyaSUTXWV7UFHogqDM8ewiN7cwhIu37yHK3Iwf6nY5cjYVohRcqy7GfB7MNjbaaLojh0cQX9vF+rratXpKSUBk8qZ2sAi6M8c2Y9TR/eb7yv3orkOz3zTYjo/dnDgygv330cnZnB/YgpjE9PYyDV/VoqPCl+FkZaZ48LiMu6OTuD6vQncmZ5HNJ4wbqvYwSypdAZ+nwdD3R1mQHnjlecxvGdAyzMpJQlbBXV1tOPwvr145ZnDODrcb/YBGYnMiVyxsc7GLYyL6L1/9mPMzM6bnyjFR4WvQmAwC/cIwtEYbt4dxSdXbmBWXF88njSiVKzqLNbvlUFCHrraVm0S1J87eQTHD+3HQF+3id7UdixKKUKRCwT8pn7m6aMHcezAMNqaGuBxO2n8zPe6mFGePCc5IZ2cXcCHn1zF/ckZ4wKZ6K4UFx2RKgSen1zmXNsI4fyl63iXUZzBEOq8LjiL6Lj4eze3Nk1eIJuBjgwN4Pe+9SoOHxiBw+7I3UtRShd2Azkk39cTRw5geKAHrQ11ZpXCpDjk7lMM2PeSy54ziys4e/W26Ym5sLhkuqcoxUWFr0JIp1OYF4d3b3QCoxPTmJOTKZ1Ow2VnFGfxlji5HxJLZlAnzo4DB/f0hvp7TUUWLceklAPM8WtqbMBgfw9OHTuE/XsHTZ1P4/bk4GWhnR9XXyzHV2UcHvf3xianceXGHSxrekPR0ZGpQojFE7h15z4+uXTVJMVyqcYqR5a7Q5FgCPi6/O6Ozg780+99wxSdZjd1RSk32lqa8eoLZ3D65FHU1VhpNzntKypsCVbjdmJmZhbvnfvYpDcoxUWFr8zhvh5z9tY2grh2ZxSfXLuNdZk9cgmFJ27+KDRMW2ApMu6RHBoZwlFxegf37UF7W7MGsyhlCSM9uzrasG/vAE4c2W+ikZnfx6bJxY3yrIbLbsPSyrqcw2MYn54V17eqFV2KiApfmUPhYxHqhaVVXL09hks37yMYipjahMVc4uRgsBaJo621Bf/dt1/BK6eOorG+ztRBLIbQKkqx4QoJuzn0dXXgu6+/iGeOH8ZmtQNhmeBlixjlac4XOdbCUdyfW8Lo1CzGJ6cQDIZz91AKjQpfmcOiq1Mzc2aZc2FpBfF4wmzKFyt9gUJLt8cKGD3tLTiwpx+njhzAYF+X+RndngqfUo7we8sI5NraAIaH+kyC+8hgD9qa6lElk0gGjxVjr886gC0R13QyhbHJGXx8+QYWl1dy91IKjQpfmZNIJHCL6QufXkUsEkaNz22S1YsFRTWRTqOxLoAzR4bxzKFhDPZ3o7GBwSy6xKmUP1y1YBrOcH8PXnnmEA7u6TVJ7yzFV6wlT04VPU4bfA47Jien8e7ZT0xReaU4qPCVKRQghj0vrayZMGgmq4ejUbjkxCnGEidnusxr4ozYLQNDT0cbnjtxBAeHh0z9TQ4WxawMoyjbBSdwbGHEvn3PHD2IA3sHURPwmwLTzG+g+BXa+RGmBPF3rG+EMTo9b4Jc6PpiMd3rKzQqfGUKG8wyBJonx+2JGdyanEMwGjcpBMVYajTCt7UJh92OuoAPg71deO70CVOZheHgilJpNDbU4ejhA9g/sgdNdbUyqXSYvD4uSRaD/JJnLJnGiogfHd8E9/rCutdXaFT4ypRUKm3l/Vy/jeXlVWyKEFbJ+WilMBRe+Fi8N5bKoEbc3cmjB3CYVS5kRuz3+8x+oqJUGnR9tTUB9HV3mu98f283MqhCvAhRng/3+izx29zMYnxqBh99eh2LS7rXV2h0xCpTksmk2du7cPEyIsGgVaHFXryPk4nqjG5raGrCGy8/h5NHDsKnHdSVXUBnWwtef/E0DuwfRlqELyqTzmLu9bGAtUsmk2PjU3jv3CXMzC9ZNyoFQ4WvzGBUZSQaNXt73Ae4OzmHSCxuypIVoyZmPpjF5/Ni/54+HN43hD0DvWhpbjSdGBSl0mGuKuvOjgz1Yri/y5Q0q66qNudiMfb6uEfPU3k9FMHE3ILZzjClzGJayqxQqPCVGezZtREMY3ZhEeNzciysIppImvJHhV/gZP3PTbPn0FBXi5efOYIzR/abTX+f11MUoVWUUoNpOi3NTdgr4nf6wF4MdrWZvfRi5fbllzyjyRSWzV7fAsanpk0Ba6Uw6Mi1w3DGSFeVybAVypc3omT9zfHJaVy+egtrq+twyCdYLZKXP1kKRT6Kk/t3LD7d1daC44dGsHewF35xf5qvp+wWeA44HQ4z4WM92t6eLqRF88xen5wjPFcK5fzy5zH/s/P8kjFhenYB127exaqc70phUOErATbFVaXlJHqSDsxMWL9zfxwXLl5BeGMDdR7u7RU+f47ncT6Ks6HGj77ONhzeP4z+nm6TuqAou43mxgYRvoPokXMgLqdqTM7FrBG93B0KCDWPqUlOcZYzs3O4dPUmlla1eHWhqAqGI1s1fl/ur8rTkBL3xTqZDDRJyJGWE4HNWFltnT/jdTo0ihUPurpMJmscHpdJjNOTy7T8nNVQ6KK4hMLITBsPmWnabVUmjJozTpu92lRmeffsx7h45QaisYT83pSpKlHoHLqkPCd2Xehub8GJg3vx0pmTJqiluakhdw9F2V3wfE/J+faLd87iL/7bzzA1PYtIKGy2GJh/V+gVF3PIdbuc+4yg/r/883+C733jJXjcbri0EPxXIhSJmksVvq8Bg0yYS7e+EZRjA+Fw1DSC5c82NkJye8wcG6GIHGHE4knEEyKIIipJCqSIXSKdNaKXptuTE4fnDovWOkT0XA4bPE4H6vxe1MjBrgdcApmeX5LZ37qInbU0Qgq97MgC1KvROE4fO4j/+Y+/Zzqqd3e2m/0ORdmN5MXo8rVbeO/DC7hw+To+vnrbTGjdcp4WcvKZXzqlowzKuOH1+/G//sn38cffedW0UGKahfL0qPA9AcyVi8fj4qziiMRExORNC8uxIQJHMQuJqFHo4nJ7PB4z7i8lbi8hriyeEDcm4pFMidjJF5dtg4wDpOsTkcuI20tn5MjSATI5PLdeIucOTyCu77PQNJcxPSJ4PBhFSYFjFCcF1Ir+KuxqNfcZ+XxsDKn2ePDCqWP419//LkaG+hCQ74lGciq7nZm5edwfncAv3z2Hv//FO2YVxuMqrPDl4apQSMYPp7i8P/rmS/jWS2ewb3gIvd2duXsoT4MK3xNAkVtZWcPC0jLmFhYxy9Di2QWMTs/h3tS8qZTCJUFKj11EyJYTLWuZMtfLi4sVDzXNuuQJIv+zAgQF74Fb40Xuvpzx8bG4jGndysd7+EC5f1Fwp8dCvHSjLTKr3DfUixdPn8B33ngJ7W2tVuRogX+fopQbCZl0cjL8dz/+Ff7dn/81QjIJLpbwMXiG6UQOhwMnDw3j1NGDePXFMzh6aH/uHsrToML3CNyPY6gw0wQ2gkGsbYTkCGMtGMLqRtC0+YlGwnIph9y2IsfyehAJbm7LF9OIHd2XXOav88jLE88HI1+5y0fPD2qZuT33w7y45X+eh3/Pi2gx9vTysN1QWGaY+/cO4A/feBFnThzGgZE9urSiKDlYLpB79W++exZ//Q8/w/jkLFbWNuQcLXxXFI4HXCHiOd/U0IA9gz34k+//nkmo52qPphQ9HSp8j2BqXs7MYWxiGvfHJnB3bAp35JhfXcdGLGm+0G5btXF1eXEzuiYiRpnKXX3AV/naPy58X0axnBf39lYicbz87An83/6Xf40TB0fg9bh1iVNRcuTP0SvXbuL9cx/hwqUbuHD1FrKZjInELLTwEU6wo8ynbWzA//V//e/xz773DRNxzf6BypOTF75dNV1gugCXKVZW10z/ut+8fx7/6W//EX/2X/4b/ss//BI/fftDnPv0Bu6NT2NNHF1K7lu1mYFNhA/m4Jdwywgbv9xc+rP22R4VRGs58GmPPJ9122cdhYZ7CVziDPg8ODrcjyPDA2htrIfH7dJZpaI8Qv4cbG5qxNFDB9DR2Y5EhhWOitevj3D/nTEEq2vrppKLdmj/6uyqEY2FXxkUsrS8ims3buHnb72L//ef/w3+tz/7S/yHv/lH/MOb7+PC5RuYmF0waQJOhw114nZqvW74XE4zm3OY0mCFF56dhnsJDL6h+z9zaBgn9w+hsa7mQUCNoii/DYXviAhfe0dHTvgyZgWoGPAU5LCzJWPY2toaZufnTVsy5atR0cLHpHCmGoxNTOGD85/g73/2Fv6jOLw//+FP8cv3LuDGnTFEwhHYq7ZMBRRn3sHJF8z6onG2lb/83aOSYJBNShyxT4RvZJj1OPvg9Xoq8rUqSiFg3i1XRLpam3BCJordbc1mSbIondrlYDPcKnlcBtndkrFrPRi0blSemooWvkwmjbX1Ddwbm8A7H5zHX//9z/D/+c8/wP/xVz/Cz949j1ujE8im06gTR8cj4HGZvDmmEVSiq/siKHzMJfT6/BjeO4RBET6Px5O7VVGUx+EYwT22rrZGPHt4GP2dLeY8YjBKwZHJp8NeLcK3iZnZBdy8cx/r66HcjcrTUlHCx0RSOrzR8Un8+r2z+K8idP9J3N3f/PQ3+OjKLcwvrmBThM7D/DhbtUk7sNzd77q5R49KJr+35xd3x329IyMDaKqvhavACbmKUmnkx4fmxkYcOTiC1rZWxLnkmaHjy92pQPBM5PnILYmF1Q2MzixiLRQ21WSepNSh8ttUmPBljfDR4f3qNx/gL/72R/gPf/2P+Kuf/BofX7ttqp1wWZO967w5Z1fpwvZl8ESi8LHt0PH9Qzi2T/f2FOVpYBm/Iwf3oU2ELybCx4pMxdjrs1ohbWFxNYixWRG+oAhfKi0/U+F7Wspa+PiBs0fV3Pyi2cP72x/93NTQo8O7cvs+QqEonPIKaz1WYAr37/KztEeP3cyDJU6vF8N7BzE00AefXNf3RlGeDNbNrK+rRUdzAwY7mtFYw/Qwq7tJIff6eDryYJD1ZjaLtXWN7vyqlKXw8cvEg4mkjGyanV/A++c+xt/8gwjfD36CvxXhu8rAFbnNbbOhwecxDo+bw7p8Z5F/D3leck/C4/Nh7x4RvsF+E9SiKMqT4Xa5UFdbg/bmRuzpbEFTjd+cV4UVPWsimk+dYoT62to65hcWEYup8D0tZSl8tPd37o/hzXc+FKH7Kf79X/8YZy9dx/LaBqrly1brdZn2/fySqM59NjwpWSeUUWn7BnuwX476moBJilWnpyhPT3NjHQ7u24OWliaz3JmS86vQ8Mw0KVVy/i4sLmN0Ykob1H4FykL48u7EFFCWLxOt/e27o3hLhO+//MMv8B9/+DNcuHwTqyJ8NrkfIzQpfIUuH1RJmCVOOTk9HhG+gW5L+GpF+MyEoSznQ4qyozQ11OPQiAhfc5MRPU4sC+f5LDie5aM7KXz3x7Uz+1ehbISPdTLHJ2fwk1+9g//vn/8NfvrW+2Y5Myki2Oj3wOtyml52KnRPBvON4uksbE4X+nq7MdDbA58ucSrKV4b7fNwqaGhoQCpj7Z0XA07o2d1lcmEFN8dnsB62ynApT05JCx8Fjw6P7X5YZozRmj8XwfuPf/UP+NV753Hr/gSSiQQajPDl9vCYn6B8Lg/csxxMWHe6LeHr6+3SXnuK8jWora3BQF8PGhsbwEVOE2yZ2+vjUQg4safwbcq5O7O0hjtTc0b4uBpWqN+xGyhp4WMFhLv3x/HLt9/HX/3jr/Cf/v4XuCFiR1PHdW630w67Lss9NRQ9pnI01/jQ0dSAtuZGsznvsDty91AU5WnhFgG3Ctoa63BkqMdcbm5tmvOtWGQzWYRCYVOogwZBeTJKSjXyMyOTVJ1KIRyOmAoFb717Fv/wy3fww1+8i3uT07l1bhtcDodZ3lSeHJ6DDLPmxKG5LoDOpnq0NNabtkM8aRVF+WrQiTE4jIJ3eE8v2pvqzJYCz7diQAOQ3cyabSDGN7C9mvJklJxqsFM5m7++/cEF/Pv//Hf42W8+wPW7Y4hHY9ZenoidbuN9dWRqYSYWbGzZ3tKEjtZmE46tKEphaJKJ5P7hITQ1ca8va1auCg0n/6w+xalqMBjE4vIyYomEdaPypZSE8BmXl91EOldybGJ6Fu9++DH+6u9/hnfPXcS98Rmzl1fvc5vlTX7oGsTy1cg7arsIX6sIX1trowifM3eroihfl4b6OozsHTB7fdxHT5vNvsLC4c8Svi0EZcxcWFpBXEyD8mSUjONj5/PxiWnTE+//9Z9/iAtXbpp8PcaqUOy4jKB8fbjUyYiwKnk/awI+1AYCIoK6xKkohYLR0a3NzfD5fCJ6nGgWfqmT036OiVtyLrM/3/wCK7io8D0pO64mdHlsDjsnH9z12/fw1vsf4W9+8muzvMk8Mzo77uXZdS/va5HfP7WWOrdgs9tQV1uLuroas+ypKEphYOUj9urz+/2WNROZovTlz8GCII/7UPg2zPippcuenB1XkwX5wC5duY6f/foD/Kcf/Byj41NoCnjgcznkg7XK8ygFRM47vqd+rxc93R3o6eyA161pDIpSKDiRZNH3xtoAuprqEPC6TIBLwURP4KjI1C1GjK6sBzG7uCLCp8EtT8qOCR9b6IcjUYxNzuD8pav4zdlP8PN3zmFubhH1Xrfpi8fw4HLYy8vP5PglNId8ya1j0+ynPX6wNubnHY/ej//ePE7u8R89voxH75t/Xnx8LnHW+n0mhYGi19baApcGtyhKwWBkp9fjNsLX09qIWhFBcy4XTvfMuJh3fOzSsLCyjkgsbvKeea4rX8yOCd+kCWA5j1+8ew4/+s05zIjza671i/sov2U3igtFhUuzbPGTSKcRF2GPJtOIJFIIyUxsI5p4eMQSWIvGf+fgz3k7789/x3+fSKWRksfk41uzxtwvfUL4b/i8YvJYfGyXx4tXXziF7772PDrbW00jTU36V5TC01hfi+HBPjQ11Jl9dYpfoaHIxWV8CHLsCEVM+bK0jBnKF7PtwpdIJk3eyZ37E3hPXN4HH1/GOdbZXN9AXcADtzi9UuOBcxIRyTs21uEzYkQl4uyLEVYy03M6HCY9wOP1mLV+6/DCKy7L5/ebw8sj8BlH7nZuintllsh/62HdUbcLTnlf8jmLfB783ZYrtJ6XdTx0izzRWDIpIz+nc2brFD6HTnF5L545gRdOH0drU4M8pvYkVJRiUF9Xgz393Wioq5Vz0lp1KTR8SJ7nUZkoL62umRZtaxsbiESiZs+P463VrFad4KNUBcORrRoZELeL2/dGcfP2PZy9eA0fXrxqZikUQhaV5lGKWIIiYkMxEffE8GRT7ktEw+e0o8bvFdH2IyDvo1+u+0W0uMbPtX46KofDaa7bqsVdiXhRiEwh6Ef1Rr6TZjlEHjctX9R0OmWWg/nFZSJ/SN4nNtJdXQ+KI0yIo8zAJY/FRHTrn8sD8DHky22JnnXpE+Ec7GzDYE8nBgb6MDzUj0PDg+L2WoygcllGUZTCc/f+GG7duYef/uYs/vGtD+CSsYClFQs50eQkl2NBjYw/zx4/iMNybre1NKFRXCZ/5g/ImCQTafbY5MEJ9G4mJBMCsm3CF0/IYB1Pgn3zfvP+OVy+PYord8bhdztR4ymNPSa6OuvSEpL8BIlfVC4HbsnlpqiVaAoyculjA0qfGy0NtWgT98QlDS5vsFhtnRweeW10Wh43XZvHiCDridIZ8vrjsIN8Jp2R9ypp3q9YLIZwNIqVlXUsrqxicmYeU3NLWNwIYT0cg6NqC3wUPj+eS3y6PDa35DnK8+PCCrupn9w3hFOHR3D65FH093bDketNqChK8WCf0Bk5Z1lu8T///c/hkYl9QMa6QgofxyxOyp3y2KzA1NpUb/bv2RW+Qcaj+ro6U0OU41G9XPo8bjP+sPIVKzVZ19mRxdryqPTVn20Xvjvi9K7fuotzOafHtehIRAZv+QCcnyECO8GDpUw6JhGh/NJArcya2uUL1dzYYL5QdfUym6qRL1NNAA01fuOqGBnpFqHjMqfLaQkexYXLkzabJXSWgIrbo1DR8T0GN6qtZcwsstmMPAc5uGcoQsgcnXA0Ju44gvnlVSwsr4ggriIUDJnH5u+iq2SgSoAzPS6nykyvrjZg1eNsaUSrnBCcBT5wnIqiFI219aBpFvt//PWP8O/+4gcIyPjAiXKhhY+jFMcUFqLguMMxgGOQnRNcGROq7Q7Td7PW55HxKoBmmagbkRRn2EKRbGyUMcNnxi5ufVQy2yZ8HLQT4l7eO/cJ3nrvLK6Ly7sxOgG3zDIKbfufFmvvzloe5MHnwnzBavnwt6pEsDgrkufZJqI30NWO/u529HZ3or2tRUSkyTg71rjkrGm7oBAurayYXlwTUzNYXFoxz5EzPn7huTdIgeZSB2d5ARG//JKroijbByer8Vgc/88//1v83//sL0X4HKaTTDHGvMdjEKztjqxcWu2R6OYCMt4y0rRDBK+7oxU9XR3o6mxDR3ub6SXIibxXJvEUTS6JOh1OszXDZ7uT43Qh2TbhG5+YMh0W3jl/Cb8++4nZdE3E48YJsbPCTr6h+S8JIzG5Tu6XGVFvWxO62lvky9BqZkScDXFzul6cHSudcB/P6/GYFj6cXTGYZTvdE/cBWZqIG9dMB+F1y8ExwMZaRuXszsz65PlZyxjq8BRlu8lkMmb74t/9+d/gf/+z/wyHrQpeEZRiCZ/Z6uBlbiJvjk1rYs/f6ZAx1yUTZDpDt1vGLxnDnDJOOB0usyXS3cYUpzaZ3IsgihhyDGSAHVeTVPieECswI4WPLl3Be2c/xsdXb+Pj63fhdtiM5d+JNzLv8MwXQ74mVeLqzBJktQ3ZKpvY/zrsH+jCyEAP9gz2oVdmRJwNcXOY91PxUBTlafn3f/kD/Lv/3381YyInrhz7dkpI+PvzWzlJHjLpTyYzqPV70dvehKG+LuyVsW+wvwd9vT1orK9DQAwB8xIZq8BxsJwjwYsufKwdNzUzi1998BF+8puzppAqnR5dHmceO/HG5R0eP3RGZTISc29fJwZ6u9DT023y2risydlPjdh+E53JGY+drk4LYyuK8vT87Y9+jv/yd/+IxZU1rKwFTeL5TrVT+203aC2NZrNWf06fx2WWOj2MAJXJPvf9utpaMCQOcEiEkGLIAtwcF8t1L7Bowkd7z6CMqzfu4IK4vbfPX8ZvLnwKt3zQ3NjdzhJk/JAJP2R2fxDlMvtdJrXA6URnazNOHtiDw/v34MDIXrS3tpi8OQ3xVxSlUPz8rXfxjz9/C/cmZnB/ctakIFFoSgmTB7y1adooJcQF8u+ks7UJ+wZ6sG/vAEaGh8wSaFtzA2oCljHIr4SViykomvAxJ299fQM/e/ss/u4nv8bi8goi0ag4vSqTx7Kdb5A1q5EPUz7ISDxl9uZGBmjlezE00Ie+nk4jfoxwMukHDPWVL6UuaSqKUijefv8c3nz7A1y5fR/Xbo8Z0eNeWymR3wYyJkHGTGvHEPC4XAiIwLlk7HS4PejrbMW+/i4c3EfDMGKC+5gPXC5jZl74bP/mT//03zKK5+ti1o6zWUzPLsiHew/vi8t79/ynZnmzxsMgi+0TPX6I/PA4a6El5wauP+BHT2c7jh8axuljB/HsySM4cmAY3Z1taGiofxDKq8uZiqIUEkZeL68yBWkNU/NLZrun1PJoOe7x4JYOI9v5/Hiw4ks0Fje1QMem57G+sYFYJGJW9ZjTzNZxm5tZDrri/ijm1vhZquNoMlfOrWCOL5m0qoy8+d55/OCnb2F8clo+8FXY5A1wOrZXULiPF5Xnw1y51vpa9HW14fDBfRgeGkCvCB1z2piKkI9YUoenKEqxuHLtJi5dvY43P/jYHF4xGj53eTR/zu8JmkbhcjAi1M99QI8Xbq8P+4Z6cXz/EA6MDGHf8B7j/jimlqrwFdzxrayu4f74FN47fxFvvn8eGxsh02FhO5xefi+Pl+m0lXjOfDYmbI8MygdzaAQvnTmBZ8Tp9XV3miR0fkDq8BRFKTahcNi4ptGpWdy8N1GSS52fB8dHxmUwGIeFRra2Nk1lqcVVcYBTc4hFo8ikU8ZssFIUnaCJ45D/S1EA846vYMJ3+fpt/MPP3jKXaxtBefF84du36Unty2Q2RdHj4uDsOHl4H15/4SReee4UTh8/bJI1WbWEZXrU4SmKsl1Q9JjKcPv+FK7cum8EpFTrEn8ZHM05pnNsZ4NwtthlveWp2UWzxRWJREyHHQYIsnrUdgYzPgkFE75INIbllVWc++QKfvGb900n4C3ureXC/4spfGZDNndJOMOoCdSY9ISXnz2OF04dw8H9e9HX02WKRnMNWkVPUZTtJCmix6XCa3dG8cm1O3DJOOR2lqnwyXj+wAE6bCZBPxSJYWV9HTNzi+L8MsaEsCMEC+5zbObyaJ7tMkKfR174vrYKMF/vg/Of4MqN21jZCJmESL627VJ6BtXwS8U3mCV3vvXKGfxP//IP8OqLp00SOl2eoijKTkFjwXHIKZdZGacYM1kpMCeRy7YUc6cc9yZm8be/eBf/9R9+gb/64Y9x8cp1szTKIJlS4isLH2tGRsXtTczMmaLTt+5PmBdIAco7vWKpO3+HSbwUZ8nqK0wy7xdXd+LoAbx45hieP3UUewd60ZiL1lQURdkpuBL1sAB05YgeeRgFah2hUNjEely+cQdnP7lsVgLPiz6MTkybcpV0v6XAVxY+ts1hjt6dsSmcu3obY7MLxumZYJbcfYoFvzqmEKvMIlxOOzpam/CtV5/Hv/rj7+H44QNG8FinUlEUpVQwS4QyUbfKPlceHP/ZSLze64ZYPCyvbuDdcxfx7/7jX+PNd89hdmHR1BcuBb6y8K2srZvlzZt3R7GwtIpoLGE+UFrfYjs95ue55A1m77t9ewZw5sQRnD5xGEcPjpjOCSYRXWy3oijKTsMOByxmzzGLPfnojDiW8agU8it8LEfJaP4qeWms1Tw9t4hPr90U93cFb3/4Ca7fvm/yGrlauJN8ZeFjovovf/Mhron4uUTn2PKCtreY8GvCOpssstpQV4P9e/rx3Tdewj///ncxIgJoOiXIG68oilIqcFxicF2NOKFan8tUsKogzftM8kugXAHk3t+Vm/fwZ//lH/DzX3+A67fuYGllNXfPneGpVYKhuXNiWccmpnHr/rhRb5vIO0N0iyV7D/f0Ns0SZpM4vf17B/HcM0dx4sgBI3qsIs419FILn1UUZXdjqkeJC2pqqMNQTyfqavymV16+HmYlQvfHCHpG93MVcCMYMnt/n1y7hd+cu4hL12+JhkxhfSOY+xfby1MLHzsKX5UnfWd0HMFw1Diw7cA4vaw4vdoA9g324pXnnsG3X3/J5OcpiqKUOh2tzTh19IAprJFMp5Fhqa9dAL0IK9U01/kwMTOPv/vle/jZb87ivQ8/wvTMXO5e28sTCx9TBliXbXZxGec+vY6b98YRTybNqzL/8bLAbuvR6E3OmLi8eWB4EM+fOoZD+/eabuiarqAoSjnQ0daME0cPmjgELnXyoOurpL2+x3mw92e3weNyIpFImBS4G3fu4/2PPsVFcYB37o1hdW0j9y+2h6cQvozp+j0uiv32R1dx9e6ESV5ki40C691vYfrnZbOmd95QbydePH0C337jZZOUriiKUi60tbbg+JGDpu+n6UkqP2MeciUL3+OwA32T34ullXW8f+kG3v7wY/z63Q8xMTWTu8f28MSVW9bWg2ZN9qPL13H24jWTr8GyO1YUp6XshYJfBDMjkv/Y78nn9eLwvj149sRhnDx2CMN7BkxSqKIoSrlgt9lNazS6G5oIjnMbMo7yMr/dV+kxCtzzY4s6rh5GYnFT3YURnuyRyqjX6lxedrF46pJlk6LIrNDCBrOLS8uo2to09jX/QRV6mZNNEfllqPF5Tc+8b77yPL77jVfQ0daioqcoStnBMZIBH+xxx3ZoqxtBU/iDUerc0uFYykjI3UC+6HUskcDC6oZpXxeNhE1/v66Otty9Cs8TCx8rtMQTcdy4O4q3PvgId8enEBelZuZCPmevUKKXt/y84PIm/7Z/7wDOnDxs8vT2Dw+p6CmKUpbkx0qmN9TX1iCVyfCHqAv4xPHYjPhF4kkkM1lzWzrDIh1WOyAeRiB5mbtuNdq29gjNyMlLawgt2JhcDPjcKPI8GLTIil/s6hCORuF2ukxtT04QiuH8nlj4WKGFy5yfXLuNn717AVNzbKQotl2eGCn0G8wPjh8kP3yI7WVFln/6vW/KDKndJKYriqKUM0xvcInra21uwsGRISN81TLmrYWjmFhYQVQG52gyI+KXNcLA+sc8aAYogObnuXQI8x8Fzzyy9afIa0kL36Pk8/1iIn7L6yEkk0nT6La+rgad7YV3fnnh+9JGtIzAuXX3Pt768GP88BfvYn19A7VelwlqKTT8ABNp68PtaGtCX1cH/tkffAu/98ZLZllVq7EoilIJcKwzzV0zaRPVyOPm2DTuTM6aepbcA6O14EFnxz54JhBmM2v+Ha/LD+Xv4gLpDs3KXNJUS4kzVUKEkU3AuSpn3JUIjCWI5teXlDBa4z6FfRNtTfXo6WzDt199AS8/exItzVbT8EKRb0T7pcJ38/Y9vPnOB7jw6XVcvT1qEti5Nss3tNDwDViLJhAT8fv+N17E77/2HA7u24vhoX7zQZXLLEZRFOWL4FhHKGrxeMIcdD3c8wqGwgiJ+9vMZkzkPDsbZETc4skEknIfCmOSAifX47GEWSLcCIaxuLyK+ZU1zK2FEJHHY4WY/EGjwuVDiiCH0VITPrNsK0cquwWbGJxXTh/Fi88cwanjR3BANKBQfKnwcUbBgxW2/+Lvfowbt+6ZN5dpDfm9vULx4IWLda92OuHxefEvfv8b+P43XzHd0hvq63L3VBRFqVw45kZjMcRE0Ch45qCrk0vLCaaMu2O/O4pfguInIheOxrC6HsSKHAtrQWzIAJ9Ny/2NOMYQjsTMz1Lyb63ISlZVKS0hpAbEkkzs30J/dzv2DvTgW688Z/qq1tXUwP8FBu1J+VLh40yDb+7P3zmL/+3P/tKkMrAeJ/NPSKGFj+vW3LQd6uvCyGAvvvvGy3jtpTNgJ19d4lQUZTdgTEDOdMhVs4dn/pe/WAbByvuz7pe/zAW9iCvkUicH9/VgCCurq5ibZ3nJKdwem8Z1OdbEvNABunk4OZ7TCVqBJjuN9fpYtEQEMLMJl8eDP/rmi/jOS6exd2igIFW68sL3ucEtbB/BN+3T67dx4dNc3p68UdyILMbswAiffIDPHD2AN144bepvtre2GHuuKIqyG+DYampciiDxYC8/5jJz8u9w2E1EKBvacsxmjz+322WC/hgBGRADUxPg4Ud9jd805maQSENdLZqbmtDR3oqeznZ0tzejXu7DkdWIJffXRGiYUc99wPzz2G7Ma5eD/7GkW1qOKhFBulq+Dq7+8WnxffmqfGlU5/LKGm7cuotrN+5gbHIGabHYrLJdrA4MlvBt4TuvvYh/9offRnNjgzo9RVGUp4DiQaFk1GhAxK25sdGUdmQq2Oljh3DiwF70d7bC73GZxrAboQjWInEjfg4ufT5Y/tx+4XsUxpHY5TnML6xgcmYJvV3tGOjtkNdG4Xfk7vX0fKnwTc/O48MLl0xNNTYU3NzMmqTDQltiCh7fdCamH9o3hFeeO4njh/ar6CmKojwlFCwe3L/jGEqR8Ljd8Pu8qBUhDMgl3SH/Xl9biyZxUc2N9ebnyAXRpMy+4taOCSB/p+X8rJ5+zPEL+D3mNXGfr7Hhq8d8fKnw3RmdwM9//T5u35swIbd8IiYktsBvRDSZRjiRwrMnDuEPv/GimZm0NDXmblUURVEKBd0gRY91Q4f39GN4sA/9XW3wuhymlNpGOIKIjMcUPsZz7ORWE6WGZovba+FIWJ7fOnp7OjHY15O7x9PzucLHBEL2TmKn3PcufIq5pRUjeowEIoUSvvwGbZW8sW75/S+dOYY3Xjxt8jZYm1NRFEUpLMYN2qz+gF6P25RP88klxbCutsZsMXE/jW4xFI0bociP+LzcbgdoVhjl4POg82usrzXPm8+PdU+flrzw/Y6cs1ILk9bn5FgLRRCXOzLSptDko3f8bhfaG2vR29GGwf4+edM1dUFRFGU7YGAM2yQ9c+ww/uSffg//4z//Q/zRt1/B4X1D2KyyISTuLymCY1WJ2X4otNQ+BrusbARx+fptnL1wEQuLy7l7fDV+x/GtrK7j5p37uHbrHu5PTCMhDpDhr4XO3WMJHi5z7hnowbPHD5k+VXsGenfUWiuKouwm8g6Q3RG4F+iSSzoqr9djHCDLqdloUrJZJMQEmWLaRdjy+iws0bN+D70XDz6HmBytLU1oaaxHlTyXp4kH+VzHxyoA98cmMT0zK7YsY/I9jN0sMCxNthFPoru7E99+/QUM9nXnblEURVF2gkAggKGBfrz+4hn8L3/yffzxt1/Fnr4uEUL3g5qh3KLaTqg+jPKk8t2fWcC5q3fAZglLyysmef+r8DuOb2xyFr96/yPcHJ0w+ROkkApvKrTIwU1LduR9+cxxvPb8KdTK7IJ5KYqiKMrOwLHeOEDuobldZi+wxu83e4Acs7MydgejcVMLlNVfttP5UW9Z5IRGjA1tq+Tv3PNramzI3fPL+VzHF4rGcEvEb3Rm0dwpH9RSKKxKA9beXldTHTrFsra3t5rkS0VRFGXnYfQn9/9YJ/kPvvs6/uBbr+LFk0fQJWN1JJUxkfjFiP34IijKflYP29rE9Rt38JsPLmB2YSl369PxQPi4l7e0vGoS11kIlVW/SV5tCwUVmwEzba1NeFbeyN6uNlOdQPf2FEVRSgOO+RyTuffH6MmernaceeYYXn/hFL714ins6e9BLJPNpT48LKNWTKhCeSNGgzazuIx745O4NzphCns/DQ+FT8RuYXEJy8sr2MxkLBubu62Q0CJT+OjyXnr2hAjf16+/piiKohSPlpZmnD551BSN/qfffBEH9w6Yepp0fozO3y7zlzdhsWQKy2tB3Lk/gVt32EAhZH7+pDwifAnMi4Iur6xiS8TJJC8W0Onl4RNnhGhTQ70pPNool4qiKErpwjGbdUJZXOTA8B68ePoY/skbz2P/nn7E01kTaVls8cuvPtL0MdiFbZtu3x/H+U+vY2FpxVSdYcHuJ+GB8LG3k3F8InyM5uQD59W1kPANpKiyTM7QQB8a6lX4FEVRyoG6uloM7xnAK2eO41/83ms4un+P6Z/KJc/tyvSjLrkddtGpTRG+CZy7dN0UWmFHoSfdd/wt4eNGoVHONJc6qa65GwsAlZjLnI11NTgkNrmtudGIIDcsFUVRlNLHVPGy2UyhkaH+Ppw5dhDfe/VZ0zsvnMwgkix+0Eve+RHuL0ajMYxPTJsu9uwi9CQ8FL54ArPzyyJ8q8YymoT1Au7y8c1gYEtTQx0O7xtEuwifoiiKUn6w9VF/bzfOHD+E73/jBewb6hPhSyOa4JLnNm345WC1MfYcvHX3/hPv9RnhY2ffcCyBubUgloIRpJkrUWDHx8dkpZaa2hrs2zuY662kbk9RFKXcyLsuxmjsMy2PDuKNM0cx0N2GZCa7LYnuNGZOcZ80arfuT+Djq7dMB/onwRI+safhWBzz6yEsi/BxSZKhrIUUJjY6ZFv5mtpa80axGLWiKIpSvjTU14mRGcKZowfwzTPHMNjdIaInwidiRNkrZpoDzZnTYTfCd3N0Eh9dvW2E70l+pxE+tnsIRyKmH5O1t1c8J8YKAOyszmoAiqIoSvnDNkfPnDiK44f2Yd9AN5rqakxcx3YmuTMXfXJ6FqPjk6Jn0dxPP5uHwhcW4ZMnWuj8vQfqKw/KgqKs0ELhY3dgXepUFEUpf9pam3Hy+GEcOziC/YM9aK6vNaLHKl3kSVzY14W56JPTM7g/NmEZuS/ACN/a+gaicseqrU04bIV1fHyxDGppqPFjX38XWhvqVPAURVEqkP7eLnzztRcxvGdQ/lZlxK/IemciTdlBiIVXxsanceP2KDaCXxzd+cDxRYw1FMdnEtf508JgojnFSdbX+LCvrxMtDbUifLkbFUVRlIqhp6sTr774LEb2DMDhdDAKJid+xVM/Cp9JaKfwTc7gxl1L+LjU+nm/Nyd8G5Y1fLDUWThlotVlsIzP55M3pcN091XlUxRFqTzYwYHdfoaH+vD7b7yIwf5uBONJxNOZ3D2KA8WPOX1r4ShmV9axsLKK9Y0gUrluDI9jhG9FHF8oHDEKafL3Cu34spsifF50d7aZ5oYqe4qiKJUHk9vZyogJ7d959TkM9FnFrJMZq5RYMZwft86YhUDhW4/GsbAaxMLyqjF0TNX7LIzwLa2sIRiMICtP0Np/K5w0sYAp8zrcbjdampvg9/tyv0NRFEWpROpqazHQ34uhnk4MdjSjPuA1q39FXPE06Q1snM6Sm3NzC5iYnDZVXT4LI3zLYg03QmFT66zAumcaFzJ53UXha2o06QyKoihK5VJbE0BvdxcGezsxLOLXWOM3OrC59WRFpL8K+SAXETLMzs5jTIQvEv3stAZrj28jiLAoI5c6q6sKm86Qx+l0mhQGdllXx6coilL59Pd04RsvP4fOrk6sxxKIp4q310ddcYjwMaF9dGoWt0YnEfycfD4jfBuhCCKxuFkjtUqVFU6Y+EhGiUX4WN/NJcKnKIqiVD7dne148dkT6BLhSzLQccuK8CzGXh91xmGzIZ3OYHJuEfcmZhAMRZHNZn/n9xnhS4tCZsWGFuPJsAWR1+mA3+MyAS7c+FQURVEqH6/Xg+amRgx2t+Honl601NeaYEcGPRYLPnYinUU4njSrmZ8V3WmEj6LHZc5Ckld1Wk+f2wmv2wWvx22aGepSp6IoSuXjcbtNPc/+rnYcHx4wedwpGq0C682jUHdMU4RE0hRnWVun8P12dKcRvmJBUXfa7ajxeeB2OeUnKniKoii7jc72Vpw6cRhNzc0IJVIP0huKgRXkUo3qrU2sra2b5uqJ7RI+ip5xfOLwavxeI3wqe4qiKLuPtpYmHD20H83NjUiJG6Pjy68KFhquKLKSCzazpirZ4vIKkuL+HqWIwrdlXpzTaUd9TQBej0ZzKoqi7EaYv93R1or2pga01PrhEyNUBM0zsOSmgwntmQwWFpcxM7eIWCKRu9WieMIn/3GTkXt6tTV+eBjNqbqnKIqy6/B6PGhqrEe7OL7etiYEfB4TV1Isx8cKMizIsri8inkRP3ZueJSi7vERh91uXjSjOVX3FEVRdi+d7S04dewgWkUAE+mMifAsBtznY0GW1Y0Qltc2kPisqM5iYrfb4BJbaxcBVMunKIqye+Fe35EDI2hsqLeErwjRnXR8zEdn/t56KIIVEb9YPIF0+qH4FV34KHYsIKr7e4qiKLsbNilgNRdfwG86NmRyjWqLAUU1kkybwtXroTDWNoK5W4osfFy/pd6x4wOtpxo+RVGU3Qurd3V2tCHg94OSxy2+YkV3MsYklckimkghFI5iYzuEj7+UnRmofFzupOtTFEVRdi9MaK+vq0V9jR8NzO922Iz4FQOaLaY12MVwJeJxhEKR3C3FdHw5JWdTWzYnNDVAczcpiqIouw8GObJDT4MIX0t9AF6X05ikYoifqd1J3dnaRCwWw0YolLulyEudiqIoivI4dSJ8PWbJk336ipPWQKfFlcYtefxwJGrKl+UpnvBxS08Ul/l8+QLYRXK0iqIoShnB3O7uzlbj/opVtJorjExmp/DFt2upkwubXN7c2txCitE7maxZ/lQURVF2MWKIagIBU7/Ta4QvK8JXjHw+0SCaLxFVdmdIPFK9pXjCJ0prkz+YSxE3ORTFa0CoKIqilAd0YlzibG1ugsfjMWkHxXJ8ZtXROL6EWe7MU1THx1+aSqcRCkcQTybNsqeiKIqyu8m3K2JxE+byFSWdT5SPjo97iKFIBCtr27DHR8dnhE8s5kYojHhChK8YG5iKoihKWeF2uUxOH7v3FNPx5YWPlVuCYsDyFC+4RX4tf2kimcJaMGx+sRo+RVEUxeFgDWc3qqptuTZFxbF8pmKYPHQ6lUFStCiPET4mmLO6ChWyUOQdXzqTQTgaMwKoS52KoigKnR7396rt9qIudVKDGDiTTKUQpfnKYYTP63abRrGFrq5C8WNwSyKZFgHM5n6qKIqi7GYofOzaY2f7IFG9YmyD0chRgzbl8WOJJMKRmHWDYJSOHdI9HpeV7CdPoBBPgkrLgzkaMXF7bAvB/T6Grupen6Ioyu6F3XrcbhdscllMPWCQJR+f2hN/PJ2hoa4GAZ/XCB/VsZCkKXypjLGZkWhMnsDDdVZFURRl90Gn53I6zRabKJN1FAE6Pj42DVcq8zClzghfc2OduD4/qm3VYjsLWz4mK4+VZi6fuD7mUTy6wagoiqLsPli/2eF0iPDZcj8pPPlVR6oZhS+dfrjdZoSvtakRdbUB4/iM8JmbCgudXjgcEeHTtAZFUZTdTLUInsNuF7NFS1ZcqDcsm5l53PE11NeaTPpqsZ+FrpTNWmm0sxS81fV1RGPx3C2KoijK7iQnMtvpgR7RWCN8gUDACi3lHp95IoV7NhQ9l9jaZCKBxaUVs9ypjk9RFGX3wpVFlrHkZbHhcqedS6viMPMY4WtsqIM/4EdVfqmzgLpkeiLZq00/pLn5RYRC4dwtiqIoym6EaW7c/uISZLGh0auqYk9YI3cGc62luQm1NTVyq82kHxTSkVH4GMETicQwNTuP9WBIHZ+iKMouJpvJmqRyCuBOkHN89aZuWn6PjxpMcSqEQLE1EW0m66Tdm5zFynqwoI5SURRFKS8oeOl02tTRpDmy8g4KS17DuNTJEmkupyN3S0746utq4ff7TekyI0rmH/CWr0/e8a2HIrg1NoPFVRG+bd3RVBRFUUoJbqmxc8/WlghfdbUJgiwG1DE+vsfthN/nyf00J3wej9v8sKHWj1q/FzYRqkItR1JtKX6pdBahaBwbIoDrG0HTH6lQv0NRFEUpH1hJJRqNifPLwGGzNKIY5B0fu0H4vY8JH6Nd/CJ+HU31aG2ogZPOr0iuLBKNYn5hyfRHUhRFUXYfTG9jn9ZsmsJXDVsRLB8VjDrG7TbWovY9Lny0gmwR0dHShNamBlNHjaXLCunI+MsZ3RkMhXBvbAKra+u5WxRFUZTdBOtmbgRDJrLTYZY6i+D4RL6spU6bEb3agD93Q074iMftQmdbM9qaG2F3sFVEYSu42Km6IqjBjSBu3xnF0vJqQR9fURRFKQ/Yn3VtfQMpcX50e1yOLDyWeWN5NNaibqirzf38MeFrb21Bswhflc1miksXsiuuSWQXQV1bD+La7ftYWF6z5FhRFEXZNXDUZyGThcVlEcC4ifovhuPj76GGMT/dK46vpuYzHJ/b7UabOL7mpia5o930zyukLvHFUfhWxfFduT0qwreau0VRFEXZNYiwcH9vZn7RBLg4xGgVRfhEv/LCx8pkNYFA7pZHhM/lcoroNaKhod5yfJtbD/b5CrHXZ6I7xdKm0hkEIzEsr65jdm5B3gCt5KIoirKb2AiFMT23aFrVcTWwOI5vy2zZEfabrQn4zHXyUPicTjQ1NKC+vk6Ez24quBS6YDWhmLJN0craGu6Pj5t1XkVRFGX3wLS2qdkF0xWdwleMPT5qF0uibclje9zuzxY+RnYyu71WbuzraEZnSwOc8vdC7vMRbmQ67XYT3HLx8g3MLSzlblEURVEqGfZj5TLnWjCCRTli8neKXhF0L+f45E8K3+ctdeap8Xmwr7cDQ12tcDsdInyFLVrNKi5eedylpVWcv3gNM2J3FUVRlMqHaQwsYLIqjm8lHEM8nSmK6BHqVnpzE5sic18qfAz73NPfg56uDlSJM2PFlUK6Pq7lMtBlTV747YlZTM8vm+VOVnJRFEVRKheK3tjEFMLhMFx224NlzmIsdfIRbfK4DKoM+H2o+6x0hjy8w9BAL7opfNV2JAosfHx9DHJZD0dxd2YRUwvLZtkzGovl7qEoiqJUIqtrG7g3OoFoKIwal9P0ai0W1Bo7IzpdDnF7flOTOs/v/FavWMLO9jZ0trWI+3ObcjJUzkJGd/Kg6/M4bJibm8cH5z/B9Ox87h6KoihKJTK7sISPLl/H4vKKcWJ0fIWGOsUgSm6rNdT40FxXYyq3MIAzz+/8Viufr8Uks9f6vPLkbEaoCmj6DB550XVetxG+t949h/HJmdwtiqIoSiXCFIZzF69hYXHF1IQuhvARxqZQ+JpE9Fob60wtagZv5vmd32r1z7OhrsaPob4udHe0mnZFpoRZAcWPv4cvfDUYwY3xGYzPLphZABMaFUVRlMrBJKzPzmNpdR3r4RgS6XRu9S93hwJCx5el47Pb0dbcgI7WZlOZ7NF9xM+VW+Y8jAz2oL+r3TxAJps14aGFIh/kwr2+O9MLmJhdNF0b2L1BURRFqRyCwRAmp2eM8EWTaVMSsxiiR6hSzN+jbrU2N6IzJ3yP8vnC5/djz2A/ujo7TDhoQp4s100LRX6vj67P77JjYnIav/jNBxid0CVPRVGUSmJ2fhHnP7mCpaVleF0OU6YsrwGFhsGYKTFqkN/R3NyE9rYWs4X3KF/g+Ch8fSJ87chuVSFWYOHLw72+eq8bExNT+Mmv3sH98cncLYqiKEolMD23gLMfX8bi4hICbqdJZSgW3JJLZ8RRco+vqQlt4vjcT+r4HE4HamtqTKuikYEudLc1mb0+towvRHRnHrPkWS2OMpXC8kYIo5MzuHbjNpZWtIi1oihKOcOtK3ZhmJxbxN3peayFo0UrUZaHji+zReGzo6G+Dk2NDaYW9aN8vvDZ7cb1dYjwHRjqQV9Hi/wsJ3y5+xQCvn4GuiRSGfOmjE3N4PK1m2KJV3L3UBRFUcqRSCSGuYVFI3z3ZhdNTAfH+yLqntEnliqj42PtaSN8j6QykM8Vvvz6K5v3Hdq3F3193chW2xAXgSr0Xh/hXh9LmY1NzeGX73+M22NTJsIzlU6b2xVFUZTygmlqb75zFlNTs1bCuozzeW0pNCaaM7tp8gMHxKiN9Hag1u/5zN/3ucKXh9nuh/YPo7+vB5sUvrQIXwGXOgmfFJ8shW9chO8X73+E26OTiMbiSMvvUxRFUcqPsclp/PLtD0T4ZlDrccH9SC5doaEscUXS5XBgsKvVCF+Nz5u79bf5UuFzu1xobmpAd3srBjtb0Vpfa9ZoNwu815eHzo8VXW7evof/9pNf4e7oRO4WRVEUpRxYXl3DjVt3MSpOb3EtiFgyaeI5iuH08jBpPUGjZLOjp6sTewZ6EfB/VeFzU/ga0dPRajo2tDXUmvy7Qru+PLTCbjlu37mHv//ZW7h7f7zgATWKoihK4eE4zWNlZRXXRfgYs7G0EUIskTJ7e0VpOJv7ndyBS2ayJqiFtaaH+kX4fA978D3KlwpfnhZxfWdOHsPw3kGkt6oRSaRNdnyh4YyAb1Bc3qhlmSlcvnEbb793DlMzc7l7KIqiKKUIt6a4RXXj3gR+/JuzuD8+bbawWPqy2FBSuZRaH/Caai1trS1we347fy/PEwtfc2MDTh8/jL17BrFpe7jXl1fbQpAXPc4K4qkUVjaCuHrjLt754Dwmp2dN9RgusSqKoiilR1LGbVZpuXlvHL9874IJVqTwsfl4MZc5KUHUDZ/LiYYav6k1zfw9dl7/LJ5Y+FwuFxoa6tDX1YYje/vQ195sLXkWwfURZvbzmFtawUfX7uLCp9dx6fJ108JIURRFKT0Yk/HffvImbt66K+7LVtRE9Tw0XulMBnaHA0P93Tg0MoT62odNZz+LpxA+p4nw7Otsw9HhfpPXV12dK16du0+h4MyAOYMUvoXVdVy+PYpPrtzEJ5evYW5hCRl5ker8FEVRSoNsNmvc3p374/jxr97GnXtjJlaDwYrFht6LJcrsDrsIX48I3yDqCiV8eVqaG81e356hAaRRvFJmhM7YIyrOKM97kzP4xQef4Pyn13D73qjp5KsoiqLsPIzBePu987h8/TaW1oKIM4rTJKoXb3kzD7fc2DB9q9qOnu4usx3H4itfxFMLX1NDA44fOYihwQHYnS5kRPMKvdeXh2+a22k3lpmZ/+9dvIYLl2/g2s27poVROs0AG3V+iqIoO0He6TFR/Z0PL+DarbtYC4blZ2mz51ZM8ctrDg96L4fLZaI5B/t6EPB/djRnHtu/+dM//bePl3P5MpjHF4vFkUmnUCW/dCMURjqThY3d2ov0IvkmOljTM5HEwvKa6RnodTtNaTV2jVcURVG2l4WlZdy+M4oPP76Cdz66jMWVdWxmMkYLOGYX0/HRZjHgke2HuttbcHT/Hjx38jB6Rfw+T4soyOSpHR9/icfjRn93O147cwyHhgdgk59lslauXf4oJFa0jgNecX5jEzP49YcXcfbiFVy9eUfe+BUkkykz81AURVGKDwUnmUxiZm4BH396FR9fvYmrd8extLbxIDCx6E5PbB4NFzVpb18XTuwfQmtjvem0Xi0m6Yv4So6P8IF9Pi+C4QimpmeRFiXNCx5fcNGcn1hnRpPGROwW5E3mb2GOiNPhgM/72Vn6iqIoSuFYXlnDvbEJvC9O75cffIyp2QVk0ykTxeko4srfo2SyW4iI7nhEh146fULc3hF0tLcaXfo8vrLjy1NbEzCZ8XsHejHQ1Y7GuhoRPj6Z4u25UfR8bic8TjvGuZl64TI+/OQKLslsY2Z+0Sy/MqxVURRFKTyMqI/F4zLeLuCijLvnP72Oc1duYXZhBV5xWh6nY1tEjwGVpnpYVTU8Xh/6+7oxvGfQ6NKT8JUdXx4uMdJpReJJ3B6dNn31mKxIkSomNnlzuY4bld+7uLphAl22NrMmYTHwJRE9iqIoytPD3nqswfn+R5/iVx9+YhLUszLmMwCxmMubj8KVxXRub49bbicO7MWzJw6jv6fzS5c5v7bjy9Pe2owXTh/HgeEheMViVlXbkJUnRkUu9F5fHooq29e7bVXGYn946Trev3AJF8T9jU1MmVSHRDJpcv2K9RwURVEqHbOXJgfjKDaCIYxPTeOjS1fNShvH3dn5RXjtVks5xmIUk/xz4YjOaH6K3L7+Hpw+PILO1iZTV9om4vskfG3HR4Vn4iCjLSGOixWyl9c2ctE2xZ0BVMl/ttyeHx3fqnwwFL1gMGycH20vf/+XbXQqiqIovwsNDMdypiucvXARH1z4FOcv38DM/BKyMuYyvoLFRrbD6eVh6gKFr66uBq889wyeO3UcbS3NJujyy8g7vq8tfFRYp/z7KtFhv8eFcDSO0el5ebMysIvg5N+PYrwxfEy+6WL8EIxEsbS6jvX1DYQjEQQCgVxLioe5JCqAiqIoXw6FJZPOIBKNYWVtHZev3cZvPjiHi9du4dbYFGKxhLg8O1z24tbgfBwGtDCikSLX3dmOb77yHE4dPwyv/P1JxveCCV8e5vZxby0ej4v4rIv5yyKWSBh1pisr9ptDm83nQCsclQ9ldmEZ03MLyIoAs8mtkxXCXa7cvRVFUZTPg+P46toGrty4jZ//+n18+PFl3BXBWw+GsSWiyDxqy9hsn+gxmCWaTKFKxvPjh0bwyunjOHJgWNxe0xPnDBZc+CgqrOWZSiYRj0URlTduaXXDvEkUpDzFeKP4mPwdfPFsixEMRzEloje/uGw+IK4F05naqm1mfTi/Fr2dH5qiKEqpkxJhoMubF+Nwb3wK5z65gjff+RC3741jLRhCJpOF02Y320vbNX7SzBCavZToiV8M1uvPncRrz59Ed0e7qdLypM+l4MKXp1oEprG+zlrylDeObxSfE58Wn1yx3yw+Ppc2KXKcISxvhDA5u2CikULBoNl3ZFd5Xj7pRqiiKMpugKUgr16/hfcuXMLP3jmPyzfvYmMjiM3spllKNAZjG1bwHodLr9VV1WioDWBPbydefvYkjh4YEdHzG2PzpBRN+BhU0irWc0Ms8fTsPFJsTBhPmtu45JmnGG9cXljzHxDd39zyGmYWlhDa2EAsFjPCLHeyCmtzIiFPI2+Tt/vDVBRF2QmsCEkrLy+eSCIUjmB5bR137o7hwsUrOCtO74NL101lLLsMixxPOX7zcrvGybzT4yW7ADF9YU9fJ44dGDb7ensG+59K9EjRhI9U5WYFTQ31iMqbemt82uT7PZrnsV1vHj8op9hylrdZD0Vwd3IW9yZmsLa2hmQiAb52LtNaMxkNflEUpfIxYiJjMlMU2OT70pUb+OXbZ/Hu+Yu4fmcU88urVtSm3WottJPbQ/QoqXQWbq8br71wGt985Xn0dnfA7/viQtSfRdGEj28MBcTrdqGttQlroSjGZuassFhxYGS7rDI/LJbPsfb+0kb4xmcWMLewglQibn7GCp+s95ZMJY1DNDU/5Y2uElvN56koilLuUOiY12zt4UWxuh7E7OIyRiemcfPOfXx8+QbeF9G7eW/MRMczb4+ix8DAnVwRS2c2kRXtYI54d2cHvvPaC3jxzAmzr/dVjEpe+KqC4chWzZe0cPgqUFQoJFdu3TVNZN85fwlvn/3ENCes9bq29U20bP2WeQPZsJAdHeoCPvjkdbu8frQ21WNPdzsGezsx0Ntt6r21NDU+UV6IoihKqcMlTeZaMzVhcmoGt0cnceXOmJiAZURjUUTCUYRDYRHGFFh0knP+7VzW/Cyy2U0EowlU2+x4+dljeOn0MTz3zDEcGB40ovdVhC8UiZrLoglfntX1DSyvrOKHP38H//VHv0IiFsNWJmXe1O2MDHoUzny4WcrmhaFECgGfB8MifHv7e7B3qB+9PZ3oam8zXXw94lyt5VCnKYSdL4mzUzMgRVGUz4NjG0WONYtpPNgrj+6NkZrrwQjmFhcxNjZhljM/vn7XRN5z747Lmayzmc+93smxLW9STC7hVpWMw7X4kz/8Jr772nPGlDQ21Ofu+fRsm/DxTWf5MBY0PcdN04+v4kM5fG4HanzuHXmDH3WAaZlVsOanX9wdHZ7L4zWJ7/U1fnS0NKG3s01EsBUdbS1oaqxHfX2dEUNutH6VGYeiKEqx4FJmMGRVsFpZXTdRmjNzi5iaX8LkwoqVkpBIICZCyM46qXTaRNxzLLM/sgW1k8LHbTHm623Jc9gvRuTIvj1446UzOHX8kElU/zr52NsmfHnm5hcxPTuHH735Pn74s3eQTiWxtWlVd6HzIzv1ZucdYDKTRTyVMWvabnF27c0NGBT319PVjs6ONjQ3NaJBZhs+rwducYBuJsWLG2RqBPMFTa6gvBZeGisuj/NZr8kIrwkpVRRF+XxkqDDjRb7usHUw4EPGrGzWpItRvBg9zyMWT2IjGMTa2rppHTS/KII3PYdJit/Smgk29DntZnyjy+PKW6lgXqccNCRbVdVmX++bLzyDV84cx4F9ezHQ15O751dn24WPrSzYNujCpWvi+i7jwpWbctxCwO1EjYd7fjsnfPkvFItr802nJtH+u0TYKHJOmWE4ROCqWZ7HxtYbTuNYWxpqjTjWBgLwi0v0eTzwei3nyJkJXaFd7v84/MJmN7VxrqIoXwzHJbo4ihqXMB8Vu6iMp+Fw1KQhLK8FsRSMIBiJYTMr9+N9GWdhljqTZn8vJo/DfDy7rQq2XPDeTjq7x6HoJeQ5chzu62zH3oEeU5Ls+WeOoa62RsbYr69T2y58eSampk1i+y/eu2ASJJPxBNJivVlz0+kojYTyh7Mqa6bFFhgpRn7yC5fZNJGi7AhP4etoaURdDeuC+oxIcpZC0TPC53AYJyhvs/XAOVhGjaHEiqIoX8QD4aMgGNGzxg42/o5E4yb/bml1zezVLa6HEIoljbBxjLI6octlztlR6LgKVWrwNZqx1hwQo+HE8ycO47njh3Hq5BEcFLdXKHZM+LjJGo1GcfnGHXx6/RbePX8Z753/FHV+D2rlKAX4QZhL6y8PPhS6QV7yy8MlWga6uETcbPxicXmTy5zVNnGF3CB+dEb121+2rS1tl6QoypfDYYKTb447bARgRhL5mRGLzaw4O6Zi0RGmkRRXyC0bjjkco2T4ebDdYg75p6Xk8PIYcTeCvoUmMRNdbc34/W++gtdePIOG+jrj9grFjglfntn5BczOzeMf3/zAHMlkwtT5NDZcRKVUP6RH4ZeMIbd5UeQHyMP0IzTXc3dUFEX5GnAopIixAXdeyLgd86iwGbGj2pUJRrxzB40CGwkcGh7Ekf17jeidOnEkd8/CsePCF48nEE/EceXGXeP+fnPuIt776DL8LodZRrQ+xNKOmswLHfVNLvinubT0ToVPUZTCIMMh/8wZgtx1ubRkzrrC66VuFh6FYyedHiPrWxrqTDPZb7/+Il59/jRamhuN2ys0Oy58eVg8emFxCT955xx+8e55hDaCiIRCxvVxRpOfzSiKoijlj1kV2+TB+ps2kyN9cC+d3h68IqJ3+uTR3D0LT8kIH6ONmOd3f2LatMH4xW8+wNsffGREzxI/pgdovpyiKEolQOGLp9JIpDPobmtCb0ebid6k6DFXuhhOL0/JCB/hGxGRJ7QRCuNnv/4Ab757zlR7WV1bN3U0GcXEXD+KoKIoilKeMDqeUfJutxs+rxuHR4ZwdN8ePH/6BJ45fjh3r+JRcsLHUF3mqswuLGJqZgFvv38O75//BEvrIVNc2ut0mIRxRVEUpTzZiCWwEU/i2PAAjo0M4LlTx3H6xBE01NWhvq5w0ZufR0kJXx4KIGvMxeWNef/8xzj70SXcHp3C/ckZ0zOKuSxWfsrOVnpRFEVRvhyO6YRdFtggwOPzwSt688LxA3j+2EEcPjCC/SN7zH22g5IVPuP+Njexvh7E4soqPjh/EWc//hRX701idHoetR6XqfZiIppU+BRFUUoWa0wHgnR6sSReOnUYL586imMHR3DkwLDpoM7iH9tFSQrf4zAp88q1m/j02i18cuMert4dQzQYQjwazUV7MrfFShRXFEVRSgNT/1gUjyMzkzB8NTXwy/Has8fx+nPH0dvNGsid1p23kbIQPr55YXmi7BJ8d2wSN0X43jn7MS5euWlup/ix0CpL8iiKoiilgcnPy2SNMWFg4kvPnsSrL57G3oFe7Onvgdvtgse9/f1Oy0L48jCqc3l5FTNzCzh38SouigNk1CfbbrAoK/f/KICl0EtKURRlt5Hfy0tlN03kJtu81fi9aGtpQkdrM86cPILnnzlqUhWKma7wZZSV8PFNZWALmyrK88Xi0irOf/IpLly6ik/vjGNidsHs/ZVLxRdFUZRKIr+XF4onsR5PYF9fN47u7cNzp47JccJEbNbW+OGwW828d4qyEr7HYYujazfu4OrNOyJ8Y7g7Pm32/qKRCGLJlLHYjPxUB6goilJ48g6PFVgym5tgdWUWHQnU1aKmvh6H9vThKOtuMohFDhbxLwXKWvhYGDoaiyEYCmNmfgmjE1M4//Gnpubn9NIaNiIx1Lid8DjtGvyiKIpSYPIOL5FOmyosTjv7lDrwvDi8119+FkPi+Ho72612bT5vyZiPsha+PGzIGAqHTXv9azfv4ubdUYzNLmJ2YRnhYNBUgzGNDWVG4pQZh+n6oA5QURTlqfgth5fNmjGU20o1AT/q6mvR0lgvRwNOHN6HU8cPoVmu14v7K7Vtp4oQPn4YrPiSTmcQjcexsRHCxPQsbt8fx4VPruD6nVEsyM/iyRQCLnWAiqIoX4W8w2PPv1gqZUyEy24zLYSePXkY+4eHMDI0YHVKF4dnd9hNE+5SMxkVIXyPk5IPZGV1DTNzi7h55z7ujE1henEFiytrpuMDHWAknpAZCx2gFWab72elKIqiWFDorD6jm6ZBLLEcnu+Bw2ttasTIYB8OjgyYnLzuznbY7TsXuPIkVKTwMe8v35afKQ7rwRAmxQHeHR3HxSs3cOPuOCZECCOxJGo94gDNrIQOUKNAFUVR8uSbbLODQiyVMaJHh3dgbz/OHD+IowdHcHDfsDi8ADxuF5wOp2kkW+omoiKF73GSyaTJ9ZtbWBTxm8To1Awm5pexvLqBZCxqokA3QhEjklaVgSoTDcqlUHWCiqJUOnlnt5nrj5fJXXpcLtQFvAgE/PD7A6itCaC+1o/B3k7sG+pHf2+Xqb7icjpzj1Qe7ArhM2VzcnuAzAEMhaNYWF7B1PQc7twbxa17Y7hxbwLzK2umiCqdn9dpl9kLk+FtuheoKEpFY62SWQWkuX+XSPMyi/amehzo78T+vQOmiDSFjkuZrK3pdjmMw3M4HGU3Ru4K4XscJsGHxeXRBc7MzWN6bhFT80tmD3AjGBZhjCAalkt5c3jwiyCTIXF+gE3+eNQJqiNUFKVUyUdh8mJL/qOr2xI3Z+3b8SfWuOYS8fJ73SblwJ/rnODx+kT4GtDX0Yyezjb0dHWgpanRNIml2JUzu1L4TBRozgVmRNTYAonJ7usbQUzPzmF0bFJc4KhphXR3Ygbr4hD5JWFiJtMhTFK8OWymKzzFT1EUpdTIR2Fay5hcwrScHZvApjKb5nZO5BtrA+hrb8ZAbyf2DPRioK9H3F0PGhvq4PW4zVKmw26H3c4xr/SiNJ+WXSl8nwcrwayubWBxaRmz84uYWZDLxRWsiwuMxhOIy+1JORKJhBxJuX8C0ZhcT6fNsgC/C6wSwy8Svxb8cqgkKopSDOjW8sJmebf8z/JCJ6ImY5DLYYNHhMvrccEjIsau525z6RFX55afe9BQ40drYx3amhtNXc1WOVqam+D1eswEv9IC/1T4HoEzonxEaFYcYFIELZFMISjCt7q2hgURxDkRxIXFZbm+KqK4hOn5ZayGoqbHlJg/uBkhKsLH/Jb8MqiKn6IohSQvetaSJVv/5H6eEzwGp6TF2XEi3uB3o7muBp2tTWiXo7WlUS5b0NHeilYRt8aGelNZxeVymsortpyrsz0S31Bp2zkqfF+AFRSzibg4vGiUpdFCWN8IYUMuQ6EI1kQQ1/j3SAyhaNzkD2bSKRHNDDI8uIwq4pn7TiqKonwtHqwk8RBRM4IkBx0ZxYpLkXaHQy4dImB2uMXp1Yirq/V7TTRmXQ0jM+WytkaOWtTIde7pUfTMZF2O3YAK3xfA2VP+0ppJ0RFylpW75N/l5/F4AhERRu4Rrq1vmMAZCmVELtlHkJvJiqIohYACVy0HuxuYQ0TO6bSLeLnMfpzpZh7woyYQMMEqFD/ej6JmVqHExVnXc9syOSEl+ctKR4WvANDVJVNpxGJxUzSb+3/JlBzJlLmeF1BFUZSvg3F8OWdmliNtDy8ZfMJoS+7hMZmcly6nOD+b3dyuPESFrwAYR2hdeeAOLa2zriuKohSOnCvjKqd1TaBry1174OB++2fKQ1T4FEVRlF1FXvjUByuKoii7ChU+RVEUZVehwqcoiqLsKlT4FEVRlF2FCp+iKIqyq1DhUxRFUXYVKnyKoijKrkKFT1EURdlVqPApiqIouwoVPkVRFGVXocKnKIqi7CpU+BRFUZRdhQqfoiiKsqtQ4VMURVF2FSp8iqIoyq5ChU9RFEXZVajwKYqiKLsKFT5FURRlV6HCpyiKouwqVPgURVGUXYUKn6IoirKrUOFTFEVRdhVVwXBkq8bvy/1VqTQ2t7aQ3dxCZhPIZOW6/F3+N1RVycxH/qiWS5v84bBZ1+V/uY1/Kp+F9Z5C3kd5L3M/22746fAz46EoypMRikTNpQpfhZMSxQsmsliPZbAczSCc3BQRtIZruwyaLnsVfE4b6jw2tPjt5rqt2hJE5bOJpzcRTWWRzliTip0QP352NW4bfC5b7ieKonwZKnwVyqYMxClxdgkZlGMyQIeSWSxHMlgIpzEXSmMjnjW3Ezo8r8MaQJv8DnTWOtDotSPgrIbfUQ2PXHKA3a3Q2W2Ks0uKvYult5CU9zQp729E3lNOJlLy97TclnfQ2wk/u0afHbUeO1y5CYxHDpe9WicuivI5qPBVKHQj8yJwE+sp3FhJYnxDxE7cCZ1eQm7LL3cSDo4yTsIpI6VTBNDtsKHDZ8NwnQMjTS6MtHhkYN29joJume/nlLyHt5YTmJD3dSaaRVR+xskD3V7OPG87nI9Q5DhJ6ZLPrC/gwF75zLrrnOLaq+Wz1O17RXkcFb4Kg4IWFoGju7sjgndjKYFP5hO4LwIYldvEsEAMwedGM4mxgRgYtHltONTgxPE2N051+8xAWuuuNg6DHmI37P3l9/BWYxlMB9O4Ke/lpbkY7q6nMRbOIJ5zzKWAVz6XwYAde+udOCSf2XCLG10igk0ihi6Z0NjldkVRLFT4KgwuvV2cieHyQhy31tKYCqcRlZ/RsVD06EzoEj5vGORQzvu4ZKD0O6vQ7rOjv9aJY+0ePN/nRYv8nYEUu2EJLSlOLyIO+ZK8l78Yi2J0LWmWiKOpTSRF9HbK5X0WdOwBcXdmaVomKB01DrzQ4cFhEcCOWgfqPPbcPRVFUeGrENIyEFP0JjdS+M1oBBdmYxgX17cuA7dfRIz7P09DWkZ17mM55d/VymD6TKcH3xsOmGW0Jq/dLK9VOnR6U+KU35mK4gd3wpgTl0e37JSXzvfTVoLiz4ClqBwBlw0vyWd2Ro6jMmnpFcdOt67Rn4ryUPh0I6DMoQv5SJzej2+H8PF8HNMiepsihhQ9DtZPC1fG8mIZFLd4R9zOm/cj+GQmjoj8rt0Ao1/PTsVwfSGBrYy8l/JGckmRk4FSPWH4kXnkD372ny4l8dZkDDeXk1iKpM3erqIoD1HhK1MYWMHoQkZrXlmI47yI31gwjZCIE2NXvqoz4VKmQ/4t/2VKfse8COlFEdTrSwnjhBKZTbMHVokwL4+vbS2exfXlBEbF9fF9dsv7QdGzy3tTqnuc/Nz4HPnhz4nY3VxJmr3J8bXUrpmwKMqTosJXpnCJc3ojhWsiegy6mM2lKViCl7vT1yDv/GgW5uSxJ0UAZ0VYmQ/IQJpKRDTOLBlG5EUvJDaxmtw0S7/lBE/ovPO7JY7v4lwcq/L5KYryEBW+MoUix329a4sJzIrri2WsRGq6tUIEoOSdH8f9cHoLy7EsZkT4VqMifGUmBk8KRS4kgrchB51zTN7jcnupeedH4ZuUz+uOOL41+eyYmkH3qiiKCl/ZQuG7L07v8lICUXEmPrFojiKswskYavYKEykKXwpL4vzoNiuRuIjdHF+jTCSym5vmdRfhLd0W0lyyldezkMhiJZ5BSL4jlTphUZSnRYWvzOA+FJcaWZVlXtzXZCiDuMzmixVtyC+IUx6WYrcoorcq7kF+XUVCcbi7mjJOOisOmhOJIryl2wI1LiF/hEX81kX8QvFsxU5YFOVpUeErMzigMTePpchCchmRwYz7cMUiv9fHUmgM+gjK781Xfqk01pgLOR/HjeWkKUdmlo1zt5Ub1GsT1SsfVVhe17q4vnypOkXZ7ajwlRnUHBZIXhfnxfqRrLZSzOGMe0as18nfG5dfVmoJ3IUgld1EUESdEbKMjF0QJ839sFKO4vxS5Gnz5OYKQUxcH9NeKjUoSVGeFhW+MoNuK5jYNLlmDFgwy3G525SvBoVhaiNlDjppJvBXymquKVrOCUsFp6EoytOiwldmsFsAy2ctijtJyIDND7CYpoSDJYMi6PpYs9PvtKr/VxLc27u9nMC91RSi4qIraSJBqeNkyeofaP1MUXY7KnxlBgextXjGtBhil4Biw9UxBkk47VXoqXGgzW83e1+VxLpMJC4uJHB9OYmkvKelXKFFUZSvj57fZQb3nlZiWUyHMyaykwEMxfwQKa0scs02N121TrT6Kkf4uFTMoA9Wp5mUicRiLkeR0bHagV5RKhcVvjKDwSzL4lA4UCdEkdhNoRCVWj4P0QHzO13s+1brQLPfYYoeVwKcOEyvp0xB6mByEylx0/JSFUWpcFT4ygRG5zFAgdF5a8ksVmSgZhAGIw8LUanl82A/UxZprnexS7vddGuvlEr/bM57ayWJO6tJ876qx1OU3YEKX5lA58XoQ+5HBeUyIjZsG7b44BF31ypi1+axoU4uPaKElbLFx8TuTxcSuLaUMB0MdG9PUXYHep6XCYyuDMlAvRhJG3dCzSvmshx/H2tXuu3V6AnY0SFuzyuix47e5b7/xb29tVgG8+EMpsNpU4e00vb25OMDS1NXi5jXiFuvk4lLpSxRK8rXRYWvTKDjo9ubD6ZMTUnm7xXzw2M0J5dS3fKL+usd6Kqxm/3ESoCVb2Y2UpjM7e2ZvL1iziJ2CH6GNls1WgIOtNc4jFtXFEWFr2xgNCeT1ic30kb4WD+zmDqUj+Z0yWDZXetEm98BZ4UIH/P22KT19krS9Krj0m2FGL0H8KPymb3ZajR61fEpyqOo8JUJnL0vifCNi/AxGtEtg1gxxzEulZloThG+jloHWpi/VyEDJ13e5cUEriwlrElEBe7tMeWkyWVDuwhegxw+p80sUyuKosJXNlD4VhKbmIpkTKNU7kcVO5qzxlGFBrcNTV47AjKIlns0J/f22E+Qyf+z7DQRr7y9vfzeLEWuO2DHYL0TtfLZ8e/F/L4oSjmhwlcmsGLLiriTKRm4I1yDLDK/E83pLP9ozri8b2ZvT46NRBapCtzb48thPiKDWvpE9EYaKXx6mivKo+gZUeJwBh9LZU33gIhcyoVZgiwWecfgMiXK7OjMRXPS7ZW7K+L7d3MliRtLidzeHl9T7sYKQj5CU2Kuo8aBXhE/n0xaFEV5iJ4RJQ4HsTC7MUSsoJZik4/m5N5ef50D3YzmZF20CuDh3l7S5ETSCFXqCcBApFamodQ6jFtXFOUhekaUOHRgrCc5G0ybwZrxCcWUoXw0p9Nejc4aJ9oC5R/Nyb09ThxmQ1avPSauc2/PcnyVIep5p06aPDZ0i1NvlEuTe1nua9SKUmBU+EocjmVrLEq9kUJMHEux8/foMB+P5ix34UvIC+LEYWI9ZUSvEvP2+HK4Z8lZUZfPjj3i1llmjqKnsqcov40KX4nDsYyD9Vw4IwO4tTxXTB3iqlid/NHkZhi8Hf4KiOYMi1Nm3h5Lk0Vk8sCV20rb2zMTFrm0yZejs8aBgXonAvJloaOtFFerKIVCha/EMUudInyzInxJcS5uEaFibrkxP7DVXW2iOetzS2XlvlIWTmZNzt7lhYQp91aJeXt0fNyfrbZVmyotjOj0O23WjYqi/BYqfCUKuzGwWktKRjPm702bNIZ8JGLhlYgCy6UyE80ZcKArYIdHrjMsvlwdA/f2lsJpTAfTJvmfxb0rbW8vDycnLvmDuZdsFsy9WQ/XxRVF+R1U+EoY5u4lRfiWxPFNxrIIFTF/Lx/NyaCWXhPN6TAFqsuZR/f22MqJr4+vsxLhJ+WRP+rEobeK8LX45fOT64qi/C56ZpQo3LPhftRyJGOiOfn3YsKHZ1CLQ1we94jaxPExF6yc4bIm8/auLiZMSogJDKowE5SP5qySF8YOGkN1TlNwQCu1KMrno8JXojCtwLQhCqWRTBc/mpO/j8LnFJfAPaLWCkhjCMv7dnUpgUsLVlALlwIr7QvPCUs+mpPto0YaHFqpRVG+BD1DShQ6PLYhmgmmTXAGJaiYMkRRaJQBs8VjQ4PXbqp9lGv+F/f2FsNpTK2nTK897o1m5A2txAhHCh+jObkX217rxGCjy/TfUxTl81HhK1G4hLURY+J6yriVYkOT0CJ/5GtzekX4ylT3TPTrXIXn7T2KFc1plSgbaHDBr45PUb4QPUNKFA7Ui+JW7sjgHTbLdMXJ3zMBNPLLuJ/XU+tAjwyeXofljMrVHUXF4d1YSeDThThC4pYd8jrKVcS/DG7D0ql3iks3XTRk0lIpfRMVpVio8JUoFD6W17qznkYotWny94oxnvH3cI+IQS29RvjscJd7UIsI3/WlJC7OJxBKVHZNTi5H06n3+Gxo9tqM29MSZYryxajwlRjM32MwC/f1gnLJFAYKU7EcGFcATVCL/WFQi8tWnl8L7u0thNKYWEthJZ5FTF4YHW05u9fPI593yc+v2Wc36Secr3BZnEc4kS3oEZfv4iZnSbuQhLz2tWga0+tJ3FqM4+pcDJdmorgml/eWE6bV1VqM0ddZ87kopY8KXwnC0mRmwEltIZyVAa6I5xIf2kpjqDZJz0b4ytTxMedxLpTC+FoSa/L+VXLeHl8W0xi4+9vsFeEL2MGQFkYCF+NgZ5BdqntIyvnIBsaTMqG6sRAX0Yvho6koLs/FcXsxYYKoeHtMBFJ1rzyoCoYjWzV+X+6vyk7DWTU7hDMw469uhfDT0Qh8tip4i7Rvw/OUZuhEhwf/45E6HG51i/BZ/ffKjcVIGm/eC+PD6Rjuyvu3FM2aTvLssF5p0FmYCYt8Lyh6rNZS67EXrQWRS34PK/k0um1o9tjQLr+TwTQ+p81MlCopZ5ArLlFxb6yPOybfI5YLXBRh434xc2pZTYkVgLiXyiIPbnnPWSyg1WtDm0xC+uod6K93wuuwmeo5lbbaUM6EIlFzqcJXYrBM2d3lBG7KTPLn41G8I4O4R0SINTSLAfe/auTEPd3lxb84XIe9TS7z83I8WcdlkPqzT1bx6zHry81lY1KJA0/+tdHxJWQgTsgVFvbJmp8WHrsczCXtr7HjUIPTTJSeke9MS8CBGhHDci9k/iihuAhdOI1PZuN4UyaedzbSmBPXm5X3mO/B418nTkD43nd6q9Hvs+OlPh9eG/Cb6jn1IoZaSKB0yAuf7d/86Z/+W5fTaf6i7DybcnKNrSZxezmJ+xspLIhrscuJU+iABe598WRlvt5gnRMHmt3YK0eduIZyEwpTk1Pc3j153z6ai2MimDaDUyXW5MzD15V/bbykq2X0KgtwMyezGIdDDvrJqIz0S/Es7sv7zCXlavku8ZnQ9ZTzIE83tyLOjoFRb03E8MlCwri+qHy/OM/g+8v3gJfmnMwfuZ/xPZK7ISgn1lgobfZFfeII+Y7QFVfqd7GcSKbS5lIdX4mRlmnlW/fCeFtmmtfXUrgngwsjOgvt+Lg/lJCDy2SvdntxutOLwzKLb5ZZarkRSWaNS740R5ccwTWZNHjk/aIIKIWF+6Z0mNx35sTp+Q43/kDczeE2N4Zb3A9SKcppkM+7Z/a9ZGDUO1NR/N3dsClsXiOvh2L3NERkYhCS9+j3Bnz4Z3sDpqhAr7jk/KOoAO4cecenwS0lhowrWJVZ9JgIHsPyi9WGiKc6l2jsuaAW1uYs16LUcXkhN0TsPp6PY0Peu2KlfihWLimdDfecA3IsRjL41WQUZ2fFaa+nEJT3P6cjZYM5FzaB6XDavJYL8j3KyA+88jqfUvMM3GblezOxkcYP70XwkTweg1/inCkoJYEKX4nAWScPCt9KfBMTIRE+5u/JCVSMvCyegtwPYhpDWz6NocyiOa33a8u8T7dWU7goA0wwnjWBGJUY0FIKcGmP30kGXAXk+8KScG9Px41Y0C2ty9/5HS4n+HxT2U1MyTn3a3F7XOLMyGSKqwZf5XvElQa+N1Myef3H0Yh5vGUT9VmsHVjlaVHhKyG4J7AeZ9+4bNHTGHhyNjqq0eJ+WKKs3AIUuFzLvL2xtSRW5X1jZTcdWrYXp3xl/CIQa+L8zk7FzD4rP5dygukad5cSGJfnnpJzsFCVThk4Rue3Ik7yvLw30+IAldJAha+E4Ob6qsyYg0xClhFczsGCk3eWXI5pkjOzzV2NOheFr/wi89IyOWDqx6gMWHzfmNBdbm6j3OH+l1/czZo4mgszMdwX18fPhU6c37NywAjfchIT8j3iEicXPgqxYJB3fisyKfhI3hs2ROY7Ui7vSyWjwlci8FRgRNnocgKhOOtLyodTBB2iloq+mvyvvjor34iRneUIG83eWrEiOdnJwlrizN2obCtREbsFmbAtyASEqQAR7vXlbit1uEc8K+LEZVs+aQpWIc+IFXlfborbW5DvqDUpyN2g7BgqfCUCJ4GrMRE+mXVyBmqEL3dbIeFJl5JfZpeZKDut98vBotTlBGfMzHeMiILfEYfx6ULCBFUw6EL39naGuEymVuTzWMrlwLHkXrkYm7i4vAURvlURpgfCV8Dv0boI3/1wxqSAMPmd311lZ1HhKyHWEpsYZzSnDCAmmrMInw5PORPNaas2AS2M6GSllnKCEXgLMrgy33FFZulM3ta9vZ2F+2KcP7GuJQM52FGkbFb05HmKHpkE9WI+Z+7hc0mYl8rOosJXIvB8Yyj+jMwMeWKYaM4iuhcXA1v8DjnsZRfNafb2ZIJwb8UKajE1K8tlkK1QOJDwa8TgEC7Z041bJbRLF64csEQgJ1L8TrEMWTGfMWt+sioM+0UqO4sKXwnB2SZnncUcxLkc2OyqRjs7rcvBoJZya2OTlDfplri987Nxk3Sse3ulA0WERdYpJKXu+PgcWX9zRcRoQSadayLa5RaRqnw1VPhKjSKdd2Z2KweLNreI4HV4rTQGFjUul2hOvgYOVlxGu7+ewpUl3dsrNfgdS4mjKYd9LH6XNuIifDJ5YgBKSJ53scwYv52cnHGSqV/VnUeFr4Rg9ft6d3VRClJzV4HRnDZ57K4aB/pqyy+ohW6CgRP5vb1KbjukFB+2EZreSGE+lLLSGORnxTgjOK/kqRZw2dAi556/TKOoKwn9BEoEnnBMK2gSJ+YRW1boPCg+lInmFOFj01JGdPpo/8oI7sEwb48FvFdi3NuzBF0pLcqlFiWDyNhLbzaYRlZmUNyjLORTz6+yUOeYz1crwtfgZeuoQqXIK18VFb4SolFOisEGF/yualNAupDLLnwouiOHiF13vRN98ntYraWcYKPZ27m9PSas0xkXwRwrXwMumzNYinmiRbFPBSQswnd3I20iqTPy3Sp0/h7P37g8bp2czwcanGj1qOCVCip8JQJnmnR7g41O09+sUG4mP+uk8HF/gcssHbUOtIvrK5ei1HwNbD3E3LAxGaiuLVt7exyodG+vNOD3iwcFj98xl43teErzs+H5wNUDCh9r4jJ5nXuSpu1SAb9PnGiy7GC9nM/7Rfha5PxWSgMVvhKBp1uTz4E9zW60+Oy5dAbrtq8DxZN7e9XySXfKiTfAxqEyMFEE5f+ygJGuSzI4ja4ksRzLFNwNK18ffs/YfIBRwp11TtTJd61Uv19G9GTitC4He+fFsvIdy91WDOrF6Q01usyKjlIaqPCVCNwXqZUTpEvcWLccXX672YPL5BzbV4X/kk1nKaSDdQ4M1ztMbU4uSZXLXgwHqlmZmd8ye3tZI3qqe6UB3Ti/X2Lw4GVwlgheR40DteJySvXrlZYvEIvBc7mcrb+KXeOV0dP94vgogEppoMJXYlCQDre68f19NeipdyIsJ+nX6dLAD5hLgs0y2zzZ6cWpbp/MPMvrBOTAdHc1hbMzMZMcrf32SgdOQrj32uCqxolmF0bkO9vks5v941L9iBjNObORxlwwJSKYK0qdu60Y+GWiya2FgFuH21JBP4kSg8tDQzI7fLnXh30ykHAQ4Z4JB3rqH90PXSBn2Z8V9ZmfgfPgyexlvz15DD6m6ZItj8mw6lLGvAZ5nUyEZhfssfWUSVi/LeIXSm7q3l4JkP+e8RtYJaNIu9+OZ2TCtleEj26PZfBKdUWBDWFnRPTmQ1ZQS7GEj0HTPnnwWhG8Rk4GyiyKupLRT6LE4AnIdAaWEntVxO9/OlSLkzKgBORn3EcJyYkak+Pz9rl4H+5ZxOQKl5865HFe7/Ph24MBk79XDnt7fFls0cScvV/cD+PPLq7h6mLCulEpCfjd43fQKTOydo8d+5pceE6+Z4NyWeqVgFiUmqUB5yMZbPE1FOmcqBcXPCTnHAtG8H0qt7ZflYwKX4nBWTJny4zsPNzixrcG/DjV4cGeRqfZ+2uWmWONODbu2fE8yrs77gNyQkmHxxlms9eGvlonDojDO9PtxUl5DP7bctjbk5diIjiZX/XxbAxvjUdNN2uldODkRDQDdfJdG5Hv5oFmN/bJ95VFz0t1gOc5Yir/yKSKkZyL0awJnCp0NCd/D89J5u0N8pyViYE14SyfffVKR4WvROHp4XZUmSWSMz0+/MvDdfjXB2vxJyMBvNLlwXCd1UePeUI8GJXGE21PnQMvdXrw/T0B/HO5/+/vq8UemYXzvqU+E8/DgWOZUZyrSQTZKkYpObj0zr3WoQYXvr03gCPtHjgLEYZcRLisyQkV2w8tJjaxmgtsKTTGDcvvYj7uYIPT7Kmr3JUWKnwlCmeGDlu12RincD0r4sd9v9f6fHhehO1Emxv75ec8sXjQEe4Xd3dUfv5cpxcv93jxgtz/mDg903pI7GC5LLXQ8TFPbyFktWhSSgfjmkQsOJHqFTfDFYXjHV5TCYjOqZRhL7y1WMakxqyLAHLLQP4vOHzMpHxtee4O5NMYVPlKiqpgOLJV4/fl/qqUKhxw2M6E/c5YUZ6FmkMiCrHcRh9n4Ex/8ItL5KDkc9pMUIyb659lBtu3nJ2IyBHFx0tJ3FhLwSODKrswKDsL66NSMI61uvENmYQdbfNgf6vLBG7w0ynlpbyVSBo3FuI4NxvHryajmAll4JXvVKEFm93oI3Je/sv9Nfifj9aZLQamNOgy584TikTNpTq+MoH7Awx6qZfZY2+9CwdlwHlOXOAbA35zvNrvx6kurwxCHnM7o0HLUfTy0PVR0q24QWWnyTs91nqlgxlqdOK0fN+40uCxV5fF/lUsvYXJjTSm5WAuX7GiOfm4LDjP6FYGqWlR6tJDPxGl5OBgxP1IEwmns+SSgFVZIuJkmkT0Xu/24ky7B20yqJt8vTL5iCLpTdwX0Rs1+Xtbpp1VMVZna2XC2euzocldLd/h8tli2E2o8CklCWs+0uGWS0BOpUKnx7xRDt4BEbn+WgfOdHrM/nKdx8rXK2REZDHgazC1XhnNGc1gIZq13KsRvsI9d/NeyeMGnFXor7GL8LHJs7Vao8ucpYUKn1JycIzgnpGVCK0Dxk5iAjXkjxoZzI80OnGsxYWRZpcJmCqXSQmjOSPJzVxtzk3ERJz4ugoNt9uZ28iglqF6p0kpEsnL3aqUEip8SsnB2TEDdJjKwWhUGUt0p2+byTs9QoFj9R9GEh9qcZtanAGZlJTLEh6jOdm/cTmSNrU5KVDFiBU2kwQTzSnOWISPe6Fl8hbtOlT4lJKDYwUH1la/FaDD/SXN5ttezCAuf3DgbmQFEhnIT/f4MCzCVy7trPKw9N3sRkqONFIifOyRUIxXQDGlqPrE8fXUu9Cg+XsliwqfUnJwqTPv+Bo9NtPIU/TP7J/QiSjbBzsKHBSxY+H0gQYrWpiRneVEQmZOs6GM6fCREWXid6kYW24mmlPeG6YutAbsZslTt/ZKExU+peTgWEFXwT2+HnF9e2tkEJHRSvvwbR/UNkY9DtQ58a09AZMqwyW8ciQhX5rZcBpzYTactbqVFOOV+ORNa5X3qEkEjyUHy80Z7yb0k1FKDu7x0VUwVH6w3omT7R4TKEDRU90rLqwxyTJeLIAw3OQyTo+Oj30imV5STmzK62AxhFAqi/lYFotysFanXb5fhY7mNNVsZHLGiVqzuGSKHr/DGs1ZmqjwKSULK2qMyKD7yqAf3eI8lOLDyQXz9Rp8NnxjwI/ne7xokIGcgSzlNoRzaZzRnFZtzixW0pum8kyh4XvG1QifUxxyvQNNMknj3qhSuqjwKSULBw9Gxg02iPMQATwu7oNtlsQImkACDjZ0J5xt697f14NOj6LAQtPdNQ6M5Nxev0w4mFpSjrloJpozmsZCOG3K+/HvxYrmZElZU5uzwYlmmTSo8JU2KnxKScOegkycfqHbiz85UIujIoBcUmKUJ7vTsy4iB2wOPspXh66FNTjZ8urFTo8phM7+jdzXqy7TUYK1bdnaamYjZUVzihgVQ48opow89oszZlHqZr+joEupSuFR4VNKFjoMDiDcW2IvwmPtbpySAflZEcFjbW4cEFfCSiJtXhtqRRzZo5DxF3SExTj42PwdJiow9xzLnXy1Eb6mJhm4h+odOC7v7YgM4AwuYoeQch3EmcYwF0qL+GWQlut8jfJ/wXHI2+MXVW2U96tdJgsMbFHdK220O4NS8mzJ4ExHx8CEUCKLtXgWUzKLn5bZPLu0s83MsvwsmNxEVgbxYq16cvmqWv5grzXWfZRfVfZQ9OiYuY83XOeQiYUXr/T70SXXGaBRznUmx1aT+MH1IM5NR7GcYCeTTSN8hV6ypaAyAvYPR2rw3x+tNxMGrlRoYEvpke/OoMKnlB3p7KZpVGuOaMZU5WAAQ0iEj2JULOHjOEYdmBDBvbacRFzEj4GO5TjA0enll4f59Jmg/rI46eMdbDPkRp2Had7lCSc/nCTdks/oL66s48JM3Ah8ob8W3Bfl963BVY12r9005P2jg7UmIlYpTVT4lLLFhI/LwMZgBV6aQ0YgmdBbg1sRhY+8NR7BX1zdME1NrQr/5Sd8eafHZeQGZzWe6fTgj/bVmjqcXhm4WSS8XGFBavasvLyQwP9fPqdP5uKmnyPz9woJA6v4Hg7UOHCwQSYO4pRf2xMwxdWV0kSFT1GeEuaExVKb+PG9MP79p+tYFbfJSh3lKnxpmUC0+OwmYOh0pxcv9vlMHc5yJyKiN72RMoL3t3fCuCHOj3twnKQUkrhMuBgQdKLVhVe7PDgh7+FROdixQilNtBGtojwl0eSmiRKk4LHifzlDQ0cH1B1w4PUBP17os/L1KoFUZgtzuWjO5DZEcwZcNgw2ukzTWe0fWR6o8CnKExIRt0cnwWAaLq2WI/l8Pbez2nRaeKbDgz0ctH0Ok8NXCbC49nxYhE/Ej9GcjMgtsNl7AL8FrDDEaE7uixbr9yiFRYVPUZ6QcDKLifUUFiNps1RYjtCoMvfR77bhpT4fXpGDXTBMFGLuPuUOhW8uksVMWCYoWcvZFtPLekT4mvwO4/zU8JUHKnyK8oSwg/dkKI3lWBZVIiCs+Vgu0Omx0o1DXB0jOLmvx+osnbUOeB3WPmW5h98zmpORthuJLBZiGSzGsyYAisuPhXxt+XqmXnkve/02tHnt8GhtzrJChU9RnpCwDKqTISt1gg6inBLZ6fQYiMH+hmfa3SZ1oU9Ejy6lnHP1HoXCx8CWtbiIXmITKzJRodgXGr6XfNwacXoHZRLR7bNB41nKC/24FOVLYLpEVAZUJsivpbKIZKycsHJwSfnOAeyi3uGzY1+D09Q93dvoNInW/Hk5RqV+FvycmNvJAKSIfE5F0DwDH5aPXeuqxpC8n63sUaibe2WFCp+ifAmp7CaCiaxZQgumtxCXUa8YxY6LAQdoLss5xKIO19pxssWF/SJ8XXXOiss3M0EtoTSm11NIitsrVjRnHpYm6xfHZ0Vz5n6olAUqfIryJXDfaCmcxnqMjUy3zP5eqZN3enyqbOLLtIVj7R4ckYO5e8w1q5Qlzjzcz2Oz2WkRPyaxFzOak/hy0Zz1JppTla+cUOFTlC+BSet0EuuxrKmHxtl9qQ9zdKR0elvyROtd1Risc+BklxeH272orZB8vceh8M1HMpgJsSj1lklYL+YrZRpDqwgf389y7WCxW9GPS1G+BEZzjm+ksSiDarVYKDbILXXh4/NjNGOD24YTHR6c6faiUwZpDtaVth9lglrYaDaaMdGcS3I9IcpfrD1Yn70KnV4bWkTw2CKL5d0q6x2tfFT4FOVLYPHr++spLIjwcZnTKaNcqQ90PLG51MfAi+d6fHixz49muV6JMKcymMiY/Mr5eBbLMlFhkn6xYDRnn0wirDQGcZWqemWHCp+ifA75XnVR7vHJgLqRixSkiyjVaE6Tr5fdgkOcyNE2D17q8WKg3okal+VMKhHj+ETsOEFhZKfZ2CyC7uWr3rAjPVNB8tGcpfx9UD4bFT5F+RwochQ+9t5bTlL4NpGRwa+U4XOOyR8UPi5vfmPQbzqpmwE6d59Kw7zmFHP4NrEpfzHRnEV4sdRURo6y3Fsfozk1jaFsUeFTlM+B3RhYkHojVwGEA2ypQndKp1ctrm5/owvPd3hMrh6XN92iBJXsSviqWHKNIkQdKtar5OfPotQsUdZd50STKfWmwleOqPApyueQkFGOCdEUvkw298MShW6ETo/Cd6zFhdd7vKY0GXPNKnWJMw/1nAFH7C1YzLSCfDcGr8uGLnlvm2RSQcFVyg/92BTlc4imrG4MC+G0SWIvRej0mLZA49EjDuRIkwsHW9wYENdH0SuH6jJfF75GRqsGXNWoljciIz8rhjln78UWd7Vp3Ms6nRrNWb6o8CnK58CyV5NG+FjlvxhD6deHz4qJ6lVyJg/W2HFK3N5BOXrFkfhlgN4N0HXxtQYo9BQ+eVOKsSztFaFrl9/RJALrZgEAVb2yRYVPUT6HkDi++8E0ZqMZ5q2b9jalMtblnR71OCCDfm/AgaPtHhzv9Jp9Pe497ZZIQzo+7rvViSi1e21oFVfGotGMwGQk5teFEwu2cvKI4LGjRU+twyyrVvK+aaWjwqcon0MovYl7OeHj8OaQP0plmONwzgGZUaa1Muj31zhwvMOL411es/e0m+AyL+uO1nts6PSJ+MllXvjk/68N9/UiInxepw37m8VN1znNJEgpX1T4FOUx0tlNhBJZhJObiMuAl9kUoZHBr5Rm+HwWDOhgZZZnOj14ddBveuvtJqeXJ/+50PkeaXPjlIh/vdduLXnm7vN1cIu7a5LH7g7YsUccX5u4a/beU8oXFT5FeQymLlD4mBCdzAIM6CyAcSgoRvjkDwofB/rXBgOmJNluxu+i8Fnl2RpywleAlU54ZJRsEeFj8NBQI4WP+Xu5G5WyRD8+RXkMpjEshtNYi6axtbllCh2Xyvyee3t0oVviOI51ePDdPQEM1DmN+9vtq2/56E4uRX5nwI/vDflNyyC+XzyedM/PVGiR+3MPle93jzzet4cDOC2CSnEtJeevfDVU+BTlMdiGiN0Y1hjUQuGTMW6nx7ktGYB5cOnOdBUXlWOboe/I4M6ecAytL2YOWznAZV7uw3XXOvBtEb7fl/em1W8zgsfDErKH7+XnHaJ55v7cQyU9dQ58Z28Ap0T42IpIKX/0U1SUx8h3Y2BvNxkJSyKak0MwOw5k5ZkcbHLhW30+jDS6TEscRhgqD6EA0pkNNrjw/ZFa/A+Ha/Fajxd7RBBd9iqT6M9gFR68zokED14Py884iRiQ+74kQvcvD9XhtX4/Gr25SNnc71DKGxU+RcmRn/FbwpeyhE/EhsK3U27qgROR6yleyhl7QITvG70+7G1wotZth1M3nH4Lli7zu2ymOPfvi1P7Vwfq8KqI2LD8nY6Ne3+J3MGIzUePpByMEB2i8HV58c8O1OJlmWQ0mEhRXeKsFKqC4chWjd+X+6ui7F64n8MCLe9PRfEfLq3j7mrSOL6dnOdT9Dggk2avDb0yIH9jwI9nc5GLrM6ifDb8PMXEIZLMYi6YNk1q2a9vOZ7Fuhxc0s6Iw+OnS1Fzi+D5RDCb5H3ukIPFvVmTk2JpLXer6JU7oUjUXKrwKUoOdmJgabK3xqP4f3y8hvH1FGpkxGPgyHZDwTOXcnAZjgPzM60unGrz4Lk+Pw62e8ztytMTTogQhlJYi2VNWTq+1SzkzYlEm4gdS5/pnmllkhc+XSNRlBxJcQArLEotAyKtAtPAd3Loo9OTcRkBcSK9AbsJ1X+mx4dWua58dZwick0+h4nWHGpymaOvwWXeV0aF6l5e5aPCpyg5EhmrG8N6LGP6ulnLW7kbtxk6PVZlyci1egZqyCB9WITvGEuS+Xd3vt7XxWWvRqPPjk55Tyl4/Y0udNc7zfvKJrO6l1f5qPApSo6YOL5pRnOG0kgyAmIH4bDrkMG3Rgbi4x0efHtPAL11KniKUghU+BQlB/d7poKM5mQbIivoYbvh3h6DMii7dB9tXjuOitN7qd+PrlqndSdFUb4WKnyKkiMsju++uL3pSMaIz07l7yU35ZDLg61u/JORGgw3uXLBFtbtiqJ8PVT4lF0PXVZ208rfmwoz5D2LLREfqwzY9qhN3umZRu9yVrrE7R1oceGNAT/665xm30mjDBWlMKjwKbseNpkNJ62i1Am5boob527bTuj04nLsrXfi9/p9pkJLncdmqo0oilI4VPiUXQ+FbyOeRTCRteo5ys+2S/jo9Izb43XRN7a7GW504bUeVmZxma7iWplFUQqLnlHKrodpDOzGsBpJY1NEcLvz96x8vS3TRPVMiwuHm63cMro9RVEKjwqfsutJZTaxHrMc33bm75mSWrzkX+QX9gQcONPuNl2+u+qcxu0pilJ4VPgUZYcwxZLFYXpEadvF3R1scePZPnZS17QFRSkmKnyKskPkozhZ+X+40Yn9InwH2jxo8mlJMkUpJip8irJDMEXBK27vaJsb399fi71NrtwtiqIUExU+RamSEyF3bMPWHrLi9Njdu9ZpQ1+tA0da3Xiux4fOGi1JpijbgQqfsuuxVVWZlAGnrXpbihOz4wI7fQ81OfHH4vQOtLhNZRb59YqibAN6qim7HrahYTsaNiKtlusmyrIIiXx5p8e2OPUeG/Y1u/Fyrw99WplFUbYVFT5l1+MUt0UhMt3MRXvEjBUlgZ1OLyQPzi7qfzDgx5EWl/m9bocKnqJsJyp8yq6Hy4y1InpMGPfYq2EX51VI85V3enSWfnGVexuceKXHiz1y6XPZzBKroijbh55xyq6Hwsdk8UYRvla5bHBWmV54hSLv9Bo91TgtLu9Isxt7W9xo9GragqLsBCp8yq6HTswjTqzJa8Peege6Aw5TM5MuLSMHHRvraT4t/HcsRVYtZ5lPHn+gzolnOz3Y1+RCm/wOv7g9RVG2HxU+RcnR4rPj+V4fjnZ4YLNXISIuLSbCRfH6Knt++ejNOhG4ow1OnJbHfbHfj165rijKzqHCpyg5akSghptdONzmNs1fu2ocaHDb4LZXm4AXCmD+oBN8/KBD5G3yP9hJqNZVjS5xdnR4Z8TpHW51Y1CuN+gSp6LsIMD/CdzhcFX20dk7AAAAAElFTkSuQmCC;" vertex="1" parent="1">
          <mxGeometry x="100" y="241.03" width="120.81" height="120" as="geometry" />
        </mxCell>
        <mxCell id="QlViP-bCRDP4DbnAVqdV-4" value="&lt;b&gt;Weather API&lt;/b&gt;" style="text;html=1;align=center;verticalAlign=middle;whiteSpace=wrap;rounded=0;" vertex="1" parent="1">
          <mxGeometry x="120.4" y="361.03" width="80" height="30" as="geometry" />
        </mxCell>
      </root>
    </mxGraphModel>
  </diagram>
</mxfile>
